<svg xmlns="http://www.w3.org/2000/svg" xmlns:xlink="http://www.w3.org/1999/xlink" width="150.943" height="120" viewBox="0 0 150.943 120">
  <defs>
    <linearGradient id="linear-gradient" x1="0.5" y1="1" x2="0.5" gradientUnits="objectBoundingBox">
      <stop offset="0" stop-color="gray" stop-opacity="0.251"/>
      <stop offset="0.54" stop-color="gray" stop-opacity="0.122"/>
      <stop offset="1" stop-color="gray" stop-opacity="0.102"/>
    </linearGradient>
  </defs>
  <g id="Img" transform="translate(0 -0.008)">
    <path id="Path_1606" data-name="Path 1606" d="M188.444,85.877c-9.551-.332-18.649-3.415-27.335-6.788s-17.289-7.111-26.612-8.9c-6-1.15-12.853-1.312-17.683,1.9-4.65,3.1-6.152,8.433-6.959,13.388-.608,3.727-.965,7.65.7,11.139,1.155,2.423,3.208,4.459,4.626,6.788,4.939,8.075,1.449,18.032-3.9,25.916-2.509,3.7-5.423,7.231-7.359,11.165s-2.833,8.448-1.139,12.465c1.681,3.984,5.684,6.971,10.02,9.074,8.809,4.272,19.184,5.494,29.309,6.186,22.406,1.533,44.93.869,67.394.205,8.314-.246,16.664-.5,24.842-1.781,4.542-.714,9.231-1.846,12.529-4.582a10.493,10.493,0,0,0,2.419-13.706c-4.706-7.3-17.709-9.116-21-16.955-1.809-4.313.05-9.118,2.68-13.12,5.643-8.582,15.1-16.112,15.6-25.922.342-6.739-4.206-13.486-11.236-16.674-7.368-3.354-17.589-2.929-23.023,2.6C206.714,83.982,196.877,86.169,188.444,85.877Z" transform="translate(-99.922 -65.591)" fill="#ff9f26" opacity="0.1"/>
    <path id="Path_1607" data-name="Path 1607" d="M114.709,441.248,64.181,441,59.16,429.225l17.753-1.289-3.094-12.911,35.113-4.551L75.308,398.786l2.97-.706,54.067,8.82-2.978,20.149-4.256,11.073Z" transform="translate(-50.427 -339.339)" fill="#ff9f26"/>
    <path id="Path_1608" data-name="Path 1608" d="M187,698.562a5.8,5.8,0,0,1,4.96,1.695s-1.364,1.075-4.3-.413Z" transform="translate(-172.471 -601.842)" fill="#ff9f26"/>
    <path id="Path_1609" data-name="Path 1609" d="M177.446,698.51a5.782,5.782,0,0,0-1,5.145s1.612-.645,1.788-3.931Z" transform="translate(-163.242 -601.839)" fill="#ff9f26"/>
    <path id="Path_1610" data-name="Path 1610" d="M172.76,666.854s1.24-2.275,6.2.909a2.784,2.784,0,0,1-2.852,1.405A3.362,3.362,0,0,1,172.76,666.854Z" transform="translate(-160.333 -574.176)" fill="#ff9f26"/>
    <path id="Path_1611" data-name="Path 1611" d="M154.293,670.276s-2.573-.3-2.823,5.595a2.785,2.785,0,0,0,2.79-1.525A3.356,3.356,0,0,0,154.293,670.276Z" transform="translate(-142.186 -577.763)" fill="#ff9f26"/>
    <path id="Path_1612" data-name="Path 1612" d="M160.44,625.863s1.447-4.009,6.7-1.157c0,0-1.2,3.679-6.159,2.521Z" transform="translate(-149.832 -538.046)" fill="#ff9f26"/>
    <path id="Path_1613" data-name="Path 1613" d="M149.52,586.941s2.728-4.051,7.564-.3c0,0-1.695,3.8-7.151,1.736Z" transform="translate(-140.524 -505.115)" fill="#ff9f26"/>
    <path id="Path_1614" data-name="Path 1614" d="M145.6,549.67s3.183-3.722,7.972,0c0,0-3.017,3.265-7.972.951Z" transform="translate(-137.183 -473.546)" fill="#ff9f26"/>
    <path id="Path_1615" data-name="Path 1615" d="M142.24,511.356s3.224-3.885,7.812-.207c0,0-3.637,3.431-7.812,1.116Z" transform="translate(-134.319 -440.77)" fill="#ff9f26"/>
    <path id="Path_1616" data-name="Path 1616" d="M144.2,472.259s3.4-5,7.688-1.612c0,0-3.637,4.3-7.688,2.563Z" transform="translate(-135.989 -406.59)" fill="#ff9f26"/>
    <path id="Path_1617" data-name="Path 1617" d="M149.52,434.484s3.6-4.96,7.771-1.157c0,0-4.257,4.3-7.771,2.067Z" transform="translate(-140.524 -374.558)" fill="#ff9f26"/>
    <path id="Path_1618" data-name="Path 1618" d="M156.566,395.941s4.257-4.662,7.972-2.8c0,0-4.436,4.951-8.158,4.042Z" transform="translate(-146.371 -341.15)" fill="#ff9f26"/>
    <path id="Path_1619" data-name="Path 1619" d="M165.708,357.471s4.913-5.71,7.771-3.8c0,0-3.62,4.429-8.119,4.872Z" transform="translate(-154.026 -307.547)" fill="#ff9f26"/>
    <path id="Path_1620" data-name="Path 1620" d="M178.937,322.128s4.3-4.662,7.442-3.5c0,0-3.679,4.836-8.019,4.96Z" transform="translate(-165.107 -277.848)" fill="#ff9f26"/>
    <path id="Path_1621" data-name="Path 1621" d="M194.247,285.874s4.753-4.464,6.82-3.679c0,0-3.431,4.96-7.027,4.671Z" transform="translate(-178.472 -246.873)" fill="#ff9f26"/>
    <path id="Path_1622" data-name="Path 1622" d="M208.32,246.068s4.092-5.334,6.326-4.92c0,0-2.482,4.755-6.326,5.462Z" transform="translate(-190.644 -211.944)" fill="#ff9f26"/>
    <path id="Path_1623" data-name="Path 1623" d="M221.439,206.509s3.617-4.088,5.571-4.079c0,0-2.855,5.462-5.72,5.412Z" transform="translate(-201.699 -178.958)" fill="#ff9f26"/>
    <path id="Path_1624" data-name="Path 1624" d="M228.014,151.235l3.494-8.515s.174,7.7-3.939,10.094Z" transform="translate(-207.052 -128.055)" fill="#ff9f26"/>
    <path id="Path_1625" data-name="Path 1625" d="M240.054,92.39s.579-7.111.207-7.69c0,0,2.5,5.912-.23,10.831Z" transform="translate(-217.673 -78.6)" fill="#ff9f26"/>
    <path id="Path_1626" data-name="Path 1626" d="M125.058,635.2s-3.623-2.245-5.968,3.248c0,0,3.224,2.141,6.395-1.847Z" transform="translate(-114.586 -547.475)" fill="#ff9f26"/>
    <path id="Path_1627" data-name="Path 1627" d="M110.629,594.3s-4.443-2.027-6.6,3.708c0,0,3.432,2.362,7-2.259Z" transform="translate(-101.749 -512.706)" fill="#ff9f26"/>
    <path id="Path_1628" data-name="Path 1628" d="M98.172,551.98s-3.183-3.722-7.972,0c0,0,3.017,3.265,7.972.951Z" transform="translate(-89.961 -475.515)" fill="#ff9f26"/>
    <path id="Path_1629" data-name="Path 1629" d="M96.392,511.356s-3.224-3.885-7.812-.207c0,0,3.637,3.431,7.812,1.116Z" transform="translate(-88.58 -440.77)" fill="#ff9f26"/>
    <path id="Path_1630" data-name="Path 1630" d="M102.757,467.418s-2.262-5.6-7.177-3.193c0,0,2.657,4.967,6.977,4.123Z" transform="translate(-94.547 -401.608)" fill="#ff9f26"/>
    <path id="Path_1631" data-name="Path 1631" d="M109.683,427.571s-2.248-5.7-7.233-3.057c0,0,3.053,5.224,7.012,3.937Z" transform="translate(-100.402 -367.673)" fill="#ff9f26"/>
    <path id="Path_1632" data-name="Path 1632" d="M131.909,375.538s-.886-6.249-5.019-6.808c0,0,.877,6.59,4.463,7.935Z" transform="translate(-121.235 -320.718)" fill="#ff9f26"/>
    <path id="Path_1633" data-name="Path 1633" d="M146.7,336.772s-.345-7.529-3.763-7.792c0,0,.115,5.714,3.378,8.857Z" transform="translate(-134.915 -286.834)" fill="#ff9f26"/>
    <path id="Path_1634" data-name="Path 1634" d="M159.951,301.435s-1.019-6.261-4.281-7.025c0,0,.4,6.063,3.958,8.562Z" transform="translate(-145.766 -257.365)" fill="#ff9f26"/>
    <path id="Path_1635" data-name="Path 1635" d="M184.718,264.81s-.034-6.522-2.027-7.48c0,0-1.236,5.9,1.45,8.313Z" transform="translate(-168.557 -225.757)" fill="#ff9f26"/>
    <path id="Path_1636" data-name="Path 1636" d="M195.352,229.872s-.279-6.715-2.343-7.662c0,0-.706,5.314,2.034,8.1Z" transform="translate(-177.524 -195.82)" fill="#ff9f26"/>
    <path id="Path_1637" data-name="Path 1637" d="M212.9,194.753s-.012-5.462-1.485-6.743c0,0-1.464,5.983.716,7.842Z" transform="translate(-192.869 -166.667)" fill="#ff9f26"/>
    <path id="Path_1638" data-name="Path 1638" d="M217.971,146.091,216.538,137s-1.947,7.449,1.5,10.732Z" transform="translate(-197.181 -123.179)" fill="#ff9f26"/>
    <path id="Path_1639" data-name="Path 1639" d="M210.487,98.161s-3.679-6.112-3.6-6.791c0,0,.391,6.405,5.019,9.6Z" transform="translate(-189.418 -84.285)" fill="#ff9f26"/>
    <path id="Path_1640" data-name="Path 1640" d="M205.1,70.963s-3.472-8.68-5.043-9.383a11,11,0,0,1,5.332,9.135Z" transform="translate(-183.603 -58.893)" fill="#ff9f26"/>
    <path id="Path_1641" data-name="Path 1641" d="M219.8,138.808l-.238-.072c2.93-9.556,3.661-15.648,2.059-17.176l.17-.18C223.488,122.992,222.8,129.018,219.8,138.808Z" transform="translate(-200.224 -109.865)" fill="#444053"/>
    <path id="Path_1642" data-name="Path 1642" d="M164.481,257.782l-.351-.125c.311-.875.647-1.764,1-2.639,3.059-7.623,5.663-14.715,7.332-20.159l.306-.148c-1.673,5.455-4.231,12.818-7.293,20.452C165.123,256.021,164.79,256.9,164.481,257.782Z" transform="translate(-152.977 -206.477)" fill="#444053"/>
    <path id="Path_1643" data-name="Path 1643" d="M151.175,438.8a48.287,48.287,0,0,1-8.107-14.53,53.761,53.761,0,0,1-3.2-16.649,62.829,62.829,0,0,1,3.818-22.245l.278.325c-5.734,16.175-3.456,30.035-.434,38.382a47.838,47.838,0,0,0,8.017,14.39Z" transform="translate(-132.278 -334.934)" fill="#444053"/>
    <path id="Path_1644" data-name="Path 1644" d="M539.424,670.36s-3.347,4.085-.689,10.26l-26.72,11.588-2.564.537-1.181-5.167.79-6.521v-3.564Z" transform="translate(-446.341 -577.844)" fill="#d5d6db"/>
    <path id="Path_1645" data-name="Path 1645" d="M59.16,570.132l36.982-6.742,49,7.806-30.437,10.958Z" transform="translate(-50.427 -480.248)" fill="#ff9f26"/>
    <path id="Path_1646" data-name="Path 1646" d="M59.16,570.132l36.982-6.742,49,7.806-30.437,10.958Z" transform="translate(-50.427 -480.248)" fill="#ff9f26"/>
    <path id="Path_1647" data-name="Path 1647" d="M139.7,652.47s-3.459,6.553.527,12.606l54.842,11.883s-3.4-5.22.176-12.465Z" transform="translate(-130.968 -562.595)" fill="#ff9f26"/>
    <path id="Path_1648" data-name="Path 1648" d="M139.7,652.47s-3.459,6.553.527,12.606l54.842,11.883s-3.4-5.22.176-12.465Z" transform="translate(-130.968 -562.595)" opacity="0.1"/>
    <path id="Path_1649" data-name="Path 1649" d="M153.737,667.86s-1.977,4.795,0,7.9" transform="translate(-143.37 -575.706)" opacity="0.1"/>
    <path id="Path_1650" data-name="Path 1650" d="M206.152,742.924l30.617-13.065s1.712.369.605,1.624-30.632,12.7-30.632,12.7L151.31,731.041Z" transform="translate(-142.05 -628.561)" fill="#ff9f26"/>
    <path id="Path_1651" data-name="Path 1651" d="M206.152,742.924l30.617-13.065s1.712.369.605,1.624-30.632,12.7-30.632,12.7L151.31,731.041Z" transform="translate(-142.05 -628.561)" opacity="0.1"/>
    <path id="Path_1652" data-name="Path 1652" d="M498.233,742.86s-2.952,3.543,0,8.857" transform="translate(-436.662 -639.642)" opacity="0.1"/>
    <rect id="Rectangle_229" data-name="Rectangle 229" width="13.961" height="0.148" transform="translate(62.62 107.577) rotate(-18.45)" opacity="0.1"/>
    <rect id="Rectangle_230" data-name="Rectangle 230" width="17.01" height="0.148" transform="translate(62.615 108.765) rotate(-20.82)" opacity="0.1"/>
    <rect id="Rectangle_231" data-name="Rectangle 231" width="19.716" height="0.148" transform="translate(62.703 110.166) rotate(-22.26)" opacity="0.1"/>
    <rect id="Rectangle_232" data-name="Rectangle 232" width="22.695" height="0.148" transform="translate(62.915 111.401) rotate(-24.31)" opacity="0.1"/>
    <rect id="Rectangle_233" data-name="Rectangle 233" width="24.823" height="0.148" transform="matrix(0.916, -0.401, 0.401, 0.916, 63.079, 112.002)" opacity="0.1"/>
    <rect id="Rectangle_234" data-name="Rectangle 234" width="29.705" height="0.148" transform="translate(63.421 113.012) rotate(-23.36)" opacity="0.1"/>
    <path id="Path_1653" data-name="Path 1653" d="M152.23,582.4l25.981-5.462,15.828,3.026-21.29,6.864Z" transform="translate(-129.757 -491.796)" fill="#fff" opacity="0.3"/>
    <path id="Path_1654" data-name="Path 1654" d="M554.441,659.69s1.343.542.555,1.379-31,9.579-31,9.579Z" transform="translate(-459.75 -568.742)" fill="#ff9f26"/>
    <path id="Path_1655" data-name="Path 1655" d="M638.723,574.18s-3.345,4.083-.688,10.26l-26.72,11.588-2.564.54L607.57,591.4l.8-6.519v-3.568Z" transform="translate(-530.988 -495.854)" fill="#d5d6db"/>
    <path id="Path_1656" data-name="Path 1656" d="M158.46,473.95l36.981-6.74,49,7.806-30.437,10.958Z" transform="translate(-135.086 -398.261)" fill="#3a3768"/>
    <path id="Path_1657" data-name="Path 1657" d="M238.955,556.29s-3.46,6.553.526,12.605l54.842,11.884s-3.4-5.224.182-12.467Z" transform="translate(-215.569 -480.605)" fill="#3a3768"/>
    <path id="Path_1658" data-name="Path 1658" d="M238.955,556.29s-3.46,6.553.526,12.605l54.842,11.884s-3.4-5.224.182-12.467l-17.343-3.754Z" transform="translate(-215.569 -480.605)" opacity="0.1"/>
    <path id="Path_1659" data-name="Path 1659" d="M253.031,571.68s-1.975,4.793,0,7.9" transform="translate(-228.006 -493.719)" opacity="0.1"/>
    <path id="Path_1660" data-name="Path 1660" d="M305.442,646.745,336.06,633.68s1.711.369.6,1.624S306.032,648,306.032,648L250.6,634.861Z" transform="translate(-226.701 -546.572)" fill="#3a3768"/>
    <path id="Path_1661" data-name="Path 1661" d="M305.442,646.745,336.06,633.68s1.711.369.6,1.624S306.032,648,306.032,648L250.6,634.861Z" transform="translate(-226.701 -546.572)" opacity="0.1"/>
    <path id="Path_1662" data-name="Path 1662" d="M597.523,646.68s-2.952,3.543,0,8.857" transform="translate(-521.299 -557.652)" opacity="0.1"/>
    <rect id="Rectangle_235" data-name="Rectangle 235" width="13.961" height="0.148" transform="translate(77.273 93.389) rotate(-18.45)" opacity="0.1"/>
    <rect id="Rectangle_236" data-name="Rectangle 236" width="17.01" height="0.148" transform="translate(77.27 94.577) rotate(-20.82)" opacity="0.1"/>
    <rect id="Rectangle_237" data-name="Rectangle 237" width="19.716" height="0.148" transform="translate(77.356 95.975) rotate(-22.26)" opacity="0.1"/>
    <rect id="Rectangle_238" data-name="Rectangle 238" width="22.695" height="0.148" transform="translate(77.57 97.211) rotate(-24.31)" opacity="0.1"/>
    <rect id="Rectangle_239" data-name="Rectangle 239" width="24.823" height="0.148" transform="matrix(0.916, -0.401, 0.401, 0.916, 77.731, 97.81)" opacity="0.1"/>
    <rect id="Rectangle_240" data-name="Rectangle 240" width="29.705" height="0.148" transform="translate(78.074 98.819) rotate(-23.36)" opacity="0.1"/>
    <path id="Path_1663" data-name="Path 1663" d="M251.53,486.222l25.982-5.462,15.828,3.026-21.29,6.864Z" transform="translate(-214.416 -409.809)" fill="#fff" opacity="0.45"/>
    <path id="Path_1664" data-name="Path 1664" d="M653.767,563.51s1.342.542.555,1.377-30.992,9.579-30.992,9.579Z" transform="translate(-544.423 -486.755)" fill="#3a3768"/>
    <path id="Path_1665" data-name="Path 1665" d="M648.148,464.15s-3.347,7.332-.689,13.507L620.739,486l-2.558.542L617,481.373l.79-6.521v-3.568Z" transform="translate(-539.027 -402.06)" fill="#d5d6db"/>
    <path id="Path_1666" data-name="Path 1666" d="M167.89,363.922l36.982-6.742,49,7.806-30.438,10.958Z" transform="translate(-143.125 -304.467)" fill="#ff9f26"/>
    <path id="Path_1667" data-name="Path 1667" d="M248.407,446.26s-3.465,6.553.521,12.605l54.842,11.884s-3.4-5.224.18-12.465Z" transform="translate(-223.636 -386.811)" fill="#ff9f26"/>
    <path id="Path_1668" data-name="Path 1668" d="M248.407,446.26s-3.465,6.553.521,12.605l54.842,11.884s-3.4-5.224.18-12.465Z" transform="translate(-223.636 -386.811)" opacity="0.1"/>
    <path id="Path_1669" data-name="Path 1669" d="M262.467,461.65s-1.977,4.795,0,7.9" transform="translate(-236.049 -399.926)" opacity="0.1"/>
    <path id="Path_1670" data-name="Path 1670" d="M314.882,543.534l30.617-9.817s1.712.369.605,1.624-30.632,9.448-30.632,9.448L260.04,531.65Z" transform="translate(-234.749 -459.598)" fill="#ff9f26"/>
    <path id="Path_1671" data-name="Path 1671" d="M314.882,543.534l30.617-9.817s1.712.369.605,1.624-30.632,9.448-30.632,9.448L260.04,531.65Z" transform="translate(-234.749 -459.598)" opacity="0.1"/>
    <path id="Path_1672" data-name="Path 1672" d="M606.963,536.65s-2.952,3.543,0,8.857" transform="translate(-529.346 -463.859)" opacity="0.1"/>
    <rect id="Rectangle_241" data-name="Rectangle 241" width="13.961" height="0.148" transform="translate(78.667 77.152) rotate(-18.45)" opacity="0.1"/>
    <rect id="Rectangle_242" data-name="Rectangle 242" width="17.01" height="0.148" transform="translate(78.662 78.34) rotate(-20.82)" opacity="0.1"/>
    <rect id="Rectangle_243" data-name="Rectangle 243" width="19.716" height="0.148" transform="translate(78.747 79.74) rotate(-22.26)" opacity="0.1"/>
    <rect id="Rectangle_244" data-name="Rectangle 244" width="22.695" height="0.148" transform="translate(78.963 80.974) rotate(-24.31)" opacity="0.1"/>
    <rect id="Rectangle_245" data-name="Rectangle 245" width="24.823" height="0.148" transform="matrix(0.916, -0.401, 0.401, 0.916, 79.125, 81.574)" opacity="0.1"/>
    <rect id="Rectangle_246" data-name="Rectangle 246" width="29.705" height="0.148" transform="translate(79.467 82.585) rotate(-23.36)" opacity="0.1"/>
    <path id="Path_1673" data-name="Path 1673" d="M260.96,376.192l25.982-5.462,15.828,3.026-21.29,6.864Z" transform="translate(-222.455 -316.016)" fill="#fff" opacity="0.3"/>
    <path id="Path_1674" data-name="Path 1674" d="M663.2,453.48s1.343.542.555,1.379-30.992,9.579-30.992,9.579Z" transform="translate(-552.461 -392.962)" fill="#ff9f26"/>
    <path id="Path_1675" data-name="Path 1675" d="M370.087,149.878s-5.61-.338-4.954,3.6a.96.96,0,0,0,.5,1.011s.01-.3.576-.193a2.517,2.517,0,0,0,.611.03,1.273,1.273,0,0,0,.746-.307h0a4.458,4.458,0,0,0,2.192-3.233s.455-.562.443-.707l-.951.4a1.7,1.7,0,0,1,.069,1.252s-.031-1.227-.214-1.2c-.037,0-.492.238-.492.238a2.8,2.8,0,0,1,.136,2.056s.159-1.467-.31-1.971l-.667.39a2.945,2.945,0,0,1,.21,2.234,4.186,4.186,0,0,0-.35-2.139l-.605.472a2.877,2.877,0,0,1,.239,2.045s-.049-1.792-.369-1.928a3.65,3.65,0,0,0-.61.658s.419.886.158,1.345c0,0-.158-1.194-.3-1.2a3.974,3.974,0,0,0-.582,1.329,2.873,2.873,0,0,1,.453-1.408,1.581,1.581,0,0,0-.806.418s.081-.559.937-.608a3.628,3.628,0,0,1,.552-.636,3.456,3.456,0,0,0-1.367.156,1.549,1.549,0,0,1,1.522-.3l.59-.487a5.094,5.094,0,0,0-1.594.016,1.942,1.942,0,0,1,1.755-.127l.651-.388a5.916,5.916,0,0,0-1.523-.131,2.338,2.338,0,0,1,1.714.027l.464-.208s-.7-.137-.9-.159-.216-.078-.216-.078a2.437,2.437,0,0,1,1.314.148A5.857,5.857,0,0,0,370.087,149.878Z" transform="translate(-324.276 -134.15)" fill="#ff9f26"/>
    <path id="Path_1676" data-name="Path 1676" d="M904.687,259.458s-5.61-.338-4.954,3.6a.96.96,0,0,0,.5,1.011s.01-.3.576-.193a2.6,2.6,0,0,0,.611.03,1.268,1.268,0,0,0,.738-.307h0a4.454,4.454,0,0,0,2.192-3.233s.455-.562.443-.707l-.948.4a1.7,1.7,0,0,1,.069,1.252s-.031-1.227-.213-1.2c-.037,0-.493.238-.493.238a2.806,2.806,0,0,1,.137,2.056s.159-1.467-.312-1.971l-.667.39a2.945,2.945,0,0,1,.21,2.233,4.185,4.185,0,0,0-.35-2.139l-.6.472a2.879,2.879,0,0,1,.238,2.045s-.049-1.792-.369-1.928a3.7,3.7,0,0,0-.61.658s.419.886.159,1.345c0,0-.159-1.194-.3-1.2a3.973,3.973,0,0,0-.582,1.329,2.863,2.863,0,0,1,.455-1.408,1.588,1.588,0,0,0-.807.418s.083-.559.937-.608a3.686,3.686,0,0,1,.552-.638,3.47,3.47,0,0,0-1.367.158,1.548,1.548,0,0,1,1.522-.3l.59-.487a5.094,5.094,0,0,0-1.594.016,1.941,1.941,0,0,1,1.755-.127l.65-.388a5.916,5.916,0,0,0-1.524-.131,2.339,2.339,0,0,1,1.714.027l.465-.208s-.7-.137-.9-.159-.216-.078-.216-.078a2.419,2.419,0,0,1,1.314.148A5.962,5.962,0,0,0,904.687,259.458Z" transform="translate(-779.985 -227.565)" fill="#ff9f26" opacity="0.1"/>
    <path id="Path_1677" data-name="Path 1677" d="M427.219,295.785s-2.445-5.068-5.556-2.57a.959.959,0,0,0-.639.929s.258-.134.443.409a2.612,2.612,0,0,0,.272.546,1.274,1.274,0,0,0,.633.5h0a4.454,4.454,0,0,0,3.891.337,2.525,2.525,0,0,0,.83.037l-.815-.63a1.714,1.714,0,0,1-1.06.67s1.057-.624.943-.769c-.024-.03-.443-.314-.443-.314a2.8,2.8,0,0,1-1.729,1.122s1.358-.576,1.568-1.233l-.664-.393a2.946,2.946,0,0,1-1.848,1.272s1.4-.651,1.7-1.348l-.706-.3s-.76,1.125-1.67,1.206c0,0,1.541-.917,1.5-1.264a3.741,3.741,0,0,0-.872-.211s-.564.8-1.1.8c0,0,.964-.722.9-.839a3.9,3.9,0,0,0-1.447.148,2.874,2.874,0,0,1,1.451-.3,1.59,1.59,0,0,0-.759-.5s.528-.2.988.521a3.642,3.642,0,0,1,.825.171,3.466,3.466,0,0,0-.8-1.115s.682.137.994,1.181l.716.283a4.924,4.924,0,0,0-.791-1.383s.673.249.967,1.476l.655.378a5.842,5.842,0,0,0-.627-1.394,2.339,2.339,0,0,1,.812,1.509l.409.3s-.221-.678-.3-.867-.037-.227-.037-.227a2.422,2.422,0,0,1,.514,1.218A5.51,5.51,0,0,0,427.219,295.785Z" transform="translate(-371.964 -255.756)" fill="#ff9f26" opacity="0.1"/>
    <path id="Path_1678" data-name="Path 1678" d="M811,192.165s-2.443-5.068-5.557-2.57a.961.961,0,0,0-.639.929s.26-.133.443.409a2.559,2.559,0,0,0,.273.548,1.267,1.267,0,0,0,.632.5h0a4.459,4.459,0,0,0,3.891.338,2.537,2.537,0,0,0,.831.035l-.811-.632a1.712,1.712,0,0,1-1.058.672s1.056-.626.942-.771c-.024-.03-.443-.314-.443-.314a2.8,2.8,0,0,1-1.729,1.122s1.36-.576,1.569-1.231l-.675-.39a2.947,2.947,0,0,1-1.848,1.273s1.4-.652,1.7-1.349l-.707-.3s-.76,1.126-1.668,1.206c0,0,1.54-.917,1.5-1.262a3.652,3.652,0,0,0-.871-.211s-.564.794-1.1.794c0,0,.965-.722.906-.838a3.9,3.9,0,0,0-1.448.148,2.872,2.872,0,0,1,1.451-.3,1.581,1.581,0,0,0-.757-.5s.528-.2.988.521a3.655,3.655,0,0,1,.825.173,3.456,3.456,0,0,0-.8-1.116s.682.139.994,1.188l.717.283a4.926,4.926,0,0,0-.791-1.385s.673.249.965,1.476l.657.378a5.9,5.9,0,0,0-.629-1.394,2.332,2.332,0,0,1,.812,1.509l.409.3s-.22-.678-.3-.867-.037-.226-.037-.226a2.429,2.429,0,0,1,.512,1.218A5.667,5.667,0,0,0,811,192.165Z" transform="translate(-699.11 -167.427)" fill="#ff9f26" opacity="0.1"/>
    <path id="Path_1679" data-name="Path 1679" d="M863.864,361.967s-2.443-5.069-5.561-2.572a.961.961,0,0,0-.639.929s.26-.133.443.409a2.563,2.563,0,0,0,.272.548,1.267,1.267,0,0,0,.632.5h0a4.455,4.455,0,0,0,3.893.338s.712.123.83.035l-.815-.63a1.713,1.713,0,0,1-1.06.672s1.056-.626.942-.771c-.024-.03-.443-.314-.443-.314a2.8,2.8,0,0,1-1.729,1.123s1.359-.577,1.569-1.233l-.666-.393a2.941,2.941,0,0,1-1.848,1.273s1.4-.652,1.7-1.349l-.707-.3s-.76,1.125-1.668,1.206c0,0,1.541-.917,1.5-1.264a3.667,3.667,0,0,0-.873-.211s-.564.794-1.1.794c0,0,.965-.722.906-.838a3.9,3.9,0,0,0-1.448.148,2.881,2.881,0,0,1,1.453-.3,1.578,1.578,0,0,0-.759-.5s.529-.2.988.521a3.639,3.639,0,0,1,.825.171,3.482,3.482,0,0,0-.8-1.116s.682.139.993,1.188l.716.283a4.9,4.9,0,0,0-.791-1.383s.673.248.965,1.476l.657.376a5.9,5.9,0,0,0-.629-1.394,2.338,2.338,0,0,1,.813,1.51l.409.3s-.221-.678-.3-.867-.037-.226-.037-.226a2.413,2.413,0,0,1,.512,1.218A5.974,5.974,0,0,0,863.864,361.967Z" transform="translate(-744.169 -312.171)" fill="#ff9f26" opacity="0.1"/>
    <ellipse id="Ellipse_232" data-name="Ellipse 232" cx="3.394" cy="0.379" rx="3.394" ry="0.379" transform="translate(26.409 114.966)" fill="#ff9f26" opacity="0.1"/>
    <ellipse id="Ellipse_233" data-name="Ellipse 233" cx="3.394" cy="0.379" rx="3.394" ry="0.379" transform="translate(4.17 108.518)" fill="#ff9f26" opacity="0.1"/>
    <ellipse id="Ellipse_234" data-name="Ellipse 234" cx="3.394" cy="0.379" rx="3.394" ry="0.379" transform="translate(43.362 119.249)" fill="#ff9f26" opacity="0.1"/>
    <ellipse id="Ellipse_235" data-name="Ellipse 235" cx="3.394" cy="0.379" rx="3.394" ry="0.379" transform="translate(130.231 109.921)" fill="#ff9f26" opacity="0.1"/>
    <ellipse id="Ellipse_236" data-name="Ellipse 236" cx="3.394" cy="0.379" rx="3.394" ry="0.379" transform="translate(102.005 108.08)" fill="#ff9f26" opacity="0.1"/>
    <ellipse id="Ellipse_237" data-name="Ellipse 237" cx="4.014" cy="0.689" rx="4.014" ry="0.689" transform="translate(83.121 116.438)" fill="#ff9f26" opacity="0.1"/>
    <path id="Path_1680" data-name="Path 1680" d="M670.789,790.14s-5.589,2.888-2.7,6.289a1.08,1.08,0,0,0,1.057.687s-.156-.286.443-.515a2.88,2.88,0,0,0,.6-.32,1.419,1.419,0,0,0,.54-.722h0s1.143-1.529.257-4.359a2.806,2.806,0,0,0,.015-.93l-.679.932a1.9,1.9,0,0,1,.782,1.163s-.738-1.162-.886-1.033c-.032.027-.337.509-.337.509a3.127,3.127,0,0,1,1.306,1.9s-.685-1.5-1.425-1.715l-.424.756a3.283,3.283,0,0,1,1.476,2.025s-.772-1.543-1.56-1.854l-.311.8s1.281.815,1.4,1.828c0,0-1.072-1.693-1.457-1.64a4.09,4.09,0,0,0-.21.982s.9.605.921,1.2c0,0-.836-1.056-.964-.986a4.448,4.448,0,0,0,.2,1.613,3.185,3.185,0,0,1-.37-1.613,1.77,1.77,0,0,0-.536.862s-.241-.583.552-1.12a4.081,4.081,0,0,1,.167-.927,3.891,3.891,0,0,0-1.222.933s.134-.766,1.3-1.147l.3-.809a5.5,5.5,0,0,0-1.522.927s.258-.76,1.614-1.125l.4-.738a6.782,6.782,0,0,0-1.538.738,2.614,2.614,0,0,1,1.662-.955l.326-.465s-.75.267-.96.363-.251.049-.251.049a2.715,2.715,0,0,1,1.345-.611A6.582,6.582,0,0,0,670.789,790.14Z" transform="translate(-581.863 -679.942)" fill="#ff9f26"/>
    <path id="Path_1681" data-name="Path 1681" d="M514.437,99.123c-.965-2.623-6.28-2.87-8.586-2.2a68.937,68.937,0,0,1-6.938,1.284l-.12-.114c.239-.071.245-.245.216-.5a7.87,7.87,0,0,1,.015-1.022,2.515,2.515,0,0,0,2.138-.48h0c1.329-.59.971-3.118,1.225-3.809a43.8,43.8,0,0,0,.487-5.078h.019l.01-.509c.013-.22.019-.348.019-.348a34.918,34.918,0,0,1,.384-4.463,39.052,39.052,0,0,0,.458-4.724v-.072l-.019-.322c.013-.235.019-.5.018-.771,0-1.262-.131-2.852-.148-3.109v-.134c.01-.539-.058-3.237-2.353-4.257-.846-.378-1.863-.828-2.848-1.267a48.241,48.241,0,0,1-.784-6.581c0-.332.03-.664.062-.995,0,.1-.01.193-.012.3v.644c.087-2.762,1.131-5.539,1.033-8.242-.009.264-.028.53-.053.8a8.582,8.582,0,0,0-.283-2.715,1.606,1.606,0,0,0-.464-.841,1.909,1.909,0,0,0-.809-.32,16.27,16.27,0,0,0-2.124-.4,3.279,3.279,0,0,0-.478-.929,10.5,10.5,0,0,0-6.336-4.429,4.211,4.211,0,0,0-3.723.9,2.794,2.794,0,0,0-.263.266c-.481.574-.688,1.329-1.181,1.9-.033.038-.069.074-.1.111-.965.864-2.47,1.044-3.543,1.819a4.256,4.256,0,0,0-.53.462,8.989,8.989,0,0,0-1.157,1.407,5.837,5.837,0,0,0-1.132,2.2c-.308,1.624.8,3.164,1,4.8.458,3.657-3.589,6.9-2.823,10.509a4.813,4.813,0,0,0,1.3,2.337c-1.578,1.429-2.921,2.815-2.921,2.815v.083h-.249l.025.3h-.025l.137,1.6-.137,2.332v.22h.009a37.3,37.3,0,0,0,.443,4.576,34.859,34.859,0,0,1,.382,4.463s.281,5.245.537,5.939-.108,3.214,1.225,3.809h0a2.8,2.8,0,0,0,1.339.555c-.068.552-.025.952.195,1.078a.643.643,0,0,0,.31.089,3.283,3.283,0,0,0-.241.421,6.254,6.254,0,0,1-1.547-.365c-1.432-.59-6.184-1.919-7.564-.985s-4.7,1.782-3.168,5.543,2.248,3.856,2.248,3.856a5.461,5.461,0,0,1,1.227,1.233c.461.692,4.752,2.276,5.825,2.276a10.506,10.506,0,0,1,1.365.068s-1.165,1.022-1.01,1.615a49.021,49.021,0,0,1-.354,5.344s1.181,1.19,1.686-.371l.018.024c.094.128.605.709,1.566-.024a8.777,8.777,0,0,1,1.249-.791l4.653-.658a13.171,13.171,0,0,1,1.457-.01,3.045,3.045,0,0,0,1.919-.714c.964.366,2.047.766,2.563.912,1.045.3,5.849,1.584,6.972,1.181a1.56,1.56,0,0,0,.605-.431l1.072.034-.5.1s.977.016,2.306.034l-.056.032,1.667-.015c2.439.022,5.179.03,5.539-.052a38.913,38.913,0,0,1,4.358,0h.241a2.645,2.645,0,0,0,1.891-3.909c-1.022-2.51-4.161-3.239-5.555-3.44.393-.078.731-.139.955-.174a7.565,7.565,0,0,0,3.016-1.336c.154-.3,1.737-1.181,2.146-1.681A9.4,9.4,0,0,0,514.437,99.123Zm-26.668,7.341-.158.052-.106.035-.2.2c-.162-.109-.337-.224-.518-.342C487.1,106.429,487.433,106.448,487.769,106.464Zm14.07,4.16Z" transform="translate(-408.922 -43.42)" fill="url(#linear-gradient)"/>
    <path id="Path_1682" data-name="Path 1682" d="M686.65,259.876s2.259,5.9,3.543,5.314.936-3.1,1.181-3.788.517-5.9.517-5.9a35.689,35.689,0,0,1,.369-4.438,40.665,40.665,0,0,0,.443-4.693V246.3l-.244-4.281-1.379-.344-3.2,1.181-.443,2.529-.173.988-.074.421Z" transform="translate(-598.393 -212.41)" fill="#be6f72"/>
    <path id="Path_1683" data-name="Path 1683" d="M691.69,358.3a15.859,15.859,0,0,0,2.8,1.919c.65.155,1.048,1.531,1.048,1.531" transform="translate(-602.689 -311.827)" opacity="0.1"/>
    <path id="Path_1684" data-name="Path 1684" d="M532.052,261.626s-2.259,5.9-3.543,5.314-.936-3.1-1.181-3.788-.517-5.9-.517-5.9a35.677,35.677,0,0,0-.369-4.438,40.651,40.651,0,0,1-.443-4.693v-.072l.245-4.281,1.379-.344,3.2,1.181.443,2.529.173.988.074.421Z" transform="translate(-461.45 -213.902)" fill="#be6f72"/>
    <rect id="Rectangle_247" data-name="Rectangle 247" width="5.041" height="7.858" transform="translate(80.263 16.137)" fill="#3e373a"/>
    <rect id="Rectangle_248" data-name="Rectangle 248" width="5.041" height="7.858" transform="translate(80.263 16.137)" opacity="0.1"/>
    <path id="Path_1685" data-name="Path 1685" d="M553.922,403.878s-1.723,1.894-1.084,2.238,4.774,6.791,4.774,6.791,13.581,1.673,16.142-.837,2.51-6.993,2.51-6.993-2.058.443-2.282.2-1.457-1.4-1.457-1.4S555.1,402.821,553.922,403.878Z" transform="translate(-484.21 -350.279)" fill="#4b4b5b"/>
    <path id="Path_1686" data-name="Path 1686" d="M553.922,403.878s-1.723,1.894-1.084,2.238,4.774,6.791,4.774,6.791,13.581,1.673,16.142-.837,2.51-6.993,2.51-6.993-2.058.443-2.282.2-1.457-1.4-1.457-1.4S555.1,402.821,553.922,403.878Z" transform="translate(-484.21 -350.279)" opacity="0.02"/>
    <path id="Path_1687" data-name="Path 1687" d="M557.031,165.969l-4.429,3.543-1.339.1-.492.035-8.256.605-8.562-.626-1.274-.093-1.624-.118-3.4-3.248a58.135,58.135,0,0,1,4.508-4.312,9.253,9.253,0,0,1,2.185-1.46l.1-.034a2.431,2.431,0,0,0,.936-.652c1.662-1.714,3.2-5.943,3.2-5.943s7.333-3.788,6.447,1.181,3.3,3.741,3.3,3.741l1.379.629.545.249,1.389.636,3.134,1.438C557.235,162.77,557.031,165.969,557.031,165.969Z" transform="translate(-462.869 -136.29)" fill="#be6f72"/>
    <circle id="Ellipse_238" data-name="Ellipse 238" cx="6.594" cy="6.594" r="6.594" transform="translate(72.708 8.331)" opacity="0.1"/>
    <path id="Path_1688" data-name="Path 1688" d="M555.626,216.676H526V216.6l.245-4.281a58.137,58.137,0,0,1,4.508-4.312l18.6-.738.865-.912,3.134,1.438c2.461,1.131,2.263,4.33,2.263,4.33S555.953,215.834,555.626,216.676Z" transform="translate(-461.454 -182.309)" opacity="0.1"/>
    <path id="Path_1689" data-name="Path 1689" d="M555.626,215.676H526V215.6l.245-4.281a58.137,58.137,0,0,1,4.508-4.312l18.6-.738.865-.912,3.134,1.438c2.461,1.131,2.263,4.33,2.263,4.33S555.953,214.834,555.626,215.676Z" transform="translate(-461.454 -181.457)" fill="#e7c7ca"/>
    <path id="Path_1690" data-name="Path 1690" d="M583.135,186.473s4.674,5.955,10.9-.123.689,13.556.689,13.556L581.29,201.5Z" transform="translate(-508.583 -164.257)" opacity="0.1"/>
    <path id="Path_1691" data-name="Path 1691" d="M583.135,188.473s4.674,5.955,10.9-.123.689,13.556.689,13.556L581.29,203.5Z" transform="translate(-508.583 -165.962)" fill="#e7c7ca"/>
    <path id="Path_1692" data-name="Path 1692" d="M570.6,201.594l.495,7.542.53,2.51.4,1.919s1.033,14.762.738,15.5.148,1.329.21,1.721-.062,1.379-.013,1.822,0,.639-1.131.481-2.707-.433-2.707-.433-3.986.3-5.363-.2a15.736,15.736,0,0,0-3.986-.493s-3.937.1-5.216-.049-1.969,1.575-2.8,1.082.983-5.264,1.574-6.643-.787-4.872-.787-4.872l1.771-9.827.394-2.228v-7l.1-.034a2.429,2.429,0,0,0,.936-.652l.443,7.048,13.876.493V201.35" transform="translate(-483.222 -178.04)" opacity="0.1"/>
    <path id="Path_1693" data-name="Path 1693" d="M570.6,199.594l.495,7.542.53,2.51.4,1.919s1.033,14.762.738,15.5.148,1.329.21,1.721-.062,1.379-.013,1.822,0,.639-1.131.481-2.707-.433-2.707-.433-3.986.3-5.363-.2a15.736,15.736,0,0,0-3.986-.493s-3.937.1-5.216-.049-1.969,1.575-2.8,1.082.983-5.264,1.574-6.643-.787-4.872-.787-4.872l1.771-9.827.394-2.228v-7l.1-.034a2.429,2.429,0,0,0,.936-.652l.443,7.047,13.876.493V199.35" transform="translate(-483.222 -176.335)" fill="#e7c7ca"/>
    <path id="Path_1694" data-name="Path 1694" d="M560.271,54.215a1.627,1.627,0,0,0-.443-.836,1.813,1.813,0,0,0-.779-.319A15.4,15.4,0,0,0,557,52.668a3.281,3.281,0,0,0-.443-.92c-1.447-2.043-3.587-3.97-6.106-4.405a3.873,3.873,0,0,0-3.691,1.016c-.464.571-.663,1.329-1.131,1.89-.9,1.089-2.53,1.224-3.667,2.067a6.794,6.794,0,0,0-1.476,1.708,5.857,5.857,0,0,0-1.091,2.183c-.3,1.611.769,3.146.965,4.771.443,3.636-3.454,6.861-2.718,10.449.43,2.092,2.362,3.565,4.361,4.312a3.025,3.025,0,0,1,1.838,1.2c.148.3.173.636.312.934a1.865,1.865,0,0,0,2.824.309,4.4,4.4,0,0,0,1.181-2.991c.4-4.777-1.518-9.5-1.295-14.285.067-1.448.474-3.091,1.771-3.747,1.746-.886,3.847.59,5.769.309a11.446,11.446,0,0,1,.552,6.984,19.089,19.089,0,0,0-.872,3.823c-.058,2,1.022,3.828,1.955,5.6a2.977,2.977,0,0,1,.394,1.079,2.6,2.6,0,0,1-.211,1.129c-.527,1.419-1.436,2.735-1.54,4.246a.686.686,0,0,0,.111.5.635.635,0,0,0,.381.171c1.594.273,2.973-1.14,3.751-2.558a11.993,11.993,0,0,0,1.479-5.1c.161-3.006-.917-5.962-.85-8.971C559.63,60.959,561.176,57.515,560.271,54.215Z" transform="translate(-471.299 -46.686)" opacity="0.1"/>
    <path id="Path_1695" data-name="Path 1695" d="M561.271,53.215a1.627,1.627,0,0,0-.443-.836,1.813,1.813,0,0,0-.779-.319A15.4,15.4,0,0,0,558,51.668a3.281,3.281,0,0,0-.443-.92c-1.447-2.043-3.587-3.97-6.106-4.405a3.873,3.873,0,0,0-3.691,1.016c-.464.571-.663,1.329-1.131,1.89-.9,1.089-2.53,1.224-3.667,2.067a6.793,6.793,0,0,0-1.476,1.708,5.859,5.859,0,0,0-1.091,2.183c-.3,1.611.769,3.146.965,4.771.443,3.636-3.454,6.861-2.718,10.449.43,2.092,2.362,3.565,4.361,4.312a3.026,3.026,0,0,1,1.838,1.2c.148.3.173.636.311.934a1.864,1.864,0,0,0,2.824.309,4.4,4.4,0,0,0,1.181-2.991c.4-4.777-1.518-9.5-1.295-14.285.066-1.448.474-3.091,1.771-3.747,1.746-.886,3.847.59,5.769.309a11.445,11.445,0,0,1,.552,6.984,19.085,19.085,0,0,0-.872,3.823c-.058,2,1.022,3.828,1.955,5.6a2.977,2.977,0,0,1,.394,1.079,2.6,2.6,0,0,1-.211,1.129c-.527,1.419-1.436,2.735-1.54,4.246a.687.687,0,0,0,.111.5.634.634,0,0,0,.381.171c1.594.273,2.973-1.14,3.751-2.558a11.992,11.992,0,0,0,1.479-5.1c.161-3.006-.917-5.962-.85-8.971C560.63,59.959,562.176,56.515,561.271,53.215Z" transform="translate(-472.151 -45.834)" fill="#3e373a"/>
    <path id="Path_1696" data-name="Path 1696" d="M581.79,468.736l5.856.188-.84-4.343-4.486.427Z" transform="translate(-495.935 -396.015)" fill="#c3c7d9"/>
    <path id="Path_1697" data-name="Path 1697" d="M636.171,413.585c-.394.492-1.919,1.377-2.067,1.673a7.271,7.271,0,0,1-2.9,1.329,24.18,24.18,0,0,0-4.429,1.132,43.157,43.157,0,0,1-5.552,1.469,15.768,15.768,0,0,1-1.682.3c-.886.049-10.579-3.248-10.579-3.248l1.869-1.919.1-.035c.529-.179,2.97-1,4.325-1.4a9.95,9.95,0,0,0,3.3-2.263s2.607-.886,2.952-.985-.886-3.444-.886-3.444,5.658-.785,7.873-1.451,7.332-.419,8.267,2.189A9.612,9.612,0,0,1,636.171,413.585Z" transform="translate(-532.172 -351.155)" fill="#4b4b5b"/>
    <path id="Path_1698" data-name="Path 1698" d="M546.458,492.635a3.454,3.454,0,0,1-2.263,1.084c-1.132-.1-5.092.3-5.092.3a7.936,7.936,0,0,0-1.994,1.156c-.926.729-1.417.148-1.509.024l-.016-.024c-.493,1.552-1.624.369-1.624.369a49.947,49.947,0,0,0,.341-5.314c-.151-.59.973-1.6.973-1.6l1.329-.338,3.366-.862,4.823,1.673Z" transform="translate(-468.236 -421.893)" fill="#e7c7ca"/>
    <path id="Path_1699" data-name="Path 1699" d="M536.6,493.26l-1,6.912-.016-.024c-.493,1.552-1.624.369-1.624.369a49.949,49.949,0,0,0,.341-5.314c-.151-.591.973-1.6.973-1.6Z" transform="translate(-468.235 -426.871)" opacity="0.1"/>
    <path id="Path_1700" data-name="Path 1700" d="M599,360.08a8.056,8.056,0,0,0,4.872,0" transform="translate(-523.677 -313.343)" opacity="0.1"/>
    <path id="Path_1701" data-name="Path 1701" d="M659.29,371.42a2.154,2.154,0,0,0,1.919,0" transform="translate(-575.07 -323.01)" opacity="0.1"/>
    <path id="Path_1702" data-name="Path 1702" d="M659.29,378.668s1.82.244,2.166-.248" transform="translate(-575.07 -328.977)" opacity="0.1"/>
    <path id="Path_1703" data-name="Path 1703" d="M655.29,392.783s3.419-.443,4.268-1.033" transform="translate(-571.66 -340.34)" opacity="0.1"/>
    <path id="Path_1704" data-name="Path 1704" d="M584.62,391.75a8.118,8.118,0,0,0,3.347,1.033" transform="translate(-511.419 -340.34)" opacity="0.1"/>
    <path id="Path_1705" data-name="Path 1705" d="M621.21,476.08a15.747,15.747,0,0,1-1.681.3c-.886.049-10.579-3.248-10.579-3.248l1.869-1.919.1-.035c.3.208.537.387.71.523.813.641,1.6-.2,1.894-.2a23.891,23.891,0,0,1,2.854,2.115s2.362.542,2.756,1.033,1.771.394,2.016.738A1.316,1.316,0,0,1,621.21,476.08Z" transform="translate(-532.16 -408.049)" opacity="0.1"/>
    <path id="Path_1706" data-name="Path 1706" d="M485.19,407.663a10.7,10.7,0,0,1-3.766-.443c-1.377-.58-5.954-1.919-7.282-.979s-4.528,1.771-3.051,5.512,2.166,3.838,2.166,3.838a5.33,5.33,0,0,1,1.181,1.225c.443.689,4.576,2.263,5.61,2.263a8.578,8.578,0,0,1,5.412,1.771,11.123,11.123,0,0,0,4.872,1.969s3.248,1.329,4.259,1.624,5.632,1.574,6.715,1.181,1.771-2.855,1.771-2.855.492-2.214.245-2.558-1.624-.247-2.017-.738-2.756-1.033-2.756-1.033a23.8,23.8,0,0,0-2.848-2.117c-.3,0-1.081.836-1.894.2a43.209,43.209,0,0,0-5.094-3.248C486.843,412.288,485.19,407.663,485.19,407.663Z" transform="translate(-414.323 -352.419)" fill="#4b4b5b"/>
    <path id="Path_1707" data-name="Path 1707" d="M536.27,427.09a2.82,2.82,0,0,1,2.42.639,42.8,42.8,0,0,0,5.155,2.961" transform="translate(-470.205 -370.417)" opacity="0.1"/>
    <path id="Path_1708" data-name="Path 1708" d="M700.209,427s-5.266.8-6.249,1.879" transform="translate(-604.624 -370.388)" opacity="0.1"/>
    <path id="Path_1709" data-name="Path 1709" d="M699.152,494.8h-.232a39.7,39.7,0,0,0-4.2,0c-.639.148-9.1,0-9.1,0l1.655-.344s-.614-2.152-.224-2.331c0,0-2.214-1.459-.545-2.443a5.18,5.18,0,0,1,3.469-.57l4.191-1.42.8-.273s4.724.247,6,3.494S699.152,494.8,699.152,494.8Z" transform="translate(-597.517 -421.893)" fill="#e7c7ca"/>
    <path id="Path_1710" data-name="Path 1710" d="M748.5,494.844h-.232c1.374-1.134,4.483-4.585-4.755-7.1l.8-.273s4.724.247,6,3.494S748.5,494.844,748.5,494.844Z" transform="translate(-646.862 -421.936)" opacity="0.1"/>
    <circle id="Ellipse_239" data-name="Ellipse 239" cx="0.258" cy="0.258" r="0.258" transform="translate(92.694 68.565)" fill="#4b4b5b"/>
    <circle id="Ellipse_240" data-name="Ellipse 240" cx="0.258" cy="0.258" r="0.258" transform="translate(91.193 68.992)" fill="#4b4b5b"/>
    <g id="Group_148" data-name="Group 148" transform="translate(66.439 9.29)" opacity="0.1">
      <path id="Path_1711" data-name="Path 1711" d="M610.209,112a11.454,11.454,0,0,0-.847-4.745c-1.919.286-4.021-1.194-5.769-.309-1.293.655-1.7,2.3-1.771,3.747-.018.382-.021.765-.013,1.147,0-.136,0-.273.013-.409.068-1.448.474-3.091,1.771-3.747,1.748-.886,3.847.59,5.769.309A11.423,11.423,0,0,1,610.209,112Z" transform="translate(-592.507 -106.61)"/>
      <path id="Path_1712" data-name="Path 1712" d="M552.035,113.443a4.912,4.912,0,0,0-.019-.965c-.156-1.3-.867-2.541-.995-3.807-.165,1.528.807,3,.995,4.545A.924.924,0,0,1,552.035,113.443Z" transform="translate(-549.204 -108.322)"/>
      <path id="Path_1713" data-name="Path 1713" d="M549.432,205.672a4.342,4.342,0,0,1-1.181,2.992c-.831.726-2.362.686-2.824-.309-.148-.3-.17-.639-.313-.934-.328-.676-1.134-.939-1.838-1.2-2-.748-3.93-2.214-4.359-4.312a4.526,4.526,0,0,1-.078-.576,4.653,4.653,0,0,0,.078,1.314c.43,2.092,2.362,3.564,4.359,4.312.7.264,1.51.527,1.838,1.2.148.3.173.636.313.934a1.864,1.864,0,0,0,2.824.309,4.4,4.4,0,0,0,1.181-2.992,16.824,16.824,0,0,0,.046-1.733C549.478,205.012,549.459,205.342,549.432,205.672Z" transform="translate(-538.823 -187.303)"/>
      <path id="Path_1714" data-name="Path 1714" d="M687.93,113.865v.639c.083-2.746,1.089-5.506.991-8.195C688.844,108.8,687.986,111.338,687.93,113.865Z" transform="translate(-665.919 -106.31)"/>
      <path id="Path_1715" data-name="Path 1715" d="M653.1,194.041a1.9,1.9,0,0,0,.034-.533,2.952,2.952,0,0,0-.394-1.079,13.265,13.265,0,0,1-1.941-5.089c0,.077-.01.148-.012.23-.059,2,1.02,3.828,1.953,5.6A3.543,3.543,0,0,1,653.1,194.041Z" transform="translate(-634.256 -175.378)"/>
      <path id="Path_1716" data-name="Path 1716" d="M660.516,216.555a12.012,12.012,0,0,1-1.489,5.1c-.78,1.419-2.157,2.831-3.753,2.558a.627.627,0,0,1-.381-.173.371.371,0,0,1-.069-.115c-.018.115-.032.232-.041.35a.68.68,0,0,0,.111.5.627.627,0,0,0,.381.173c1.6.273,2.973-1.14,3.753-2.558a12.013,12.013,0,0,0,1.489-5.1c.018-.345.019-.689.009-1.033C660.522,216.359,660.522,216.456,660.516,216.555Z" transform="translate(-637.655 -200.029)"/>
    </g>
    <path id="Path_1717" data-name="Path 1717" d="M695.31,508.321a5.224,5.224,0,0,0,6.2-1.9" transform="translate(-605.775 -438.088)" fill="none" stroke="#000" stroke-miterlimit="10" stroke-width="1" opacity="0.1"/>
    <path id="Path_1718" data-name="Path 1718" d="M700.29,532.656a7.284,7.284,0,0,1,6.938-.065" transform="translate(-610.02 -459.684)" fill="none" stroke="#000" stroke-miterlimit="10" stroke-width="1" opacity="0.1"/>
    <path id="Path_1719" data-name="Path 1719" d="M561.93,526.062s1.281-2.891,4.7-.686" transform="translate(-492.078 -453.54)" fill="none" stroke="#000" stroke-miterlimit="10" stroke-width="1" opacity="0.1"/>
    <path id="Path_1720" data-name="Path 1720" d="M533.79,228.573l2.613-2.362s10.131-.664,10.551,2.78c0,0,3.592-4.083,11.145-3.174l3.2,2.545-8.834,3.877-8.584,2.978-6.323-2.83Z" transform="translate(-468.094 -198.782)" opacity="0.1"/>
    <path id="Path_1721" data-name="Path 1721" d="M533.79,229.573l2.613-2.362s10.131-.664,10.551,2.78c0,0,3.592-4.083,11.145-3.174l3.2,2.545-8.834,3.877-8.584,2.978-6.323-2.83Z" transform="translate(-468.094 -199.635)" fill="#d5d6db"/>
    <path id="Path_1722" data-name="Path 1722" d="M437.38,204.83l1.156,13.828,12.253.616-.531-13.769-.01-.232Z" transform="translate(-372.837 -174.598)" opacity="0.1"/>
    <path id="Path_1723" data-name="Path 1723" d="M437.38,202.83l1.156,13.828,12.253.616-.531-13.769-.01-.232Z" transform="translate(-372.837 -172.893)" fill="#ff9f26"/>
    <path id="Path_1724" data-name="Path 1724" d="M562.349,202.83l-12.639,1.9v13.89l12.352-1.785Z" transform="translate(-468.591 -172.893)" opacity="0.1"/>
    <path id="Path_1725" data-name="Path 1725" d="M562.349,200.83l-12.639,1.9v13.89l12.352-1.785Z" transform="translate(-468.591 -171.188)" fill="#ff9f26"/>
    <path id="Path_1726" data-name="Path 1726" d="M575.718,223.79l-6.828.759.149,2.327,6.674-.729Z" transform="translate(-484.939 -190.759)" fill="#fff" opacity="0.3"/>
    <path id="Path_1727" data-name="Path 1727" d="M536.577,318.974l.7,1.87a2.323,2.323,0,0,0,2.164.443,11.05,11.05,0,0,0,2.608-1.094,9.887,9.887,0,0,0,1.181-2.6,9.2,9.2,0,0,1,1.377-2.952c.688-.59,2.51-8.726,0-7.93s-4.429,8.177-4.429,8.177a1.75,1.75,0,0,1-1.082.59c-.639.05-1.919-.1-2.166.443S535.839,317.892,536.577,318.974Z" transform="translate(-470.214 -267.808)" fill="#be6f72"/>
    <path id="Path_1728" data-name="Path 1728" d="M616.887,253.744a4.251,4.251,0,0,1-3.707-.924l.533,13.767a3.757,3.757,0,0,0,3.174,1.048Z" transform="translate(-535.765 -221.913)" opacity="0.1"/>
    <path id="Path_1729" data-name="Path 1729" d="M616.887,251.744a4.251,4.251,0,0,1-3.707-.924l.533,13.767a3.757,3.757,0,0,0,3.174,1.048Z" transform="translate(-535.765 -220.209)" fill="#ff9f26"/>
    <path id="Path_1730" data-name="Path 1730" d="M616.887,251.744a4.251,4.251,0,0,1-3.707-.924l.533,13.767a3.757,3.757,0,0,0,3.174,1.048Z" transform="translate(-535.765 -220.209)" opacity="0.1"/>
    <path id="Path_1731" data-name="Path 1731" d="M640.29,238.647s5.142-1.572,6.482-1.351" transform="translate(-558.874 -208.661)" opacity="0.1"/>
    <path id="Path_1732" data-name="Path 1732" d="M567.746,236.69s-4.984-1.181-5.816-.846" transform="translate(-492.078 -207.391)" opacity="0.1"/>
    <path id="Path_1733" data-name="Path 1733" d="M662.25,243.148s3.438-1.261,4.681-.661" transform="translate(-577.593 -212.966)" opacity="0.1"/>
    <path id="Path_1734" data-name="Path 1734" d="M650.52,447.2a11.3,11.3,0,0,1,1.695-1.053,27.651,27.651,0,0,0,2.51-1.534" transform="translate(-567.594 -385.4)" opacity="0.1"/>
    <path id="Path_1735" data-name="Path 1735" d="M539.683,360.08a15.916,15.916,0,0,1-2.8,1.919c-.648.155-1.048,1.531-1.048,1.531" transform="translate(-469.829 -313.344)" opacity="0.1"/>
    <path id="Path_1736" data-name="Path 1736" d="M661.591,317.22l-.688,1.875a2.325,2.325,0,0,1-2.166.443,11.051,11.051,0,0,1-2.608-1.094,9.836,9.836,0,0,1-1.181-2.6,9.167,9.167,0,0,0-1.377-2.952c-.69-.59-2.51-8.726,0-7.93S658,313.141,658,313.141a1.75,1.75,0,0,0,1.082.59c.639.05,1.919-.1,2.166.443S662.329,316.142,661.591,317.22Z" transform="translate(-569.101 -266.316)" fill="#be6f72"/>
    <path id="Path_1737" data-name="Path 1737" d="M707.15,364.94s1.41.906,1.4,1.99" transform="translate(-615.867 -317.486)" opacity="0.1"/>
    <circle id="Ellipse_241" data-name="Ellipse 241" cx="6.594" cy="6.594" r="6.594" transform="translate(72.731 8.008)" fill="#be6f72"/>
    <path id="Path_1738" data-name="Path 1738" d="M579.216,90.157a13.518,13.518,0,0,0,2.266-.858,8.58,8.58,0,0,1,5.335.353,6.92,6.92,0,0,0,2.036.443,2.06,2.06,0,0,0,1.792-.886,2,2,0,0,0-.012-1.85,5.208,5.208,0,0,0-1.2-1.487c-1.535-1.45-3.44-2.8-5.546-2.657a7.633,7.633,0,0,0-2.437.7,26.871,26.871,0,0,0-2.861,1.441c-.71.412-2.025.962-2.434,1.715C575.22,88.767,577.77,90.385,579.216,90.157Z" transform="translate(-504.031 -77.326)" fill="#3e373a"/>
    <path id="Path_1739" data-name="Path 1739" d="M590.642,112.929a2.06,2.06,0,0,1-1.792.886,6.924,6.924,0,0,1-2.037-.434,8.569,8.569,0,0,0-5.335-.353,12.855,12.855,0,0,1-2.266.856c-1.166.183-3.044-.833-3.248-2.124-.229,1.492,1.949,2.771,3.248,2.567a13.589,13.589,0,0,0,2.266-.856,8.569,8.569,0,0,1,5.335.353,6.644,6.644,0,0,0,2.037.434,2.076,2.076,0,0,0,1.792-.886,1.728,1.728,0,0,0,.207-1.079A1.592,1.592,0,0,1,590.642,112.929Z" transform="translate(-504.028 -101.665)" opacity="0.1"/>
    <path id="Path_1740" data-name="Path 1740" d="M1024.09,661.63s.875,1.144-.4,2.873-2.334,3.187-1.909,4.265c0,0,1.931-3.209,3.5-3.255S1025.816,663.559,1024.09,661.63Z" transform="translate(-883.986 -570.395)" fill="#ff9f26"/>
    <path id="Path_1741" data-name="Path 1741" d="M1024.379,661.63a1.42,1.42,0,0,1,.179.359c1.532,1.8,2.35,3.482.875,3.524-1.373.04-3.019,2.495-3.413,3.113a1.475,1.475,0,0,0,.046.148s1.931-3.209,3.5-3.255S1026.1,663.559,1024.379,661.63Z" transform="translate(-884.275 -570.395)" opacity="0.1"/>
    <path id="Path_1742" data-name="Path 1742" d="M1047.832,670.023c0,.4-.046.729-.1.729s-.1-.326-.1-.729.056-.213.112-.213S1047.832,669.62,1047.832,670.023Z" transform="translate(-906.104 -577.328)" fill="#ffd037"/>
    <path id="Path_1743" data-name="Path 1743" d="M1048.807,673.13c-.353.192-.661.309-.688.26s.238-.245.59-.443.214-.053.241,0S1049.162,672.937,1048.807,673.13Z" transform="translate(-906.52 -579.954)" fill="#ffd037"/>
    <path id="Path_1744" data-name="Path 1744" d="M995.323,661.63s-.875,1.144.4,2.873,2.334,3.187,1.907,4.265c0,0-1.929-3.209-3.5-3.255S993.6,663.559,995.323,661.63Z" transform="translate(-859.846 -570.395)" fill="#ff9f26"/>
    <path id="Path_1745" data-name="Path 1745" d="M995.323,661.63a1.416,1.416,0,0,0-.179.359c-1.532,1.8-2.35,3.482-.875,3.524,1.371.04,3.019,2.495,3.413,3.113a1.16,1.16,0,0,1-.047.148s-1.929-3.209-3.5-3.255S993.6,663.559,995.323,661.63Z" transform="translate(-859.846 -570.395)" opacity="0.1"/>
    <path id="Path_1746" data-name="Path 1746" d="M995.64,670.023c0,.4.044.729.1.729s.1-.326.1-.729-.058-.213-.112-.213S995.64,669.62,995.64,670.023Z" transform="translate(-861.789 -577.328)" fill="#ffd037"/>
    <path id="Path_1747" data-name="Path 1747" d="M990.62,673.13c.353.192.661.309.688.26s-.238-.245-.591-.443-.214-.053-.241,0S990.265,672.937,990.62,673.13Z" transform="translate(-857.327 -579.954)" fill="#ffd037"/>
    <ellipse id="Ellipse_242" data-name="Ellipse 242" cx="9.153" cy="1.404" rx="9.153" ry="1.404" transform="translate(128.638 104.314)" fill="#ff9f26" opacity="0.1"/>
    <path id="Path_1748" data-name="Path 1748" d="M999.823,696.444l-.044.357-.062.5-.025.211-.062.5-.026.211-.061.5-.7,5.742c-.062.512-.9.912-1.91.912h-3.639c-1.011,0-1.847-.4-1.91-.912l-.7-5.742-.062-.5-.025-.211-.062-.5-.026-.211-.061-.5-.044-.357c-.034-.3.418-.534.991-.534h7.443C999.4,695.91,999.858,696.154,999.823,696.444Z" transform="translate(-857.321 -599.622)" fill="#65617d"/>
    <path id="Path_1749" data-name="Path 1749" d="M911.464,658.53l-.061.5h-9.212l-.062-.5Z" transform="translate(-769.007 -561.351)" fill="#9d9cb5"/>
    <path id="Path_1750" data-name="Path 1750" d="M911.88,663.38l-.061.5h-9.037l-.062-.5Z" transform="translate(-769.51 -565.485)" fill="#9d9cb5"/>
    <path id="Path_1751" data-name="Path 1751" d="M912.3,668.23l-.062.505h-8.862l-.061-.505Z" transform="translate(-770.021 -569.619)" fill="#9d9cb5"/>
  </g>
</svg>
