<svg id="img" xmlns="http://www.w3.org/2000/svg" width="119.404" height="120" viewBox="0 0 119.404 120">
  <path id="Path_1" data-name="Path 1" d="M417.85,182.083,299.111,196.366a.071.071,0,0,1-.04-.007.093.093,0,0,1-.033-.028.141.141,0,0,1-.022-.044.193.193,0,0,1-.008-.056.213.213,0,0,1,.008-.058.186.186,0,0,1,.023-.05.133.133,0,0,1,.033-.036.086.086,0,0,1,.04-.017l118.739-14.48a.315.315,0,0,1,.112.006.254.254,0,0,1,.091.042.209.209,0,0,1,.062.071.2.2,0,0,1,.023.093.234.234,0,0,1-.023.1.3.3,0,0,1-.062.086.347.347,0,0,1-.091.064A.355.355,0,0,1,417.85,182.083Z" transform="translate(-299.008 -174.828)" fill="#cacaca"/>
  <path id="Path_1-2" data-name="Path 1" d="M418.064,702.371l-118.98-12.112a.072.072,0,0,1-.038-.015.093.093,0,0,1-.026-.034.141.141,0,0,1-.012-.048.193.193,0,0,1,0-.057.213.213,0,0,1,.021-.055.186.186,0,0,1,.033-.044.133.133,0,0,1,.04-.028.086.086,0,0,1,.043-.007L418.172,701.89a.313.313,0,0,1,.108.03.255.255,0,0,1,.08.061.209.209,0,0,1,.045.083.2.2,0,0,1,0,.1.234.234,0,0,1-.044.091.3.3,0,0,1-.079.07.347.347,0,0,1-.1.042A.356.356,0,0,1,418.064,702.371Z" transform="translate(-299.008 -582.372)" fill="#cacaca"/>
  <path id="Ellipse_1" data-name="Ellipse 1" d="M306.728,227.448a.81.81,0,0,1,.456.062,1.006,1.006,0,0,1,.374.3,1.518,1.518,0,0,1,.253.489,2.1,2.1,0,0,1,.093.632,2.373,2.373,0,0,1-.093.658,2.108,2.108,0,0,1-.253.561,1.523,1.523,0,0,1-.374.4,1,1,0,0,1-.456.189.81.81,0,0,1-.453-.069,1.017,1.017,0,0,1-.368-.3,1.529,1.529,0,0,1-.248-.487,2.109,2.109,0,0,1-.091-.625,2.373,2.373,0,0,1,.091-.65,2.116,2.116,0,0,1,.247-.557,1.54,1.54,0,0,1,.369-.406A1.009,1.009,0,0,1,306.728,227.448Z" transform="translate(-304.266 -211.584)" fill="#3f3d56"/>
  <path id="Ellipse_2" data-name="Ellipse 2" d="M327.312,224.324a.864.864,0,0,1,.477.062,1.045,1.045,0,0,1,.392.3,1.535,1.535,0,0,1,.265.5,2.105,2.105,0,0,1,.1.647,2.378,2.378,0,0,1-.1.674,2.14,2.14,0,0,1-.264.574,1.58,1.58,0,0,1-.391.415,1.06,1.06,0,0,1-.477.2.863.863,0,0,1-.474-.07,1.054,1.054,0,0,1-.386-.308,1.545,1.545,0,0,1-.26-.5,2.11,2.11,0,0,1-.095-.638,2.379,2.379,0,0,1,.095-.665,2.15,2.15,0,0,1,.259-.571,1.6,1.6,0,0,1,.386-.416A1.072,1.072,0,0,1,327.312,224.324Z" transform="translate(-320.725 -209.079)" fill="#3f3d56"/>
  <path id="Ellipse_3" data-name="Ellipse 3" d="M348.854,221.049a.923.923,0,0,1,.5.061,1.085,1.085,0,0,1,.41.31,1.552,1.552,0,0,1,.278.511,2.107,2.107,0,0,1,.1.661,2.386,2.386,0,0,1-.1.689,2.176,2.176,0,0,1-.278.589,1.641,1.641,0,0,1-.41.426,1.128,1.128,0,0,1-.5.2.922.922,0,0,1-.5-.07,1.1,1.1,0,0,1-.4-.314,1.563,1.563,0,0,1-.271-.508,2.11,2.11,0,0,1-.1-.652,2.387,2.387,0,0,1,.1-.682,2.183,2.183,0,0,1,.271-.584,1.657,1.657,0,0,1,.4-.428A1.142,1.142,0,0,1,348.854,221.049Z" transform="translate(-337.948 -206.453)" fill="#3f3d56"/>
  <path id="Path_2" data-name="Path 2" d="M834.529,148.476l-7.24,1.047a.546.546,0,0,1-.2-.008.443.443,0,0,1-.166-.077.382.382,0,0,1-.112-.133.389.389,0,0,1-.041-.176.469.469,0,0,1,.041-.189.578.578,0,0,1,.112-.166.649.649,0,0,1,.166-.125.635.635,0,0,1,.2-.067l7.24-1.071a.589.589,0,0,1,.214.006.47.47,0,0,1,.175.077.386.386,0,0,1,.161.318.473.473,0,0,1-.043.194.6.6,0,0,1-.118.171.689.689,0,0,1-.389.2Z" transform="translate(-722.086 -147.505)" fill="#3f3d56"/>
  <path id="Path_3" data-name="Path 3" d="M834.529,157.59l-7.24,1a.546.546,0,0,1-.2-.009.446.446,0,0,1-.166-.077.385.385,0,0,1-.112-.134.391.391,0,0,1-.041-.178.468.468,0,0,1,.041-.188.572.572,0,0,1,.112-.165.642.642,0,0,1,.166-.123.633.633,0,0,1,.2-.066l7.24-1.027a.59.59,0,0,1,.214.008.473.473,0,0,1,.175.079.386.386,0,0,1,.161.319.471.471,0,0,1-.043.194.592.592,0,0,1-.118.17.683.683,0,0,1-.389.2Z" transform="translate(-722.085 -154.812)" fill="#3f3d56"/>
  <path id="Path_4" data-name="Path 4" d="M834.529,166.705l-7.24.956a.547.547,0,0,1-.2-.01.45.45,0,0,1-.166-.079.386.386,0,0,1-.153-.311.466.466,0,0,1,.041-.188.568.568,0,0,1,.112-.164.637.637,0,0,1,.166-.123.629.629,0,0,1,.2-.064l7.24-.98a.59.59,0,0,1,.214.009.477.477,0,0,1,.175.08.4.4,0,0,1,.118.138.394.394,0,0,1,.043.182.468.468,0,0,1-.043.194.585.585,0,0,1-.118.17.679.679,0,0,1-.389.193Z" transform="translate(-722.085 -162.12)" fill="#3f3d56"/>
  <path id="Rectangle_1" data-name="Rectangle 1" d="M692.359,242.795l34.973-2.962V260.68l-34.973.456Z" transform="translate(-614.338 -221.52)" fill="#f0f0f0"/>
  <path id="Path_5" data-name="Path 5" d="M742.162,383.67l-20.77-.413a.934.934,0,0,1-.639-.269.9.9,0,0,1-.193-.282.861.861,0,0,1-.071-.342.844.844,0,0,1,.071-.339.857.857,0,0,1,.193-.276.89.89,0,0,1,.287-.184.919.919,0,0,1,.352-.064l20.77.274a1.166,1.166,0,0,1,.411.08,1.1,1.1,0,0,1,.337.208.975.975,0,0,1,.228.305.872.872,0,0,1,.084.372.854.854,0,0,1-.084.369.93.93,0,0,1-.228.3,1.049,1.049,0,0,1-.337.2,1.148,1.148,0,0,1-.411.066Z" transform="translate(-636.888 -335.086)" fill="#e4e4e4"/>
  <path id="Path_6" data-name="Path 6" d="M751.2,368.252l-14.061-.118a.963.963,0,0,1-.361-.073.939.939,0,0,1-.294-.193.9.9,0,0,1-.2-.283.858.858,0,0,1,0-.69.884.884,0,0,1,.2-.281.925.925,0,0,1,.294-.19.958.958,0,0,1,.361-.069l14.061.024a1.117,1.117,0,0,1,.4.074,1.05,1.05,0,0,1,.328.2.946.946,0,0,1,.222.3.862.862,0,0,1,0,.732.932.932,0,0,1-.222.3,1.034,1.034,0,0,1-.328.2,1.111,1.111,0,0,1-.4.07Z" transform="translate(-649.493 -322.946)" fill="#e4e4e4"/>
  <path id="Rectangle_2" data-name="Rectangle 2" d="M692.359,422.913l34.973,1.595v20.847l-34.973-4.1Z" transform="translate(-614.338 -368.286)" fill="#f0f0f0"/>
  <path id="Path_7" data-name="Path 7" d="M742.162,558.741l-20.77-3.119a1.035,1.035,0,0,1-.352-.122,1.119,1.119,0,0,1-.287-.231,1.075,1.075,0,0,1-.193-.307.93.93,0,0,1-.071-.352.781.781,0,0,1,.071-.331.715.715,0,0,1,.193-.251.753.753,0,0,1,.287-.147.879.879,0,0,1,.352-.018l20.77,2.98a1.282,1.282,0,0,1,.411.134,1.311,1.311,0,0,1,.337.252,1.168,1.168,0,0,1,.228.335.946.946,0,0,1,.084.383.785.785,0,0,1-.084.358.771.771,0,0,1-.228.269.9.9,0,0,1-.337.153,1.1,1.1,0,0,1-.411.013Z" transform="translate(-636.888 -473.255)" fill="#e4e4e4"/>
  <path id="Path_8" data-name="Path 8" d="M751.2,544.519l-14.061-1.95a1.061,1.061,0,0,1-.361-.12,1.128,1.128,0,0,1-.294-.231,1.071,1.071,0,0,1-.2-.308.925.925,0,0,1-.073-.355.787.787,0,0,1,.072-.335.735.735,0,0,1,.2-.256.783.783,0,0,1,.294-.151.912.912,0,0,1,.361-.022l14.061,1.856a1.224,1.224,0,0,1,.4.127,1.257,1.257,0,0,1,.328.245,1.135,1.135,0,0,1,.222.328.938.938,0,0,1,.081.377.791.791,0,0,1-.081.355.774.774,0,0,1-.222.268.882.882,0,0,1-.329.156,1.067,1.067,0,0,1-.4.018Z" transform="translate(-649.493 -462.775)" fill="#e4e4e4"/>
  <path id="Path_9" data-name="Path 9" d="M363.432,316.233l-54.986-7.04a.9.9,0,0,1-.413-.171,1.358,1.358,0,0,1-.336-.362,1.88,1.88,0,0,1-.226-.5,2.138,2.138,0,0,1-.083-.589V272.845a2.1,2.1,0,0,1,.083-.586,1.784,1.784,0,0,1,.226-.49,1.269,1.269,0,0,1,.335-.347.86.86,0,0,1,.413-.152l54.986-4.5a1.617,1.617,0,0,1,1.285.47,1.785,1.785,0,0,1,.392.594,2,2,0,0,1,.145.754V314.5a1.95,1.95,0,0,1-.145.748,1.675,1.675,0,0,1-.392.576,1.538,1.538,0,0,1-.579.347A1.6,1.6,0,0,1,363.432,316.233Z" transform="translate(-305.727 -243.107)" fill="#fff"/>
  <path id="Path_10" data-name="Path 10" d="M354.2,381.913a3.64,3.64,0,0,0-.5-.527,3.253,3.253,0,0,0-.564-.394,2.937,2.937,0,0,0-.613-.253,2.732,2.732,0,0,0-.644-.1,2.664,2.664,0,0,0-.643.054,2.744,2.744,0,0,0-.609.2,2.954,2.954,0,0,0-.559.345,3.271,3.271,0,0,0-.492.476l-14.8,17.681a1.68,1.68,0,0,1-.638.482,1.434,1.434,0,0,1-.721.1,1.669,1.669,0,0,1-.716-.265,2.3,2.3,0,0,1-.626-.618l-1.96-2.818a3.065,3.065,0,0,0-.851-.842,2.149,2.149,0,0,0-.958-.343,1.851,1.851,0,0,0-.949.16,2.249,2.249,0,0,0-.826.667l-3.546,4.5,49.567,6.258V405.8Z" transform="translate(-318.236 -334.393)" fill="#ff9f26"/>
  <path id="Path_11" data-name="Path 11" d="M361.99,314.2,307,307a1.209,1.209,0,0,1-.552-.23,1.824,1.824,0,0,1-.449-.486,2.522,2.522,0,0,1-.3-.671,2.865,2.865,0,0,1-.111-.788V270.173a2.811,2.811,0,0,1,.111-.783,2.394,2.394,0,0,1,.3-.657,1.7,1.7,0,0,1,.449-.465,1.155,1.155,0,0,1,.552-.2L361.99,263.4a2.168,2.168,0,0,1,1.725.627,2.391,2.391,0,0,1,.528.8,2.681,2.681,0,0,1,.195,1.014v46.033a2.613,2.613,0,0,1-.195,1,2.244,2.244,0,0,1-.528.772,2.062,2.062,0,0,1-.779.464,2.15,2.15,0,0,1-.947.083ZM307,269.081a.567.567,0,0,0-.272.1.836.836,0,0,0-.222.229,1.177,1.177,0,0,0-.149.324,1.382,1.382,0,0,0-.055.387v34.793a1.41,1.41,0,0,0,.055.389,1.241,1.241,0,0,0,.149.331.9.9,0,0,0,.222.24.593.593,0,0,0,.272.112l54.986,6.884a1.058,1.058,0,0,0,.465-.044,1.016,1.016,0,0,0,.381-.229,1.106,1.106,0,0,0,.258-.379,1.286,1.286,0,0,0,.1-.492V265.934a1.321,1.321,0,0,0-.1-.5,1.178,1.178,0,0,0-.258-.391,1.067,1.067,0,0,0-.846-.312Z" transform="translate(-304.285 -240.409)" fill="#cbcbcb"/>
  <path id="Path_1773" data-name="Path 1773" d="M52.589,528.424h1.653l.786-6.377h-2.44Z" transform="translate(-42.158 -418.499)" fill="#ffb6b6"/>
  <path id="Path_1774" data-name="Path 1774" d="M349.472,698.98h3.256a2.075,2.075,0,0,1,2.075,2.075v.068h-5.331Z" transform="translate(-339.462 -589.595)" fill="#2f2e41"/>
  <path id="Path_1775" data-name="Path 1775" d="M129.413,539.424h1.653l.786-6.377h-2.44Z" transform="translate(-103.744 -427.317)" fill="#ffb6b6"/>
  <path id="Path_1776" data-name="Path 1776" d="M426.3,709.98h3.256a2.075,2.075,0,0,1,2.075,2.075v.068H426.3Z" transform="translate(-401.048 -598.413)" fill="#2f2e41"/>
  <path id="Path_1777" data-name="Path 1777" d="M82.29,306.919l1.079,6.877-10.249.135,1.349-6.608Z" transform="translate(-58.617 -246.041)" fill="#ffb6b6"/>
  <path id="Path_1778" data-name="Path 1778" d="M363.821,480.631l3.264,8.691.4,36.019h-2.764L358.118,496.4l-6.068,26h-2.7l1.888-29.508s-.557-6.361,2.292-10.114l.694-2Z" transform="translate(-339.367 -414.555)" fill="#2f2e41"/>
  <path id="Path_1779" data-name="Path 1779" d="M341.274,443.381a2.023,2.023,0,0,0,1.3-2.818l4.36-14.214-3.207-.636-3.988,13.933a2.034,2.034,0,0,0,1.538,3.735Z" transform="translate(-330.821 -370.53)" fill="#ffb6b6"/>
  <path id="Path_1780" data-name="Path 1780" d="M370.212,412.323a.917.917,0,0,1-.178-.018h0a.921.921,0,0,1-.738-.835,46.727,46.727,0,0,0-1.493-7.181,5.684,5.684,0,0,1,8.975-5.935,5.61,5.61,0,0,1,2.165,3.837,27.8,27.8,0,0,1-.77,9.3.923.923,0,0,1-.875.7l-7.065.136Z" transform="translate(-354.009 -347.647)" fill="#3f3d56"/>
  <path id="Path_1781" data-name="Path 1781" d="M426.672,405.938a1.979,1.979,0,0,0-.1.294l-8.843,3-1.709-1.493-2.59,2.284,2.768,2.937a1.507,1.507,0,0,0,1.782.308l9.462-4.833a1.977,1.977,0,1,0-.766-2.5Z" transform="translate(-390.732 -353.748)" fill="#ffb6b6"/>
  <path id="Path_1782" data-name="Path 1782" d="M403.732,408.477l-3.224,2.816a.847.847,0,0,1-1.271-.18l-2.306-3.591a2.354,2.354,0,0,1,3.554-3.086l3.238,2.758a.847.847,0,0,1,.008,1.283Z" transform="translate(-377.047 -352.823)" fill="#3f3d56"/>
  <path id="Path_1783" data-name="Path 1783" d="M359.384,415.083l-3.984-1.565a.847.847,0,0,1-.425-1.211l2.125-3.7a2.354,2.354,0,1,1,4.376,1.734l-.957,4.144a.847.847,0,0,1-1.136.6Z" transform="translate(-343.784 -355.625)" fill="#3f3d56"/>
  <circle id="Ellipse_246" data-name="Ellipse 246" cx="4.333" cy="4.333" r="4.333" transform="translate(14.22 39.982)" fill="#ffb6b6"/>
  <path id="Path_1784" data-name="Path 1784" d="M393.983,348.789H387.1v-3c1.51-.6,2.988-1.11,3.881,0a3,3,0,0,1,3,3Z" transform="translate(-369.629 -305.935)" fill="#2f2e41"/>
  <circle id="Ellipse_247" data-name="Ellipse 247" cx="4.959" cy="4.959" r="4.959" transform="translate(12.118 38.887)" fill="#2f2e41"/>
  <circle id="Ellipse_248" data-name="Ellipse 248" cx="3.174" cy="3.174" r="3.174" transform="translate(10.333 36.904)" fill="#2f2e41"/>
</svg>
