<svg xmlns="http://www.w3.org/2000/svg" width="203.759" height="120" viewBox="0 0 203.759 120">
  <g id="Img" transform="translate(-10)">
    <path id="Path_133" data-name="Path 133" d="M959.412,612.659a22.855,22.855,0,0,1-1.068,6.319c-.014.047-.03.094-.046.142h-3.985c0-.043.008-.09.013-.142.266-3.055-1.252-21.424-3.084-24.6C951.4,594.633,959.721,602.953,959.412,612.659Z" transform="translate(-760.028 -499.595)" fill="#f1f1f1"/>
    <path id="Path_134" data-name="Path 134" d="M974.416,654.59c-.033.047-.068.095-.1.142h-2.99l.079-.142c.494-.891,1.956-3.556,3.312-6.319,1.458-2.969,2.8-6.05,2.683-7.165C977.433,641.358,978.442,649.026,974.416,654.59Z" transform="translate(-775.331 -535.208)" fill="#f1f1f1"/>
    <path id="Path_133-2" data-name="Path 133" d="M200.33,634.715a16.977,16.977,0,0,0,.793,4.693c.011.035.023.07.034.105h2.96c0-.032-.006-.067-.009-.105-.2-2.269.93-15.911,2.29-18.272C206.279,621.327,200.1,627.506,200.33,634.715Z" transform="translate(-179.302 -519.989)" fill="#f1f1f1"/>
    <path id="Path_134-2" data-name="Path 134" d="M193.864,665.857c.025.035.05.071.077.105h2.22l-.059-.105c-.367-.662-1.452-2.641-2.46-4.693-1.083-2.2-2.076-4.493-1.993-5.322C191.623,656.029,190.874,661.724,193.864,665.857Z" transform="translate(-172.614 -546.438)" fill="#f1f1f1"/>
    <path id="Path_1964" data-name="Path 1964" d="M411.008,474.668c-22.353-9.473-42.575-9.113-61.624-3.331-29.349-5.126-49.446-4.333-62.337,3.331V450.875H411.008Z" transform="translate(-255.391 -390.558)" fill="#cbcbcb"/>
    <path id="Path_1965" data-name="Path 1965" d="M410.627,276.654c-20.593-9.331-41.162-9.933-62.04,0-21.385-6.157-42.057-6.093-62.04,0v-72.33c21.246-6.341,41.912-6.189,62.04,0,21.262-6.167,41.96-6.363,62.04,0Z" transform="translate(-255.01 -199.625)" fill="#e5e5e5"/>
    <path id="Path_1966" data-name="Path 1966" d="M307.784,236.685l-.693-1.773a76.772,76.772,0,0,1,16.28-3.893c8.8-1.183,21.917-1.465,34.408,3.905l-.752,1.749c-12.073-5.191-24.8-4.918-33.35-3.775A76.441,76.441,0,0,0,307.784,236.685Z" transform="translate(-270.322 -223.01)" fill="#fff"/>
    <path id="Path_1967" data-name="Path 1967" d="M307.784,264.686l-.693-1.773a76.773,76.773,0,0,1,16.28-3.893c8.8-1.183,21.917-1.465,34.408,3.905l-.752,1.749c-12.073-5.191-24.8-4.918-33.35-3.775A76.44,76.44,0,0,0,307.784,264.686Z" transform="translate(-270.322 -244.348)" fill="#fff"/>
    <path id="Path_1968" data-name="Path 1968" d="M307.784,292.685l-.693-1.773a76.771,76.771,0,0,1,16.28-3.893c8.8-1.183,21.917-1.465,34.408,3.905l-.752,1.749c-12.073-5.191-24.8-4.918-33.35-3.775A76.445,76.445,0,0,0,307.784,292.685Z" transform="translate(-270.322 -265.529)" fill="#fff"/>
    <path id="Path_1969" data-name="Path 1969" d="M307.784,320.686l-.693-1.773a76.771,76.771,0,0,1,16.28-3.893c8.8-1.183,21.917-1.466,34.408,3.905l-.752,1.749c-12.073-5.191-24.8-4.918-33.35-3.775A76.445,76.445,0,0,0,307.784,320.686Z" transform="translate(-270.322 -286.817)" fill="#fff"/>
    <path id="Path_1970" data-name="Path 1970" d="M307.784,348.685l-.693-1.773a76.771,76.771,0,0,1,16.28-3.893c8.8-1.183,21.917-1.465,34.408,3.905l-.752,1.749c-12.073-5.191-24.8-4.918-33.35-3.775A76.441,76.441,0,0,0,307.784,348.685Z" transform="translate(-270.322 -308.104)" fill="#fff"/>
    <path id="Path_1971" data-name="Path 1971" d="M307.784,376.686l-.693-1.773a76.77,76.77,0,0,1,16.28-3.893c8.8-1.183,21.917-1.465,34.408,3.906l-.752,1.749c-12.073-5.191-24.8-4.918-33.35-3.775A76.44,76.44,0,0,0,307.784,376.686Z" transform="translate(-270.322 -329.392)" fill="#fff"/>
    <path id="Path_1972" data-name="Path 1972" d="M568.784,435.686l-.693-1.773a76.77,76.77,0,0,1,16.28-3.893c8.8-1.183,21.917-1.465,34.407,3.905l-.752,1.749c-12.073-5.191-24.8-4.918-33.35-3.775A76.443,76.443,0,0,0,568.784,435.686Z" transform="translate(-468.636 -374.247)" fill="#ff9f26"/>
    <path id="Path_1973" data-name="Path 1973" d="M568.547,272.453V236.067l.668-.209a80.973,80.973,0,0,1,50.067,0l.658.214V272.4l-1.288-.486c-16.957-6.4-33.372-6.4-48.789-.011Zm25.117-7.245a71.908,71.908,0,0,1,24.373,4.455v-32.2a79.032,79.032,0,0,0-47.586.008v32.15A63.374,63.374,0,0,1,593.664,265.208Z" transform="translate(-468.978 -224.216)" fill="#fff"/>
    <path id="Path_1974" data-name="Path 1974" d="M776.713,373.874l.249-6.056,8.553-17a2.467,2.467,0,0,1,1.119-1.113,2.5,2.5,0,0,1,3.484,1.451,2.584,2.584,0,0,1,.108.484,2.472,2.472,0,0,1-.248,1.423l-8.564,17.028Z" transform="translate(-627.413 -313.471)" fill="#ff9f26"/>
    <path id="Path_1975" data-name="Path 1975" d="M790.885,349.94,781.6,368.4l-.708-.356,8.979-17.853A2.366,2.366,0,0,1,790.885,349.94Z" transform="translate(-630.611 -313.871)" fill="#3f3d56"/>
    <path id="Path_1976" data-name="Path 1976" d="M802.145,355.467l-8.93,17.755-.708-.356,9.265-18.42a2.381,2.381,0,0,1,.27.559,2.459,2.459,0,0,1,.1.462Z" transform="translate(-639.443 -317.295)" fill="#3f3d56"/>
    <path id="Path_1977" data-name="Path 1977" d="M796.946,350.865l-9.386,18.663-.708-.356,9.4-18.686a2.306,2.306,0,0,1,.292.123A2.426,2.426,0,0,1,796.946,350.865Z" transform="translate(-635.141 -314.284)" fill="#3f3d56"/>
    <path id="Path_1978" data-name="Path 1978" d="M778.2,443.875l-.945.761.079-2.006A1.876,1.876,0,0,1,778.2,443.875Z" transform="translate(-627.894 -384.389)" fill="#3f3d56"/>
    <path id="Path_1979" data-name="Path 1979" d="M386.053,488.359l-1.131-3.43,1.2-11.278a1.47,1.47,0,0,1,.391-.855,1.487,1.487,0,0,1,2.248.079,1.537,1.537,0,0,1,.162.247,1.473,1.473,0,0,1,.16.845l-1.206,11.293Z" transform="translate(-329.576 -406.899)" fill="#ff9f26"/>
    <path id="Path_1980" data-name="Path 1980" d="M388.307,473.043,387,485.286l-.469-.05,1.265-11.841A1.41,1.41,0,0,1,388.307,473.043Z" transform="translate(-330.803 -407.468)" fill="#3f3d56"/>
    <path id="Path_1981" data-name="Path 1981" d="M395.96,474.254,394.7,486.029l-.469-.05,1.3-12.217a1.418,1.418,0,0,1,.268.255,1.464,1.464,0,0,1,.154.236Z" transform="translate(-336.66 -408.014)" fill="#3f3d56"/>
    <path id="Path_1982" data-name="Path 1982" d="M392.273,472.685l-1.322,12.378-.469-.05,1.324-12.393a1.369,1.369,0,0,1,.189.007A1.445,1.445,0,0,1,392.273,472.685Z" transform="translate(-333.808 -407.143)" fill="#3f3d56"/>
    <path id="Path_1983" data-name="Path 1983" d="M388.913,534.754l-.367.622-.376-1.135A1.118,1.118,0,0,1,388.913,534.754Z" transform="translate(-332.051 -454.048)" fill="#3f3d56"/>
    <g id="Group_23" data-name="Group 23" transform="translate(151.826 34.369)">
      <path id="Path_385" data-name="Path 385" d="M887.365,467.677a1.976,1.976,0,1,1-3.431-1.962l.013-.023a2.121,2.121,0,0,1,.186-.264l-1.662-11.848-.05-.355-.338-2.418-.05-.348.184.009,3.221.147.864.039.108,2.206.613,12.4A1.973,1.973,0,0,1,887.365,467.677Z" transform="translate(-859.113 -424.29)" fill="#ffb8b8"/>
      <path id="Path_386" data-name="Path 386" d="M876.883,422.249l4.09-.375A.807.807,0,0,0,881.7,421l-.758-8.5a3.1,3.1,0,0,0-6.177.551q.008.088.021.175l1.226,8.342a.806.806,0,0,0,.8.689A.571.571,0,0,0,876.883,422.249Z" transform="translate(-853.565 -393.206)" fill="#cbcbcb"/>
      <path id="Path_387" data-name="Path 387" d="M852.673,410.118a5.7,5.7,0,0,0-2.095-6.555c-1.542-1.055-3.652-1.434-5.925,1.272a28.294,28.294,0,0,0-5.736,11.363l9.307,1.515A29.873,29.873,0,0,0,852.673,410.118Z" transform="translate(-826.255 -387.945)" fill="#cbcbcb"/>
      <path id="Path_388" data-name="Path 388" d="M820.924,657.049H818.27l-1.262-10.235h3.916Z" transform="translate(-809.559 -573.926)" fill="#ffb8b8"/>
      <path id="Path_389" data-name="Path 389" d="M800.808,689.865h8.34v-3.222H804.03A3.222,3.222,0,0,0,800.808,689.865Z" transform="translate(-797.213 -604.279)" fill="#2f2e41"/>
      <path id="Path_390" data-name="Path 390" d="M902.958,648.978l-2.519.833-4.411-9.322,3.718-1.229Z" transform="translate(-869.778 -568.169)" fill="#ffb8b8"/>
      <path id="Path_391" data-name="Path 391" d="M896.871,682l7.918-2.617-1.011-3.059-4.859,1.606A3.222,3.222,0,0,0,896.871,682Z" transform="translate(-870.295 -596.418)" fill="#2f2e41"/>
      <circle id="Ellipse_65" data-name="Ellipse 65" cx="5.316" cy="5.316" r="5.316" transform="translate(15.26 2.301)" fill="#ffb8b8"/>
      <path id="Path_392" data-name="Path 392" d="M805.677,509.247l2.464-16.264a.758.758,0,0,1,1.485-.065l3.753,15.5a.981.981,0,0,0,1.1.733l10.351-1.664a.974.974,0,0,0,.778-1.245l-13.5-44.5a.757.757,0,0,1-.013-.39l.449-1.948a.971.971,0,0,0-.5-1.085c-1.838-.938-6.493-2.888-10.006-.752a.985.985,0,0,0-.45.634l-10.544,49.558a.974.974,0,0,0,.866,1.173l12.717,1.139q.043,0,.087,0a.976.976,0,0,0,.963-.828Z" transform="translate(-789.756 -428.973)" fill="#fe9332"/>
      <path id="Path_393" data-name="Path 393" d="M882.681,347.445a4.021,4.021,0,0,1-1.051-.913,1.364,1.364,0,0,1-.21-1.32,1.385,1.385,0,0,1,1.685-.578,4.025,4.025,0,0,1,1.548,1.154,3.98,3.98,0,0,1,1,1.383,1.21,1.21,0,0,1-1.945,1.4,4,4,0,0,1-.979-1.357Z" transform="translate(-858.581 -343.584)" fill="#2f2e41"/>
      <path id="Path_394" data-name="Path 394" d="M894.559,342.818a2.716,2.716,0,0,1,3.211-2.306,4.564,4.564,0,0,1,3.175,2.909c1.2,2.929.3,6.272-.856,9.22s-2.584,5.939-2.416,9.1a9.507,9.507,0,0,0,5.522,8.008c-1.664.754-3.653-.025-5.051-1.2A10.1,10.1,0,0,1,895.3,357.5a40.293,40.293,0,0,1,2.971-5.207,7.86,7.86,0,0,0,1.2-5.727c-.51-1.935-2.681-3.5-4.536-2.753Z" transform="translate(-868.658 -340.471)" fill="#2f2e41"/>
      <path id="Path_395" data-name="Path 395" d="M851.942,355.691c.463-.783.931-1.811.084-2.5a1.745,1.745,0,0,0-1.31-.346,6.246,6.246,0,0,1-2.919-.184,2.737,2.737,0,0,1-1.588-1.427,2.818,2.818,0,0,1,1.118-3.219,3.766,3.766,0,0,1,4.168-.074,4.294,4.294,0,0,1,4.034.469,6.411,6.411,0,0,1,2.414,3.387,6.538,6.538,0,0,1,.2,3.6,5.344,5.344,0,0,1-3.315,3.653,1.924,1.924,0,0,1-1.9-.281,3.575,3.575,0,0,1-.962-1.41A2.268,2.268,0,0,1,851.942,355.691Z" transform="translate(-831.685 -345.715)" fill="#2f2e41"/>
      <path id="Path_397" data-name="Path 397" d="M790.185,396.718a2.276,2.276,0,0,1,.052.355l9.3,5.364,2.26-1.3,2.409,3.154-3.777,2.692a1.731,1.731,0,0,1-2.078-.051l-9.588-7.564a2.273,2.273,0,1,1,1.423-2.649Z" transform="translate(-785.699 -381.999)" fill="#ffb8b8"/>
      <path id="Path_398" data-name="Path 398" d="M844.505,413.241l3.005,3.895a.974.974,0,0,0,1.472.081l3.4-3.532a2.705,2.705,0,1,0-3.23-4.341l-.087.067L844.8,411.8a.974.974,0,0,0-.3,1.445Z" transform="translate(-830.358 -392.549)" fill="#cbcbcb"/>
    </g>
    <path id="Path_1984" data-name="Path 1984" d="M208.55,453.173h2.884l1.372-11.126H208.55Z" transform="translate(-158.566 -336.014)" fill="#a0616a"/>
    <path id="Path_1985" data-name="Path 1985" d="M359.459,684.475h5.681a3.62,3.62,0,0,1,3.62,3.62v.118h-9.3Z" transform="translate(-310.207 -568.258)" fill="#2f2e41"/>
    <path id="Path_1986" data-name="Path 1986" d="M114.156,448.326l2.852.431,3.02-10.8-3.739-.636Z" transform="translate(-86.995 -332.416)" fill="#a0616a"/>
    <path id="Path_1987" data-name="Path 1987" d="M263.9,678.81l5.617.849h0a3.62,3.62,0,0,1,3.038,4.121l-.018.116-9.2-1.39Z" transform="translate(-237.326 -563.941)" fill="#2f2e41"/>
    <path id="Path_1988" data-name="Path 1988" d="M303.843,456.7l3.2.839-.213,5.192-.026,9.454a1.895,1.895,0,1,1-2.507.315l-.984-9.489Z" transform="translate(-267.788 -395.008)" fill="#a0616a"/>
    <path id="Path_1989" data-name="Path 1989" d="M302.107,423.569a2.614,2.614,0,0,1,1.616-2.325,2.444,2.444,0,0,1,2.646.426,2.331,2.331,0,0,1,.777,1.8,60.4,60.4,0,0,1-.685,7.52l-.011.071-4.681,1.576Z" transform="translate(-266.61 -367.932)" fill="#cbcbcb"/>
    <path id="Path_1990" data-name="Path 1990" d="M281.853,462.053l7.16-1.853,3.31,11.147.118,41.527-5.475-.034-2.289-33.611-14.587,31.057-5.882-.706,12.823-33.292s-.706-5.882,1.529-8.823l-.471-3.059Z" transform="translate(-237.986 -397.344)" fill="#2f2e41"/>
    <path id="Path_1991" data-name="Path 1991" d="M306.461,420.572a1.1,1.1,0,0,1-.234-.883l-3.266-9.8a2.493,2.493,0,0,1,.688-2.631l1.418-1.289.961-3.843,5.522,1.35-.455,1.82,2.5-.454,5.264,11.724-11,4.4-.542.009A1.1,1.1,0,0,1,306.461,420.572Z" transform="translate(-267.146 -353.535)" fill="#cbcbcb"/>
    <path id="Path_1992" data-name="Path 1992" d="M350.3,441.664l3.155-1,2.6,4.5,5.031,8a1.895,1.895,0,1,1-1.951,1.607l-5.9-7.493Z" transform="translate(-303.234 -382.834)" fill="#a0616a"/>
    <path id="Path_1993" data-name="Path 1993" d="M333.81,412.443a2.614,2.614,0,0,1,.123-2.829,2.446,2.446,0,0,1,2.464-1.055,2.33,2.33,0,0,1,1.62,1.108,60.413,60.413,0,0,1,3.441,6.722l.028.065-3.114,3.835Z" transform="translate(-290.437 -358.423)" fill="#cbcbcb"/>
    <circle id="Ellipse_275" data-name="Ellipse 275" cx="4.388" cy="4.388" r="4.388" transform="translate(38.591 38.991)" fill="#a0616a"/>
    <circle id="Ellipse_276" data-name="Ellipse 276" cx="4.226" cy="4.226" r="4.226" transform="translate(30.711 33.028)" fill="#2f2e41"/>
    <path id="Path_1994" data-name="Path 1994" d="M279.452,357.188a4.227,4.227,0,0,0,6.527-2.219,4.227,4.227,0,1,1-8.245-1.733A4.225,4.225,0,0,0,279.452,357.188Z" transform="translate(-248.16 -316.412)" fill="#2f2e41"/>
    <path id="Path_1995" data-name="Path 1995" d="M318.264,359.2a7.746,7.746,0,0,0-1.971-2.676,2.05,2.05,0,0,0-2.711-.246,5.027,5.027,0,1,0,2.982,4.023C317.289,360.194,317.538,359.3,318.264,359.2Z" transform="translate(-270.016 -318.398)" fill="#2f2e41"/>
    <path id="Path_1996" data-name="Path 1996" d="M244.889,698.851H154.238a.238.238,0,0,1,0-.476h90.651a.238.238,0,1,1,0,.476Z" transform="translate(-144 -578.851)" fill="#cbcbcb"/>
    <path id="Path_1997" data-name="Path 1997" d="M753.889,698.851H663.238a.238.238,0,0,1,0-.476h90.651a.238.238,0,0,1,0,.476Z" transform="translate(-540.367 -578.851)" fill="#cbcbcb"/>
    <rect id="Rectangle_275" data-name="Rectangle 275" width="0.476" height="72.101" transform="translate(94.012 4.699)" fill="#cbcbcb"/>
  </g>
</svg>
