<svg xmlns="http://www.w3.org/2000/svg" xmlns:xlink="http://www.w3.org/1999/xlink" width="168.079" height="120" viewBox="0 0 168.079 120">
  <defs>
    <linearGradient id="linear-gradient" x1="0.5" y1="1" x2="0.5" gradientUnits="objectBoundingBox">
      <stop offset="0" stop-color="gray" stop-opacity="0.251"/>
      <stop offset="0.54" stop-color="gray" stop-opacity="0.122"/>
      <stop offset="1" stop-color="gray" stop-opacity="0.102"/>
    </linearGradient>
    <linearGradient id="linear-gradient-2" x1="0.5" y1="1" x2="0.5" xlink:href="#linear-gradient"/>
  </defs>
  <g id="Img" transform="translate(0.479)">
    <path id="Path_1239" data-name="Path 1239" d="M254.48,120.716c-3.889,8.022-11.785,13.386-19.967,16.923a75.907,75.907,0,0,1-35.112,5.854q-3.145-.209-6.271-.669a79.1,79.1,0,0,1-20.968-6.106q-2.889-1.3-5.661-2.841a72.418,72.418,0,0,1-8.849-5.787q-1.058-.808-2.087-1.657c-.476-.392-.947-.793-1.426-1.183a17.988,17.988,0,0,0-3.208-2.185,11.451,11.451,0,0,0-1.074-.474c-3.671-1.4-7.9-.869-11.725.22-2.907.828-5.74,1.963-8.644,2.772a28.684,28.684,0,0,1-3.938.837,20.96,20.96,0,0,1-8.849-.777l-.244-.076q-.615-.193-1.219-.423l-.244-.094q-.585-.225-1.146-.484l-.244-.111q-.585-.272-1.146-.575c-.135-.07-.268-.146-.4-.218a23.954,23.954,0,0,1-5.731-4.462c-.048-.048-.094-.1-.146-.146-.233-.252-.461-.508-.682-.77-.082-.1-.164-.193-.244-.293q-.394-.48-.76-.982c-.037-.048-.072-.1-.107-.146a21.161,21.161,0,0,1-2.468-4.462c-.021-.048-.04-.1-.057-.146q-.293-.754-.534-1.532c-.066-.217-.129-.439-.184-.656-.019-.064-.037-.13-.053-.195a39.587,39.587,0,0,1-.9-9.774V98.949a111.754,111.754,0,0,1,.89-15.969.667.667,0,0,1,.016-.108,49.867,49.867,0,0,1,1.07-5.242,38.673,38.673,0,0,1,1.8-5.313A49.355,49.355,0,0,1,111.31,60.63c7.34-9.008,16.966-16.57,28.232-19.4A41.548,41.548,0,0,1,174.968,48.9c2.986,2.377,5.668,5.191,9.021,7.013a11.211,11.211,0,0,0,9.488,1,14.777,14.777,0,0,1,7.186-1.387,60.235,60.235,0,0,1,17.615,3.69c.228.083.457.17.683.256,14.74,5.639,27.41,16.842,34,31.239q.262.571.508,1.15C257.393,101.027,258.813,111.777,254.48,120.716Z" transform="translate(-89.536 -40.043)" fill="#ff9f26" opacity="0.1"/>
    <ellipse id="Ellipse_209" data-name="Ellipse 209" cx="12.923" cy="2.076" rx="12.923" ry="2.076" transform="translate(4.623 104.589)" fill="#ff9f26" opacity="0.1"/>
    <ellipse id="Ellipse_210" data-name="Ellipse 210" cx="22.913" cy="2.225" rx="22.913" ry="2.225" transform="translate(110.534 115.55)" fill="#ff9f26" opacity="0.1"/>
    <rect id="Rectangle_173" data-name="Rectangle 173" width="139.084" height="78.802" rx="12.49" transform="translate(16.936 15.772)" fill="url(#linear-gradient)"/>
    <rect id="Rectangle_174" data-name="Rectangle 174" width="138.658" height="77.432" rx="12.49" transform="translate(17.157 16.88)" fill="#fff"/>
    <rect id="Rectangle_175" data-name="Rectangle 175" width="138.658" height="77.432" rx="12.49" transform="translate(17.157 16.88)" fill="#fff"/>
    <rect id="Rectangle_176" data-name="Rectangle 176" width="138.658" height="77.432" rx="12.49" transform="translate(17.157 16.88)" fill="#fff" opacity="0.04"/>
    <path id="Path_1240" data-name="Path 1240" d="M282.574,149.29H145.324a.7.7,0,0,0-.7.7v2.976H283.272v-2.976a.7.7,0,0,0-.7-.7Z" transform="translate(-127.463 -133.298)" fill="#5a5773"/>
    <g id="buttons" transform="translate(18.975 16.88)">
      <circle id="Ellipse_211" data-name="Ellipse 211" cx="0.951" cy="0.951" r="0.951" fill="#fff"/>
      <circle id="Ellipse_212" data-name="Ellipse 212" cx="0.951" cy="0.951" r="0.951" transform="translate(2.562)" fill="#fff"/>
      <circle id="Ellipse_213" data-name="Ellipse 213" cx="0.951" cy="0.951" r="0.951" transform="translate(5.123)" fill="#fff"/>
    </g>
    <rect id="Rectangle_177" data-name="Rectangle 177" width="37.218" height="3.159" transform="translate(28.574 26.588)" fill="#ff9f26" opacity="0.2"/>
    <rect id="Rectangle_178" data-name="Rectangle 178" width="115.841" height="48.593" transform="translate(28.552 39.248)" fill="#5a5773" opacity="0.1"/>
    <path id="Path_1241" data-name="Path 1241" d="M551.256,260.608h-1.984v-3.853a7.922,7.922,0,1,0-15.843-.107v3.96h-1.979a3.311,3.311,0,0,0-3.3,3.3V279.75a3.311,3.311,0,0,0,3.3,3.3h19.806a3.31,3.31,0,0,0,3.3-3.3V263.909a3.31,3.31,0,0,0-3.3-3.3Zm-8.746,10.3v5.674a1.184,1.184,0,0,1-1.1,1.189,1.158,1.158,0,0,1-1.212-1.156V270.9a2.635,2.635,0,1,1,2.31,0Zm4.456-10.3H535.74v-3.96a5.611,5.611,0,1,1,11.222,0Z" transform="translate(-454.865 -218.186)" opacity="0.1"/>
    <path id="Path_1242" data-name="Path 1242" d="M551.256,258.608h-1.984v-3.853a7.922,7.922,0,1,0-15.843-.107v3.96h-1.979a3.311,3.311,0,0,0-3.3,3.3V277.75a3.311,3.311,0,0,0,3.3,3.3h19.806a3.31,3.31,0,0,0,3.3-3.3V261.909A3.31,3.31,0,0,0,551.256,258.608Zm-8.746,10.3v5.674a1.184,1.184,0,0,1-1.1,1.189,1.158,1.158,0,0,1-1.212-1.156V268.9a2.635,2.635,0,1,1,2.31,0Zm4.456-10.3H535.74v-3.96a5.611,5.611,0,1,1,11.222,0Z" transform="translate(-454.865 -216.479)" fill="#ff9f26"/>
    <rect id="Rectangle_179" data-name="Rectangle 179" width="11.725" height="2.768" transform="translate(132.668 34.577)" fill="#5a5773" opacity="0.1"/>
    <path id="Path_1243" data-name="Path 1243" d="M875.724,371.261a4.167,4.167,0,0,0-.392-1.114l-1.757-2.623h.01a4.425,4.425,0,0,1,0-1.964c.277-.647-.987-2.238-.987-2.238a.944.944,0,0,1,.247-.891c.4-.492-.247-1.932-.247-1.932s-.307-3.008-.338-3.468-.278-3.007-.278-3.007l-.586-5.4-1.042-14.312-.019-.268c.129-.063.2-.1.2-.1l-.208-7.913.18-.162c1.572-1.423,5.2-4.716,5.161-4.788s-.439-5.5-.486-6.858a8.172,8.172,0,0,0-.624-2.808c-.091-.18-.353-1.367-.461-1.869-.029-.138-.048-.224-.048-.224a8.259,8.259,0,0,1-.97-2.947c.092-.921.277-1.61-1.989-1.932a8.78,8.78,0,0,1-3.036-1.058,8.64,8.64,0,0,0-2.175-1.089s-.635-1.171-1.077-.774a6.143,6.143,0,0,1-.417-1.3l-.013-.082a4.314,4.314,0,0,0,1.7-2.439c.015-.056.026-.113.04-.168a.478.478,0,0,0,.136.025c.385,0,.622-.429.982-.565.146-.057.326-.066.439-.182a.429.429,0,0,0,.1-.323.646.646,0,0,0,0-.12q0-.021,0-.042v.015c-.1-.533-.511-1.006-.465-1.547.044-.509.492-.957.455-1.454a.784.784,0,0,0-.01-.117v.018a1.252,1.252,0,0,0-.293-.518,1.663,1.663,0,0,0-.6-.507c-.2-.089-.439-.11-.63-.217-.559-.3-.558-1.1-.89-1.639a1.45,1.45,0,0,0-1.357-.672c-.416.041-.792.262-1.2.334a3.146,3.146,0,0,1-1.667-.293,4.59,4.59,0,0,0-1.645-.439,1.4,1.4,0,0,0-1.364.833c-.092.293-.047.607-.117.9a1.97,1.97,0,0,1-1.061,1.159c-.293.162-.641.348-.732.656v-.023a.557.557,0,0,0-.015.075.548.548,0,0,0,0,.1,1.847,1.847,0,0,0,.186.612,1.687,1.687,0,0,1-.009,1.18c-.108.278-.293.523-.4.8a1.575,1.575,0,0,0-.1.4v-.023a1.626,1.626,0,0,0,0,.187,1.319,1.319,0,0,0,.146.615,1.1,1.1,0,0,0,.657.552c.293.067.476-.22.785-.146a1.223,1.223,0,0,1,.163.051c.01.066.021.132.032.2a4.3,4.3,0,0,0,1.484,2.513.958.958,0,0,0,.016.107h0a9.825,9.825,0,0,1,.122,1.765s-.461-.675-1.093.628a13.286,13.286,0,0,1-2.219,1.06c-.569.108-2.591.812-2.591.812a1.782,1.782,0,0,1-1.048.338c-.631,0-1.155,1.38-1.079,2.131s-.045,1.3-.632,1.335-.266,1.221-.262,1.241l-.054.256c-.114.524-.363,1.648-.451,1.824a8.2,8.2,0,0,0-.625,2.808c-.045,1.358-.439,6.766-.484,6.858-.031.06,2.453,2.33,4.2,3.917l.253.228-.8,7.506a2,2,0,0,0,.826,1.464c0,.088,0,.177-.009.269a9.388,9.388,0,0,1-.246,2.219,14.947,14.947,0,0,0-.185,3.13s-.247,5.369-.555,5.953a4.062,4.062,0,0,0-.278,2.049c.092.24-.309,6.688-.309,6.688l-.307,2.885s.092,2.761-.186,2.822-.432,1.964-.432,1.964-.985,1.35-.555,1.84-.063.707-.108.829-.94.586-.293,2.3a.521.521,0,0,0,.021.05c-.606.842-2.527,3.557-2.41,3.97a1.087,1.087,0,0,0,.512.615,3,3,0,0,0,2.462,0c2.049-.66,1.9-1.136,1.9-1.136a.87.87,0,0,1,.864-.829,2.426,2.426,0,0,0,1.48-.843l-.1-.37-.136-.512c.016-.146.12-.4.586-.545.71-.215.524-1.565.524-1.565s-.061-1.411.246-1.6.186-2.516.186-2.516a17.3,17.3,0,0,1,.831-2.824c.492-1.136,1.08-7.884,1.08-7.884a31.118,31.118,0,0,1,.77-4.266,24.143,24.143,0,0,0,.71-3.62s2.282-4.419,2.311-5.4c0,0,.293-.921.586.092s1.115,3.437,1.115,3.437l.8,2.976.956,4.449.618,3.744a5.822,5.822,0,0,0,.146,1.9c.24.492.586,1.625.4,1.84s.369,1.228.524,1.442,0,4.756,0,4.756.708,3.866,1.726,4.538a1.243,1.243,0,0,0,.225.117c-.015.419-.029.979-.01,1.272a.486.486,0,0,0,.032.192,5.35,5.35,0,0,0,1.357.951c.217,0,.985.537,1.017.8a8.537,8.537,0,0,0,2.568,1.4c.315.032,1.84.306,2.049-.123A.71.71,0,0,0,875.724,371.261Zm-5.456-55.291.158.136s.162,1.266.278,1.645a3.18,3.18,0,0,1-.023,1.117,2.569,2.569,0,0,0,.163.805c.138.277-.278.878-.278.878h-.37l-.116-4.74Zm-11.012-14.152v-.028a.092.092,0,0,0,0,.028Zm-5.687,18.247a.534.534,0,0,1-.023-.391,1.178,1.178,0,0,0,.078-.217,3.366,3.366,0,0,0,.085-.586.049.049,0,0,0,0-.007,3.1,3.1,0,0,1-.022-1.11c.11-.36.277-1.645.277-1.645l.105-.089.245-.212a1.737,1.737,0,0,1,.018-.209,16.317,16.317,0,0,1,.026,2.4,3.56,3.56,0,0,0-.463,1.364,5.6,5.6,0,0,1-.1,1.139A2.339,2.339,0,0,1,853.569,320.064Z" transform="translate(-727.34 -252.816)" fill="url(#linear-gradient-2)"/>
    <path id="Path_1244" data-name="Path 1244" d="M931.594,355.527v1.821l-3.736,1.878s-3.709-2.244-2.794-3.137c.586-.565.473-2.117.315-3.184h0c-.092-.621-.2-1.076-.2-1.076s6.663-1.9,5.656-.458a2.272,2.272,0,0,0-.25,1.727A7.848,7.848,0,0,0,931.594,355.527Z" transform="translate(-793.562 -305.344)" fill="#c37098"/>
    <path id="Path_1245" data-name="Path 1245" d="M863.877,437.5l-.482,5.931s-.722-.654-1.656-1.506c-1.732-1.579-4.191-3.838-4.162-3.9.045-.092.439-5.473.482-6.826a8.166,8.166,0,0,1,.618-2.793,17.392,17.392,0,0,0,.439-1.817c.035-.162.057-.268.057-.268l.808-.325s3.367,3.756,3.367,3.825-.23,2.954-.23,2.954l-.239.208-.1.089s-.161,1.26-.275,1.638a2.942,2.942,0,0,0,.022,1.1h0a3.4,3.4,0,0,1-.083.586,1.23,1.23,0,0,1-.078.215.537.537,0,0,0,.023.389,2.358,2.358,0,0,0,.252.482Z" transform="translate(-736.077 -369.514)" fill="#3f3d56"/>
    <path id="Path_1246" data-name="Path 1246" d="M1003.295,438.054c.035.072-3.556,3.349-5.112,4.765l-.706.64L997,437.527h1.237s.413-.6.275-.871a2.546,2.546,0,0,1-.159-.8,3.191,3.191,0,0,0,.022-1.111c-.114-.379-.275-1.638-.275-1.638l-.157-.135-.186-.162s-.23-2.885-.23-2.954,3.367-3.825,3.367-3.825l.8.321s.018.086.047.224c.108.5.367,1.68.457,1.861a8.168,8.168,0,0,1,.618,2.793C1002.855,432.581,1003.247,437.962,1003.295,438.054Z" transform="translate(-855.097 -369.539)" fill="#3f3d56"/>
    <path id="Path_1247" data-name="Path 1247" d="M999.44,822.993c-.215.427-1.726.146-2.038.123a8.259,8.259,0,0,1-2.544-1.391c-.031-.259-.793-.793-1.007-.793a5.355,5.355,0,0,1-1.344-.947.465.465,0,0,1-.031-.19c-.032-.5.031-1.795.031-1.795l4.428.245,2.152,3.237a4.165,4.165,0,0,1,.389,1.108A.731.731,0,0,1,999.44,822.993Z" transform="translate(-851.228 -704.141)" fill="#3f3d56"/>
    <path id="Path_1248" data-name="Path 1248" d="M999.44,822.993c-.215.427-1.726.146-2.038.123a8.259,8.259,0,0,1-2.544-1.391c-.031-.259-.793-.793-1.007-.793a5.355,5.355,0,0,1-1.344-.947.465.465,0,0,1-.031-.19c-.032-.5.031-1.795.031-1.795l4.428.245,2.152,3.237a4.165,4.165,0,0,1,.389,1.108A.731.731,0,0,1,999.44,822.993Z" transform="translate(-851.228 -704.141)" opacity="0.1"/>
    <path id="Path_1249" data-name="Path 1249" d="M999.49,833.459c-.215.427-1.726.146-2.038.123a8.258,8.258,0,0,1-2.544-1.391c-.031-.259-.793-.793-1.007-.793a5.351,5.351,0,0,1-1.344-.947.467.467,0,0,1-.031-.19l1.434.908a6.053,6.053,0,0,1,1.161.932,8.306,8.306,0,0,0,2.33,1.083,10.982,10.982,0,0,1,2.074-.129A.732.732,0,0,1,999.49,833.459Z" transform="translate(-851.278 -714.606)" opacity="0.1"/>
    <path id="Path_1250" data-name="Path 1250" d="M855.414,821.252a2.4,2.4,0,0,1-1.464.839.862.862,0,0,0-.855.824s.146.474-1.878,1.132a2.959,2.959,0,0,1-2.439,0,1.089,1.089,0,0,1-.508-.612c-.138-.487,2.565-4.2,2.565-4.2l2.459-.146,1.757.793.269,1.006Z" transform="translate(-728.127 -705.071)" fill="#3f3d56"/>
    <path id="Path_1251" data-name="Path 1251" d="M855.414,821.252a2.4,2.4,0,0,1-1.464.839.862.862,0,0,0-.855.824s.146.474-1.878,1.132a2.959,2.959,0,0,1-2.439,0,1.089,1.089,0,0,1-.508-.612c-.138-.487,2.565-4.2,2.565-4.2l2.459-.146,1.757.793.269,1.006Z" transform="translate(-728.127 -705.071)" opacity="0.1"/>
    <path id="Path_1252" data-name="Path 1252" d="M858.406,831.709a2.4,2.4,0,0,1-1.464.839.862.862,0,0,0-.855.824s.146.474-1.878,1.131a2.958,2.958,0,0,1-2.439,0,14.993,14.993,0,0,0,3.952-1.1c.306-.306.688-1.146.947-1.161a10.2,10.2,0,0,0,1.644-.9Z" transform="translate(-731.119 -715.528)" fill="none"/>
    <path id="Path_1253" data-name="Path 1253" d="M858.406,831.709a2.4,2.4,0,0,1-1.464.839.862.862,0,0,0-.855.824s.146.474-1.878,1.131a2.958,2.958,0,0,1-2.439,0,14.993,14.993,0,0,0,3.952-1.1c.306-.306.688-1.146.947-1.161a10.2,10.2,0,0,0,1.644-.9Z" transform="translate(-731.119 -715.528)" opacity="0.1"/>
    <path id="Path_1254" data-name="Path 1254" d="M886.663,607.4a4.4,4.4,0,0,0,0,1.954s-4.1.214-5.1-.458-1.71-4.52-1.71-4.52.146-4.519,0-4.733-.7-1.221-.52-1.435-.146-1.344-.4-1.833a5.486,5.486,0,0,1-.146-1.893l-.612-3.727-.946-4.427-.8-2.963s-.824-2.412-1.1-3.419-.575-.092-.575-.092c-.029.978-2.29,5.375-2.29,5.375a24.19,24.19,0,0,1-.7,3.6,31.26,31.26,0,0,0-.764,4.245s-.586,6.717-1.069,7.847a17.311,17.311,0,0,0-.815,2.809s.123,2.322-.183,2.5-.256,1.588-.256,1.588.183,1.342-.52,1.557-.586.672-.586.672-3.908.641-4.549-1.07.244-2.166.293-2.289.536-.335.108-.826.549-1.831.549-1.831.154-1.893.427-1.954.185-2.809.185-2.809l.3-2.871s.4-6.413.306-6.657a4.067,4.067,0,0,1,.275-2.049,46.874,46.874,0,0,0,.549-5.926,14.881,14.881,0,0,1,.183-3.114,9.074,9.074,0,0,0,.243-2.209c.026-.663.032-1.212.032-1.212l3.419-1.282,4.391-1.4,3.695,1.771,5.406,1.038.067.932,1.032,14.244.586,5.374s.244,2.534.275,2.992.335,3.452.335,3.452.641,1.435.244,1.923a.928.928,0,0,0-.244.878S886.938,606.755,886.663,607.4Z" transform="translate(-740.528 -494.62)" fill="#3f3d56"/>
    <path id="Path_1255" data-name="Path 1255" d="M932.376,351.374a2.272,2.272,0,0,0-.25,1.727,4.3,4.3,0,0,1-5.207-.195h0c-.092-.621-.2-1.076-.2-1.076S933.383,349.93,932.376,351.374Z" transform="translate(-795.1 -305.346)" opacity="0.1"/>
    <path id="Path_1256" data-name="Path 1256" d="M925.978,316.759a4.268,4.268,0,1,1-1.25-3.039A4.289,4.289,0,0,1,925.978,316.759Z" transform="translate(-787.144 -272.598)" fill="#c37098"/>
    <path id="Path_1257" data-name="Path 1257" d="M893.6,349.968,892.2,374.992l-7.634-1.6-1.512-10.032,1.5-13.467,1.127.145,1.988.253,1.969.121,2.134-.237Z" transform="translate(-753.874 -298.683)" opacity="0.1"/>
    <path id="Path_1258" data-name="Path 1258" d="M893.6,351.226,892.2,376.25l-7.634-1.6-1.512-10.032,1.5-13.466,1.127.143,1.988.253,1.969.122,2.134-.237Z" transform="translate(-753.874 -299.759)" fill="#ff9f26"/>
    <path id="Path_1259" data-name="Path 1259" d="M939.23,396.3l2.749.092-.773,1.082a9.7,9.7,0,0,0,.422,2.812c.367.626.259,10.305.259,10.305l-.732,1.389-1.252-1.558.016-12.779Z" transform="translate(-805.778 -344.16)" fill="#3f3d56"/>
    <path id="Path_1260" data-name="Path 1260" d="M939.23,396.3l2.749.092-.773,1.082a9.7,9.7,0,0,0,.422,2.812c.367.626.259,10.305.259,10.305l-.732,1.389-1.252-1.558.016-12.779Z" transform="translate(-805.778 -344.16)" opacity="0.1"/>
    <path id="Path_1261" data-name="Path 1261" d="M926.715,336.86l-2.565,2.84,1.465,1.527,2.428-2.367Z" transform="translate(-788.963 -287.559)" opacity="0.1"/>
    <path id="Path_1262" data-name="Path 1262" d="M926.715,335.61l-2.565,2.84,1.465,1.527,2.428-2.367Z" transform="translate(-788.963 -286.492)" fill="#ff9f26"/>
    <path id="Path_1263" data-name="Path 1263" d="M900.181,340.185l-2.6-2.6-.244,1.358,1.192,2.977Z" transform="translate(-766.072 -288.182)" opacity="0.1"/>
    <path id="Path_1264" data-name="Path 1264" d="M900.81,338.935l-2.6-2.6-.244,1.358,1.191,2.977Z" transform="translate(-766.61 -287.115)" fill="#ff9f26"/>
    <path id="Path_1265" data-name="Path 1265" d="M904.783,576.321a12.67,12.67,0,0,1-3.952,1.143c-2.519.321-4.168-2.885-4.168-2.885l-.962,1.252c-.306,1.329-4.962,1.664-6.855,1.161a3.028,3.028,0,0,1-1.086-.514c.026-.663.032-1.212.032-1.212l3.419-1.282,4.391-1.4,3.695,1.771,5.406,1.038Z" transform="translate(-761.848 -494.639)" opacity="0.1"/>
    <path id="Path_1266" data-name="Path 1266" d="M920.554,391.268l-1.4,25.023-7.635-1.6L910,404.657l1.5-13.467,1.127.146a13.674,13.674,0,0,1-.165,1.464c-.183.856.947,6.933.947,6.933s2.147,6.814,3.114,5.832,2.342-6.169,2.342-6.169c.932-1.923.016-7.319-.053-7.427a2.173,2.173,0,0,1-.088-.49Z" transform="translate(-780.827 -339.799)" opacity="0.1"/>
    <path id="Path_1267" data-name="Path 1267" d="M998.117,507.414l.064,2.452-.706.64L997,504.57h1.054Z" transform="translate(-855.097 -436.583)" opacity="0.1"/>
    <path id="Path_1268" data-name="Path 1268" d="M890.723,493.1h0a3.408,3.408,0,0,1-.083.586c0-.054,0-.085-.012-.089C890.584,493.585,890.637,493.361,890.723,493.1Z" transform="translate(-764.275 -426.792)" opacity="0.1"/>
    <path id="Path_1269" data-name="Path 1269" d="M888.147,501.762l-.482,5.931s-.722-.654-1.656-1.506l.111-1.051s.394-2.582.537-3.856a2.352,2.352,0,0,0,.252.482Z" transform="translate(-760.347 -433.775)" opacity="0.1"/>
    <path id="Path_1270" data-name="Path 1270" d="M876.873,374.993s-.457-.672-1.083.625a13.1,13.1,0,0,1-2.2,1.054c-.562.107-2.562.81-2.562.81a1.768,1.768,0,0,1-1.038.335c-.627,0-1.146,1.374-1.07,2.122s-.045,1.3-.625,1.329-.261,1.235-.261,1.235l3.863,4.428s.245,4.077.123,4.2a3.616,3.616,0,0,0-.458,1.358c.107.041-.586,4.55-.586,4.55l-.931,8.749a2.213,2.213,0,0,0,1.894,1.969c1.894.505,6.554.171,6.854-1.158l.962-1.253s1.648,3.207,4.167,2.887A12.115,12.115,0,0,0,888.051,407l-.275-10.485-.183-7.558,3.933-6.463a8.226,8.226,0,0,1-.962-2.928c.092-.912.274-1.6-1.97-1.923a8.617,8.617,0,0,1-3.008-1.054,8.6,8.6,0,0,0-2.152-1.083s-.629-1.171-1.067-.77a14.4,14.4,0,0,1,.4,1.9,6.293,6.293,0,0,0,.138,1.481c.069.116.985,5.5.053,7.427,0,0-1.369,5.186-2.342,6.168s-3.113-5.832-3.113-5.832-1.13-6.078-.947-6.933S876.873,374.993,876.873,374.993Z" transform="translate(-744.938 -325.679)" fill="#3f3d56"/>
    <circle id="Ellipse_214" data-name="Ellipse 214" cx="0.672" cy="0.672" r="0.672" transform="translate(134.53 67.987)" fill="#3f3d56"/>
    <circle id="Ellipse_215" data-name="Ellipse 215" cx="0.672" cy="0.672" r="0.672" transform="translate(134.53 71.154)" fill="#3f3d56"/>
    <circle id="Ellipse_216" data-name="Ellipse 216" cx="0.672" cy="0.672" r="0.672" transform="translate(134.53 67.987)" opacity="0.1"/>
    <circle id="Ellipse_217" data-name="Ellipse 217" cx="0.672" cy="0.672" r="0.672" transform="translate(134.53 71.154)" opacity="0.1"/>
    <path id="Path_1271" data-name="Path 1271" d="M992.47,804.34a17.951,17.951,0,0,1,3.032.427C995.775,804.981,992.47,804.34,992.47,804.34Z" transform="translate(-851.23 -692.48)" stroke="#ff9f26" stroke-miterlimit="10" stroke-width="1" opacity="0.1"/>
    <path id="Path_1272" data-name="Path 1272" d="M880.3,789.53s.586.732.337,1.069S880.3,789.53,880.3,789.53Z" transform="translate(-755.473 -679.838)" stroke="#ff9f26" stroke-miterlimit="10" stroke-width="1" opacity="0.1"/>
    <path id="Path_1273" data-name="Path 1273" d="M885.1,805.252s1.069-.7,1.5-.236S885.1,805.252,885.1,805.252Z" transform="translate(-759.57 -692.921)" stroke="#ff9f26" stroke-miterlimit="10" stroke-width="1" opacity="0.1"/>
    <path id="Path_1274" data-name="Path 1274" d="M925.994,316.767a4.259,4.259,0,0,1-.138,1.085.488.488,0,0,1-.284-.477c.019-.174.135-.334.11-.506-.036-.266-.359-.375-.528-.586a1.361,1.361,0,0,1-.146-.954c.018-.329-.066-.732-.375-.845-.092-.034-.193-.037-.282-.075-.243-.1-.318-.4-.48-.612a1.265,1.265,0,0,0-1.464-.211,6.942,6.942,0,0,1-.659.275.861.861,0,0,1-.689-.051c-.1-.061-.174-.146-.274-.208a.945.945,0,0,0-1.051.256,3.633,3.633,0,0,1-.878.757c-.162.073-.363.117-.439.275a.577.577,0,0,0-.047.274,8.192,8.192,0,0,1-.051,1.705c-.076.359-.328.766-.693.722a.684.684,0,0,1-.133-.034,4.289,4.289,0,1,1,8.5-.793Z" transform="translate(-787.16 -272.607)" opacity="0.1"/>
    <path id="Path_1275" data-name="Path 1275" d="M907.328,299.85c.11.025.214.082.326.1.365.044.616-.363.693-.722a7.894,7.894,0,0,0,.053-1.705.558.558,0,0,1,.045-.274c.083-.158.284-.2.439-.275a3.793,3.793,0,0,0,.878-.757.935.935,0,0,1,1.05-.256c.1.059.177.146.274.208a.878.878,0,0,0,.691.051c.227-.067.439-.186.657-.275a1.271,1.271,0,0,1,1.464.209c.162.209.237.509.48.612.089.038.19.042.283.076.309.116.388.515.375.845a1.419,1.419,0,0,0,.146.954c.17.208.492.316.528.586.023.173-.091.334-.11.507a.486.486,0,0,0,.458.518c.381,0,.616-.426.972-.562a1.154,1.154,0,0,0,.439-.182.485.485,0,0,0,.091-.4c-.072-.561-.521-1.048-.473-1.61.045-.539.544-1.009.439-1.538a1.246,1.246,0,0,0-.293-.523,1.692,1.692,0,0,0-.6-.505,6.142,6.142,0,0,1-.625-.215c-.553-.3-.552-1.093-.878-1.632a1.433,1.433,0,0,0-1.335-.665c-.411.041-.784.259-1.191.332a3.09,3.09,0,0,1-1.651-.293,4.515,4.515,0,0,0-1.629-.439,1.389,1.389,0,0,0-1.353.828c-.091.293-.045.606-.116.9a1.965,1.965,0,0,1-1.051,1.153c-.321.179-.706.384-.744.748a1.542,1.542,0,0,0,.183.663,1.687,1.687,0,0,1-.009,1.171c-.107.277-.285.52-.394.795a1.427,1.427,0,0,0,.038,1.171,1.092,1.092,0,0,0,.669.549C906.839,300.068,907.021,299.783,907.328,299.85Z" transform="translate(-777.188 -255.142)" fill="#3f3d56"/>
    <g id="Group_23" data-name="Group 23" transform="translate(128.548 40.348)" opacity="0.1">
      <path id="Path_1276" data-name="Path 1276" d="M908.344,335.056c-.076.359-.329.766-.694.722-.113-.015-.215-.072-.326-.1-.306-.067-.487.22-.776.146a1.1,1.1,0,0,1-.67-.549,1.266,1.266,0,0,1-.136-.479,1.337,1.337,0,0,0,.136.754,1.1,1.1,0,0,0,.67.549c.293.067.47-.22.776-.146a3.307,3.307,0,0,0,.326.1c.364.045.618-.362.694-.72a4.235,4.235,0,0,0,.07-.962,3.612,3.612,0,0,1-.07.687Z" transform="translate(-905.733 -331.641)"/>
      <path id="Path_1277" data-name="Path 1277" d="M908.221,317.18a1.685,1.685,0,0,0-.1-.707,3.759,3.759,0,0,1-.168-.463.66.66,0,0,0-.015.075,1.568,1.568,0,0,0,.183.663,1.68,1.68,0,0,1,.1.432Z" transform="translate(-907.616 -315.969)"/>
      <path id="Path_1278" data-name="Path 1278" d="M983.674,318.73c-.069.416-.405.807-.439,1.244a1.031,1.031,0,0,0,0,.225C983.308,319.689,983.76,319.236,983.674,318.73Z" transform="translate(-971.885 -318.29)"/>
      <path id="Path_1279" data-name="Path 1279" d="M975.038,339.83a.344.344,0,0,1-.083.164c-.108.116-.293.124-.439.182-.356.136-.586.566-.972.562a.49.49,0,0,1-.439-.34.746.746,0,0,0-.021.1.486.486,0,0,0,.458.517c.382,0,.616-.426.972-.561.146-.057.325-.066.439-.182a.485.485,0,0,0,.091-.4C975.043,339.855,975.04,339.843,975.038,339.83Z" transform="translate(-963.224 -336.302)"/>
      <path id="Path_1280" data-name="Path 1280" d="M969.857,332.786c-.037-.266-.359-.375-.528-.586a.8.8,0,0,1-.161-.48,1.08,1.08,0,0,0,.161.755c.168.2.424.293.506.5A.469.469,0,0,0,969.857,332.786Z" transform="translate(-959.878 -329.379)"/>
      <path id="Path_1281" data-name="Path 1281" d="M930.494,317.6c.012-.329-.067-.732-.376-.845-.091-.034-.192-.038-.281-.075-.243-.1-.319-.4-.48-.612a1.268,1.268,0,0,0-1.464-.211c-.22.089-.429.208-.657.275a.86.86,0,0,1-.689-.051c-.1-.061-.176-.146-.274-.208a.944.944,0,0,0-1.051.256,3.634,3.634,0,0,1-.878.757c-.164.073-.363.117-.448.275a.575.575,0,0,0-.045.274v.171a.416.416,0,0,1,.042-.17c.085-.158.284-.2.448-.275a3.79,3.79,0,0,0,.878-.757.937.937,0,0,1,1.051-.256c.1.059.177.146.274.206a.855.855,0,0,0,.689.051,6.768,6.768,0,0,0,.657-.274,1.269,1.269,0,0,1,1.464.209c.161.208.237.509.48.612.089.038.19.042.281.076a.7.7,0,0,1,.372.653Z" transform="translate(-921.196 -315.727)"/>
    </g>
    <g id="Group_24" data-name="Group 24" transform="translate(130.636 42.605)" opacity="0.1">
      <path id="Path_1282" data-name="Path 1282" d="M920,332.294a1.123,1.123,0,0,1,.846-1.05,3.513,3.513,0,0,1,1.973.089c1.389.46-.176,2.114-.176,2.114s-1.041,1.025-2.011.309a1.522,1.522,0,0,1-.567-.878A2.244,2.244,0,0,1,920,332.294Z" transform="translate(-919.997 -331.144)"/>
      <path id="Path_1283" data-name="Path 1283" d="M952.377,332.295a1.123,1.123,0,0,0-.848-1.05,3.513,3.513,0,0,0-1.972.089c-1.389.46.176,2.114.176,2.114s1.039,1.025,2.011.309a1.52,1.52,0,0,0,.566-.878A2.236,2.236,0,0,0,952.377,332.295Z" transform="translate(-944.74 -331.145)"/>
      <path id="Path_1284" data-name="Path 1284" d="M910.5,291.4v.069h2.537v-.082Z" transform="translate(-907.942 -291.348)"/>
      <path id="Path_1285" data-name="Path 1285" d="M942.59,334.179h.081v-.233a.667.667,0,0,1,.685,0v.208h.146v-.136h-.072s.029-.283-.448-.237c0,0-.383-.037-.375.206h-.088Z" transform="translate(-939.223 -333.391)"/>
    </g>
    <path id="Path_1286" data-name="Path 1286" d="M920,331.648a1.123,1.123,0,0,1,.846-1.05,3.532,3.532,0,0,1,1.973.089c1.389.461-.176,2.114-.176,2.114s-1.041,1.025-2.011.309a1.512,1.512,0,0,1-.567-.878A2.234,2.234,0,0,1,920,331.648Z" transform="translate(-789.36 -287.988)" fill="#ff9f26"/>
    <path id="Path_1287" data-name="Path 1287" d="M952.377,331.648a1.123,1.123,0,0,0-.848-1.05,3.526,3.526,0,0,0-1.972.089c-1.389.461.176,2.114.176,2.114s1.039,1.025,2.011.309a1.512,1.512,0,0,0,.567-.878A2.225,2.225,0,0,0,952.377,331.648Z" transform="translate(-814.108 -287.988)" fill="#ff9f26"/>
    <path id="Path_1288" data-name="Path 1288" d="M910.5,290.773v.07h2.537v-.083Z" transform="translate(-777.306 -248.205)" fill="#ff9f26"/>
    <path id="Path_1289" data-name="Path 1289" d="M942.59,333.551h.081v-.233a.671.671,0,0,1,.685,0v.209h.146v-.138h-.072s.029-.281-.448-.237c0,0-.383-.035-.375.206h-.088Z" transform="translate(-808.586 -290.25)" fill="#ff9f26"/>
    <rect id="Rectangle_180" data-name="Rectangle 180" width="0.831" height="18.722" transform="translate(17.13 66.911)" fill="#535461"/>
    <path id="Path_1290" data-name="Path 1290" d="M120,617.373l-.053.843-.073,1.19-.031.5-.073,1.192-.032.5-.073,1.19-.839,13.536a2.292,2.292,0,0,1-2.288,2.152h-4.359a2.291,2.291,0,0,1-2.286-2.152l-.843-13.536-.073-1.19-.031-.5-.072-1.195-.031-.5-.073-1.19-.053-.843a1.187,1.187,0,0,1,1.186-1.26h8.913A1.186,1.186,0,0,1,120,617.373Z" transform="translate(-96.813 -531.804)" fill="#3f3d56"/>
    <path id="Path_1291" data-name="Path 1291" d="M93.289,590.46l-.073,1.19H82.183l-.073-1.19Z" transform="translate(-70.155 -504.042)" fill="#9d9cb5"/>
    <path id="Path_1292" data-name="Path 1292" d="M93.791,601.98l-.073,1.192H82.895l-.075-1.192Z" transform="translate(-70.761 -513.876)" fill="#9d9cb5"/>
    <path id="Path_1293" data-name="Path 1293" d="M94.3,613.51l-.073,1.19H83.615l-.075-1.19Z" transform="translate(-71.376 -523.719)" fill="#9d9cb5"/>
    <path id="Path_1294" data-name="Path 1294" d="M38.1,523.573a21.584,21.584,0,0,1,6.859,8.984,21.619,21.619,0,0,1-10.686-3.7,21.509,21.509,0,0,1-6.859-8.984A21.6,21.6,0,0,1,38.1,523.573Z" transform="translate(-27.41 -449.645)" fill="#ff9f26"/>
    <path id="Path_1295" data-name="Path 1295" d="M27.46,519.87s6.057,3.367,8,6.148S45,532.558,45,532.558" transform="translate(-27.453 -449.645)" fill="none" stroke="#535461" stroke-miterlimit="10" stroke-width="2"/>
    <path id="Path_1296" data-name="Path 1296" d="M87.871,485.246a11.738,11.738,0,0,1,3.734,4.889,10.668,10.668,0,0,1-9.546-6.9A11.648,11.648,0,0,1,87.871,485.246Z" transform="translate(-74.06 -418.367)" fill="#ff9f26"/>
    <path id="Path_1297" data-name="Path 1297" d="M82.06,483.18s3.3,1.83,4.353,3.345,5.192,3.56,5.192,3.56" transform="translate(-74.06 -418.324)" fill="none" stroke="#535461" stroke-miterlimit="10" stroke-width="2"/>
    <path id="Path_1298" data-name="Path 1298" d="M152.048,503.805a16.229,16.229,0,0,0-3.668,7.675,14.753,14.753,0,0,0,10.964-12.05A16.231,16.231,0,0,0,152.048,503.805Z" transform="translate(-130.672 -432.196)" fill="#ff9f26"/>
    <path id="Path_1299" data-name="Path 1299" d="M159.344,499.43s-3.944,3.411-4.946,5.762-6.018,6.294-6.018,6.294" transform="translate(-130.672 -432.196)" fill="none" stroke="#535461" stroke-miterlimit="10" stroke-width="2"/>
  </g>
</svg>
