<svg id="Img" xmlns="http://www.w3.org/2000/svg" width="160.84" height="120" viewBox="0 0 160.84 120">
  <line id="Line_17" data-name="Line 17" x2="20.757" transform="translate(56.205 36.795)" fill="none" stroke="#3f3d56" stroke-miterlimit="10" stroke-width="2"/>
  <ellipse id="Ellipse_169" data-name="Ellipse 169" cx="5.694" cy="1.787" rx="5.694" ry="1.787" transform="matrix(0.357, -0.934, 0.934, 0.357, 26.108, 63.743)" fill="#2f2e41"/>
  <path id="Path_1229" data-name="Path 1229" d="M807.71,308.4c2.258,16.805-.817,33.629-16.457,40.18a30.7,30.7,0,0,1-40.18-16.457c-6.551-15.64,8.906-25,16.457-40.18C782.863,261.116,800.7,256.214,807.71,308.4Z" transform="translate(-647.53 -235)" fill="#f2f2f2"/>
  <ellipse id="Ellipse_170" data-name="Ellipse 170" cx="24.504" cy="3.334" rx="24.504" ry="3.334" transform="translate(107.52 111.171)" fill="#3f3d56"/>
  <rect id="Rectangle_160" data-name="Rectangle 160" width="3.459" height="6.198" transform="translate(116.917 109.354) rotate(-105.453)" fill="#2f2e41"/>
  <ellipse id="Ellipse_171" data-name="Ellipse 171" cx="1.081" cy="2.883" rx="1.081" ry="2.883" transform="translate(113.83 104.674) rotate(-15.453)" fill="#2f2e41"/>
  <ellipse id="Ellipse_172" data-name="Ellipse 172" cx="5.694" cy="1.787" rx="5.694" ry="1.787" transform="translate(130.543 99.715) rotate(-82.281)" fill="#2f2e41"/>
  <circle id="Ellipse_173" data-name="Ellipse 173" cx="11.387" cy="11.387" r="11.387" transform="translate(120.577 93.584)" fill="#2f2e41"/>
  <rect id="Rectangle_161" data-name="Rectangle 161" width="3.459" height="6.198" transform="translate(116.917 107.336) rotate(-105.453)" fill="#2f2e41"/>
  <ellipse id="Ellipse_174" data-name="Ellipse 174" cx="1.081" cy="2.883" rx="1.081" ry="2.883" transform="translate(113.83 102.656) rotate(-15.453)" fill="#2f2e41"/>
  <circle id="Ellipse_175" data-name="Ellipse 175" cx="3.892" cy="3.892" r="3.892" transform="translate(131.062 94.556)" fill="#fff"/>
  <circle id="Ellipse_176" data-name="Ellipse 176" cx="1.297" cy="1.297" r="1.297" transform="translate(134.902 95.433)" fill="#3f3d56"/>
  <path id="Path_1230" data-name="Path 1230" d="M1016.045,716.243c4.214-.211,7.441-4.152,7.209-8.8s-3.838-8.251-8.052-8.04-4.875,3.519-4.642,8.17S1011.831,716.454,1016.045,716.243Z" transform="translate(-870.931 -603.447)" fill="#ff9f26"/>
  <path id="Path_1231" data-name="Path 1231" d="M908.692,697.833a2.595,2.595,0,0,1-.419-5.172c1.428-.116,1.818,1.018,1.933,2.447S910.12,697.718,908.692,697.833Z" transform="translate(-781.379 -597.679)" fill="#fff"/>
  <path id="Path_1232" data-name="Path 1232" d="M49.464,320.682h63.782l9.889,4.818,15.756,7.676,10.3-19.288h29.151" transform="translate(-42.334 -268.646)" fill="none" stroke="#3f3d56" stroke-miterlimit="10" stroke-width="2"/>
  <circle id="Ellipse_177" data-name="Ellipse 177" cx="1.973" cy="1.973" r="1.973" transform="translate(30.142 52.081)" fill="#ff9f26"/>
  <circle id="Ellipse_178" data-name="Ellipse 178" cx="1.973" cy="1.973" r="1.973" transform="translate(48.552 50.063)" fill="#ff9f26"/>
  <circle id="Ellipse_179" data-name="Ellipse 179" cx="1.973" cy="1.973" r="1.973" transform="translate(78.797 54.885)" fill="#ff9f26"/>
  <circle id="Ellipse_180" data-name="Ellipse 180" cx="1.973" cy="1.973" r="1.973" transform="translate(121.316 43.269)" fill="#ff9f26"/>
  <circle id="Ellipse_181" data-name="Ellipse 181" cx="1.973" cy="1.973" r="1.973" transform="translate(100.714 50.94)" fill="#ff9f26"/>
  <circle id="Ellipse_182" data-name="Ellipse 182" cx="2.127" cy="2.127" r="2.127" transform="translate(59.501 81.678)" fill="none" stroke="#3f3d56" stroke-miterlimit="10" stroke-width="2"/>
  <ellipse id="Ellipse_183" data-name="Ellipse 183" cx="24.504" cy="3.334" rx="24.504" ry="3.334" transform="translate(0 113.333)" fill="#3f3d56"/>
  <circle id="Ellipse_184" data-name="Ellipse 184" cx="11.387" cy="11.387" r="11.387" transform="translate(11.792 88.991)" fill="#2f2e41"/>
  <rect id="Rectangle_162" data-name="Rectangle 162" width="3.459" height="6.198" transform="translate(17.99 109.315)" fill="#2f2e41"/>
  <rect id="Rectangle_163" data-name="Rectangle 163" width="3.459" height="6.198" transform="translate(24.909 109.315)" fill="#2f2e41"/>
  <ellipse id="Ellipse_185" data-name="Ellipse 185" cx="2.883" cy="1.081" rx="2.883" ry="1.081" transform="translate(17.99 114.504)" fill="#2f2e41"/>
  <ellipse id="Ellipse_186" data-name="Ellipse 186" cx="2.883" cy="1.081" rx="2.883" ry="1.081" transform="translate(24.909 114.36)" fill="#2f2e41"/>
  <circle id="Ellipse_187" data-name="Ellipse 187" cx="3.892" cy="3.892" r="3.892" transform="translate(19.575 93.605)" fill="#fff"/>
  <circle id="Ellipse_188" data-name="Ellipse 188" cx="1.297" cy="1.297" r="1.297" transform="translate(22.17 96.198)" fill="#3f3d56"/>
  <path id="Path_1233" data-name="Path 1233" d="M125.215,600.17c-.919-4.118,2.02-8.279,6.565-9.294s8.975,1.5,9.895,5.618-2.093,5.637-6.638,6.651S126.135,604.288,125.215,600.17Z" transform="translate(-113.083 -510.38)" fill="#ff9f26"/>
  <circle id="Ellipse_189" data-name="Ellipse 189" cx="11.387" cy="11.387" r="11.387" transform="translate(7.9 56.274)" fill="#2f2e41"/>
  <rect id="Rectangle_164" data-name="Rectangle 164" width="3.459" height="6.198" transform="translate(14.098 76.597)" fill="#2f2e41"/>
  <rect id="Rectangle_165" data-name="Rectangle 165" width="3.459" height="6.198" transform="translate(21.017 76.597)" fill="#2f2e41"/>
  <ellipse id="Ellipse_190" data-name="Ellipse 190" cx="2.883" cy="1.081" rx="2.883" ry="1.081" transform="translate(14.098 81.786)" fill="#2f2e41"/>
  <ellipse id="Ellipse_191" data-name="Ellipse 191" cx="2.883" cy="1.081" rx="2.883" ry="1.081" transform="translate(21.017 81.642)" fill="#2f2e41"/>
  <circle id="Ellipse_192" data-name="Ellipse 192" cx="3.892" cy="3.892" r="3.892" transform="translate(15.683 60.887)" fill="#fff"/>
  <circle id="Ellipse_193" data-name="Ellipse 193" cx="1.297" cy="1.297" r="1.297" transform="translate(18.278 63.481)" fill="#3f3d56"/>
  <path id="Path_1234" data-name="Path 1234" d="M98.215,373.17c-.919-4.118,2.02-8.279,6.565-9.294s8.975,1.5,9.895,5.618-2.093,5.637-6.638,6.651S99.135,377.288,98.215,373.17Z" transform="translate(-89.975 -316.098)" fill="#ff9f26"/>
  <ellipse id="Ellipse_194" data-name="Ellipse 194" cx="1.787" cy="5.694" rx="1.787" ry="5.694" transform="translate(0.551 61.553) rotate(-64.626)" fill="#2f2e41"/>
  <path id="Path_1235" data-name="Path 1235" d="M137.043,523.45c0,1.115,2.87,3.315,6.054,3.315s6.17-3.138,6.17-4.252-2.986.216-6.17.216S137.043,522.335,137.043,523.45Z" transform="translate(-123.35 -451.681)" fill="#fff"/>
  <rect id="Rectangle_166" data-name="Rectangle 166" width="18.181" height="9.248" transform="translate(120.417 81.393)" fill="#ff9f26"/>
  <rect id="Rectangle_167" data-name="Rectangle 167" width="18.181" height="9.248" transform="translate(118.994 82.895)" fill="none" stroke="#3f3d56" stroke-miterlimit="10" stroke-width="2"/>
  <rect id="Rectangle_168" data-name="Rectangle 168" width="5.189" height="5.189" transform="translate(32.661 28.682)" fill="#ff6584"/>
  <rect id="Rectangle_169" data-name="Rectangle 169" width="5.189" height="5.189" transform="translate(31.364 26.953)" fill="none" stroke="#3f3d56" stroke-miterlimit="10" stroke-width="2"/>
  <circle id="Ellipse_195" data-name="Ellipse 195" cx="11.387" cy="11.387" r="11.387" transform="translate(119.203 15.923)" fill="#2f2e41"/>
  <rect id="Rectangle_170" data-name="Rectangle 170" width="3.459" height="6.198" transform="translate(138.392 41.276) rotate(169.739)" fill="#2f2e41"/>
  <rect id="Rectangle_171" data-name="Rectangle 171" width="3.459" height="6.198" transform="translate(131.586 42.509) rotate(169.739)" fill="#2f2e41"/>
  <ellipse id="Ellipse_196" data-name="Ellipse 196" cx="2.883" cy="1.081" rx="2.883" ry="1.081" transform="matrix(0.763, -0.646, 0.646, 0.763, 126.392, 44.622)" fill="#2f2e41"/>
  <ellipse id="Ellipse_197" data-name="Ellipse 197" cx="2.883" cy="1.081" rx="2.883" ry="1.081" transform="matrix(0.763, -0.646, 0.646, 0.763, 133.056, 43.415)" fill="#2f2e41"/>
  <circle id="Ellipse_198" data-name="Ellipse 198" cx="3.892" cy="3.892" r="3.892" transform="translate(125.903 20.632)" fill="#fff"/>
  <circle id="Ellipse_199" data-name="Ellipse 199" cx="1.297" cy="1.297" r="1.297" transform="translate(126.898 21.832)" fill="#3f3d56"/>
  <path id="Path_1236" data-name="Path 1236" d="M910.324,89.843c.171-4.216-3.462-7.786-8.115-7.976s-8.564,3.075-8.735,7.291,3.063,5.174,7.717,5.363S910.153,94.059,910.324,89.843Z" transform="translate(-770.751 -74.921)" fill="#ff9f26"/>
  <ellipse id="Ellipse_200" data-name="Ellipse 200" cx="1.787" cy="5.694" rx="1.787" ry="5.694" transform="matrix(0.223, -0.975, 0.975, 0.223, 114.129, 25.705)" fill="#2f2e41"/>
  <ellipse id="Ellipse_201" data-name="Ellipse 201" cx="1.787" cy="5.694" rx="1.787" ry="5.694" transform="matrix(0.223, -0.975, 0.975, 0.223, 136.479, 29.422)" fill="#2f2e41"/>
  <path id="Path_1237" data-name="Path 1237" d="M939.253,246.289a2.595,2.595,0,0,1-5.106.924c-.255-1.41.835-1.909,2.245-2.164S939,244.879,939.253,246.289Z" transform="translate(-805.534 -214.493)" fill="#fff"/>
  <line id="Line_18" data-name="Line 18" x2="13.117" y2="10.09" transform="translate(102.709 14.27)" fill="none" stroke="#3f3d56" stroke-miterlimit="10" stroke-width="2"/>
  <circle id="Ellipse_202" data-name="Ellipse 202" cx="9.802" cy="9.802" r="9.802" transform="translate(86.71)" fill="#ff6584"/>
  <ellipse id="Ellipse_203" data-name="Ellipse 203" cx="5.694" cy="1.787" rx="5.694" ry="1.787" transform="translate(126.271 102.419) rotate(-82.281)" fill="#2f2e41"/>
  <circle id="Ellipse_204" data-name="Ellipse 204" cx="1.973" cy="1.973" r="1.973" transform="translate(7.946 111.319)" fill="#ff9f26"/>
  <rect id="Rectangle_172" data-name="Rectangle 172" width="5.189" height="5.189" transform="translate(36.985 110.982)" fill="#ff6584"/>
  <circle id="Ellipse_205" data-name="Ellipse 205" cx="1.973" cy="1.973" r="1.973" transform="translate(35.042 112.472)" fill="#ff9f26"/>
  <circle id="Ellipse_206" data-name="Ellipse 206" cx="1.973" cy="1.973" r="1.973" transform="translate(64.611 34.785)" fill="#ff9f26"/>
  <circle id="Ellipse_207" data-name="Ellipse 207" cx="0.942" cy="0.942" r="0.942" transform="translate(103.947 96.959)" fill="#ff6584"/>
  <line id="Line_19" data-name="Line 19" y1="10.726" transform="translate(109.504 102.811)" fill="#3f3d56" stroke="#3f3d56" stroke-miterlimit="10" stroke-width="2"/>
  <circle id="Ellipse_208" data-name="Ellipse 208" cx="1.517" cy="1.517" r="1.517" transform="translate(107.987 101.294)" fill="#3f3d56"/>
  <path id="Path_1238" data-name="Path 1238" d="M774.121,768.177s-.217-4.66-4.659-4.119" transform="translate(-664.617 -658.756)" fill="#3f3d56"/>
</svg>
