<svg id="Img" xmlns="http://www.w3.org/2000/svg" width="158.333" height="100" viewBox="0 0 158.333 100">
  <path id="Path_422" data-name="Path 422" d="M279.32,306.78a2.294,2.294,0,0,1-1.353-.448l-3.26-2.368a1.58,1.58,0,0,0-1.863,0l-3.26,2.368a2.3,2.3,0,0,1-3.542-2.573l1.245-3.832a1.581,1.581,0,0,0-.576-1.773l-3.26-2.369a2.3,2.3,0,0,1,1.353-4.163h4.03a1.581,1.581,0,0,0,1.508-1.1l1.245-3.832a2.3,2.3,0,0,1,4.378,0l1.245,3.832a1.581,1.581,0,0,0,1.508,1.1h4.03a2.3,2.3,0,0,1,1.353,4.163l-3.26,2.369a1.581,1.581,0,0,0-.576,1.773l1.245,3.832a2.267,2.267,0,0,1-.836,2.573A2.294,2.294,0,0,1,279.32,306.78Z" transform="translate(-262.503 -273.941)" fill="#ff9f26"/>
  <path id="Path_423" data-name="Path 423" d="M418.207,306.78a2.294,2.294,0,0,1-1.353-.448l-3.26-2.368a1.583,1.583,0,0,0-1.864,0l-3.26,2.368a2.3,2.3,0,0,1-3.541-2.573l1.245-3.832a1.581,1.581,0,0,0-.576-1.773l-3.26-2.369a2.3,2.3,0,0,1,1.353-4.163h4.03a1.581,1.581,0,0,0,1.508-1.1l1.245-3.832a2.3,2.3,0,0,1,4.378,0l1.245,3.832a1.581,1.581,0,0,0,1.508,1.1h4.03a2.3,2.3,0,0,1,1.353,4.163l-3.26,2.369a1.581,1.581,0,0,0-.576,1.773l1.245,3.832a2.267,2.267,0,0,1-.836,2.573A2.294,2.294,0,0,1,418.207,306.78Z" transform="translate(-368.887 -273.941)" fill="#ff9f26"/>
  <path id="Path_424" data-name="Path 424" d="M544.07,305.887a2.522,2.522,0,0,1-1.486-.492,2.491,2.491,0,0,1-.919-2.827l1.245-3.832a1.356,1.356,0,0,0-.494-1.519l-3.26-2.369a2.528,2.528,0,0,1,1.486-4.573h4.03a1.355,1.355,0,0,0,1.292-.939l1.245-3.832a2.528,2.528,0,0,1,4.808,0l1.245,3.832a1.355,1.355,0,0,0,1.292.939h4.03a2.528,2.528,0,0,1,1.486,4.573l-3.26,2.369a1.355,1.355,0,0,0-.494,1.519l1.245,3.832a2.528,2.528,0,0,1-3.89,2.826l-3.26-2.368a1.355,1.355,0,0,0-1.6,0l-3.26,2.368A2.521,2.521,0,0,1,544.07,305.887Zm5.545-4.291a2.523,2.523,0,0,1,1.485.484l3.26,2.369a1.359,1.359,0,0,0,2.091-1.519l-1.245-3.832a2.521,2.521,0,0,1,.918-2.826l3.26-2.369a1.359,1.359,0,0,0-.8-2.458h-4.03a2.521,2.521,0,0,1-2.4-1.747l-1.245-3.832a1.359,1.359,0,0,0-2.584,0l-1.245,3.832a2.521,2.521,0,0,1-2.4,1.747h-4.03a1.359,1.359,0,0,0-.8,2.458l3.26,2.369a2.522,2.522,0,0,1,.918,2.826l-1.245,3.832a1.359,1.359,0,0,0,2.091,1.519l3.26-2.368A2.524,2.524,0,0,1,549.614,301.6Z" transform="translate(-473.619 -272.915)" fill="#3f3d56"/>
  <path id="Path_425" data-name="Path 425" d="M747.962,400.3l-8.009,6.885L727.4,417.97l-1.7,1.459a1.538,1.538,0,0,0-.537,1.06,1.558,1.558,0,0,0,.18.852,1.541,1.541,0,0,0,.19.275l.91,1.06,1.385,1.612c.025.029.05.055.077.082a1.553,1.553,0,0,0,2.11.081l14.234-12.23,8.026-6.9a1.553,1.553,0,0,0,.163-2.187l-.484-.563-1.81-2.106a1.549,1.549,0,0,0-2.187-.167Z" transform="translate(-617.34 -361.841)" fill="#ff9f26"/>
  <circle id="Ellipse_16" data-name="Ellipse 16" cx="12.769" cy="12.769" r="12.769" transform="translate(123.956 7.519)" fill="#ff9f26"/>
  <path id="Path_426" data-name="Path 426" d="M850.618,526.957v29.348a1.552,1.552,0,0,0,1.551,1.551h3.521a1.552,1.552,0,0,0,1.551-1.551V526.957a1.553,1.553,0,0,0-1.551-1.551h-3.521a1.553,1.553,0,0,0-1.551,1.551Z" transform="translate(-712.955 -457.856)" fill="#2f2e41"/>
  <path id="Path_427" data-name="Path 427" d="M819.334,526.957v29.348a1.551,1.551,0,0,0,1.551,1.551h3.521a1.552,1.552,0,0,0,1.551-1.551V526.957a1.552,1.552,0,0,0-1.551-1.551h-3.521a1.551,1.551,0,0,0-1.551,1.551Z" transform="translate(-689.112 -457.856)" fill="#2f2e41"/>
  <path id="Path_428" data-name="Path 428" d="M797.094,426.875a8.825,8.825,0,0,1-8.6-10.788l3.983-17.462a9.831,9.831,0,0,1,19.662.018c.005.158.561,16.4.794,23.9a3.9,3.9,0,0,1-3.8,4.018l-11.763.308Q797.236,426.875,797.094,426.875Z" transform="translate(-665.442 -353.423)" fill="#2f2e41"/>
  <path id="Path_429" data-name="Path 429" d="M790.79,321.169l.013-.477a3.946,3.946,0,0,1-2.258-.51,1.467,1.467,0,0,1-.568-1.08.838.838,0,0,1,.275-.691,1.445,1.445,0,0,1,1.476-.013l.395.181-.757-5.533-.473.065.644,4.706a1.684,1.684,0,0,0-1.593.229,1.305,1.305,0,0,0-.444,1.072,1.94,1.94,0,0,0,.764,1.449A4.392,4.392,0,0,0,790.79,321.169Z" transform="translate(-664.389 -295.384)" fill="#2f2e41"/>
  <rect id="Rectangle_26" data-name="Rectangle 26" width="2.57" height="0.477" transform="translate(127.249 18.28)" fill="#2f2e41"/>
  <path id="Path_430" data-name="Path 430" d="M860.694,405.885l.439,10.553.685,16.536.093,2.236a1.539,1.539,0,0,0,.5,1.078,1.559,1.559,0,0,0,.78.387,1.541,1.541,0,0,0,.334.021l1.4-.057,2.123-.088c.038,0,.074,0,.112-.009a1.553,1.553,0,0,0,1.372-1.606l-.775-18.75-.439-10.574a1.553,1.553,0,0,0-1.615-1.484l-.742.031-2.775.115a1.549,1.549,0,0,0-1.486,1.613Z" transform="translate(-720.633 -365.098)" fill="#ff9f26"/>
  <path id="Path_431" data-name="Path 431" d="M856.2,401.132v8.112a1.55,1.55,0,0,0,1.51,1.549.219.219,0,0,0,.041,0h5.726a1.489,1.489,0,0,0,.274-.026,1.529,1.529,0,0,0,.577-.229,1.558,1.558,0,0,0,.7-1.3v-8.112a4.419,4.419,0,0,0-4.414-4.414,4.315,4.315,0,0,0-.9.093A4.421,4.421,0,0,0,856.2,401.132Z" transform="translate(-717.205 -359.342)" fill="#2f2e41"/>
  <path id="Path_432" data-name="Path 432" d="M785.648,404.543a1.537,1.537,0,0,0,.284.527l3.627,4.431a1.288,1.288,0,0,0,.222.22,1.55,1.55,0,0,0,1.961,0l6.277-5.137a4.414,4.414,0,1,0-5.593-6.831l-6.277,5.137A1.559,1.559,0,0,0,785.648,404.543Z" transform="translate(-663.388 -359.365)" fill="#2f2e41"/>
  <path id="Path_433" data-name="Path 433" d="M799.792,250.953c-2.127.886-4.418,1.865-6.775,1.594a4.629,4.629,0,0,1-4.232-3.347,5.575,5.575,0,0,1,1.854-5.173,10.931,10.931,0,0,1,5.859-2.438,6.511,6.511,0,0,1,3.825.4,3.356,3.356,0,0,1,1.911,2.4l.894-.242a3.057,3.057,0,0,1,.37-3.332,4.541,4.541,0,0,1,3.639-1.679,13.921,13.921,0,0,1,7.975,2.81,17.571,17.571,0,0,1,5.376,6.03,14.472,14.472,0,0,1,1.769,8.98,8.548,8.548,0,0,1-5.631,7.006.48.48,0,0,0,.255.926,9.283,9.283,0,0,0,6.02-6.412,14.684,14.684,0,0,0-1.186-10.2,18.523,18.523,0,0,0-5.737-6.885,15.105,15.105,0,0,0-8.707-3.218,5.579,5.579,0,0,0-4.57,2.114,3.988,3.988,0,0,0-.4,4.345c.222.377.961.253.894-.242-.337-2.513-2.769-3.805-5.111-3.861a13.138,13.138,0,0,0-3.9.577,11.247,11.247,0,0,0-3.287,1.5,6.93,6.93,0,0,0-3.168,5.754,5.21,5.21,0,0,0,3.828,4.848c2.894.917,5.829-.223,8.492-1.332a.5.5,0,0,0,.335-.59.483.483,0,0,0-.59-.335Z" transform="translate(-665.022 -238.172)" fill="#2f2e41"/>
  <path id="Path_434" data-name="Path 434" d="M655.573,418.8a2.521,2.521,0,0,1-1.486-.491,2.491,2.491,0,0,1-.919-2.827l1.245-3.832a1.355,1.355,0,0,0-.493-1.519l-3.26-2.369a2.528,2.528,0,0,1,1.486-4.573h4.03a1.355,1.355,0,0,0,1.292-.939l1.245-3.832a2.528,2.528,0,0,1,4.809,0l1.245,3.832a1.355,1.355,0,0,0,1.292.939h4.03a2.528,2.528,0,0,1,1.486,4.573l-3.26,2.369a1.355,1.355,0,0,0-.494,1.519l1.245,3.832a2.528,2.528,0,0,1-3.89,2.826l-3.26-2.369a1.355,1.355,0,0,0-1.6,0l-3.26,2.369A2.52,2.52,0,0,1,655.573,418.8Zm5.545-4.29a2.523,2.523,0,0,1,1.485.484l3.26,2.369a1.359,1.359,0,0,0,2.091-1.519l-1.245-3.832a2.521,2.521,0,0,1,.918-2.826l3.26-2.369a1.359,1.359,0,0,0-.8-2.458h-4.03a2.522,2.522,0,0,1-2.4-1.747l-1.245-3.832a1.359,1.359,0,0,0-2.584,0l-1.245,3.832a2.521,2.521,0,0,1-2.4,1.747h-4.03a1.359,1.359,0,0,0-.8,2.458l3.26,2.369a2.522,2.522,0,0,1,.918,2.826l-1.245,3.832a1.359,1.359,0,0,0,2.091,1.519l3.26-2.368A2.523,2.523,0,0,1,661.117,414.5Z" transform="translate(-559.862 -359.336)" fill="#3f3d56"/>
</svg>
