<svg xmlns="http://www.w3.org/2000/svg" width="190" height="120" viewBox="0 0 190 120">
  <g id="Img" transform="translate(-0.019 0)">
    <path id="Path_422" data-name="Path 422" d="M282.68,311.111a2.753,2.753,0,0,1-1.623-.538l-3.911-2.842a1.9,1.9,0,0,0-2.236,0L271,310.573a2.761,2.761,0,0,1-4.249-3.087l1.494-4.6a1.9,1.9,0,0,0-.691-2.127l-3.911-2.842a2.761,2.761,0,0,1,1.623-4.995H270.1a1.9,1.9,0,0,0,1.809-1.314l1.494-4.6a2.761,2.761,0,0,1,5.252,0l1.494,4.6a1.9,1.9,0,0,0,1.809,1.314h4.835a2.761,2.761,0,0,1,1.623,4.995l-3.911,2.842a1.9,1.9,0,0,0-.691,2.127l1.494,4.6a2.72,2.72,0,0,1-1,3.087A2.752,2.752,0,0,1,282.68,311.111Z" transform="translate(-262.483 -271.711)" fill="#ff9f26"/>
    <path id="Path_423" data-name="Path 423" d="M421.567,311.111a2.752,2.752,0,0,1-1.623-.538l-3.911-2.842a1.9,1.9,0,0,0-2.236,0l-3.911,2.842a2.761,2.761,0,0,1-4.249-3.087l1.494-4.6a1.9,1.9,0,0,0-.691-2.127l-3.911-2.842a2.761,2.761,0,0,1,1.623-4.995h4.835a1.9,1.9,0,0,0,1.809-1.314l1.494-4.6a2.761,2.761,0,0,1,5.252,0l1.494,4.6a1.9,1.9,0,0,0,1.809,1.314h4.835a2.761,2.761,0,0,1,1.623,4.995l-3.911,2.842a1.9,1.9,0,0,0-.691,2.127l1.494,4.6a2.72,2.72,0,0,1-1,3.087A2.753,2.753,0,0,1,421.567,311.111Z" transform="translate(-362.366 -271.711)" fill="#ff9f26"/>
    <path id="Path_424" data-name="Path 424" d="M545.259,310.309a3.025,3.025,0,0,1-1.782-.59,2.988,2.988,0,0,1-1.1-3.391l1.494-4.6a1.626,1.626,0,0,0-.592-1.822l-3.912-2.842a3.033,3.033,0,0,1,1.783-5.487h4.835a1.626,1.626,0,0,0,1.55-1.127l1.494-4.6a3.033,3.033,0,0,1,5.769,0l1.494,4.6a1.626,1.626,0,0,0,1.55,1.126h4.835a3.033,3.033,0,0,1,1.783,5.487l-3.911,2.842a1.626,1.626,0,0,0-.592,1.822l1.494,4.6a3.033,3.033,0,0,1-4.668,3.391l-3.911-2.842a1.626,1.626,0,0,0-1.916,0l-3.912,2.842A3.024,3.024,0,0,1,545.259,310.309Zm6.652-5.148a3.026,3.026,0,0,1,1.782.581l3.912,2.842a1.63,1.63,0,0,0,2.509-1.822l-1.494-4.6a3.025,3.025,0,0,1,1.1-3.391l3.911-2.842a1.63,1.63,0,0,0-.958-2.949h-4.835a3.025,3.025,0,0,1-2.884-2.1l-1.494-4.6a1.63,1.63,0,0,0-3.1,0l-1.494,4.6a3.025,3.025,0,0,1-2.884,2.1h-4.835a1.63,1.63,0,0,0-.958,2.949l3.912,2.842a3.026,3.026,0,0,1,1.1,3.391l-1.494,4.6a1.63,1.63,0,0,0,2.509,1.822l3.912-2.842A3.028,3.028,0,0,1,551.912,305.161Z" transform="translate(-460.698 -270.749)" fill="#3f3d56"/>
    <path id="Path_425" data-name="Path 425" d="M752.517,400.373l-9.609,8.261-15.06,12.942-2.036,1.75a1.846,1.846,0,0,0-.645,1.271,1.845,1.845,0,0,0,.444,1.352l1.092,1.272,1.662,1.934c.031.034.059.066.092.1a1.864,1.864,0,0,0,2.532.1l17.078-14.674L757.7,406.4a1.863,1.863,0,0,0,.2-2.624l-.581-.676-2.171-2.527a1.859,1.859,0,0,0-2.624-.2Z" transform="translate(-595.746 -354.222)" fill="#ff9f26"/>
    <circle id="Ellipse_16" data-name="Ellipse 16" cx="15.32" cy="15.32" r="15.32" transform="translate(148.774 9.022)" fill="#ff9f26"/>
    <path id="Path_426" data-name="Path 426" d="M850.618,527.267v35.212a1.862,1.862,0,0,0,1.861,1.861H856.7a1.863,1.863,0,0,0,1.861-1.861V527.267a1.863,1.863,0,0,0-1.861-1.861h-4.225a1.863,1.863,0,0,0-1.861,1.861Z" transform="translate(-685.399 -444.34)" fill="#2f2e41"/>
    <path id="Path_427" data-name="Path 427" d="M819.334,527.267v35.212a1.861,1.861,0,0,0,1.861,1.861h4.225a1.862,1.862,0,0,0,1.861-1.861V527.267a1.863,1.863,0,0,0-1.861-1.861h-4.225a1.861,1.861,0,0,0-1.861,1.861Z" transform="translate(-663.043 -444.34)" fill="#2f2e41"/>
    <path id="Path_428" data-name="Path 428" d="M798.855,434.48a10.588,10.588,0,0,1-10.313-12.944l4.779-20.951a11.8,11.8,0,0,1,23.59.022c.007.189.673,19.673.952,28.677a4.678,4.678,0,0,1-4.555,4.821l-14.113.37Q799.026,434.48,798.855,434.48Z" transform="translate(-640.849 -346.34)" fill="#2f2e41"/>
    <path id="Path_429" data-name="Path 429" d="M791.448,322.792l.016-.573a4.734,4.734,0,0,1-2.71-.612,1.76,1.76,0,0,1-.682-1.3,1.006,1.006,0,0,1,.33-.829,1.734,1.734,0,0,1,1.771-.016l.474.217-.908-6.638-.567.078.773,5.647a2.021,2.021,0,0,0-1.912.275,1.566,1.566,0,0,0-.533,1.286,2.328,2.328,0,0,0,.916,1.738A5.269,5.269,0,0,0,791.448,322.792Z" transform="translate(-639.748 -291.852)" fill="#2f2e41"/>
    <rect id="Rectangle_26" data-name="Rectangle 26" width="3.083" height="0.573" transform="translate(152.725 21.933)" fill="#2f2e41"/>
    <path id="Path_430" data-name="Path 430" d="M860.694,406.237l.527,12.661.821,19.84.112,2.682a1.847,1.847,0,0,0,.6,1.294,1.87,1.87,0,0,0,.936.464,1.851,1.851,0,0,0,.4.026l1.674-.069,2.548-.106c.046,0,.089-.006.135-.011a1.864,1.864,0,0,0,1.646-1.926l-.93-22.5-.527-12.687a1.863,1.863,0,0,0-1.938-1.78l-.89.037-3.329.137a1.858,1.858,0,0,0-1.783,1.935Z" transform="translate(-692.598 -357.289)" fill="#ff9f26"/>
    <path id="Path_431" data-name="Path 431" d="M856.2,402.014v9.732a1.859,1.859,0,0,0,1.812,1.858.264.264,0,0,0,.049,0h6.87a1.787,1.787,0,0,0,.329-.031,1.835,1.835,0,0,0,.693-.275,1.869,1.869,0,0,0,.839-1.554v-9.732a5.3,5.3,0,0,0-5.3-5.3,5.178,5.178,0,0,0-1.082.112A5.3,5.3,0,0,0,856.2,402.014Z" transform="translate(-689.384 -351.866)" fill="#2f2e41"/>
    <path id="Path_432" data-name="Path 432" d="M785.662,406.1a1.843,1.843,0,0,0,.341.633l4.351,5.316a1.538,1.538,0,0,0,.266.263,1.86,1.86,0,0,0,2.353,0l7.531-6.163a5.3,5.3,0,1,0-6.71-8.2l-7.531,6.163A1.871,1.871,0,0,0,785.662,406.1Z" transform="translate(-638.922 -351.886)" fill="#2f2e41"/>
    <path id="Path_433" data-name="Path 433" d="M802.2,253.506c-2.552,1.063-5.3,2.238-8.129,1.912-2.317-.267-4.544-1.622-5.078-4.016a6.689,6.689,0,0,1,2.225-6.206,13.115,13.115,0,0,1,7.029-2.926,7.812,7.812,0,0,1,4.589.481,4.026,4.026,0,0,1,2.293,2.88l1.073-.291a3.667,3.667,0,0,1,.444-4,5.448,5.448,0,0,1,4.366-2.015c3.383-.1,6.844,1.472,9.568,3.372a21.082,21.082,0,0,1,6.45,7.235,17.364,17.364,0,0,1,2.123,10.775c-.6,3.736-3.015,7.282-6.757,8.406a.576.576,0,0,0,.306,1.111,11.138,11.138,0,0,0,7.223-7.693,17.618,17.618,0,0,0-1.423-12.239,22.225,22.225,0,0,0-6.884-8.261c-2.935-2.163-6.739-3.9-10.446-3.86a6.693,6.693,0,0,0-5.483,2.537,4.785,4.785,0,0,0-.482,5.213c.267.452,1.153.3,1.073-.291-.4-3.015-3.322-4.565-6.132-4.632a15.764,15.764,0,0,0-4.68.692,13.491,13.491,0,0,0-3.943,1.8,8.314,8.314,0,0,0-3.8,6.9,6.251,6.251,0,0,0,4.593,5.816c3.473,1.1,6.994-.268,10.188-1.6a.6.6,0,0,0,.4-.708.579.579,0,0,0-.708-.4Z" transform="translate(-640.455 -238.173)" fill="#2f2e41"/>
    <path id="Path_434" data-name="Path 434" d="M656.762,423.217a3.025,3.025,0,0,1-1.782-.59,2.988,2.988,0,0,1-1.1-3.391l1.494-4.6a1.626,1.626,0,0,0-.592-1.822l-3.912-2.842a3.033,3.033,0,0,1,1.783-5.487h4.835a1.626,1.626,0,0,0,1.55-1.126l1.494-4.6a3.033,3.033,0,0,1,5.769,0l1.494,4.6a1.626,1.626,0,0,0,1.55,1.126h4.835a3.033,3.033,0,0,1,1.783,5.487l-3.911,2.842a1.626,1.626,0,0,0-.592,1.822l1.494,4.6a3.033,3.033,0,0,1-4.668,3.391l-3.911-2.842a1.626,1.626,0,0,0-1.916,0l-3.911,2.842A3.023,3.023,0,0,1,656.762,423.217Zm6.653-5.148a3.027,3.027,0,0,1,1.782.581l3.912,2.842a1.63,1.63,0,0,0,2.509-1.822l-1.494-4.6a3.025,3.025,0,0,1,1.1-3.391l3.911-2.842a1.63,1.63,0,0,0-.958-2.949h-4.835a3.026,3.026,0,0,1-2.885-2.1l-1.494-4.6a1.63,1.63,0,0,0-3.1,0l-1.494,4.6a3.025,3.025,0,0,1-2.884,2.1h-4.835a1.63,1.63,0,0,0-.958,2.949l3.912,2.842a3.026,3.026,0,0,1,1.1,3.391l-1.494,4.6a1.63,1.63,0,0,0,2.509,1.822l3.912-2.842A3.027,3.027,0,0,1,663.415,418.069Z" transform="translate(-541.888 -351.868)" fill="#3f3d56"/>
  </g>
</svg>
