<svg xmlns="http://www.w3.org/2000/svg" xmlns:xlink="http://www.w3.org/1999/xlink" width="1920" height="1180" viewBox="0 0 1920 1180">
  <defs>
    <clipPath id="clip-path">
      <rect id="Rectangle_299" data-name="Rectangle 299" width="1920" height="1180" transform="translate(0 269)" fill="#fff" stroke="#707070" stroke-width="1"/>
    </clipPath>
  </defs>
  <g id="Bg" transform="translate(0 -269)" clip-path="url(#clip-path)">
    <g id="Path_2028" data-name="Path 2028" transform="translate(1480 1044)" fill="none" opacity="0.2">
      <path d="M340,0C527.777,0,680,152.223,680,340S527.777,680,340,680,0,527.777,0,340,152.223,0,340,0Z" stroke="none"/>
      <path d="M 340 80 C 196.635498046875 80 80 196.635498046875 80 340 C 80 483.364501953125 196.635498046875 600 340 600 C 483.364501953125 600 600 483.364501953125 600 340 C 600 196.635498046875 483.364501953125 80 340 80 M 340 0 C 527.77685546875 0 680 152.22314453125 680 340 C 680 527.77685546875 527.77685546875 680 340 680 C 152.22314453125 680 0 527.77685546875 0 340 C 0 152.22314453125 152.22314453125 0 340 0 Z" stroke="none" fill="#fe9332"/>
    </g>
    <g id="Path_2029" data-name="Path 2029" transform="translate(-290 -21)" fill="none" opacity="0.2">
      <path d="M290,0C450.163,0,580,129.837,580,290S450.163,580,290,580,0,450.163,0,290,129.837,0,290,0Z" stroke="none"/>
      <path d="M 290 60 C 163.1776123046875 60 60 163.1776123046875 60 290 C 60 416.8223876953125 163.1776123046875 520 290 520 C 416.8223876953125 520 520 416.8223876953125 520 290 C 520 163.1776123046875 416.8223876953125 60 290 60 M 290 0 C 450.1626586914062 0 580 129.8374633789062 580 290 C 580 450.1626586914062 450.1626586914062 580 290 580 C 129.8374633789062 580 0 450.1626586914062 0 290 C 0 129.8374633789062 129.8374633789062 0 290 0 Z" stroke="none" fill="#fe9332"/>
    </g>
  </g>
</svg>
