<svg xmlns="http://www.w3.org/2000/svg" width="450" height="76" viewBox="0 0 450 76">
  <g id="Group_157" data-name="Group 157" transform="translate(-735 -220)">
    <path id="BG" d="M5,0H445a5,5,0,0,1,5,5V76a0,0,0,0,1,0,0H0a0,0,0,0,1,0,0V5A5,5,0,0,1,5,0Z" transform="translate(735 220)" fill="#ff9f26"/>
    <g id="Group_156" data-name="Group 156">
      <g id="Shape_3" data-name="Shape 3" transform="translate(353.422 -98.219) rotate(17)" opacity="0.5">
        <path id="Path_1827" data-name="Path 1827" d="M479.608,193.348a.573.573,0,0,0-.859.571l.442,3.245a.373.373,0,0,1-.01.143.35.35,0,0,1-.068.125l-2.478,2.936a.56.56,0,0,0-.036.692l0,0a.559.559,0,0,0,.654.216l1.79-.607a.345.345,0,0,1,.346.078.333.333,0,0,1,.107.245l.07,6.376a.568.568,0,0,0,.251.467.574.574,0,0,0,.525.061l13.357-5.108a.572.572,0,0,0,.088-1.028l-.182-.108-14-8.306Zm-.633.539a.344.344,0,0,1,.516-.342l13.994,8.3.186.11a.344.344,0,0,1-.052.616l-13.357,5.108a.343.343,0,0,1-.465-.317l-.07-6.376a.549.549,0,0,0-.032-.185.558.558,0,0,0-.147-.224l-.029-.026h0a.571.571,0,0,0-.547-.1l-1.79.608a.333.333,0,0,1-.392-.131v0a.332.332,0,0,1,.022-.415l2.478-2.936a.54.54,0,0,0,.068-.1h0a.549.549,0,0,0,.044-.108.532.532,0,0,0,.02-.111.562.562,0,0,0,0-.127l-.442-3.245Z" transform="translate(146.984 -21.268)" fill="#e5e5e5"/>
        <path id="Path_1828" data-name="Path 1828" d="M486.39,207.149l13.974,4.665a.2.2,0,0,1,.036.016.229.229,0,0,1-.137.429l-13.6-1.562-.24-.027.027-.227.037,0h0l13.8,1.584-13.962-4.662h0l-.06-.021.073-.217Z" transform="translate(140.016 -31.158)" fill="#e5e5e5"/>
        <path id="Path_1826" data-name="Path 1826" d="M479.608,193.348a.573.573,0,0,0-.859.571l.442,3.245a.373.373,0,0,1-.01.143.35.35,0,0,1-.068.125l-2.478,2.936a.56.56,0,0,0-.036.692l0,0a.559.559,0,0,0,.654.216l1.79-.607a.345.345,0,0,1,.346.078.333.333,0,0,1,.107.245l.07,6.376a.568.568,0,0,0,.251.467.574.574,0,0,0,.525.061l13.357-5.108a.572.572,0,0,0,.088-1.028l-.182-.108-14-8.306Zm-.633.539a.344.344,0,0,1,.516-.342l13.994,8.3.186.11a.344.344,0,0,1-.052.616l-13.357,5.108a.343.343,0,0,1-.465-.317l-.07-6.376a.549.549,0,0,0-.032-.185l13.6,1.562a.229.229,0,0,0,.137-.429.2.2,0,0,0-.036-.016l-13.974-4.665a.565.565,0,0,0,0-.127l-.442-3.245Z" transform="translate(146.984 -21.268)" fill="#f1f1f1"/>
      </g>
      <g id="Shape_2" data-name="Shape 2" transform="translate(-157.81 100.959)" opacity="0.5">
        <path id="Path_1829" data-name="Path 1829" d="M995.633,146.351l-14.488,8.6-.188.112a.592.592,0,0,0,.091,1.064l13.823,5.287a.594.594,0,0,0,.543-.063.588.588,0,0,0,.259-.483l.073-6.6a.345.345,0,0,1,.11-.253.357.357,0,0,1,.358-.081l1.852.629a.579.579,0,0,0,.677-.223l0,0a.58.58,0,0,0-.038-.716l-2.565-3.038a.362.362,0,0,1-.07-.129.385.385,0,0,1-.01-.148l.458-3.358a.593.593,0,0,0-.889-.59Zm.655.558-.458,3.358a.588.588,0,0,0,0,.131l-14.462,4.827a.21.21,0,0,0-.037.016.237.237,0,0,0,.142.444l14.073-1.617a.569.569,0,0,0-.033.192l-.072,6.6a.355.355,0,0,1-.482.328L981.132,155.9a.356.356,0,0,1-.054-.638l.193-.114,14.483-8.593a.356.356,0,0,1,.535.354Z" transform="translate(146.984 -21.268)" fill="#f1f1f1"/>
        <path id="Path_1830" data-name="Path 1830" d="M995.633,146.351l-14.488,8.6-.188.112a.592.592,0,0,0,.091,1.064l13.823,5.287a.594.594,0,0,0,.543-.063.588.588,0,0,0,.259-.483l.073-6.6a.345.345,0,0,1,.11-.253.357.357,0,0,1,.358-.081l1.852.629a.579.579,0,0,0,.677-.223l0,0a.58.58,0,0,0-.038-.716l-2.565-3.038a.362.362,0,0,1-.07-.129.385.385,0,0,1-.01-.148l.458-3.358a.593.593,0,0,0-.889-.59Zm.655.558-.458,3.358a.581.581,0,0,0,0,.131.553.553,0,0,0,.021.115.569.569,0,0,0,.045.112h0a.564.564,0,0,0,.071.1l2.565,3.038a.344.344,0,0,1,.023.429v0a.345.345,0,0,1-.406.135l-1.853-.629a.591.591,0,0,0-.566.1h0l-.03.027a.575.575,0,0,0-.152.232.566.566,0,0,0-.033.192l-.072,6.6a.355.355,0,0,1-.482.328L981.132,155.9a.356.356,0,0,1-.054-.638l.193-.114,14.483-8.593a.356.356,0,0,1,.534.354Z" transform="translate(146.984 -21.268)" fill="#e5e5e5"/>
        <path id="Path_1831" data-name="Path 1831" d="M997.152,160.131l.075.225-.062.022h0l-14.45,4.824L997,163.562h0l.038,0,.028.235-.248.028-14.073,1.617a.237.237,0,0,1-.142-.444.206.206,0,0,1,.037-.016L997.1,160.15Z" transform="translate(145.712 -31.02)" fill="#e5e5e5"/>
      </g>
      <g id="Shape_1" data-name="Shape 1" transform="translate(254.928 -242.065)" opacity="0.5">
        <path id="Path_1832" data-name="Path 1832" d="M612.41,533.754a.654.654,0,0,0,.026,1.176l3.4,1.552a.425.425,0,0,1,.132.1.4.4,0,0,1,.079.142l1.32,4.18a.639.639,0,0,0,.645.457h.005a.638.638,0,0,0,.607-.5l.505-2.1a.393.393,0,0,1,.286-.286.38.38,0,0,1,.3.046l6.192,3.821a.652.652,0,0,0,.982-.426l3.218-16a.653.653,0,0,0-.938-.712l-.215.11Zm.134.939a.393.393,0,0,1-.015-.706l16.541-8.433.22-.112a.393.393,0,0,1,.563.426l-3.218,16a.392.392,0,0,1-.589.256l-6.192-3.821a.629.629,0,0,0-.2-.082l9.8-12.162a.261.261,0,0,0-.33-.394.226.226,0,0,0-.037.025l-13.02,10.632a.647.647,0,0,0-.125-.073l-3.4-1.552Z" transform="translate(146.984 -21.268)" fill="#f1f1f1"/>
        <path id="Path_1833" data-name="Path 1833" d="M612.41,533.754a.654.654,0,0,0,.026,1.176l3.4,1.552a.425.425,0,0,1,.132.1.4.4,0,0,1,.079.142l1.32,4.18a.639.639,0,0,0,.645.457h.005a.638.638,0,0,0,.607-.5l.505-2.1a.393.393,0,0,1,.286-.286.38.38,0,0,1,.3.046l6.192,3.821a.652.652,0,0,0,.982-.426l3.218-16a.653.653,0,0,0-.938-.712l-.215.11Zm.134.939a.393.393,0,0,1-.015-.706l16.541-8.433.22-.112a.393.393,0,0,1,.563.426l-3.218,16a.392.392,0,0,1-.589.256l-6.192-3.821a.642.642,0,0,0-.5-.077l-.043.012h0a.651.651,0,0,0-.43.466l-.505,2.1a.38.38,0,0,1-.365.3h0a.379.379,0,0,1-.386-.274l-1.32-4.18a.614.614,0,0,0-.055-.127h0a.62.62,0,0,0-.078-.108.6.6,0,0,0-.1-.088.644.644,0,0,0-.125-.073Z" transform="translate(146.984 -21.268)" fill="#e5e5e5"/>
        <path id="Path_1834" data-name="Path 1834" d="M624.228,537.33l13.02-10.632a.219.219,0,0,1,.037-.025.261.261,0,0,1,.33.394l-9.8,12.162-.173.215-.2-.164.026-.034h0L637.41,526.9,624.4,537.525h0l-.057.045-.165-.2Z" transform="translate(138.825 -22.279)" fill="#e5e5e5"/>
      </g>
    </g>
  </g>
</svg>
