<svg xmlns="http://www.w3.org/2000/svg" width="68.8" height="25.001" viewBox="0 0 68.8 25.001">
  <g id="Payoneer" transform="translate(-7.5 -8.875)">
    <path id="Path_644" data-name="Path 644" d="M27.229,10.9c.087,2,1.817,9.626,1.817,9.626.637,1.545,1.178,0,1.178,0a9.2,9.2,0,0,0-2.182-9.9c-1.083-.637-.812.271-.812.271m24.8-1.091s2.094,1.457,0,1.728A26.679,26.679,0,0,0,38.4,17.895s-8.711,7.628-11.982,15.981c0,0-1.092,0-.734-1.633s2.54-8.806,12.254-17.613c0,0,9.356-8.535,14.078-4.817" transform="translate(-1.494 0)" fill="#ff4800"/>
    <path id="Path_645" data-name="Path 645" d="M10.788,22.536a5.119,5.119,0,0,0,1.115.111,2.719,2.719,0,0,0,2.978-2.6c0-1.306-.924-1.775-2.126-1.775a4.783,4.783,0,0,0-1.178.1Zm-.995-5.669a13.359,13.359,0,0,1,2.936-.294,5.16,5.16,0,0,1,3.145.876A2.916,2.916,0,0,1,17,19.886a4.238,4.238,0,0,1-1.56,3.329A6.212,6.212,0,0,1,11.6,24.377a10.859,10.859,0,0,1-1.147-.087l-.892,4.633H7.5Zm12.845,4.722a3.538,3.538,0,0,0-.868-.087c-1.951,0-3.48,2.2-3.48,4.22,0,.924.35,1.688,1.284,1.688,1,0,2.206-1.234,2.619-3.486Zm-.853,7.333c0-.526.072-1.234.143-1.982H21.9a3.6,3.6,0,0,1-3.184,2.182c-1.584,0-2.619-1.234-2.619-3.028a6.063,6.063,0,0,1,6.234-6.243,9.478,9.478,0,0,1,2.691.406l-.924,4.619a20.893,20.893,0,0,0-.367,4.037ZM37.049,25.41c0,1.218.637,2.078,1.728,2.078,1.584,0,2.636-2.19,2.636-3.95,0-.917-.413-2.039-1.688-2.039-1.7,0-2.675,2.253-2.675,3.908m6.545-1.887c0,3.028-2.094,5.6-5.112,5.6a3.441,3.441,0,0,1-3.615-3.654c0-3,2.094-5.6,5.112-5.6a3.452,3.452,0,0,1,3.615,3.663m.4,5.392,1.147-6.107.454-2.747h1.895l-.2,1.576h.032A3.835,3.835,0,0,1,50.5,19.86,2.149,2.149,0,0,1,52.758,22.3a8.578,8.578,0,0,1-.16,1.457l-.973,5.167H49.5l.948-5a6.61,6.61,0,0,0,.11-1.059c0-.74-.279-1.284-1.115-1.284-.963,0-2.2,1.171-2.58,3.241L46.1,28.91Zm14.4-7.478A2.727,2.727,0,0,0,55.944,23.7c2.182.024,3.583-.271,3.583-1.338,0-.565-.454-.916-1.13-.916m2.022,6.967a7.152,7.152,0,0,1-3.119.708,3.333,3.333,0,0,1-3.639-3.67c0-2.675,1.959-5.589,5.016-5.589,1.743,0,2.859,1,2.859,2.5,0,2.269-2.381,2.994-5.8,2.922a2.5,2.5,0,0,0,.239,1.257,1.962,1.962,0,0,0,1.817.917,5.266,5.266,0,0,0,2.444-.582Zm6.211-6.967A2.736,2.736,0,0,0,64.178,23.7c2.182.024,3.583-.271,3.583-1.338,0-.565-.454-.916-1.13-.916m2.022,6.967a7.128,7.128,0,0,1-3.119.708,3.337,3.337,0,0,1-3.639-3.67c0-2.675,1.967-5.589,5.024-5.589,1.743,0,2.859,1,2.859,2.5,0,2.269-2.389,2.994-5.8,2.922A2.413,2.413,0,0,0,64.2,26.54a1.984,1.984,0,0,0,1.823.917,5.241,5.241,0,0,0,2.437-.582Zm1.234.509,1.043-5.454c.231-1.257.367-2.619.446-3.4h1.84l-.2,1.855h.055a3.267,3.267,0,0,1,2.752-2.063c.167,0,.327.024.477.024l-.422,2.07a3.128,3.128,0,0,0-.4-.016c-1.514,0-2.477,1.529-2.819,3.416l-.677,3.567Zm0,0" transform="translate(0 -0.635)" fill="#333"/>
  </g>
</svg>
