<svg id="PayPal" xmlns="http://www.w3.org/2000/svg" width="81.888" height="19.996" viewBox="0 0 81.888 19.996">
  <path id="Path_629" data-name="Path 629" d="M42.651,6.749H38.119a.63.63,0,0,0-.622.531L35.665,18.9a.377.377,0,0,0,.374.436H38.2a.63.63,0,0,0,.622-.532l.494-3.134a.629.629,0,0,1,.622-.532h1.435c2.985,0,4.708-1.444,5.158-4.307a3.49,3.49,0,0,0-.578-2.925A4.2,4.2,0,0,0,42.651,6.749Zm.523,4.244c-.248,1.626-1.49,1.626-2.691,1.626H39.8l.48-3.037a.377.377,0,0,1,.373-.319h.313c.818,0,1.59,0,1.989.466A1.51,1.51,0,0,1,43.174,10.993Z" transform="translate(-12.032 -2.277)" fill="#253b80"/>
  <path id="Path_630" data-name="Path 630" d="M61.428,12.971h-2.17a.378.378,0,0,0-.373.319l-.1.607-.152-.22a3.089,3.089,0,0,0-2.563-.91,4.99,4.99,0,0,0-4.845,4.364,4.1,4.1,0,0,0,.808,3.334,3.4,3.4,0,0,0,2.733,1.1,4.152,4.152,0,0,0,3-1.242l-.1.6a.378.378,0,0,0,.372.437H60a.63.63,0,0,0,.622-.532L61.8,13.407A.376.376,0,0,0,61.428,12.971ZM58.4,17.194a2.418,2.418,0,0,1-2.448,2.072,1.681,1.681,0,0,1-1.8-2.11,2.429,2.429,0,0,1,2.432-2.088,1.831,1.831,0,0,1,1.447.591A1.878,1.878,0,0,1,58.4,17.194Z" transform="translate(-17.263 -4.308)" fill="#253b80"/>
  <path id="Path_631" data-name="Path 631" d="M78.948,13.075H76.767a.632.632,0,0,0-.521.276l-3.008,4.43-1.275-4.257a.632.632,0,0,0-.6-.449H69.216a.378.378,0,0,0-.358.5l2.4,7.049L69,23.811a.378.378,0,0,0,.308.6h2.178a.628.628,0,0,0,.517-.27l7.253-10.469A.378.378,0,0,0,78.948,13.075Z" transform="translate(-23.226 -4.412)" fill="#253b80"/>
  <path id="Path_632" data-name="Path 632" d="M91.432,6.749H86.9a.629.629,0,0,0-.622.531L84.446,18.9a.377.377,0,0,0,.372.436h2.326a.441.441,0,0,0,.435-.372l.52-3.294a.629.629,0,0,1,.622-.532h1.434c2.986,0,4.708-1.444,5.158-4.307a3.488,3.488,0,0,0-.578-2.925A4.2,4.2,0,0,0,91.432,6.749Zm.523,4.244c-.247,1.626-1.49,1.626-2.691,1.626H88.58l.48-3.037a.376.376,0,0,1,.372-.319h.313c.818,0,1.59,0,1.989.466A1.51,1.51,0,0,1,91.955,10.993Z" transform="translate(-28.491 -2.277)" fill="#179bd7"/>
  <path id="Path_633" data-name="Path 633" d="M110.209,12.971H108.04a.376.376,0,0,0-.372.319l-.1.607-.152-.22a3.087,3.087,0,0,0-2.562-.91,4.989,4.989,0,0,0-4.844,4.364,4.1,4.1,0,0,0,.808,3.334,3.4,3.4,0,0,0,2.733,1.1,4.152,4.152,0,0,0,3-1.242l-.1.6a.378.378,0,0,0,.374.437h1.954a.629.629,0,0,0,.621-.532l1.173-7.427A.378.378,0,0,0,110.209,12.971Zm-3.025,4.223a2.418,2.418,0,0,1-2.448,2.072,1.681,1.681,0,0,1-1.8-2.11,2.43,2.43,0,0,1,2.432-2.088,1.831,1.831,0,0,1,1.447.591A1.869,1.869,0,0,1,107.184,17.194Z" transform="translate(-33.723 -4.308)" fill="#179bd7"/>
  <path id="Path_634" data-name="Path 634" d="M118.345,7.067,116.486,18.9a.377.377,0,0,0,.372.436h1.87a.629.629,0,0,0,.622-.532l1.834-11.619a.378.378,0,0,0-.372-.437h-2.094A.379.379,0,0,0,118.345,7.067Z" transform="translate(-39.301 -2.277)" fill="#179bd7"/>
  <path id="Path_635" data-name="Path 635" d="M5.172,19.663l.347-2.2-.772-.018H1.061L3.623,1.2a.215.215,0,0,1,.072-.127.209.209,0,0,1,.136-.05h6.215c2.063,0,3.487.429,4.231,1.277a2.911,2.911,0,0,1,.678,1.27,4.586,4.586,0,0,1,0,1.752l-.008.051v.448l.349.2a2.445,2.445,0,0,1,.706.538,2.505,2.505,0,0,1,.572,1.284A5.432,5.432,0,0,1,16.5,9.7a6.561,6.561,0,0,1-.763,2.109,4.338,4.338,0,0,1-1.209,1.325,4.906,4.906,0,0,1-1.629.735,8.122,8.122,0,0,1-2.035.235h-.484a1.455,1.455,0,0,0-1.438,1.228l-.036.2-.612,3.879-.028.142a.123.123,0,0,1-.038.083.1.1,0,0,1-.064.023Z" transform="translate(-0.358 -0.346)" fill="#253b80"/>
  <path id="Path_636" data-name="Path 636" d="M17.359,7.667h0q-.028.178-.064.364c-.82,4.208-3.624,5.662-7.205,5.662H8.267a.886.886,0,0,0-.875.75h0l-.934,5.921-.264,1.678a.467.467,0,0,0,.461.539H9.889a.778.778,0,0,0,.769-.656l.032-.164L11.3,17.9l.039-.212a.778.778,0,0,1,.769-.657h.484c3.133,0,5.586-1.272,6.3-4.954a4.218,4.218,0,0,0-.648-3.725A3.092,3.092,0,0,0,17.359,7.667Z" transform="translate(-2.088 -2.587)" fill="#179bd7"/>
  <path id="Path_637" data-name="Path 637" d="M17.115,7q-.188-.055-.387-.1t-.41-.078a10.127,10.127,0,0,0-1.607-.117H9.839a.777.777,0,0,0-.768.657L8.035,13.928l-.03.191a.886.886,0,0,1,.875-.75H10.7c3.581,0,6.385-1.454,7.205-5.662.025-.125.045-.246.064-.364a4.369,4.369,0,0,0-.674-.284C17.239,7.039,17.177,7.02,17.115,7Z" transform="translate(-2.701 -2.263)" fill="#222d65"/>
  <path id="Path_638" data-name="Path 638" d="M6.37,5.1a.777.777,0,0,1,.768-.657H12.01a10.127,10.127,0,0,1,1.607.117q.211.034.41.078t.387.1L14.6,4.8a4.435,4.435,0,0,1,.674.284,3.974,3.974,0,0,0-.843-3.573C13.5.452,11.829,0,9.688,0H3.473A.888.888,0,0,0,2.6.751L.007,17.16a.534.534,0,0,0,.527.618H4.37l.963-6.112Z" transform="translate(0 0)" fill="#253b80"/>
</svg>
