<svg xmlns="http://www.w3.org/2000/svg" width="18.068" height="17.304" viewBox="0 0 18.068 17.304">
  <g id="Shape_1" data-name="Shape 1" transform="translate(-759.038 -503.869)" opacity="0.5">
    <path id="Path_1832" data-name="Path 1832" d="M612.41,533.754a.654.654,0,0,0,.026,1.176l3.4,1.552a.425.425,0,0,1,.132.1.4.4,0,0,1,.079.142l1.32,4.18a.639.639,0,0,0,.645.457h.005a.638.638,0,0,0,.607-.5l.505-2.1a.393.393,0,0,1,.286-.286.38.38,0,0,1,.3.046l6.192,3.821a.652.652,0,0,0,.982-.426l3.218-16a.653.653,0,0,0-.938-.712l-.215.11Zm.134.939a.393.393,0,0,1-.015-.706l16.541-8.433.22-.112a.393.393,0,0,1,.563.426l-3.218,16a.392.392,0,0,1-.589.256l-6.192-3.821a.629.629,0,0,0-.2-.082l9.8-12.162a.261.261,0,0,0-.33-.394.226.226,0,0,0-.037.025l-13.02,10.632a.647.647,0,0,0-.125-.073l-3.4-1.552Z" transform="translate(146.984 -21.268)" fill="#f1f1f1"/>
    <path id="Path_1833" data-name="Path 1833" d="M612.41,533.754a.654.654,0,0,0,.026,1.176l3.4,1.552a.425.425,0,0,1,.132.1.4.4,0,0,1,.079.142l1.32,4.18a.639.639,0,0,0,.645.457h.005a.638.638,0,0,0,.607-.5l.505-2.1a.393.393,0,0,1,.286-.286.38.38,0,0,1,.3.046l6.192,3.821a.652.652,0,0,0,.982-.426l3.218-16a.653.653,0,0,0-.938-.712l-.215.11Zm.134.939a.393.393,0,0,1-.015-.706l16.541-8.433.22-.112a.393.393,0,0,1,.563.426l-3.218,16a.392.392,0,0,1-.589.256l-6.192-3.821a.642.642,0,0,0-.5-.077l-.043.012h0a.651.651,0,0,0-.43.466l-.505,2.1a.38.38,0,0,1-.365.3h0a.379.379,0,0,1-.386-.274l-1.32-4.18a.614.614,0,0,0-.055-.127h0a.62.62,0,0,0-.078-.108.6.6,0,0,0-.1-.088.644.644,0,0,0-.125-.073Z" transform="translate(146.984 -21.268)" fill="#e5e5e5"/>
    <path id="Path_1834" data-name="Path 1834" d="M624.228,537.33l13.02-10.632a.219.219,0,0,1,.037-.025.261.261,0,0,1,.33.394l-9.8,12.162-.173.215-.2-.164.026-.034h0L637.41,526.9,624.4,537.525h0l-.057.045-.165-.2Z" transform="translate(138.825 -22.279)" fill="#e5e5e5"/>
  </g>
</svg>
