<svg xmlns="http://www.w3.org/2000/svg" width="21.093" height="19.164" viewBox="0 0 21.093 19.164">
  <g id="Shape_3" data-name="Shape 3" transform="translate(-541.662 -346.773) rotate(17)" opacity="0.5">
    <path id="Path_1827" data-name="Path 1827" d="M479.608,193.348a.573.573,0,0,0-.859.571l.442,3.245a.373.373,0,0,1-.01.143.35.35,0,0,1-.068.125l-2.478,2.936a.56.56,0,0,0-.036.692l0,0a.559.559,0,0,0,.654.216l1.79-.607a.345.345,0,0,1,.346.078.333.333,0,0,1,.107.245l.07,6.376a.568.568,0,0,0,.251.467.574.574,0,0,0,.525.061l13.357-5.108a.572.572,0,0,0,.088-1.028l-.182-.108-14-8.306Zm-.633.539a.344.344,0,0,1,.516-.342l13.994,8.3.186.11a.344.344,0,0,1-.052.616l-13.357,5.108a.343.343,0,0,1-.465-.317l-.07-6.376a.549.549,0,0,0-.032-.185.558.558,0,0,0-.147-.224l-.029-.026h0a.571.571,0,0,0-.547-.1l-1.79.608a.333.333,0,0,1-.392-.131v0a.332.332,0,0,1,.022-.415l2.478-2.936a.54.54,0,0,0,.068-.1h0a.549.549,0,0,0,.044-.108.532.532,0,0,0,.02-.111.562.562,0,0,0,0-.127l-.442-3.245Z" transform="translate(146.984 -21.268)" fill="#e5e5e5"/>
    <path id="Path_1828" data-name="Path 1828" d="M486.39,207.149l13.974,4.665a.2.2,0,0,1,.036.016.229.229,0,0,1-.137.429l-13.6-1.562-.24-.027.027-.227.037,0h0l13.8,1.584-13.962-4.662h0l-.06-.021.073-.217Z" transform="translate(140.016 -31.158)" fill="#e5e5e5"/>
    <path id="Path_1826" data-name="Path 1826" d="M479.608,193.348a.573.573,0,0,0-.859.571l.442,3.245a.373.373,0,0,1-.01.143.35.35,0,0,1-.068.125l-2.478,2.936a.56.56,0,0,0-.036.692l0,0a.559.559,0,0,0,.654.216l1.79-.607a.345.345,0,0,1,.346.078.333.333,0,0,1,.107.245l.07,6.376a.568.568,0,0,0,.251.467.574.574,0,0,0,.525.061l13.357-5.108a.572.572,0,0,0,.088-1.028l-.182-.108-14-8.306Zm-.633.539a.344.344,0,0,1,.516-.342l13.994,8.3.186.11a.344.344,0,0,1-.052.616l-13.357,5.108a.343.343,0,0,1-.465-.317l-.07-6.376a.549.549,0,0,0-.032-.185l13.6,1.562a.229.229,0,0,0,.137-.429.2.2,0,0,0-.036-.016l-13.974-4.665a.565.565,0,0,0,0-.127l-.442-3.245Z" transform="translate(146.984 -21.268)" fill="#f1f1f1"/>
  </g>
</svg>
