<svg xmlns="http://www.w3.org/2000/svg" width="18.187" height="15.179" viewBox="0 0 18.187 15.179">
  <g id="Shape_2" data-name="Shape 2" transform="translate(-1127.65 -125)" opacity="0.5">
    <path id="Path_1829" data-name="Path 1829" d="M995.633,146.351l-14.488,8.6-.188.112a.592.592,0,0,0,.091,1.064l13.823,5.287a.594.594,0,0,0,.543-.063.588.588,0,0,0,.259-.483l.073-6.6a.345.345,0,0,1,.11-.253.357.357,0,0,1,.358-.081l1.852.629a.579.579,0,0,0,.677-.223l0,0a.58.58,0,0,0-.038-.716l-2.565-3.038a.362.362,0,0,1-.07-.129.385.385,0,0,1-.01-.148l.458-3.358a.593.593,0,0,0-.889-.59Zm.655.558-.458,3.358a.588.588,0,0,0,0,.131l-14.462,4.827a.21.21,0,0,0-.037.016.237.237,0,0,0,.142.444l14.073-1.617a.569.569,0,0,0-.033.192l-.072,6.6a.355.355,0,0,1-.482.328L981.132,155.9a.356.356,0,0,1-.054-.638l.193-.114,14.483-8.593a.356.356,0,0,1,.535.354Z" transform="translate(146.984 -21.268)" fill="#f1f1f1"/>
    <path id="Path_1830" data-name="Path 1830" d="M995.633,146.351l-14.488,8.6-.188.112a.592.592,0,0,0,.091,1.064l13.823,5.287a.594.594,0,0,0,.543-.063.588.588,0,0,0,.259-.483l.073-6.6a.345.345,0,0,1,.11-.253.357.357,0,0,1,.358-.081l1.852.629a.579.579,0,0,0,.677-.223l0,0a.58.58,0,0,0-.038-.716l-2.565-3.038a.362.362,0,0,1-.07-.129.385.385,0,0,1-.01-.148l.458-3.358a.593.593,0,0,0-.889-.59Zm.655.558-.458,3.358a.581.581,0,0,0,0,.131.553.553,0,0,0,.021.115.569.569,0,0,0,.045.112h0a.564.564,0,0,0,.071.1l2.565,3.038a.344.344,0,0,1,.023.429v0a.345.345,0,0,1-.406.135l-1.853-.629a.591.591,0,0,0-.566.1h0l-.03.027a.575.575,0,0,0-.152.232.566.566,0,0,0-.033.192l-.072,6.6a.355.355,0,0,1-.482.328L981.132,155.9a.356.356,0,0,1-.054-.638l.193-.114,14.483-8.593a.356.356,0,0,1,.534.354Z" transform="translate(146.984 -21.268)" fill="#e5e5e5"/>
    <path id="Path_1831" data-name="Path 1831" d="M997.152,160.131l.075.225-.062.022h0l-14.45,4.824L997,163.562h0l.038,0,.028.235-.248.028-14.073,1.617a.237.237,0,0,1-.142-.444.206.206,0,0,1,.037-.016L997.1,160.15Z" transform="translate(145.712 -31.02)" fill="#e5e5e5"/>
  </g>
</svg>
