<svg xmlns="http://www.w3.org/2000/svg" width="41.863" height="14.224" viewBox="0 0 41.863 14.224">
  <g id="Skrill" transform="translate(-0.9 -21.5)">
    <g id="Group_9" data-name="Group 9" transform="translate(0.967 21.5)">
      <g id="Group_8" data-name="Group 8">
        <g id="Group_7" data-name="Group 7">
          <g id="Group_6" data-name="Group 6">
            <path id="Path_639" data-name="Path 639" d="M34.032,22.848l3.371-.607V35.32H34.032Zm5.393,0V35.32H42.8V22.242ZM29.313,35.32h3.371V25.882H29.313ZM6.258,27.163c-.472,0-1.483-.067-1.483-1.011,0-1.079,1.483-1.079,2.022-1.079a11.964,11.964,0,0,1,3.1.539l1.011.337h.135V22.916l-.135-.067a13.617,13.617,0,0,0-4.584-.742C2.416,22.242,1,24.534,1,26.489c0,1.146.472,3.775,4.989,4.112.4,0,1.416.067,1.416,1.011,0,.809-.944,1.213-2.359,1.213A15.376,15.376,0,0,1,1,32.084v3.1a19.925,19.925,0,0,0,4.786.539c3.843,0,5.6-2.157,5.6-4.314C11.382,28.983,9.494,27.432,6.258,27.163ZM27.223,25.68c-3.236.067-4.651,1.55-4.651,4.382V35.32h3.371V31.073c0-1.685,0-2.427,2.022-2.494V25.747C27.965,25.612,27.223,25.68,27.223,25.68Zm-9.37.2a17.083,17.083,0,0,1-2.022,3.3V22.242l-3.371.742V35.32h3.371v-3.64a7.729,7.729,0,0,1,1.618,3.64h4.314a44.053,44.053,0,0,0-2.292-4.854,18.578,18.578,0,0,0,2.494-4.584ZM31,24.871a1.685,1.685,0,1,0-1.685-1.685A1.669,1.669,0,0,0,31,24.871Z" transform="translate(-1 -21.5)" fill="#b73091"/>
          </g>
        </g>
      </g>
    </g>
    <g id="Group_13" data-name="Group 13" transform="translate(0.9 21.5)">
      <g id="Group_12" data-name="Group 12">
        <g id="Group_11" data-name="Group 11">
          <g id="Group_10" data-name="Group 10">
            <path id="Path_640" data-name="Path 640" d="M35.348,22.579l2.022-.337V35.32H34Zm5.258.067L39.393,35.32h3.371V22.242ZM29.281,35.32h3.371V25.882H31.236ZM.967,26.489c0,1.146.472,3.775,4.921,4.112.4,0,2.022.067,2.022,1.011,0,.809-1.618,1.213-2.966,1.213A15.376,15.376,0,0,1,.9,32.084v3.1a19.925,19.925,0,0,0,4.786.539c3.843,0,5.6-2.157,5.6-4.314,0-2.427-1.888-3.977-5.123-4.247-.472,0-1.416-.067-1.416-1.011,0-1.079,1.483-1.079,2.022-1.079a11.964,11.964,0,0,1,3.1.539l1.011.337h.135V22.916l-.135-.067a13.617,13.617,0,0,0-4.584-.742m16.246,7.82V35.32H25.91V31.073c0-1.685,0-2.427,2.022-2.494V25.747c0-.067-.742-.067-.742-.067M12.428,35.32H15.8v-3.64c1.348,1.55,2.9,3.64,2.9,3.64h2.966a44.053,44.053,0,0,0-2.292-4.854,18.579,18.579,0,0,0,2.494-4.584H19.843a18.9,18.9,0,0,0-4.045,3.3V22.511m15.168,2.359a1.685,1.685,0,0,0,0-3.371" transform="translate(-0.9 -21.5)" fill="#862165"/>
          </g>
        </g>
      </g>
    </g>
  </g>
</svg>
