<svg id="img" xmlns="http://www.w3.org/2000/svg" width="450" height="315" viewBox="0 0 450 315">
  <path id="Path_914" data-name="Path 914" d="M733.56,548.976h-7.542l-3.588-29.09h11.131Z" transform="translate(-336.259 -241.907)" fill="#ffb8b8"/>
  <path id="Path_915" data-name="Path 915" d="M904.923,734.869H880.6v-.308a9.466,9.466,0,0,1,9.465-9.465h14.854Z" transform="translate(-505.699 -420.489)" fill="#2f2e41"/>
  <path id="Path_916" data-name="Path 916" d="M779.9,523.209l-4.9,5.737L750.55,512.793l7.226-8.467Z" transform="translate(-349.317 -234.683)" fill="#ffb8b8"/>
  <path id="Path_917" data-name="Path 917" d="M980.5,695.706l-15.785,18.5-.234-.2a9.466,9.466,0,0,1-1.056-13.344h0l9.641-11.3Z" transform="translate(-543.105 -403.898)" fill="#2f2e41"/>
  <path id="Path_918" data-name="Path 918" d="M641.2,265.2l-2.348,21.651,94.9-1.354-41.388-67.438-33.793-1.214Z" transform="translate(-297.451 -100.93)" fill="#2f2e41"/>
  <path id="Path_919" data-name="Path 919" d="M641.2,265.2l-2.348,21.651,94.9-1.354-41.388-67.438-33.793-1.214Z" transform="translate(-297.451 -100.93)" opacity="0.28"/>
  <path id="Path_920" data-name="Path 920" d="M854.375,465.85l-3.35,19.811v17.708l27.013,8.818s-3.162,68.781,1.054,73.162l-.1,10.575,11.785.536.1-7.442,5-55.632,2.943-40.844-4.771-30.967Z" transform="translate(-491.964 -298.126)" fill="#2f2e41"/>
  <path id="Path_921" data-name="Path 921" d="M875.065,501.392l-24.279,20.466s-1.421,36.924,2.187,41.254c3.1,3.719,43.409,35.8,43.409,35.8s7.164,6.571,11.179,6.676,8.684-8.316,8.684-8.316l-9.3-7.064s-24.088-22.485-31.24-31.425c-2.887-3.609-2.887-3.969-2.887-3.969l.986-15.006,9.923-27.85Z" transform="translate(-491.725 -316.616)" fill="#2f2e41"/>
  <path id="Path_922" data-name="Path 922" d="M632.806,162.046l-10.468-.967-9.5,1.582-20.106.006-1.713,14.572,18.348,4.106,4.471-2.191,18.638,7.1Z" transform="translate(-275.06 -74.945)" fill="#2f2e41"/>
  <path id="Path_923" data-name="Path 923" d="M864.865,317.827s22.216-2.082,27.268,1.888,15.877,82.635,15.877,82.635l-43.145,2.435-7.735-5.322,2.2-39.273Z" transform="translate(-494.799 -230.813)" fill="#ccc"/>
  <path id="Path_924" data-name="Path 924" d="M663.976,161.885l-24.506.538L616.622,265.661l18.043,3.97Z" transform="translate(-286.982 -75.38)" fill="#2f2e41"/>
  <path id="Path_925" data-name="Path 925" d="M730.507,160.256l19.3,6.042-1.1,42.417,23.83,50.713-28.015,2.951-22.144-54.761Z" transform="translate(-336.239 -74.616)" fill="#2f2e41"/>
  <path id="Path_926" data-name="Path 926" d="M967.223,486.788a6.167,6.167,0,0,0-.234-9.454l3.883-13.548-7.657-4.368L958,478.627a6.2,6.2,0,0,0,9.223,8.16Z" transform="translate(-541.124 -296.908)" fill="#ffb8b8"/>
  <path id="Path_927" data-name="Path 927" d="M931.905,328.375l11.422-.991s10.254,10.725,12.587,19.029,4.859,34.285,4.859,34.285l-1.054,38.008-13.351-9.067-.9-32.692Z" transform="translate(-529.52 -235.52)" fill="#2f2e41"/>
  <circle id="Ellipse_77" data-name="Ellipse 77" cx="16.191" cy="16.191" r="16.191" transform="translate(363.449 72.636) rotate(-61.337)" fill="#ffb8b8"/>
  <path id="Path_928" data-name="Path 928" d="M882.641,253.486c-2.124-.491-4.33.053-6.481.406s-4.523.469-6.343-.732a10.029,10.029,0,0,1-2.946-3.764,4.332,4.332,0,0,1-.634-1.661,3.867,3.867,0,0,1,1.277-2.77c3.274-3.6,8.058-5.569,12.883-6.194a22.259,22.259,0,0,1,11.764,1.437,15.391,15.391,0,0,1,8.251,8.279,23.514,23.514,0,0,1,1.232,5.912,17.659,17.659,0,0,1,.083,4.478,19.19,19.19,0,0,1-.868,3.244l-2.385,7.2a4.746,4.746,0,0,1-.938,1.857,1.623,1.623,0,0,1-1.9.416,5.91,5.91,0,0,0,.085-2.389,2.016,2.016,0,0,0-1.591-1.6c-.879-.093-1.63.588-2.464.882a3.032,3.032,0,0,1-3.768-2.045q-.034-.115-.059-.233a11.245,11.245,0,0,0-.223-2.478c-.366-.906-1.335-1.381-2.064-2.032a4.751,4.751,0,0,1-1.3-4.937c.2-.6.746-.872.636-1.561C884.74,254.295,883.408,253.663,882.641,253.486Z" transform="translate(-499.024 -194.053)" fill="#2f2e41"/>
  <path id="Path_929" data-name="Path 929" d="M383.619,283.376H179.2V155.5H383.619Z" transform="translate(-179.205 -155.5)" fill="#fff"/>
  <path id="Path_930" data-name="Path 930" d="M383.619,283.376H179.2V155.5H383.619Zm-203.481-.933H382.686V156.433H180.138Z" transform="translate(-179.205 -155.5)" fill="#3f3d56"/>
  <path id="Path_931" data-name="Path 931" d="M413.064,614.019H296.389V486.144H413.064Z" transform="translate(-233.618 -309.535)" fill="#fff"/>
  <path id="Path_932" data-name="Path 932" d="M413.064,614.019H296.389V486.144H413.064Zm-115.742-.933H412.131V487.077H297.323Z" transform="translate(-233.618 -309.535)" fill="#3f3d56"/>
  <rect id="Rectangle_64" data-name="Rectangle 64" width="24.268" height="0.984" transform="translate(139.046 292.407)" fill="#3f3d56"/>
  <rect id="Rectangle_65" data-name="Rectangle 65" width="24.268" height="0.984" transform="translate(139.046 295.358)" fill="#3f3d56"/>
  <rect id="Rectangle_66" data-name="Rectangle 66" width="24.268" height="0.984" transform="translate(139.046 298.31)" fill="#3f3d56"/>
  <path id="Path_933" data-name="Path 933" d="M405.3,528.835V539.1a30.8,30.8,0,0,1,21.78,52.583l7.26,7.26a41.07,41.07,0,0,0-29.041-70.11Z" transform="translate(-284.427 -329.358)" fill="#e6e6e6"/>
  <path id="Path_934" data-name="Path 934" d="M412.8,653.427l-7.26-7.26a30.8,30.8,0,0,1-40.416,2.74l-6.214,8.177a41.069,41.069,0,0,0,53.891-3.657Z" transform="translate(-262.842 -383.84)" fill="#575a89"/>
  <path id="Path_935" data-name="Path 935" d="M338.891,569.9a30.8,30.8,0,0,1,30.8-30.8V528.835a41.069,41.069,0,0,0-24.85,73.767l6.215-8.177A30.749,30.749,0,0,1,338.891,569.9Z" transform="translate(-248.742 -329.358)" fill="#ff9f26"/>
  <path id="Path_936" data-name="Path 936" d="M735.43,465.9H618.755V338.029H735.43Z" transform="translate(-383.874 -240.518)" fill="#fff"/>
  <path id="Path_937" data-name="Path 937" d="M735.43,465.9H618.755V338.029H735.43Zm-115.742-.933H734.5V338.962H619.689Z" transform="translate(-383.874 -240.518)" fill="#3f3d56"/>
  <rect id="Rectangle_67" data-name="Rectangle 67" width="21.001" height="33.602" transform="translate(251.778 175.631)" fill="#575a89"/>
  <rect id="Rectangle_68" data-name="Rectangle 68" width="21.001" height="56.471" transform="translate(282.056 152.78)" fill="#e6e6e6"/>
  <rect id="Rectangle_69" data-name="Rectangle 69" width="21.001" height="83.073" transform="translate(312.335 126.201)" fill="#ff9f26"/>
  <path id="Path_938" data-name="Path 938" d="M554.734,308.386H460.461V210.845h.933v96.607h93.34Z" transform="translate(-214.368 -98.165)" fill="#3f3d56"/>
  <circle id="Ellipse_78" data-name="Ellipse 78" cx="6.428" cy="6.428" r="6.428" transform="translate(311.193 88.175)" fill="#ffb8b8"/>
  <path id="Path_939" data-name="Path 939" d="M932.5,743.571H832.331a.536.536,0,0,1,0-1.071H932.5a.536.536,0,0,1,0,1.071Z" transform="translate(-483.035 -428.571)" fill="#ccc"/>
  <path id="Path_940" data-name="Path 940" d="M379.439,282.157H231.8a.462.462,0,0,1-.462-.462V210.932a.462.462,0,0,1,.924,0v70.3H379.439a.462.462,0,0,1,0,.924Z" transform="translate(-203.413 -181.025)" fill="#3f3d56"/>
  <path id="Path_941" data-name="Path 941" d="M278.26,316.387H264.832a1.373,1.373,0,0,1-1.372-1.371V296.5a1.373,1.373,0,0,1,1.372-1.371H278.26a1.373,1.373,0,0,1,1.372,1.371v18.511A1.373,1.373,0,0,1,278.26,316.387Z" transform="translate(-218.328 -220.465)" fill="#ff9f26"/>
  <path id="Path_942" data-name="Path 942" d="M323.976,301.167H310.547a1.373,1.373,0,0,1-1.372-1.371V263.727a1.373,1.373,0,0,1,1.372-1.371h13.428a1.373,1.373,0,0,1,1.372,1.371V299.8a1.373,1.373,0,0,1-1.372,1.371Z" transform="translate(-239.555 -205.221)" fill="#ff9f26"/>
  <path id="Path_943" data-name="Path 943" d="M369.691,316.387H356.263a1.373,1.373,0,0,1-1.372-1.371V296.5a1.373,1.373,0,0,1,1.372-1.371h13.428a1.373,1.373,0,0,1,1.372,1.371v18.511A1.373,1.373,0,0,1,369.691,316.387Z" transform="translate(-260.958 -220.465)" fill="#ff9f26"/>
  <path id="Path_944" data-name="Path 944" d="M415.407,295.159H401.979a1.343,1.343,0,0,1-1.372-1.309V250.726a1.343,1.343,0,0,1,1.372-1.309h13.428a1.343,1.343,0,0,1,1.372,1.309v43.123a1.343,1.343,0,0,1-1.372,1.309Z" transform="translate(-282.231 -199.203)" fill="#ff9f26"/>
  <path id="Path_945" data-name="Path 945" d="M461.123,284.345H447.694a1.373,1.373,0,0,1-1.372-1.371V227.5a1.373,1.373,0,0,1,1.372-1.371h13.428a1.373,1.373,0,0,1,1.372,1.371v55.474A1.373,1.373,0,0,1,461.123,284.345Z" transform="translate(-303.504 -188.295)" fill="#ff9f26"/>
  <circle id="Ellipse_79" data-name="Ellipse 79" cx="2.772" cy="2.772" r="2.772" transform="translate(50.446 63.603)" fill="#3f3d56"/>
  <circle id="Ellipse_80" data-name="Ellipse 80" cx="2.772" cy="2.772" r="2.772" transform="translate(74.934 45.687)" fill="#3f3d56"/>
  <circle id="Ellipse_81" data-name="Ellipse 81" cx="2.772" cy="2.772" r="2.772" transform="translate(99.242 63.603)" fill="#3f3d56"/>
  <circle id="Ellipse_82" data-name="Ellipse 82" cx="2.772" cy="2.772" r="2.772" transform="translate(123.685 36.909)" fill="#3f3d56"/>
  <circle id="Ellipse_83" data-name="Ellipse 83" cx="2.772" cy="2.772" r="2.772" transform="translate(148.129 26.744)" fill="#3f3d56"/>
  <path id="Path_946" data-name="Path 946" d="M148.144,92.573,123.6,74.187,99.387,92.322l-.554-.74L123.6,73.032l24.429,18.3L172.3,64.765l.1-.04,24.488-9.867.345.858-24.391,9.827Z" transform="translate(-45.892 -25.473)" fill="#3f3d56"/>
</svg>
