<svg xmlns="http://www.w3.org/2000/svg" width="23.168" height="24" viewBox="0 0 23.168 24">
  <g id="Bitcoin" transform="translate(-2 -2)">
    <circle id="Ellipse_40" data-name="Ellipse 40" cx="11.5" cy="11.5" r="11.5" transform="translate(2 3)" opacity="0.2"/>
    <circle id="Ellipse_41" data-name="Ellipse 41" cx="11.5" cy="11.5" r="11.5" transform="translate(2 2)" fill="#f7931a"/>
    <path id="Path_641" data-name="Path 641" d="M12.482,8v2.482H10v1.655s.948-.017.933,0a.69.69,0,0,1,.722.607v5.461c-.019.155,0,.541-.358.552.016.014-1.3,0-1.3,0v1.655h1.795c.3-.011.395,0,.688,0v2.482h1.655V20.412h.81l.034,2.482h1.638L16.6,20.412c2.1-.153,3.327-1.16,3.313-2.9a2.38,2.38,0,0,0-2.055-2.482c.791,0,1.241-.858,1.241-2.069a2.334,2.334,0,0,0-2.482-2.482V8H14.965v2.482c-.329,0-.493-.012-.827,0V8Zm1.655,4.137c1.655,0,2.482,0,2.482,1.241s-.827,1.241-2.482,1.241Zm0,4.137c2.206,0,3.31-.138,3.31,1.241s-1.1,1.241-3.31,1.241Z" transform="translate(-1.381 -1.035)" opacity="0.2"/>
    <path id="Path_642" data-name="Path 642" d="M12.482,7V9.482H10v1.655s.948-.017.933,0a.69.69,0,0,1,.722.607v5.461c-.019.155,0,.541-.358.552.016.014-1.3,0-1.3,0v1.655h1.795c.3-.011.395,0,.688,0v2.482h1.655V19.412h.81l.034,2.482h1.638L16.6,19.412c2.1-.153,3.327-1.16,3.313-2.9a2.38,2.38,0,0,0-2.055-2.482c.791,0,1.241-.858,1.241-2.069a2.334,2.334,0,0,0-2.482-2.482V7H14.965V9.482c-.329,0-.493-.012-.827,0V7Zm1.655,4.137c1.655,0,2.482,0,2.482,1.241s-.827,1.241-2.482,1.241Zm0,4.137c2.206,0,3.31-.138,3.31,1.241s-1.1,1.241-3.31,1.241Z" transform="translate(-1.381 -0.863)" fill="#fff"/>
    <path id="Path_643" data-name="Path 643" d="M13.584,2A11.584,11.584,0,0,0,2,13.584q0,.243.018.485a11.574,11.574,0,0,1,23.133-.142q.011-.171.018-.343A11.584,11.584,0,0,0,13.584,2Z" transform="translate(0 0)" fill="#fff" opacity="0.2"/>
  </g>
</svg>
