<svg id="Img" xmlns="http://www.w3.org/2000/svg" width="574" height="411" viewBox="0 0 574 411">
  <path id="Path_398" data-name="Path 398" d="M555.916,364.922H870.11a16.7,16.7,0,0,1,16.68,16.68v50.919a16.7,16.7,0,0,1-16.68,16.68H555.916a16.7,16.7,0,0,1-16.68-16.68V381.6A16.7,16.7,0,0,1,555.916,364.922Z" transform="translate(-538.941 -244.489)" fill="#fff"/>
  <path id="Path_399" data-name="Path 399" d="M313.915,655.542h125a1,1,0,1,0,0-2h-125a1,1,0,0,0,0,2Z" transform="translate(134.085 -244.542)" fill="#3f3d56"/>
  <path id="Path_400" data-name="Path 400" d="M424.063,342.436a9.377,9.377,0,0,1,1.922,14.249l9.087,19.406-10.446,8.4-12.448-27.585a9.428,9.428,0,0,1,11.885-14.469Z" transform="translate(42.32 -244.48)" fill="#ffb8b8"/>
  <path id="Path_401" data-name="Path 401" d="M422.024,350.311h0a13.058,13.058,0,0,0-17.583,3.942l-18.595,27.842-6.455-14.231a4,4,0,0,0-4.835-2.166l-9.743,3.044a4,4,0,0,0-2.6,5.1l6.67,19.694a17.019,17.019,0,0,0,25.758,8.568h0a17.019,17.019,0,0,0,2.787-2.4l27.4-29.279a13.058,13.058,0,0,0-2.81-20.117Z" transform="translate(96.551 -244.483)" fill="#ccc"/>
  <path id="Path_402" data-name="Path 402" d="M411.108,321.543a1.882,1.882,0,0,0-1.835,1.929l.161,6.463-.324.03.116,4.389.317-.039.575,23.152a3.265,3.265,0,0,0,2.922,3.165l14.722,1.55a2.471,2.471,0,0,0,2.724-2.624l-2.233-32.967a3.057,3.057,0,0,0-2.581-2.815l-14.212-2.208h0a1.877,1.877,0,0,0-.351-.024Z" transform="translate(47.343 -244.475)" fill="#3f3d56"/>
  <path id="Path_403" data-name="Path 403" d="M422.344,324.974l-7.471-1.161a.619.619,0,0,1-.52-.544h0a.7.7,0,0,0-.589-.616l-1.574-.244a1.485,1.485,0,0,0-1.713,1.5l.809,33.567a1.7,1.7,0,0,0,1.545,1.648l14.711,1.308a1.309,1.309,0,0,0,1.423-1.384l-1.985-32.663a2.113,2.113,0,0,0-1.785-1.96l-1.659-.258A1.058,1.058,0,0,1,422.344,324.974Z" transform="translate(47.502 -244.475)" fill="#fff"/>
  <path id="Path_404" data-name="Path 404" d="M86.387,398.946H74.955l-5.437-44.1,16.873,0Z" transform="translate(418.091 -0.085)" fill="#ffb8b8"/>
  <path id="Path_405" data-name="Path 405" d="M0,13.882H35.93V0H13.882A13.882,13.882,0,0,0,0,13.882Z" transform="translate(470.998 395.592) rotate(0.005)" fill="#2f2e41"/>
  <path id="Path_406" data-name="Path 406" d="M51.251,398.946H39.819l-5.437-44.1,16.873,0Z" transform="translate(488.363 -0.085)" fill="#ffb8b8"/>
  <path id="Path_407" data-name="Path 407" d="M0,13.882H35.93V0H13.882A13.882,13.882,0,0,0,0,13.882Z" transform="translate(506.134 395.592) rotate(0.005)" fill="#2f2e41"/>
  <ellipse id="Ellipse_14" data-name="Ellipse 14" cx="24.561" cy="24.561" rx="24.561" ry="24.561" transform="translate(481.572 41.745)" fill="#ffb8b8"/>
  <path id="Path_408" data-name="Path 408" d="M346.554,376.476a37.859,37.859,0,0,1,18.28-31.212c6.345-3.739,13.291-5.2,18.816.328a38.354,38.354,0,0,1,7.836,11.761,50.505,50.505,0,0,1,.934,37.49l-13.152,36.334-30.439,3.3a4,4,0,0,1-4.428-4.136Z" transform="translate(146.938 -244.484)" fill="#2f2e41"/>
  <path id="Path_409" data-name="Path 409" d="M382.563,426.7s22.741,8.49,16.8,44.439c-5.335,32.258-1.1,139.33-.169,160.973a4,4,0,0,1-3.664,4.154l-13.275,1.106a4,4,0,0,1-4.309-3.553l-6.856-62.974a1,1,0,0,0-1.991.024l-5.109,60.6a4,4,0,0,1-4.112,3.662l-11.15-.353a4,4,0,0,1-3.871-4.129L351.421,430.9Z" transform="translate(141.714 -244.542)" fill="#2f2e41"/>
  <path id="Path_410" data-name="Path 410" d="M367.712,309.145c-8.214,3.369-18.7-.566-22.676-8.507s-.828-18.695,6.794-23.247,18.581-2.219,23.688,5.044c4.154-7.485,15.038-9.393,22.51-5.216s11.543,12.924,12.025,21.471-2.116,16.966-5.285,24.918c-5.127,12.863-21.633,19.788-34.4,14.435C376.211,329.336,375.057,316.593,367.712,309.145Z" transform="translate(133.492 -244.458)" fill="#2f2e41"/>
  <path id="Path_395" data-name="Path 395" d="M420.642,345.414a1.008,1.008,0,0,0,.606-.2l.011-.008,2.284-1.747a1.015,1.015,0,0,0-1.235-1.611l-1.479,1.134-3.5-4.56a1.014,1.014,0,0,0-1.422-.188h0l.022.03-.022-.03a1.016,1.016,0,0,0-.188,1.423l4.111,5.361a1.015,1.015,0,0,0,.807.4Z" transform="translate(47.46 -244.477)" fill="#ff9f26"/>
  <path id="Path_411" data-name="Path 411" d="M556.212,244.458H870.405a16.7,16.7,0,0,1,16.68,16.68v50.919a16.7,16.7,0,0,1-16.68,16.68H556.212a16.7,16.7,0,0,1-16.68-16.68V261.138a16.7,16.7,0,0,1,16.68-16.68Zm-14.924,67.6a14.946,14.946,0,0,0,14.924,14.924H870.405a14.946,14.946,0,0,0,14.924-14.924V261.138a14.946,14.946,0,0,0-14.924-14.924H556.212a14.946,14.946,0,0,0-14.924,14.924Z" transform="translate(-539.531 -244.458)" fill="#3f3d56"/>
  <path id="Path_412" data-name="Path 412" d="M620.15,315.63A29.032,29.032,0,1,1,649.182,286.6,29.032,29.032,0,0,1,620.15,315.63Z" transform="translate(-538.592 -244.458)" fill="#ff9f26"/>
  <path id="Path_413" data-name="Path 413" d="M827.536,310.3h-150.9a7.023,7.023,0,0,1,0-14.047h150.9a7.023,7.023,0,0,1,0,14.047Z" transform="translate(-538.647 -244.458)" fill="#ccc"/>
  <path id="Path_414" data-name="Path 414" d="M726.576,280.452H676.634a7.023,7.023,0,0,1,0-14.047h49.943a7.023,7.023,0,0,1,0,14.047Z" transform="translate(-538.636 -244.458)" fill="#ccc"/>
  <path id="Path_395-2" data-name="Path 395" d="M618.668,296.809a3.321,3.321,0,0,1-2-.664l-.036-.027-7.525-5.756a3.344,3.344,0,0,1,4.069-5.308l4.874,3.738,11.517-15.026a3.343,3.343,0,0,1,4.686-.619h0l-.071.1.073-.1a3.347,3.347,0,0,1,.618,4.687L621.33,295.5a3.345,3.345,0,0,1-2.66,1.3Z" transform="translate(-538.592 -244.458)" fill="#fff"/>
  <path id="Path_415" data-name="Path 415" d="M735.405,381.458H421.212a16.7,16.7,0,0,0-16.68,16.68v50.919a16.7,16.7,0,0,0,16.68,16.68H735.405a16.7,16.7,0,0,0,16.68-16.68V398.138a16.7,16.7,0,0,0-16.68-16.68Z" transform="translate(-269.633 -244.493)" fill="#fff"/>
  <path id="Path_416" data-name="Path 416" d="M421.211,381.458H735.405a16.7,16.7,0,0,1,16.68,16.68v50.919a16.7,16.7,0,0,1-16.68,16.68H421.211a16.7,16.7,0,0,1-16.68-16.68V398.138a16.7,16.7,0,0,1,16.68-16.68Zm-14.924,67.6a14.946,14.946,0,0,0,14.924,14.924H735.405a14.946,14.946,0,0,0,14.925-14.924V398.138a14.946,14.946,0,0,0-14.924-14.924H421.211a14.946,14.946,0,0,0-14.924,14.924Z" transform="translate(-269.633 -244.493)" fill="#3f3d56"/>
  <path id="Path_417" data-name="Path 417" d="M485.15,452.63A29.032,29.032,0,1,1,514.182,423.6,29.032,29.032,0,0,1,485.15,452.63Z" transform="translate(-269.593 -244.494)" fill="#ff9f26"/>
  <path id="Path_418" data-name="Path 418" d="M692.536,447.3h-150.9a7.023,7.023,0,0,1,0-14.047h150.9a7.023,7.023,0,1,1,0,14.047Z" transform="translate(-269.642 -244.498)" fill="#ccc"/>
  <path id="Path_419" data-name="Path 419" d="M591.576,417.452H541.634a7.023,7.023,0,0,1,0-14.047h49.943a7.023,7.023,0,0,1,0,14.047Z" transform="translate(-269.62 -244.492)" fill="#ccc"/>
  <path id="Path_395-3" data-name="Path 395" d="M483.668,433.809a3.321,3.321,0,0,1-2-.664l-.036-.027-7.525-5.756a3.344,3.344,0,0,1,4.069-5.308l4.874,3.738,11.517-15.026a3.343,3.343,0,0,1,4.686-.619h0l-.071.1.073-.1a3.347,3.347,0,0,1,.618,4.687L486.33,432.5a3.345,3.345,0,0,1-2.66,1.3Z" transform="translate(-269.595 -244.494)" fill="#fff"/>
  <path id="Path_420" data-name="Path 420" d="M381.988,392.944a9.377,9.377,0,0,1,12.8,6.557l21.12,3.618.932,13.371-29.754-5.528a9.428,9.428,0,0,1-5.094-18.018Z" transform="translate(93.904 -244.49)" fill="#ffb8b8"/>
  <path id="Path_421" data-name="Path 421" d="M365.568,354.565h0a13.058,13.058,0,0,0-6.8,16.686l12.243,31.162-15.37-2.825a4,4,0,0,0-4.539,2.733l-3.064,9.737a4,4,0,0,0,2.706,5.044l19.977,5.768a17.019,17.019,0,0,0,21.74-16.256h0a17.02,17.02,0,0,0-.377-3.657l-8.394-39.214a13.058,13.058,0,0,0-18.12-9.178Z" transform="translate(146.603 -244.485)" fill="#ccc"/>
</svg>
