<svg id="Img" xmlns="http://www.w3.org/2000/svg" width="225.807" height="119.998" viewBox="0 0 225.807 119.998">
  <path id="Path_141" data-name="Path 141" d="M669.656,350.529H543.922a1.463,1.463,0,0,1-1.461-1.461V232.3a1.463,1.463,0,0,1,1.461-1.461H669.656a1.463,1.463,0,0,1,1.461,1.461V349.068a1.463,1.463,0,0,1-1.461,1.461Zm-125.733-119.1a.878.878,0,0,0-.876.876V349.068a.878.878,0,0,0,.876.876H669.656a.878.878,0,0,0,.876-.876V232.3a.878.878,0,0,0-.876-.876Z" transform="translate(-445.31 -230.842)" fill="#e6e6e6"/>
  <path id="Path_142" data-name="Path 142" d="M762.179,341.671a.992.992,0,0,0,0,1.984H816.62a.992.992,0,0,0,0-1.984Z" transform="translate(-604.155 -311.329)" fill="#e6e6e6"/>
  <path id="Path_143" data-name="Path 143" d="M762.179,363.417a.992.992,0,0,0,0,1.984h27.793a.992.992,0,0,0,0-1.984Z" transform="translate(-604.155 -327.122)" fill="#e6e6e6"/>
  <path id="Path_142-2" data-name="Path 142" d="M588.372,468.671a.992.992,0,1,0,0,1.984H690.449a.992.992,0,1,0,0-1.984Z" transform="translate(-477.932 -403.561)" fill="#e6e6e6"/>
  <path id="Path_143-2" data-name="Path 143" d="M588.372,490.417a.992.992,0,0,0,0,1.984H663.8a.992.992,0,1,0,0-1.984Z" transform="translate(-477.932 -419.353)" fill="#e6e6e6"/>
  <path id="Path_142-3" data-name="Path 142" d="M588.372,511.671a.992.992,0,1,0,0,1.984H690.449a.992.992,0,1,0,0-1.984Z" transform="translate(-477.932 -434.789)" fill="#e6e6e6"/>
  <path id="Path_143-3" data-name="Path 143" d="M588.372,533.417a.992.992,0,1,0,0,1.984H663.8a.992.992,0,1,0,0-1.984Z" transform="translate(-477.932 -450.581)" fill="#e6e6e6"/>
  <path id="Path_154" data-name="Path 154" d="M501.329,318.4H422.41a1.463,1.463,0,0,1-1.461-1.461V282.3a1.463,1.463,0,0,1,1.461-1.461h78.919a1.463,1.463,0,0,1,1.461,1.461v34.634A1.463,1.463,0,0,1,501.329,318.4Z" transform="translate(-357.064 -267.154)" fill="#ff9f26"/>
  <path id="Path_154-2" data-name="Path 154" d="M878.324,597.558H848.41a1.463,1.463,0,0,1-1.461-1.461V591.3a1.463,1.463,0,0,1,1.461-1.461h29.914a1.463,1.463,0,0,1,1.461,1.461V596.1A1.463,1.463,0,0,1,878.324,597.558Z" transform="translate(-666.438 -491.559)" fill="#ff9f26"/>
  <path id="Path_978" data-name="Path 978" d="M310.636,365.507a3.038,3.038,0,0,1-.845-4.017,2.507,2.507,0,0,1,.276-.345l.082-25.586,3.8.71.167,25.165a2.985,2.985,0,0,1,.34,3.542A2.619,2.619,0,0,1,310.636,365.507Z" transform="translate(-276.022 -306.89)" fill="#ffb8b8"/>
  <path id="Path_979" data-name="Path 979" d="M198.682,383.182H202.6l1.865-15.124h-5.787Z" transform="translate(-144.288 -267.295)" fill="#ffb8b8"/>
  <path id="Path_980" data-name="Path 980" d="M382.626,649.466h7.722a4.921,4.921,0,0,1,4.921,4.921v.16H382.626Z" transform="translate(-329.233 -534.859)" fill="#2f2e41"/>
  <path id="Path_981" data-name="Path 981" d="M65.5,383.182h3.921l1.865-15.124H65.5Z" transform="translate(-47.571 -267.295)" fill="#ffb8b8"/>
  <path id="Path_982" data-name="Path 982" d="M249.449,649.466h7.722a4.921,4.921,0,0,1,4.921,4.921v.16H249.449Z" transform="translate(-232.516 -534.859)" fill="#2f2e41"/>
  <path id="Path_983" data-name="Path 983" d="M285.3,463.562l-.329-1.972a1.563,1.563,0,0,1-.813-.652,3,3,0,0,1-.167-2.333l-2.646-22.342-13.812-14.33-8.861,21.372-3.508,16.912v2.443l-7,.9.319-2.3a1.341,1.341,0,0,1-.636-.567,3.952,3.952,0,0,1,.016-3.085l.018-.06-.023-.206c-.016-.144.089-13.958,4.2-20.8l4.113-20.78a7.651,7.651,0,0,1,.333-4.876c.954-2.841,3.624-7.419,10.92-13.089l.025-.019.031-.007c.081-.017,8.128-1.617,12.29,3.826l.028.037v.046c0,.336-.007,8.167-.626,9.9l9.876,18.159c.192.2,1.919,2.2,1.306,7.44l1.6,17.868c.183.348,1.834,3.63.014,4.93l.326,2.256Z" transform="translate(-231.133 -351.9)" fill="#2f2e41"/>
  <path id="Path_984" data-name="Path 984" d="M309.561,327.064a6.19,6.19,0,0,1-5.827-3.676l-.03-.059,3.716-7.877a4.319,4.319,0,0,1,7.892,3.506l-3.213,7.7-.056.021A8.034,8.034,0,0,1,309.561,327.064Z" transform="translate(-271.918 -290.488)" fill="#ff9f26"/>
  <path id="Path_985" data-name="Path 985" d="M331.621,343.978l-11.715-5.532,1.61-19.646,2.936-3.588.569-.122a14.969,14.969,0,0,1,7.865.436l.056.019,4.822,10.287c.03.051,3.508,6.191-1.3,9.428Z" transform="translate(-283.683 -291.784)" fill="#ff9f26"/>
  <path id="Path_986" data-name="Path 986" d="M373.55,375.032a2.881,2.881,0,0,0-.4.207L360.8,369.592l-.317-3.283-5.017-.17,0,5.866a2.19,2.19,0,0,0,1.576,2.1l14.824,4.332a2.873,2.873,0,1,0,1.686-3.409Z" transform="translate(-309.507 -329.099)" fill="#ffb8b8"/>
  <path id="Path_987" data-name="Path 987" d="M354.262,333.373a6.246,6.246,0,0,1-4.518-2.01l-.047-.047,1.03-8.649a4.319,4.319,0,0,1,8.6.825l-.608,8.323-.047.037A7.852,7.852,0,0,1,354.262,333.373Z" transform="translate(-305.318 -294.762)" fill="#ff9f26"/>
  <circle id="Ellipse_119" data-name="Ellipse 119" cx="7.855" cy="7.855" r="7.855" transform="translate(35.154 15.941) rotate(-61.337)" fill="#ffb8b8"/>
  <path id="Path_988" data-name="Path 988" d="M253.976,243.984a6.649,6.649,0,0,0-4.378-4.915,9.479,9.479,0,0,0-6.736.367,11.187,11.187,0,0,0-1.036.5,4.8,4.8,0,0,0-4.419-2.244c-2.1.112-4,1.224-5.826,2.272s-3.785,2.091-5.89,2.043c-3.8-.088-6.633-3.614-10.291-4.662a8.23,8.23,0,0,0-9.057,12.561c1.561-2.8,5.225-3.741,8.405-3.36s6.143,1.775,9.259,2.517,6.723.711,9.136-1.395c1.369-1.194,2.172-2.9,3.364-4.272a5.55,5.55,0,0,1,3.126-1.895,9.488,9.488,0,0,0-2.568,3.808,7.908,7.908,0,0,0,1.513,7.931c2.091,2.2,5.372,2.788,8.408,2.752l.064-.065c-.929-1.391-1.663-3.32-.64-4.644,1.01-1.307,3-1.114,4.55-1.692A5.151,5.151,0,0,0,253.976,243.984Z" transform="translate(-200.166 -235.33)" fill="#2f2e41"/>
  <path id="Path_989" data-name="Path 989" d="M262.609,667.706H187.87a.274.274,0,1,1,0-.547h74.739a.274.274,0,1,1,0,.547Z" transform="translate(-187.596 -547.708)" fill="#ccc"/>
  <path id="Path_155" data-name="Path 155" d="M555.843,325.212c-.343,0-.62.446-.619.994s.278.989.619.99H585.1c.343,0,.62-.446.619-.994s-.278-.989-.619-.99Z" transform="translate(-454.578 -299.376)" fill="#fff"/>
  <path id="Path_156" data-name="Path 156" d="M555.843,346.212c-.343,0-.62.446-.619.994s.278.989.619.99H585.1c.343,0,.62-.446.619-.994s-.278-.989-.619-.99Z" transform="translate(-454.578 -314.627)" fill="#fff"/>
  <path id="Path_157" data-name="Path 157" d="M555.843,366.958c-.343,0-.62.446-.619.994s.278.989.619.99h12.59c.343,0,.62-.446.619-.994s-.278-.989-.619-.99Z" transform="translate(-454.578 -329.693)" fill="#fff"/>
  <circle id="Ellipse_120" data-name="Ellipse 120" cx="7.939" cy="7.939" r="7.939" transform="translate(78.47 24.528)" fill="#fff"/>
</svg>
