<svg xmlns="http://www.w3.org/2000/svg" width="189.261" height="120" viewBox="0 0 189.261 120">
  <g id="Img" transform="translate(-10 -10)">
    <g id="Group_14" data-name="Group 14" transform="translate(159 10)">
      <path id="Path_284" data-name="Path 284" d="M984.788,398.7a2.781,2.781,0,0,1-.735-4.2l-2.9-21.194,6.04.3.948,20.673a2.8,2.8,0,0,1-3.354,4.425Z" transform="translate(-948.738 -334.341)" fill="#a0616a"/>
      <path id="Path_285" data-name="Path 285" d="M972.967,334.962a1.135,1.135,0,0,1-.461.326l-5.428,2.072a1.141,1.141,0,0,1-1.449-.6l-4.808-10.806a4.516,4.516,0,0,1-.221-3.2,4.392,4.392,0,0,1,3.342-3,4.189,4.189,0,0,1,1.8.026,4.374,4.374,0,0,1,3.144,2.733l4.275,11.3A1.143,1.143,0,0,1,972.967,334.962Z" transform="translate(-933.682 -295.424)" fill="#ccc"/>
      <path id="Path_286" data-name="Path 286" d="M889.54,615.959h-3.756L884.422,601.4l5.118.069Z" transform="translate(-878.541 -499.873)" fill="#a0616a"/>
      <path id="Path_287" data-name="Path 287" d="M867.542,650.551h7.242v4.56h-11.8a4.56,4.56,0,0,1,4.56-4.56Z" transform="translate(-862.981 -535.538)" fill="#2f2e41"/>
      <path id="Path_288" data-name="Path 288" d="M952.071,616.14h-3.756l-1.787-14.486h5.543Z" transform="translate(-923.611 -500.055)" fill="#a0616a"/>
      <path id="Path_289" data-name="Path 289" d="M931.2,650.551h7.242v4.56h-11.8a4.56,4.56,0,0,1,4.56-4.56Z" transform="translate(-909.174 -535.538)" fill="#2f2e41"/>
      <path id="Path_290" data-name="Path 290" d="M904.544,493.184l-5.9-.437a1.38,1.38,0,0,1-1.277-1.308l-1.315-27.181a1.072,1.072,0,0,0-2.121-.165l-5.486,26.776a1.38,1.38,0,0,1-1.46,1.1l-5.332-.427a1.378,1.378,0,0,1-1.264-1.484c0-.009,0-.018,0-.027l4.947-49.465a1.378,1.378,0,0,1,1.664-1.21l18.81,4.089a1.382,1.382,0,0,1,1.085,1.372l-.876,47.02a1.379,1.379,0,0,1-1.375,1.353C904.614,493.188,904.579,493.186,904.544,493.184Z" transform="translate(-875.612 -382.252)" fill="#2f2e41"/>
      <circle id="Ellipse_40" data-name="Ellipse 40" cx="7.524" cy="7.524" r="7.524" transform="translate(16.248 1.906)" fill="#a0616a"/>
      <path id="Path_291" data-name="Path 291" d="M901.172,344.517a6.728,6.728,0,0,1-2.234-5.167c0-10.814,9.36-34.974,9.653-35.727.027-.182.274-.26,1.571-1.135s3.166-1.011,5.557-.4a1.372,1.372,0,0,1,1,1.017l.445.642a1.069,1.069,0,0,0,.623.737c1.928.812,8.056,4.558,5.967,18.653-1.94,13.094-2.727,20.793-2.975,23.5a1.376,1.376,0,0,1-1.247,1.245c-.945.085-2.568.2-4.5.2C910.547,348.075,904.4,347.472,901.172,344.517Z" transform="translate(-889.073 -282.389)" fill="#ccc"/>
      <path id="Path_292" data-name="Path 292" d="M873.561,382.008a2.781,2.781,0,0,1,1.731-3.9l9.4-19.215,4.85,3.612L878.813,380.2a2.8,2.8,0,0,1-5.251,1.805Z" transform="translate(-870.453 -323.887)" fill="#a0616a"/>
      <path id="Path_293" data-name="Path 293" d="M915.7,327a1.134,1.134,0,0,1-.565.014l-5.662-1.3a1.14,1.14,0,0,1-.868-1.307l2.03-11.652a4.515,4.515,0,0,1,1.6-2.777,4.392,4.392,0,0,1,4.445-.626,4.188,4.188,0,0,1,1.484,1.027,4.374,4.374,0,0,1,1.088,4.021L916.5,326.164A1.143,1.143,0,0,1,915.7,327Z" transform="translate(-896.08 -287.685)" fill="#ccc"/>
      <path id="Path_294" data-name="Path 294" d="M923.161,247.5a3.242,3.242,0,0,1-.87-2.875c.262-1.372.416-2.27.446-2.6h0c.1-1.117-1.03-2.022-2.147-2.167-.043-.006-.08-.009-.11-.012.027.027.059.057.086.082.212.2.476.448.414.7-.038.154-.179.264-.431.334a3.649,3.649,0,0,1-4.237-1.414,3.376,3.376,0,0,1-.645-1.409,5.594,5.594,0,0,1,1.668-4.8,5.809,5.809,0,0,1,3.8-2.068,3.332,3.332,0,0,1,3.292,2.014,2.5,2.5,0,0,1,1.948-1.1,4.491,4.491,0,0,1,2.5.7A8.334,8.334,0,0,1,925.92,248.4a3.185,3.185,0,0,1-.531.045,3.1,3.1,0,0,1-2.229-.951Z" transform="translate(-901.151 -231.269)" fill="#2f2e41"/>
    </g>
    <path id="Path_336" data-name="Path 336" d="M434.485,423.464a2.085,2.085,0,0,0-1.906-1.275H394.525a2.064,2.064,0,0,0-2.063,2.063v48.141a2.064,2.064,0,0,0,2.063,2.063H432.58a2.066,2.066,0,0,0,2.063-2.063V424.252a2.026,2.026,0,0,0-.156-.787Zm-.3,48.928a1.607,1.607,0,0,1-1.6,1.6H394.525a1.6,1.6,0,0,1-1.6-1.6V424.252a1.607,1.607,0,0,1,1.6-1.6H432.58a1.613,1.613,0,0,1,1.49,1.009,1.785,1.785,0,0,1,.06.181,1.593,1.593,0,0,1,.055.414Z" transform="translate(-334.73 -369.818)" fill="#3f3d56"/>
    <path id="Path_337" data-name="Path 337" d="M483.958,458.772H472.5a.917.917,0,0,1,0-1.834h11.462a.917.917,0,0,1,0,1.834Z" transform="translate(-392.144 -395.035)" fill="#3f3d56"/>
    <path id="Path_338" data-name="Path 338" d="M483.958,476.322H472.5a.917.917,0,1,1,0-1.834h11.462a.917.917,0,0,1,0,1.834Z" transform="translate(-392.144 -407.771)" fill="#3f3d56"/>
    <path id="Path_339" data-name="Path 339" d="M428.591,459.557h-8.377a1.033,1.033,0,0,1-1.032-1.032V448.64a1.033,1.033,0,0,1,1.032-1.032h8.377a1.033,1.033,0,0,1,1.032,1.032v9.885a1.033,1.033,0,0,1-1.032,1.032Z" transform="translate(-354.121 -388.265)" fill="#ff9f26"/>
    <path id="Path_340" data-name="Path 340" d="M445.46,512.258h-25.9a.917.917,0,0,1,0-1.834h25.9a.917.917,0,1,1,0,1.834Z" transform="translate(-353.726 -433.849)" fill="#ccc"/>
    <path id="Path_341" data-name="Path 341" d="M445.46,529.808h-25.9a.917.917,0,0,1,0-1.834h25.9a.917.917,0,0,1,0,1.834Z" transform="translate(-353.726 -446.585)" fill="#ccc"/>
    <path id="Path_342" data-name="Path 342" d="M445.46,547.358h-25.9a.917.917,0,0,1,0-1.834h25.9a.917.917,0,1,1,0,1.834Z" transform="translate(-353.726 -459.321)" fill="#ccc"/>
    <path id="Path_343" data-name="Path 343" d="M445.46,564.908h-25.9a.917.917,0,1,1,0-1.834h25.9a.917.917,0,1,1,0,1.834Z" transform="translate(-353.726 -472.057)" fill="#ccc"/>
    <path id="Path_344" data-name="Path 344" d="M445.46,582.458h-25.9a.917.917,0,0,1,0-1.834h25.9a.917.917,0,1,1,0,1.834Z" transform="translate(-353.726 -484.793)" fill="#ccc"/>
    <path id="Path_349" data-name="Path 349" d="M821.277,667.279h53.49a.274.274,0,0,0,0-.549h-53.49a.274.274,0,1,0,0,.549Z" transform="translate(-676.002 -537.28)" fill="#3f3d56"/>
    <circle id="Ellipse_44" data-name="Ellipse 44" cx="8.85" cy="8.85" r="8.85" transform="translate(70.617 23.072)" fill="#ff9f26"/>
    <path id="Path_395" data-name="Path 395" d="M460.551,342.143a.918.918,0,0,1-.552-.184l-.01-.007-2.08-1.591a.924.924,0,0,1,1.125-1.467l1.347,1.033,3.183-4.153a.924.924,0,0,1,1.3-.171h0l-.02.027.02-.027a.925.925,0,0,1,.171,1.3l-3.744,4.883a.924.924,0,0,1-.735.36Z" transform="translate(-381.961 -306.845)" fill="#fff"/>
    <circle id="Ellipse_46" data-name="Ellipse 46" cx="5.997" cy="5.997" r="5.997" transform="translate(25.206 25.885)" fill="#ccc"/>
    <path id="Path_408" data-name="Path 408" d="M251.742,307.315a.622.622,0,0,1-.374-.124l-.007,0-1.409-1.079a.626.626,0,1,1,.762-.994l.913.7L253.783,303a.626.626,0,0,1,.878-.116h0l-.013.018.014-.018a.627.627,0,0,1,.116.878l-2.537,3.309a.626.626,0,0,1-.5.244Z" transform="translate(-221.133 -273.145)" fill="#fff"/>
    <path id="Path_410" data-name="Path 410" d="M233.25,359.646a1.641,1.641,0,0,0-1.5-1H201.806a1.624,1.624,0,0,0-1.623,1.623v37.88a1.624,1.624,0,0,0,1.623,1.623H231.75a1.625,1.625,0,0,0,1.623-1.623v-37.88A1.594,1.594,0,0,0,233.25,359.646Zm-.237,38.5a1.264,1.264,0,0,1-1.262,1.262H201.806a1.262,1.262,0,0,1-1.262-1.262h0v-37.88A1.264,1.264,0,0,1,201.806,359H231.75a1.269,1.269,0,0,1,1.172.8,1.4,1.4,0,0,1,.047.142,1.25,1.25,0,0,1,.043.326Z" transform="translate(-185.195 -313.703)" fill="#ccc"/>
    <path id="Path_411" data-name="Path 411" d="M272.177,387.429h-9.019a.722.722,0,1,1,0-1.443h9.019a.722.722,0,1,1,0,1.443Z" transform="translate(-230.371 -333.546)" fill="#ccc"/>
    <path id="Path_412" data-name="Path 412" d="M272.177,401.239h-9.019a.722.722,0,1,1,0-1.443h9.019a.722.722,0,1,1,0,1.443Z" transform="translate(-230.371 -343.567)" fill="#ccc"/>
    <path id="Path_413" data-name="Path 413" d="M228.611,388.048H222.02a.813.813,0,0,1-.812-.812v-7.778a.813.813,0,0,1,.812-.812h6.591a.813.813,0,0,1,.812.812v7.778A.813.813,0,0,1,228.611,388.048Z" transform="translate(-200.452 -328.22)" fill="#ccc"/>
    <path id="Path_414" data-name="Path 414" d="M241.884,429.515H221.5a.722.722,0,1,1,0-1.443h20.383a.722.722,0,0,1,0,1.443Z" transform="translate(-200.142 -364.087)" fill="#ccc"/>
    <path id="Path_415" data-name="Path 415" d="M241.884,443.329H221.5a.722.722,0,0,1,0-1.443h20.383a.722.722,0,1,1,0,1.443Z" transform="translate(-200.142 -374.112)" fill="#ccc"/>
    <path id="Path_416" data-name="Path 416" d="M241.884,457.134H221.5a.722.722,0,0,1,0-1.443h20.383a.722.722,0,0,1,0,1.443Z" transform="translate(-200.142 -384.13)" fill="#ccc"/>
    <path id="Path_417" data-name="Path 417" d="M241.884,470.947H221.5a.722.722,0,1,1,0-1.443h20.383a.722.722,0,0,1,0,1.443Z" transform="translate(-200.142 -394.154)" fill="#ccc"/>
    <path id="Path_418" data-name="Path 418" d="M241.884,484.753H221.5a.722.722,0,0,1,0-1.443h20.383a.722.722,0,0,1,0,1.443Z" transform="translate(-200.142 -404.173)" fill="#ccc"/>
    <path id="Path_419" data-name="Path 419" d="M182.215,508H224.3a.216.216,0,1,0,0-.432H182.215a.216.216,0,1,0,0,.432Z" transform="translate(-171.998 -421.78)" fill="#ccc"/>
    <circle id="Ellipse_46-2" data-name="Ellipse 46" cx="5.997" cy="5.997" r="5.997" transform="translate(120.416 25.885)" fill="#ccc"/>
    <path id="Path_408-2" data-name="Path 408" d="M671.742,307.315a.622.622,0,0,1-.374-.124l-.007,0-1.409-1.079a.626.626,0,1,1,.762-.994l.913.7L673.783,303a.626.626,0,0,1,.878-.116h0l-.013.018.014-.018a.627.627,0,0,1,.116.878l-2.537,3.309a.626.626,0,0,1-.5.244Z" transform="translate(-545.923 -273.145)" fill="#fff"/>
    <path id="Path_410-2" data-name="Path 410" d="M653.25,359.646a1.641,1.641,0,0,0-1.5-1H621.806a1.624,1.624,0,0,0-1.623,1.623v37.88a1.624,1.624,0,0,0,1.623,1.623H651.75a1.625,1.625,0,0,0,1.623-1.623v-37.88a1.6,1.6,0,0,0-.123-.619Zm-.237,38.5a1.264,1.264,0,0,1-1.262,1.262H621.806a1.262,1.262,0,0,1-1.262-1.262h0v-37.88A1.264,1.264,0,0,1,621.806,359H651.75a1.269,1.269,0,0,1,1.172.8,1.4,1.4,0,0,1,.047.142,1.25,1.25,0,0,1,.043.326Z" transform="translate(-509.985 -313.703)" fill="#ccc"/>
    <path id="Path_411-2" data-name="Path 411" d="M692.177,387.429h-9.019a.722.722,0,0,1,0-1.443h9.019a.722.722,0,0,1,0,1.443Z" transform="translate(-555.161 -333.546)" fill="#ccc"/>
    <path id="Path_412-2" data-name="Path 412" d="M692.177,401.239h-9.019a.722.722,0,1,1,0-1.443h9.019a.722.722,0,0,1,0,1.443Z" transform="translate(-555.161 -343.567)" fill="#ccc"/>
    <path id="Path_413-2" data-name="Path 413" d="M648.611,388.048H642.02a.813.813,0,0,1-.812-.812v-7.778a.812.812,0,0,1,.812-.812h6.591a.813.813,0,0,1,.812.812v7.778A.812.812,0,0,1,648.611,388.048Z" transform="translate(-525.243 -328.22)" fill="#ccc"/>
    <path id="Path_414-2" data-name="Path 414" d="M661.884,429.515H641.5a.722.722,0,0,1,0-1.443h20.383a.722.722,0,1,1,0,1.443Z" transform="translate(-524.932 -364.087)" fill="#ccc"/>
    <path id="Path_415-2" data-name="Path 415" d="M661.884,443.329H641.5a.722.722,0,1,1,0-1.443h20.383a.722.722,0,1,1,0,1.443Z" transform="translate(-524.932 -374.112)" fill="#ccc"/>
    <path id="Path_416-2" data-name="Path 416" d="M661.884,457.134H641.5a.722.722,0,1,1,0-1.443h20.383a.722.722,0,1,1,0,1.443Z" transform="translate(-524.932 -384.13)" fill="#ccc"/>
    <path id="Path_417-2" data-name="Path 417" d="M661.884,470.947H641.5a.722.722,0,0,1,0-1.443h20.383a.722.722,0,1,1,0,1.443Z" transform="translate(-524.932 -394.154)" fill="#ccc"/>
    <path id="Path_418-2" data-name="Path 418" d="M661.884,484.753H641.5a.722.722,0,0,1,0-1.443h20.383a.722.722,0,1,1,0,1.443Z" transform="translate(-524.932 -404.173)" fill="#ccc"/>
    <path id="Path_419-2" data-name="Path 419" d="M602.215,508H644.3a.216.216,0,0,0,0-.432H602.215a.216.216,0,0,0,0,.432Z" transform="translate(-496.788 -421.78)" fill="#ccc"/>
    <path id="Path_420" data-name="Path 420" d="M370.277,611.877h53.49a.274.274,0,1,0,0-.549h-53.49a.274.274,0,1,0,0,.549Z" transform="translate(-318.431 -507.075)" fill="#3f3d56"/>
  </g>
</svg>
