<svg id="img" xmlns="http://www.w3.org/2000/svg" width="216.94" height="120" viewBox="0 0 216.94 120">
  <path id="Path_1924" data-name="Path 1924" d="M487.275,581.5a52.756,52.756,0,0,1-10.305.5,47.333,47.333,0,0,1-23.445-7.374c-3.094-2.013-6.045-4.487-7.646-7.809a13.753,13.753,0,0,1,1.69-14.154,14.239,14.239,0,0,1,4.1-3.5c.234-.132.473-.259.714-.381a15.393,15.393,0,0,1,8.511-1.558,16.89,16.89,0,0,1,12.224,7.832c2.364,3.788,3.188,8.256,3.673,12.735.091.844.17,1.69.246,2.532a37.213,37.213,0,0,1-1.985,7.133,2.491,2.491,0,0,0-.112.346q.763,1.655,1.452,3.34a2.938,2.938,0,0,0,1.406.356h9.454Z" transform="translate(-375.789 -462.115)" fill="#f2f2f2"/>
  <path id="Path_1925" data-name="Path 1925" d="M496.827,586.41a.517.517,0,0,1-.686-.269c-.041-.1-.079-.193-.12-.29q-.549-1.335-1.151-2.644a80.526,80.526,0,0,0-22.413-29,.376.376,0,0,1-.158-.348.517.517,0,0,1,.714-.381.488.488,0,0,1,.107.066,80.713,80.713,0,0,1,11.251,11.172,81.981,81.981,0,0,1,8.874,13.132q1.033,1.906,1.962,3.866c.122.259.244.521.364.783q.763,1.655,1.452,3.34l.023.056a.376.376,0,0,1-.219.521Z" transform="translate(-396.416 -466.804)" fill="#fff"/>
  <circle id="Ellipse_264" data-name="Ellipse 264" cx="9.914" cy="9.914" r="9.914" transform="translate(56.653 66.024)" fill="#ff9f26"/>
  <path id="Path_1926" data-name="Path 1926" d="M422.427,505.035a1.028,1.028,0,0,1-.619-.206l-.011-.008-2.33-1.784a1.035,1.035,0,1,1,1.259-1.643l1.509,1.157L425.8,497.9a1.035,1.035,0,0,1,1.451-.192l-.022.03.023-.03a1.036,1.036,0,0,1,.192,1.451l-4.195,5.47a1.036,1.036,0,0,1-.823.4Z" transform="translate(-356.829 -425.327)" fill="#fff"/>
  <path id="Path_1927" data-name="Path 1927" d="M392.3,682.945H175.967a.3.3,0,1,1,0-.605H392.3a.3.3,0,1,1,0,.605Z" transform="translate(-175.662 -562.945)" fill="#3f3d56"/>
  <circle id="Ellipse_265" data-name="Ellipse 265" cx="7.357" cy="7.357" r="7.357" transform="translate(34.934 19.971)" fill="#2f2e41"/>
  <ellipse id="Ellipse_266" data-name="Ellipse 266" cx="3.044" cy="2.283" rx="3.044" ry="2.283" transform="translate(30.959 22.158) rotate(-45)" fill="#2f2e41"/>
  <ellipse id="Ellipse_267" data-name="Ellipse 267" cx="2.283" cy="3.044" rx="2.283" ry="3.044" transform="translate(43.504 20.606) rotate(-66.869)" fill="#2f2e41"/>
  <path id="Path_1928" data-name="Path 1928" d="M371.678,412.027a2.731,2.731,0,0,0-1.589-3.874l-10.63-22.486-4.862,3.41,11.978,21.031a2.746,2.746,0,0,0,5.1,1.919Z" transform="translate(-308.835 -342.038)" fill="#ffb8b8"/>
  <path id="Path_1929" data-name="Path 1929" d="M356.082,374.08l-5.645,2.524a1.224,1.224,0,0,1-1.679-.787l-1.665-5.936a3.4,3.4,0,0,1,6.217-2.758l3.3,5.181a1.224,1.224,0,0,1-.533,1.776Z" transform="translate(-303.041 -326.78)" fill="#ccc"/>
  <path id="Path_1930" data-name="Path 1930" d="M270.817,416.193a2.731,2.731,0,0,0,1.892-3.735l10.067-22.744-5.759-1.45-8.085,22.813a2.746,2.746,0,0,0,1.884,5.117Z" transform="translate(-244.105 -343.969)" fill="#ffb8b8"/>
  <path id="Path_1931" data-name="Path 1931" d="M94.289,411.894l2.928,1.066,5.506-10.788L98.4,400.6Z" transform="translate(-70.321 -298.099)" fill="#ffb8b8"/>
  <path id="Path_1932" data-name="Path 1932" d="M0,0H9.795V3.784H3.784A3.784,3.784,0,0,1,0,0Z" transform="matrix(-0.94, -0.342, 0.342, -0.94, 31.555, 119.637)" fill="#2f2e41"/>
  <path id="Path_1933" data-name="Path 1933" d="M283.743,546.865a1.213,1.213,0,0,1-.52-.117l-3.365-1.594a1.22,1.22,0,0,1-.628-1.523l9.5-26.3a1.224,1.224,0,0,1,2.2-.214l5.024,8.373a1.226,1.226,0,0,1,.013,1.237l-11.156,19.523A1.23,1.23,0,0,1,283.743,546.865Z" transform="translate(-252.848 -439.278)" fill="#2f2e41"/>
  <circle id="Ellipse_268" data-name="Ellipse 268" cx="6.243" cy="6.243" r="6.243" transform="translate(36.286 22.855)" fill="#ffb8b8"/>
  <path id="Path_1934" data-name="Path 1934" d="M326.042,381.71l-11.055-3.04-5.88-11.759a3.705,3.705,0,0,1,3.314-5.362h8.8a3.7,3.7,0,0,1,2.473.946c2.359,2.114,7.316,8.207,2.4,19.109Z" transform="translate(-274.686 -324.117)" fill="#ccc"/>
  <path id="Path_1935" data-name="Path 1935" d="M303.931,376.237l-5.6-2.622a1.224,1.224,0,0,1-.5-1.785l3.4-5.141a3.4,3.4,0,1,1,6.151,2.9l-1.76,5.888a1.224,1.224,0,0,1-1.692.758Z" transform="translate(-266.622 -326.511)" fill="#ccc"/>
  <path id="Path_1936" data-name="Path 1936" d="M173.426,421.362h3.116l1.483-12.021h-4.6Z" transform="translate(-129.088 -304.619)" fill="#ffb8b8"/>
  <path id="Path_1937" data-name="Path 1937" d="M0,0H9.795V3.784H3.784A3.784,3.784,0,0,1,0,0Z" transform="translate(53.466 119.637) rotate(179.997)" fill="#2f2e41"/>
  <path id="Path_1938" data-name="Path 1938" d="M319.916,482.155a1.218,1.218,0,0,1-1.194-.97c-.9-4.221-5.548-25.84-9.179-36.976-3.695-11.33,2.6-16.49,3.9-17.41a.956.956,0,0,0,.318-.384l.944-2.076a1.229,1.229,0,0,1,1.118-.719h.008c7.074.042,9.452,2.272,10.146,3.229a1.21,1.21,0,0,1,.192,1l-4.476,18.466a.953.953,0,0,0-.019.35l4.453,33.529a1.225,1.225,0,0,1-1.073,1.378l-4.99.576A1.257,1.257,0,0,1,319.916,482.155Z" transform="translate(-274.448 -369.993)" fill="#2f2e41"/>
  <path id="Path_1939" data-name="Path 1939" d="M316.318,303.934a8.491,8.491,0,0,0,4.853,1.5,5.2,5.2,0,0,1-2.062.849,17.122,17.122,0,0,0,6.994.039,4.526,4.526,0,0,0,1.464-.5,1.853,1.853,0,0,0,.9-1.209,2.5,2.5,0,0,0-1.239-2.21,9.143,9.143,0,0,0-7.683-1.535,4.207,4.207,0,0,0-2.275,1.286,2.073,2.073,0,0,0-.191,2.462Z" transform="translate(-280.351 -278.777)" fill="#2f2e41"/>
  <circle id="Ellipse_269" data-name="Ellipse 269" cx="3.305" cy="3.305" r="3.305" transform="translate(147.904 45.771)" fill="#ff9f26"/>
  <path id="Path_1940" data-name="Path 1940" d="M762.586,404.864a.343.343,0,0,1-.206-.068l0,0-.777-.595a.345.345,0,1,1,.42-.548l.5.386,1.189-1.55a.345.345,0,0,1,.484-.064l-.007.01.008-.01a.345.345,0,0,1,.064.484l-1.4,1.823A.345.345,0,0,1,762.586,404.864Z" transform="translate(-611.709 -354.525)" fill="#fff"/>
  <circle id="Ellipse_270" data-name="Ellipse 270" cx="3.305" cy="3.305" r="3.305" transform="translate(147.904 55.488)" fill="#ff9f26"/>
  <path id="Path_1941" data-name="Path 1941" d="M762.586,442.864a.343.343,0,0,1-.206-.069l0,0-.777-.595a.345.345,0,1,1,.42-.548l.5.386,1.189-1.55a.345.345,0,0,1,.484-.064l-.007.01.008-.01a.345.345,0,0,1,.064.484l-1.4,1.824a.345.345,0,0,1-.274.135Z" transform="translate(-611.709 -382.811)" fill="#fff"/>
  <circle id="Ellipse_271" data-name="Ellipse 271" cx="3.305" cy="3.305" r="3.305" transform="translate(149.694 66.739)" fill="#ff9f26"/>
  <path id="Path_1942" data-name="Path 1942" d="M769.586,486.864a.342.342,0,0,1-.206-.068l0,0-.777-.595a.345.345,0,0,1,.42-.548l.5.386,1.189-1.55a.345.345,0,0,1,.484-.064l-.007.01.008-.01a.345.345,0,0,1,.064.484l-1.4,1.823a.345.345,0,0,1-.274.135Z" transform="translate(-616.919 -415.562)" fill="#fff"/>
  <path id="Path_1943" data-name="Path 1943" d="M708.335,312.52h-4.166v-.6h4.118a5.063,5.063,0,0,0,3.832-2.116c2.671-3.241,4.864-11.264.146-31.08-6.344-26.645-1.053-50.185,1.516-59.069a2.95,2.95,0,0,0-2.838-3.766H649.672a2.963,2.963,0,0,0-2.389,1.216c-1.089,1.5-2.582,4.374-3.517,9.574l-.6-.107c.955-5.314,2.5-8.275,3.623-9.823a3.569,3.569,0,0,1,2.879-1.465h61.271a3.555,3.555,0,0,1,3.419,4.539c-2.556,8.838-7.82,32.255-1.509,58.761,4.784,20.095,2.484,28.291-.288,31.629A5.732,5.732,0,0,1,708.335,312.52Z" transform="translate(-523.123 -215.279)" fill="#e6e6e6"/>
  <path id="Path_1944" data-name="Path 1944" d="M664.906,356.617H660.74v-.609h4.118a5.051,5.051,0,0,0,3.832-2.131c2.671-3.263,4.864-11.341.146-31.293-6.344-26.828-1.053-50.53,1.516-59.475a2.986,2.986,0,0,0-.479-2.609,2.943,2.943,0,0,0-2.359-1.183H606.243a2.957,2.957,0,0,0-2.389,1.225c-1.088,1.507-2.582,4.4-3.517,9.64l-.6-.108c.955-5.35,2.5-8.332,3.623-9.891a3.562,3.562,0,0,1,2.879-1.476h61.271a3.547,3.547,0,0,1,2.843,1.426,3.6,3.6,0,0,1,.576,3.145c-2.556,8.9-7.82,32.477-1.509,59.164,4.784,20.233,2.484,28.485-.288,31.846A5.718,5.718,0,0,1,664.906,356.617Z" transform="translate(-491.032 -247.668)" fill="#ccc"/>
  <path id="Path_1945" data-name="Path 1945" d="M623.466,365.44c-6.312-26.505-1.047-49.925,1.51-58.761a3.557,3.557,0,0,0-3.419-4.54H560.284a3.567,3.567,0,0,0-2.878,1.464c-2.473,3.4-7.606,14.68-1.873,45.888,3.066,16.7,3.02,28.079,2.018,35.578a40.01,40.01,0,0,1-2.214,9.227l-.084.214a3.467,3.467,0,0,0-.254,1.284,3.517,3.517,0,0,0,1.151,2.644,3.368,3.368,0,0,0,.806.559,3.407,3.407,0,0,0,.77.282,3.477,3.477,0,0,0,.831.1h60.327c.008,0,.028,0,.064,0a5.733,5.733,0,0,0,4.23-2.313C625.949,393.73,628.25,385.534,623.466,365.44Zm-.735,31.218a5.064,5.064,0,0,1-3.831,2.117H558.558a2.958,2.958,0,0,1-2.448-1.3,2.889,2.889,0,0,1-.409-2.4,2.489,2.489,0,0,1,.112-.346A37.213,37.213,0,0,0,557.8,387.6c1.434-7.817,1.7-19.878-1.67-38.219-5.689-30.977-.658-42.085,1.767-45.423a2.969,2.969,0,0,1,2.39-1.215h61.272a2.95,2.95,0,0,1,2.837,3.765c-2.57,8.884-7.86,32.426-1.515,59.071C627.6,385.394,625.4,393.417,622.731,396.658Z" transform="translate(-456.21 -279.391)" fill="#3f3d56"/>
  <path id="Path_1946" data-name="Path 1946" d="M616.208,401.481H584.64a2.42,2.42,0,0,1,0-4.839h31.568a2.42,2.42,0,1,1,0,4.839Z" transform="translate(-478.178 -350.27)" fill="#ccc"/>
  <path id="Path_1947" data-name="Path 1947" d="M616.208,442.481H584.64a2.42,2.42,0,0,1,0-4.839h31.568a2.42,2.42,0,1,1,0,4.839Z" transform="translate(-478.178 -380.787)" fill="#ccc"/>
  <path id="Path_1948" data-name="Path 1948" d="M626.208,484.481H594.64a2.42,2.42,0,0,1,0-4.839h31.568a2.42,2.42,0,0,1,0,4.839Z" transform="translate(-485.618 -412.049)" fill="#ccc"/>
  <path id="Path_1949" data-name="Path 1949" d="M633.208,528.481H601.64a2.42,2.42,0,0,1,0-4.839h31.568a2.42,2.42,0,0,1,0,4.839Z" transform="translate(-490.827 -444.799)" fill="#ccc"/>
  <path id="Path_1950" data-name="Path 1950" d="M659.324,327.571H636.64a2.42,2.42,0,0,1,0-4.839h22.685a2.42,2.42,0,0,1,0,4.839Z" transform="translate(-516.907 -295.258)" fill="#ff9f26"/>
  <circle id="Ellipse_272" data-name="Ellipse 272" cx="3.305" cy="3.305" r="3.305" transform="translate(151.739 77.96)" fill="#ccc"/>
  <path id="Path_1951" data-name="Path 1951" d="M639.208,571.481H607.64a2.42,2.42,0,0,1,0-4.839h31.568a2.42,2.42,0,0,1,0,4.839Z" transform="translate(-495.292 -476.804)" fill="#ccc"/>
  <circle id="Ellipse_273" data-name="Ellipse 273" cx="3.305" cy="3.305" r="3.305" transform="translate(153.273 88.955)" fill="#ccc"/>
</svg>
