<svg id="Img" xmlns="http://www.w3.org/2000/svg" width="159.889" height="120" viewBox="0 0 159.889 120">
  <path id="Path_133" data-name="Path 133" d="M892.769,569.519a38.546,38.546,0,0,1-1.8,10.655c-.024.08-.051.159-.078.239h-6.72c.007-.072.014-.152.021-.239.448-5.151-2.112-36.127-5.2-41.488C879.263,539.122,893.29,553.153,892.769,569.519Z" transform="translate(-742.305 -460.657)" fill="#f0f0f0"/>
  <path id="Path_134" data-name="Path 134" d="M923.85,653.676c-.056.08-.115.16-.174.239h-5.041l.134-.239c.833-1.5,3.3-6,5.586-10.655,2.458-5.006,4.715-10.2,4.525-12.083C928.937,631.362,930.639,644.292,923.85,653.676Z" transform="translate(-773.89 -534.159)" fill="#f0f0f0"/>
  <path id="Path_1354" data-name="Path 1354" d="M333.028,252.2H206.17V154.543H333.028Z" transform="translate(-206.17 -154.543)" fill="#fff"/>
  <path id="Path_1355" data-name="Path 1355" d="M333.028,252.2H206.17V154.543H333.028Zm-124.984-1.874H331.154V156.417H208.044Z" transform="translate(-206.17 -154.543)" fill="#e5e5e5"/>
  <path id="Path_1356" data-name="Path 1356" d="M328.027,457.144h-9.6a.982.982,0,0,1-.981-.981v-13.24a.982.982,0,0,1,.981-.981h9.6a.982.982,0,0,1,.981.981v13.24a.982.982,0,0,1-.981.981Z" transform="translate(-294.826 -383.555)" fill="#e6e6e6"/>
  <path id="Path_1357" data-name="Path 1357" d="M414.207,407.913h-9.6a.982.982,0,0,1-.981-.981v-25.8a.982.982,0,0,1,.981-.981h9.6a.982.982,0,0,1,.981.981v25.8A.982.982,0,0,1,414.207,407.913Z" transform="translate(-363.506 -334.322)" fill="#e6e6e6"/>
  <path id="Path_1358" data-name="Path 1358" d="M500.386,457.144h-9.6a.982.982,0,0,1-.981-.981v-13.24a.982.982,0,0,1,.981-.981h9.6a.982.982,0,0,1,.981.981v13.24A.982.982,0,0,1,500.386,457.144Z" transform="translate(-432.178 -383.555)" fill="#e6e6e6"/>
  <path id="Path_1359" data-name="Path 1359" d="M586.566,388.479h-9.6a.961.961,0,0,1-.981-.937V356.7a.961.961,0,0,1,.981-.936h9.6a.961.961,0,0,1,.981.936v30.844a.961.961,0,0,1-.981.937Z" transform="translate(-500.849 -314.886)" fill="#e6e6e6"/>
  <path id="Path_1360" data-name="Path 1360" d="M672.745,353.5h-9.6a.982.982,0,0,1-.981-.981V312.841a.982.982,0,0,1,.981-.981h9.6a.982.982,0,0,1,.981.981v39.678A.982.982,0,0,1,672.745,353.5Z" transform="translate(-569.52 -279.904)" fill="#f2f2f2"/>
  <circle id="Ellipse_220" data-name="Ellipse 220" cx="1.983" cy="1.983" r="1.983" transform="translate(26.415 50.461)" fill="#3f3d56"/>
  <circle id="Ellipse_221" data-name="Ellipse 221" cx="1.983" cy="1.983" r="1.983" transform="translate(43.914 37.577)" fill="#3f3d56"/>
  <circle id="Ellipse_222" data-name="Ellipse 222" cx="1.983" cy="1.983" r="1.983" transform="translate(61.423 50.461)" fill="#3f3d56"/>
  <circle id="Ellipse_223" data-name="Ellipse 223" cx="1.983" cy="1.983" r="1.983" transform="translate(78.932 31.301)" fill="#3f3d56"/>
  <circle id="Ellipse_224" data-name="Ellipse 224" cx="1.983" cy="1.983" r="1.983" transform="translate(96.44 24.033)" fill="#3f3d56"/>
  <path id="Path_1361" data-name="Path 1361" d="M174.023,154.565l-17.557-13.15-17.317,12.971-.4-.529,17.713-13.268,17.474,13.088,17.364-19,.07-.028,17.515-7.057.247.613-17.446,7.029Z" transform="translate(-110.57 -101.67)" fill="#3f3d56"/>
  <path id="Path_1362" data-name="Path 1362" d="M587.736,529.6h-2.983l-1.419-11.508h4.4Z" transform="translate(-464.82 -412.839)" fill="#ffb6b6"/>
  <path id="Path_1363" data-name="Path 1363" d="M777.2,728.33h-9.62v-.122a3.745,3.745,0,0,1,3.744-3.744H777.2Z" transform="translate(-653.52 -608.676)" fill="#2f2e41"/>
  <path id="Path_1364" data-name="Path 1364" d="M758.705,489.607l1.694,26.987,5.687,19,4.406.319-2.212-23.151.97-15.375s4.6-3.428,2.056-7.554Z" transform="translate(-646.452 -421.552)" fill="#2f2e41"/>
  <path id="Path_1365" data-name="Path 1365" d="M597.315,529.6h-2.984l-1.419-11.508h4.4Z" transform="translate(-472.453 -412.839)" fill="#ffb6b6"/>
  <path id="Path_1366" data-name="Path 1366" d="M786.776,728.33h-9.62v-.122a3.744,3.744,0,0,1,3.744-3.744h5.876Z" transform="translate(-661.153 -608.676)" fill="#2f2e41"/>
  <path id="Path_1367" data-name="Path 1367" d="M768.284,489.607l1.694,26.987,5.687,19,4.406.319-2.212-23.151.97-15.375s4.6-3.428,2.056-7.554Z" transform="translate(-654.084 -421.552)" fill="#2f2e41"/>
  <path id="Path_1368" data-name="Path 1368" d="M768.366,368.732c-5.081,0-11.06-3.1-11.407-3.287l-.1-.051,11.661-29.748,5.775-2.728a2.763,2.763,0,0,1,3.927,2.8l-2.292,20.559-2.392,10.648-.025.025A7.093,7.093,0,0,1,768.366,368.732Z" transform="translate(-644.986 -296.473)" fill="#3f3d56"/>
  <path id="Path_1369" data-name="Path 1369" d="M717.247,411.786a2.447,2.447,0,0,1,3.575,1.139l8.683-.474-2.278,3.9-7.9-.148a2.46,2.46,0,0,1-2.084-4.42Z" transform="translate(-612.494 -359.22)" fill="#ffb6b6"/>
  <path id="Path_1370" data-name="Path 1370" d="M771.98,370.492l-8.7-.222.112-5.756,4.115-1.31,6.749-9.467a4.354,4.354,0,1,1,6.944,5.251Z" transform="translate(-650.098 -311.815)" fill="#3f3d56"/>
  <circle id="Ellipse_225" data-name="Ellipse 225" cx="5.782" cy="5.782" r="5.782" transform="translate(121.138 23.794)" fill="#ffb6b6"/>
  <path id="Path_1371" data-name="Path 1371" d="M792.6,261.35a3.952,3.952,0,0,1,2.166-1.136,5.514,5.514,0,0,0,2.327-.73c.73-.582,1.051-1.686,1.947-1.932a2.135,2.135,0,0,1,1.166.092,7.544,7.544,0,0,1,3.65,2.434,3.126,3.126,0,0,0,.84.84,6.089,6.089,0,0,1,.579.282,1.576,1.576,0,0,1,.472.616,5.984,5.984,0,0,1,.419,4.2c-.224.83-.628,1.6-.866,2.434s-1.341,2.423-1.6,2.028a5.128,5.128,0,0,1-.73-1.217c-.275-.9-.027-1.8-.727-2.418-.433-.384-1.217-.642-1.511-.146-.117.192-.109.436-.209.635a.834.834,0,0,1-1.144.243,1.755,1.755,0,0,1-.715-1.061c-.567-1.918-1.533-3.125-3.585-2.3a2.462,2.462,0,0,1-2.4-.012A1.94,1.94,0,0,1,792.6,261.35Z" transform="translate(-672.992 -236.591)" fill="#2f2e41"/>
  <path id="Path_1372" data-name="Path 1372" d="M689.508,369.066h-9.6a.982.982,0,0,1-.981-.981V328.406a.982.982,0,0,1,.981-.981h9.6a.982.982,0,0,1,.981.981v39.678A.982.982,0,0,1,689.508,369.066Z" transform="translate(-582.877 -292.308)" fill="#ff9f26"/>
  <path id="Path_1373" data-name="Path 1373" d="M716.05,428.549a2.447,2.447,0,0,1,3.575,1.139l8.683-.474-2.278,3.9-7.9-.148a2.46,2.46,0,0,1-2.083-4.42Z" transform="translate(-611.541 -372.577)" fill="#ffb6b6"/>
  <path id="Path_1374" data-name="Path 1374" d="M770.783,387.255l-8.7-.222.112-5.756,4.115-1.31,6.749-9.467A4.355,4.355,0,1,1,780,375.751Z" transform="translate(-649.144 -325.172)" fill="#3f3d56"/>
  <path id="Path_1375" data-name="Path 1375" d="M627.523,743.281H534.805a.243.243,0,0,1,0-.487h92.718a.243.243,0,1,1,0,.487Z" transform="translate(-467.878 -623.281)" fill="#cacaca"/>
</svg>
