<svg id="Img" xmlns="http://www.w3.org/2000/svg" width="191.193" height="120" viewBox="0 0 191.193 120">
  <path id="Path_1167" data-name="Path 1167" d="M241.444,196.869h-128.9V144.052h128.9Zm-128.51-.392H241.051V144.445H112.934Z" transform="translate(-112.542 -144.052)" fill="#3f3d56"/>
  <path id="Path_1168" data-name="Path 1168" d="M170.468,207.1h-8.1a28.332,28.332,0,0,1,0-9.659h8.1a17.379,17.379,0,0,0,0,9.659Z" transform="translate(-152.262 -186.971)" fill="#ff6584"/>
  <path id="Path_1169" data-name="Path 1169" d="M241.128,228.079h8.1a28.334,28.334,0,0,0,0-9.659h-8.1A17.379,17.379,0,0,1,241.128,228.079Z" transform="translate(-215.909 -203.835)" fill="#e6e6e6"/>
  <path id="Path_1170" data-name="Path 1170" d="M506.505,275.325h11.008a.294.294,0,0,0,0-.588H506.505a.294.294,0,0,0,0,.588Z" transform="translate(-429.016 -249.108)" fill="#e6e6e6"/>
  <path id="Path_1171" data-name="Path 1171" d="M558.8,261.553l1.72,1.57a4.983,4.983,0,0,1,.86.785c.253.485-.019.375-.452.543a9.679,9.679,0,0,0-2.9,1.8c-.285.251.133.666.416.416a8.988,8.988,0,0,1,2.636-1.647c.347-.137,1.005-.218,1.17-.631.2-.506-.441-.879-.745-1.157l-2.293-2.093c-.279-.255-.7.16-.416.416Z" transform="translate(-470.591 -238.111)" fill="#e6e6e6"/>
  <path id="Path_1172" data-name="Path 1172" d="M193.128,299.079h8.1a28.332,28.332,0,0,0,0-9.659h-8.1A17.379,17.379,0,0,1,193.128,299.079Z" transform="translate(-177.323 -260.912)" fill="#ff9f26"/>
  <path id="Path_1173" data-name="Path 1173" d="M514.128,203.079h8.1a28.331,28.331,0,0,0,0-9.659h-8.1A17.379,17.379,0,0,1,514.128,203.079Z" transform="translate(-435.372 -183.738)" fill="#ff9f26"/>
  <path id="Path_1174" data-name="Path 1174" d="M261.982,79.853V56.014l-2.157-.481V82.01l16.279-.167-.055-2.135Z" transform="translate(-208.871 -44.641)" fill="#f2f2f2"/>
  <path id="Path_1175" data-name="Path 1175" d="M384.98,215.313H365.367V183.737H384.98Zm-19.221-.392h18.828V184.129H365.759Z" transform="translate(-315.785 -175.953)" fill="#3f3d56"/>
  <rect id="Rectangle_140" data-name="Rectangle 140" width="3.177" height="0.392" transform="translate(51.347 9.744)" fill="#3f3d56"/>
  <rect id="Rectangle_141" data-name="Rectangle 141" width="3.177" height="0.392" transform="translate(51.347 10.725)" fill="#3f3d56"/>
  <rect id="Rectangle_142" data-name="Rectangle 142" width="3.177" height="0.392" transform="translate(51.347 11.706)" fill="#3f3d56"/>
  <rect id="Rectangle_143" data-name="Rectangle 143" width="13.571" height="0.392" transform="translate(52.916 28.57)" fill="#3f3d56"/>
  <rect id="Rectangle_144" data-name="Rectangle 144" width="13.571" height="0.392" transform="translate(52.916 30.728)" fill="#3f3d56"/>
  <rect id="Rectangle_145" data-name="Rectangle 145" width="13.571" height="0.392" transform="translate(52.916 32.885)" fill="#3f3d56"/>
  <path id="Path_1176" data-name="Path 1176" d="M444.74,195.482a1.373,1.373,0,1,1,1.373-1.373A1.373,1.373,0,0,1,444.74,195.482Zm0-2.354a.981.981,0,1,0,.981.981A.981.981,0,0,0,444.74,193.129Z" transform="translate(-378.488 -183.188)" fill="#3f3d56"/>
  <path id="Path_1177" data-name="Path 1177" d="M395.292,229.758H381.367v-9.022h13.925Zm-13.533-.392H394.9v-8.237H381.759Z" transform="translate(-328.647 -205.697)" fill="#3f3d56"/>
  <rect id="Rectangle_146" data-name="Rectangle 146" width="0.392" height="16.05" transform="translate(52.811 15.401) rotate(-57.475)" fill="#3f3d56"/>
  <rect id="Rectangle_147" data-name="Rectangle 147" width="16.05" height="0.392" transform="translate(52.81 23.7) rotate(-32.525)" fill="#3f3d56"/>
  <path id="Path_1178" data-name="Path 1178" d="M515.982,79.853V56.014l-2.157-.481V82.01l16.279-.167-.055-2.135Z" transform="translate(-413.059 -44.641)" fill="#f2f2f2"/>
  <path id="Path_1179" data-name="Path 1179" d="M639.98,213.313H620.367V181.737H639.98Zm-19.221-.392h18.828V182.129H620.759Z" transform="translate(-520.777 -174.346)" fill="#3f3d56"/>
  <rect id="Rectangle_148" data-name="Rectangle 148" width="3.177" height="0.392" transform="translate(101.356 9.352)" fill="#3f3d56"/>
  <rect id="Rectangle_149" data-name="Rectangle 149" width="3.177" height="0.392" transform="translate(101.356 10.333)" fill="#3f3d56"/>
  <rect id="Rectangle_150" data-name="Rectangle 150" width="3.177" height="0.392" transform="translate(101.356 11.313)" fill="#3f3d56"/>
  <path id="Path_1180" data-name="Path 1180" d="M699.74,193.482a1.373,1.373,0,1,1,1.373-1.373A1.373,1.373,0,0,1,699.74,193.482Zm0-2.354a.981.981,0,1,0,.981.981A.981.981,0,0,0,699.74,191.129Z" transform="translate(-583.48 -181.58)" fill="#3f3d56"/>
  <path id="Path_1181" data-name="Path 1181" d="M650.292,227.758H636.367v-9.022h13.925Zm-13.533-.392H649.9v-8.237H636.759Z" transform="translate(-533.639 -204.089)" fill="#3f3d56"/>
  <rect id="Rectangle_151" data-name="Rectangle 151" width="0.392" height="16.05" transform="translate(102.819 15.009) rotate(-57.475)" fill="#3f3d56"/>
  <rect id="Rectangle_152" data-name="Rectangle 152" width="16.05" height="0.392" transform="matrix(0.843, -0.538, 0.538, 0.843, 102.818, 23.307)" fill="#3f3d56"/>
  <path id="Path_1182" data-name="Path 1182" d="M650.292,287.758H636.367v-9.022h13.925Zm-13.533-.392H649.9v-8.237H636.759Z" transform="translate(-533.639 -252.324)" fill="#3f3d56"/>
  <rect id="Rectangle_153" data-name="Rectangle 153" width="0.392" height="16.05" transform="translate(102.819 26.774) rotate(-57.475)" fill="#3f3d56"/>
  <rect id="Rectangle_154" data-name="Rectangle 154" width="16.05" height="0.392" transform="matrix(0.843, -0.538, 0.538, 0.843, 102.818, 35.073)" fill="#3f3d56"/>
  <path id="Path_1183" data-name="Path 1183" d="M400.128,336.079h8.1a28.332,28.332,0,0,0,0-9.659h-8.1A17.38,17.38,0,0,1,400.128,336.079Z" transform="translate(-343.729 -290.656)" fill="#ff9f26"/>
  <circle id="Ellipse_162" data-name="Ellipse 162" cx="5.74" cy="5.74" r="5.74" transform="translate(146.24 36.588) rotate(-28.663)" fill="#ffb8b8"/>
  <circle id="Ellipse_163" data-name="Ellipse 163" cx="5.078" cy="5.078" r="5.078" transform="translate(157.948 26.667)" fill="#2f2e41"/>
  <path id="Path_1184" data-name="Path 1184" d="M934.035,307.9a5.078,5.078,0,0,1-7.841-2.666,5.078,5.078,0,1,0,9.905-2.082A5.076,5.076,0,0,1,934.035,307.9Z" transform="translate(-766.629 -271.949)" fill="#2f2e41"/>
  <path id="Path_1185" data-name="Path 1185" d="M864,310.982a9.307,9.307,0,0,1,2.369-3.215,2.462,2.462,0,0,1,3.257-.3,6.041,6.041,0,1,1-3.583,4.833C865.172,312.183,864.872,311.1,864,310.982Z" transform="translate(-716.631 -275.027)" fill="#2f2e41"/>
  <path id="Path_1186" data-name="Path 1186" d="M703.788,551.59l-2.625-.763,1.692-10.489,3.875,1.126Z" transform="translate(-563.657 -434.372)" fill="#ffb8b8"/>
  <path id="Path_1187" data-name="Path 1187" d="M2.92,0H8.592V3.32H0v-.4A2.92,2.92,0,0,1,2.92,0Z" transform="translate(132.661 114.234) rotate(16.197)" fill="#2f2e41"/>
  <path id="Path_1188" data-name="Path 1188" d="M836.344,554.806h-2.734l-1.3-10.545h4.035Z" transform="translate(-669.086 -437.526)" fill="#ffb8b8"/>
  <path id="Path_1189" data-name="Path 1189" d="M814.978,594.043h5.672v3.32h-8.592v-.4A2.92,2.92,0,0,1,814.978,594.043Z" transform="translate(-652.807 -477.544)" fill="#2f2e41"/>
  <path id="Path_1190" data-name="Path 1190" d="M929.385,508.927a2.242,2.242,0,0,1,.629-3.38l-1.419-7.841,3.808,1.627.764,7.2a2.255,2.255,0,0,1-3.782,2.4Z" transform="translate(-768.56 -428.35)" fill="#ffb8b8"/>
  <path id="Path_1191" data-name="Path 1191" d="M903.389,398.1l-4.467-13.562a3.016,3.016,0,0,0-3.626-1.161,2.025,2.025,0,0,0-1.251,1.02,5.436,5.436,0,0,0-.045,3.469l5.5,12.325.006.013,1.736,12.657,3.749-.761Z" transform="translate(-740.522 -336.296)" fill="#ff9f26"/>
  <path id="Path_1192" data-name="Path 1192" d="M791.638,513.192l6.724-20.618,7.8-17.82-.112-8.643,9.252-2.157,1.077,3.622c6.231,4.111,4.178,12.02,4.032,12.55l9.388,34.648-10.237,1.137-6.871-32.805-6.337,13.33-4.481,19.939Z" transform="translate(-658.464 -401.222)" fill="#2f2e41"/>
  <path id="Path_1193" data-name="Path 1193" d="M858.112,388.824c-1.839-3.526-.51-4.869,1.5-6.9a27.665,27.665,0,0,0,2.309-2.553c3.137-4.034,6.779-2.053,6.815-2.032l.02.011.9,1.349c2.965,2.984-1.531,11.183-1.873,11.793l.226,5.863-9.561.911Z" transform="translate(-711.194 -331.185)" fill="#ff9f26"/>
  <path id="Path_1194" data-name="Path 1194" d="M879.421,508.048a2.242,2.242,0,0,1,1.464-3.111l.611-7.945,3.272,2.538-1.081,7.156a2.254,2.254,0,0,1-4.265,1.363Z" transform="translate(-728.86 -427.777)" fill="#ffb8b8"/>
  <path id="Path_1195" data-name="Path 1195" d="M881.09,409.714l1.544-12.865-2.2-13.312a5.525,5.525,0,0,1,.97-3.5,2.215,2.215,0,0,1,1.605-.735,3.251,3.251,0,0,1,3.415,2.194l.9,14.3L885.3,409.948Z" transform="translate(-729.836 -333.167)" fill="#ff9f26"/>
  <path id="Path_1196" data-name="Path 1196" d="M704.655,754.34h74.725a.2.2,0,1,0,0-.392H704.655a.2.2,0,0,0,0,.392Z" transform="translate(-588.382 -634.34)" fill="#ccc"/>
</svg>
