<svg id="Img" xmlns="http://www.w3.org/2000/svg" width="111.524" height="120" viewBox="0 0 111.524 120">
  <path id="Path_1300" data-name="Path 1300" d="M381.587,206.968l-48.1,12.386a6.36,6.36,0,0,1-7.737-4.568L311.2,158.3a6.36,6.36,0,0,1,4.568-7.737l44.749-11.523,11.454,5.127,14.18,55.067A6.36,6.36,0,0,1,381.587,206.968Z" transform="translate(-311.003 -139.037)" fill="#f2f2f2"/>
  <path id="Path_1301" data-name="Path 1301" d="M323.9,160.43a4.529,4.529,0,0,0-3.253,5.509l14.547,56.489a4.529,4.529,0,0,0,5.509,3.253L388.8,213.3a4.529,4.529,0,0,0,3.253-5.509l-13.961-54.214-10.066-4.506Z" transform="translate(-318.674 -147.135)" fill="#fff"/>
  <path id="Path_1302" data-name="Path 1302" d="M579.09,145.09l-7.444,1.917a2.116,2.116,0,0,1-2.577-1.521l-1.416-5.5a.132.132,0,0,1,.182-.154l11.276,5.007a.132.132,0,0,1-.021.249Z" transform="translate(-518.117 -139.671)" fill="#f2f2f2"/>
  <path id="Path_1303" data-name="Path 1303" d="M509.336,409.03l-21.9,5.639a1.058,1.058,0,1,1-.528-2.049l21.9-5.639a1.058,1.058,0,0,1,.528,2.049Z" transform="translate(-452.306 -355.246)" fill="#ccc"/>
  <path id="Path_1304" data-name="Path 1304" d="M518.187,421.338l-26.125,6.728a1.058,1.058,0,1,1-.528-2.049l26.125-6.728a1.058,1.058,0,0,1,.528,2.049Z" transform="translate(-456.033 -365.177)" fill="#ccc"/>
  <ellipse id="Ellipse_44" data-name="Ellipse 44" cx="3.739" cy="3.739" rx="3.739" ry="3.739" transform="translate(22.41 58.753)" fill="#e6e6e6"/>
  <path id="Path_1305" data-name="Path 1305" d="M429.935,240.6l-29.084,7.487a3.276,3.276,0,0,1-3.985-2.354l-6.095-23.678a3.276,3.276,0,0,1,2.354-3.985l29.084-7.487a3.276,3.276,0,0,1,3.985,2.354l6.1,23.678A3.277,3.277,0,0,1,429.935,240.6Z" transform="translate(-375.33 -196.726)" fill="#fff"/>
  <path id="Path_1306" data-name="Path 1306" d="M429.935,240.6l-29.084,7.487a3.276,3.276,0,0,1-3.985-2.354l-6.095-23.678a3.276,3.276,0,0,1,2.354-3.985l29.084-7.487a3.276,3.276,0,0,1,3.985,2.354l6.1,23.678A3.277,3.277,0,0,1,429.935,240.6ZM393.22,218.443a2.891,2.891,0,0,0-2.077,3.516l6.095,23.678a2.891,2.891,0,0,0,3.516,2.077l29.084-7.487a2.891,2.891,0,0,0,2.077-3.516l-6.1-23.678a2.891,2.891,0,0,0-3.516-2.077Z" transform="translate(-375.33 -196.726)" fill="#e6e6e6"/>
  <path id="Path_411" data-name="Path 411" d="M482.5,248l-14.678,3.778a.526.526,0,0,1-.637-.331.507.507,0,0,1,.357-.643l14.942-3.846c.6.306.445.931.017,1.042Z" transform="translate(-437.021 -226.135)" fill="#f2f2f2"/>
  <path id="Path_412" data-name="Path 412" d="M485.945,261.376l-14.678,3.779a.526.526,0,0,1-.637-.331.506.506,0,0,1,.357-.643l14.942-3.846c.6.306.445.931.017,1.042Z" transform="translate(-439.799 -236.928)" fill="#f2f2f2"/>
  <path id="Path_413" data-name="Path 413" d="M432.032,270.353l-4.48,1.153a.57.57,0,0,1-.694-.41L425.5,265.81a.57.57,0,0,1,.41-.694l4.48-1.153a.57.57,0,0,1,.694.41l1.361,5.286A.57.57,0,0,1,432.032,270.353Z" transform="translate(-403.388 -239.84)" fill="#e6e6e6"/>
  <path id="Path_414" data-name="Path 414" d="M460.376,288.817l-22.4,5.767a.526.526,0,0,1-.637-.331.506.506,0,0,1,.357-.643l22.665-5.834c.6.306.445.931.017,1.042Z" transform="translate(-412.928 -259.072)" fill="#f2f2f2"/>
  <path id="Path_415" data-name="Path 415" d="M463.82,302.194l-22.4,5.767a.526.526,0,0,1-.637-.331.506.506,0,0,1,.357-.643l22.666-5.835C464.407,301.459,464.248,302.084,463.82,302.194Z" transform="translate(-415.707 -269.869)" fill="#f2f2f2"/>
  <path id="Path_416" data-name="Path 416" d="M467.262,315.564l-22.4,5.767a.526.526,0,0,1-.637-.331.507.507,0,0,1,.357-.643l22.665-5.834C467.848,314.828,467.69,315.453,467.262,315.564Z" transform="translate(-418.484 -280.658)" fill="#f2f2f2"/>
  <path id="Path_417" data-name="Path 417" d="M470.705,328.941l-22.4,5.767a.526.526,0,0,1-.637-.331.506.506,0,0,1,.357-.643l22.666-5.834C471.292,328.2,471.133,328.83,470.705,328.941Z" transform="translate(-421.262 -291.453)" fill="#f2f2f2"/>
  <path id="Path_418" data-name="Path 418" d="M474.147,342.311l-22.4,5.767a.526.526,0,0,1-.637-.331.506.506,0,0,1,.357-.643l22.666-5.834C474.734,341.575,474.575,342.2,474.147,342.311Z" transform="translate(-424.04 -302.243)" fill="#f2f2f2"/>
  <path id="Path_395" data-name="Path 395" d="M441.668,456.464a.388.388,0,0,1-.245-.017l0,0-1.019-.432a.391.391,0,1,1,.306-.719l.66.281.865-2.035a.39.39,0,0,1,.512-.206h0l-.005.013.005-.013a.391.391,0,0,1,.206.512l-1.018,2.392a.391.391,0,0,1-.263.225Z" transform="translate(-415.239 -392.662)" fill="#fff"/>
  <path id="Path_1307" data-name="Path 1307" d="M538.5,305.753H488.828a6.36,6.36,0,0,1-6.353-6.353V241.068a6.36,6.36,0,0,1,6.353-6.353h46.209l9.813,7.822V299.4A6.36,6.36,0,0,1,538.5,305.753Z" transform="translate(-449.213 -216.193)" fill="#e6e6e6"/>
  <path id="Path_1308" data-name="Path 1308" d="M496.5,244.215a4.529,4.529,0,0,0-4.524,4.524v58.332A4.529,4.529,0,0,0,496.5,311.6h49.669a4.529,4.529,0,0,0,4.524-4.524V251.089l-8.624-6.874Z" transform="translate(-456.969 -223.862)" fill="#fff"/>
  <path id="Path_1309" data-name="Path 1309" d="M624.006,323.444H601.392a1.058,1.058,0,1,1,0-2.116h22.614a1.058,1.058,0,1,1,0,2.116Z" transform="translate(-544.472 -286.154)" fill="#ff9f26"/>
  <path id="Path_1310" data-name="Path 1310" d="M628.37,341.991H601.392a1.058,1.058,0,0,1,0-2.116H628.37a1.058,1.058,0,1,1,0,2.116Z" transform="translate(-544.464 -301.122)" fill="#ff9f26"/>
  <path id="Path_1311" data-name="Path 1311" d="M624.01,404.443H601.4a1.058,1.058,0,1,0,0,2.116H624.01a1.058,1.058,0,0,0,0-2.116Z" transform="translate(-544.476 -353.231)" fill="#ccc"/>
  <path id="Path_1312" data-name="Path 1312" d="M628.374,422.993H601.4a1.058,1.058,0,1,0,0,2.116h26.977a1.058,1.058,0,1,0,0-2.116Z" transform="translate(-544.468 -368.202)" fill="#ccc"/>
  <path id="Path_1313" data-name="Path 1313" d="M624.006,489.679H601.392a1.058,1.058,0,1,1,0-2.116h22.614a1.058,1.058,0,1,1,0,2.116Z" transform="translate(-544.472 -420.313)" fill="#ccc"/>
  <path id="Path_1314" data-name="Path 1314" d="M628.37,508.226H601.392a1.058,1.058,0,0,1,0-2.116H628.37a1.058,1.058,0,1,1,0,2.116Z" transform="translate(-544.464 -435.281)" fill="#ccc"/>
  <ellipse id="Ellipse_44-2" data-name="Ellipse 44" cx="3.739" cy="3.739" rx="3.739" ry="3.739" transform="translate(43.708 34.28)" fill="#ff9f26"/>
  <path id="Path_395-2" data-name="Path 395" d="M549.667,331.578a.388.388,0,0,1-.233-.078l0,0-.879-.672a.391.391,0,0,1,.475-.62l.569.437,1.345-1.755a.39.39,0,0,1,.547-.072h0l-.008.012.009-.012a.391.391,0,0,1,.072.547l-1.582,2.063a.39.39,0,0,1-.311.152Z" transform="translate(-502.589 -292.13)" fill="#fff"/>
  <path id="Path_1315" data-name="Path 1315" d="M546.968,403.525a3.739,3.739,0,0,1-3.739,3.741.813.813,0,0,1-.1,0,3.739,3.739,0,1,1,3.835-3.737Z" transform="translate(-495.397 -349.466)" fill="#ccc"/>
  <ellipse id="Ellipse_44-3" data-name="Ellipse 44" cx="3.739" cy="3.739" rx="3.739" ry="3.739" transform="translate(43.708 66.36)" fill="#ccc"/>
  <path id="Path_1316" data-name="Path 1316" d="M764.365,243.408h-7.687a2.116,2.116,0,0,1-2.116-2.116v-5.677a.132.132,0,0,1,.214-.1l9.671,7.661a.132.132,0,0,1-.082.236Z" transform="translate(-668.92 -216.87)" fill="#ccc"/>
  <path id="Path_1317" data-name="Path 1317" d="M559.811,403.749a3.739,3.739,0,0,1-3.739,3.741.818.818,0,0,1-.1,0,8.1,8.1,0,0,1,.726-7.423A3.741,3.741,0,0,1,559.811,403.749Z" transform="translate(-508.235 -349.691)" fill="#ff9f26"/>
  <path id="Path_1318" data-name="Path 1318" d="M600.334,405.5a1.061,1.061,0,0,1,1.059-1.059h5.635a8.006,8.006,0,0,1,.7,2.116h-6.33a1.059,1.059,0,0,1-1.059-1.057Z" transform="translate(-544.499 -353.231)" fill="#ff9f26"/>
  <path id="Path_1319" data-name="Path 1319" d="M607.858,422.993a8.074,8.074,0,0,1-.281,2.116H601.4a1.058,1.058,0,1,1,0-2.116Z" transform="translate(-544.503 -368.202)" fill="#ff9f26"/>
  <path id="Path_1320" data-name="Path 1320" d="M646.306,448.922a1.155,1.155,0,0,1-1.588.385l-13.477-8.22a1.155,1.155,0,1,1,1.2-1.972l13.477,8.22A1.155,1.155,0,0,1,646.306,448.922Z" transform="translate(-568.982 -381.065)" fill="#3f3d56"/>
  <path id="Path_1321" data-name="Path 1321" d="M569.957,389.122a9.241,9.241,0,1,1-3.077-12.7A9.241,9.241,0,0,1,569.957,389.122ZM556.151,380.7a6.931,6.931,0,1,0,9.526-2.308,6.93,6.93,0,0,0-9.526,2.308Z" transform="translate(-506.145 -329.507)" fill="#3f3d56"/>
  <ellipse id="Ellipse_218" data-name="Ellipse 218" cx="4.728" cy="4.728" rx="4.728" ry="4.728" transform="translate(88.815 46.821)" fill="#a0616a"/>
  <path id="Path_1322" data-name="Path 1322" d="M793.59,467.57a2.118,2.118,0,0,1,1.6-2.724,2.024,2.024,0,0,1,.281-.035l4.981-7.994-4.549-4.325a1.816,1.816,0,1,1,2.526-2.609l6.282,6.194.013.015a1.645,1.645,0,0,1-.115,1.961l-6.979,8.254a2,2,0,0,1,.052.2,2.118,2.118,0,0,1-1.9,2.525c-.06.005-.12.008-.179.008A2.125,2.125,0,0,1,793.59,467.57Z" transform="translate(-700.352 -389.466)" fill="#a0616a"/>
  <path id="Path_1323" data-name="Path 1323" d="M429.542,570.816h-2.36l-1.123-9.1h3.483Z" transform="translate(-343.846 -453.304)" fill="#a0616a"/>
  <path id="Path_1324" data-name="Path 1324" d="M726.356,747.093h-7.61V747a2.962,2.962,0,0,1,2.962-2.962h4.648Z" transform="translate(-640.06 -627.293)" fill="#2f2e41"/>
  <path id="Path_1325" data-name="Path 1325" d="M533.918,559.241l-2.028,1.207-5.622-7.247,2.993-1.782Z" transform="translate(-424.703 -444.993)" fill="#a0616a"/>
  <path id="Path_1326" data-name="Path 1326" d="M856.388,728.676l-6.539,3.893-.049-.083a2.962,2.962,0,0,1,1.03-4.061h0l3.994-2.378Z" transform="translate(-745.485 -612.77)" fill="#2f2e41"/>
  <path id="Path_1327" data-name="Path 1327" d="M730.466,546.758c-1.581-18.617-2.522-35.913,3.258-42.968l.045-.055,9.727,3.891.016.035c.033.071,3.268,7.187,2.513,11.973l2.4,11.037,7.823,13.1a.867.867,0,0,1-.395,1.238l-3.4,1.5a.87.87,0,0,1-1.087-.34l-8.51-13.876-4.807-10.644a.289.289,0,0,0-.55.088l-2.664,25.046a.865.865,0,0,1-.861.775H731.33a.872.872,0,0,1-.863-.794Z" transform="translate(-648.491 -433.256)" fill="#2f2e41"/>
  <path id="Path_1328" data-name="Path 1328" d="M751.857,451.729l-.046-.022-.007-.051a16.428,16.428,0,0,1,1.278-8.4,6.668,6.668,0,0,1,7.739-3.993h0a6.66,6.66,0,0,1,4.247,3.266,6.588,6.588,0,0,1,.457,5.28c-1.527,4.466-3.509,8.645-3.529,8.687l-.042.087Z" transform="translate(-666.591 -381.164)" fill="#ff9f26"/>
  <path id="Path_1329" data-name="Path 1329" d="M694.106,454.255a2.118,2.118,0,0,1,3.113.547,2.023,2.023,0,0,1,.131.251l9.232,1.866,2.458-5.776a1.816,1.816,0,1,1,3.329,1.452l-3.6,8.053-.01.017a1.645,1.645,0,0,1-1.877.579L696.7,457.6a1.969,1.969,0,0,1-.17.119,2.118,2.118,0,0,1-3.031-.9q-.039-.082-.07-.165A2.125,2.125,0,0,1,694.106,454.255Z" transform="translate(-619.503 -390.028)" fill="#a0616a"/>
  <path id="Path_1330" data-name="Path 1330" d="M788.638,383.349a3.855,3.855,0,0,0-2-1.844,6.5,6.5,0,0,0-3.524.3,6.53,6.53,0,0,1-2.74.162,3.076,3.076,0,0,1-2.189-1.529c-.606-1.214-.1-2.661-.132-4.016a4.877,4.877,0,0,0-6.146-4.584c-1.115-.322-2.125-.352-2.815.506a3.273,3.273,0,0,0-3.273,3.273h3.129a3.109,3.109,0,0,0,.472,2.3c.552.812,1.513,1.4,1.7,2.363a3.019,3.019,0,0,1-1.122,2.5,5.2,5.2,0,0,0-1.647,2.281,2.829,2.829,0,0,0,.4,2.034,6.624,6.624,0,0,0,1.422,1.566,20.87,20.87,0,0,0,8.671,4.436,10.307,10.307,0,0,0,6.809-.315,6.762,6.762,0,0,0,2.977-9.427Z" transform="translate(-678.013 -326.727)" fill="#2f2e41"/>
  <path id="Path_1331" data-name="Path 1331" d="M733.771,759.348H697.193a.193.193,0,0,1,0-.385h36.578a.193.193,0,1,1,0,.385Z" transform="translate(-622.44 -639.348)" fill="#ccc"/>
</svg>
