<svg xmlns="http://www.w3.org/2000/svg" width="333.917" height="60.003" viewBox="0 0 333.917 60.003">
  <g id="Logo" transform="translate(-315.313 -513.002)">
    <g id="Text" transform="translate(392.119 522.602)">
      <path id="Path_1855" data-name="Path 1855" d="M544.567,538.148l5.146,15.826,5.147-15.826H560.3l-7.318,21.032h-6.575l-7.288-21.032Z" transform="translate(-539.123 -537.821)" fill="#ff9f26"/>
      <path id="Path_1856" data-name="Path 1856" d="M612.184,538.148V559.18H607.1V538.148Z" transform="translate(-583.656 -537.821)" fill="#ff9f26"/>
      <path id="Path_1857" data-name="Path 1857" d="M643.688,559.18l-4.551-7.943h-1.16v7.943h-5.087V538.148h8.687a9.38,9.38,0,0,1,4.224.863,5.966,5.966,0,0,1,2.588,2.365,6.777,6.777,0,0,1,.862,3.435,6.108,6.108,0,0,1-1.264,3.9,6.463,6.463,0,0,1-3.674,2.2l5,8.27Zm-5.712-11.423h3.153a3.177,3.177,0,0,0,2.231-.669,2.583,2.583,0,0,0,.714-1.978,2.622,2.622,0,0,0-.729-1.964,3.054,3.054,0,0,0-2.216-.714h-3.153Z" transform="translate(-600.554 -537.821)" fill="#ff9f26"/>
      <path id="Path_1858" data-name="Path 1858" d="M701.128,538.148v4.046h-5.712V559.18H690.3V542.194h-5.652v-4.046Z" transform="translate(-634.463 -537.821)" fill="#ff9f26"/>
      <path id="Path_1859" data-name="Path 1859" d="M744.221,538.148v12.137a4.782,4.782,0,0,0,.937,3.183,3.915,3.915,0,0,0,5.444,0,4.781,4.781,0,0,0,.937-3.183V538.148h5.087v12.137a9.992,9.992,0,0,1-1.16,5.012,7.539,7.539,0,0,1-3.168,3.064,9.825,9.825,0,0,1-4.537,1.026,9.488,9.488,0,0,1-4.462-1.011,7.178,7.178,0,0,1-3.034-3.064,10.519,10.519,0,0,1-1.1-5.028V538.148Z" transform="translate(-670.179 -537.821)" fill="#ff9f26"/>
      <path id="Path_1860" data-name="Path 1860" d="M810.643,555.626H802.76l-1.309,3.838H796.1L803.8,538.58h5.86l7.7,20.883h-5.414Zm-1.309-3.867-2.618-7.734-2.648,7.734Z" transform="translate(-707.478 -538.104)" fill="#ff9f26"/>
      <path id="Path_1861" data-name="Path 1861" d="M869.418,555.284H876.2v3.9h-11.87V538.148h5.087Z" transform="translate(-752.182 -537.821)" fill="#ff9f26"/>
      <path id="Path_1862" data-name="Path 1862" d="M929.63,542.194v4.4h7.11v3.837h-7.11v4.67h8v4.076H924.543V538.148h13.089v4.046Z" transform="translate(-791.63 -537.821)" fill="#fff"/>
      <path id="Path_1863" data-name="Path 1863" d="M981.607,559.18l-4.432-6.545-3.807,6.545h-5.831l6.723-10.828-6.932-10.2h6.039l4.313,6.337,3.718-6.337h5.8l-6.634,10.591,7.08,10.442Z" transform="translate(-819.66 -537.821)" fill="#fff"/>
      <path id="Path_1864" data-name="Path 1864" d="M1037.889,551.8v7.378H1032.8V538.148h8.241a8,8,0,0,1,5.711,1.86,6.576,6.576,0,0,1,1.964,5.013,6.9,6.9,0,0,1-.878,3.5,6.077,6.077,0,0,1-2.6,2.41,9.173,9.173,0,0,1-4.195.878Zm5.652-6.783q0-2.767-3.064-2.767h-2.588v5.474h2.588Q1043.54,547.727,1043.541,545.02Z" transform="translate(-862.555 -537.821)" fill="#fff"/>
      <path id="Path_1865" data-name="Path 1865" d="M1092.147,542.194v4.4h7.11v3.837h-7.11v4.67h8v4.076h-13.09V538.148h13.09v4.046Z" transform="translate(-898.102 -537.821)" fill="#fff"/>
      <path id="Path_1866" data-name="Path 1866" d="M1145.045,559.18l-4.551-7.943h-1.161v7.943h-5.087V538.148h8.686a9.381,9.381,0,0,1,4.225.863,5.963,5.963,0,0,1,2.588,2.365,6.775,6.775,0,0,1,.863,3.435,6.11,6.11,0,0,1-1.264,3.9,6.463,6.463,0,0,1-3.674,2.2l5,8.27Zm-5.712-11.423h3.153a3.176,3.176,0,0,0,2.231-.669,2.583,2.583,0,0,0,.714-1.978,2.623,2.623,0,0,0-.729-1.964,3.055,3.055,0,0,0-2.216-.714h-3.153Z" transform="translate(-929.016 -537.821)" fill="#fff"/>
      <path id="Path_1867" data-name="Path 1867" d="M1202.483,538.148v4.046h-5.711V559.18h-5.117V542.194H1186v-4.046Z" transform="translate(-962.924 -537.821)" fill="#fff"/>
      <path id="Path_1868" data-name="Path 1868" d="M1253.943,555.7a5.974,5.974,0,0,1-2.5,2.231,8.808,8.808,0,0,1-4,.833,9.422,9.422,0,0,1-5.831-1.725,6.25,6.25,0,0,1-2.5-4.819h5.414a2.854,2.854,0,0,0,.848,1.874,2.6,2.6,0,0,0,1.859.685,2.157,2.157,0,0,0,1.547-.536,1.877,1.877,0,0,0,.565-1.428,1.846,1.846,0,0,0-.52-1.339,4.09,4.09,0,0,0-1.294-.877q-.774-.342-2.142-.818a26.138,26.138,0,0,1-3.258-1.324,5.986,5.986,0,0,1-2.171-1.9,6.2,6.2,0,0,1,.045-6.53,6.054,6.054,0,0,1,2.633-2.1,9.608,9.608,0,0,1,3.853-.729,8.64,8.64,0,0,1,5.578,1.666,6.359,6.359,0,0,1,2.335,4.581h-5.5a2.832,2.832,0,0,0-.759-1.651,2.232,2.232,0,0,0-1.651-.61,2.129,2.129,0,0,0-1.443.476,1.748,1.748,0,0,0-.55,1.4,1.774,1.774,0,0,0,.491,1.264,3.732,3.732,0,0,0,1.234.848q.743.328,2.142.833a23.6,23.6,0,0,1,3.3,1.353,6.324,6.324,0,0,1,2.2,1.948,5.571,5.571,0,0,1,.922,3.332A5.791,5.791,0,0,1,1253.943,555.7Z" transform="translate(-997.68 -537.2)" fill="#fff"/>
      <rect id="Rectangle_264" data-name="Rectangle 264" width="256.874" height="14.093" transform="translate(0.236 27.603)" fill="#828b9a"/>
      <g id="Group_149" data-name="Group 149" transform="translate(10.616 30.389)">
        <path id="Path_1869" data-name="Path 1869" d="M573.789,624.826q.074.177.146.356.071-.185.148-.364c.051-.12.106-.234.164-.343l2.193-4.105a.571.571,0,0,1,.085-.123.258.258,0,0,1,.1-.067.438.438,0,0,1,.12-.026c.044,0,.1,0,.159,0h1.041v7.41h-1.215v-4.787q0-.133.008-.292c.005-.106.013-.214.023-.323l-2.239,4.2a.589.589,0,0,1-.2.222.515.515,0,0,1-.287.08h-.19a.515.515,0,0,1-.287-.08.587.587,0,0,1-.2-.222l-2.27-4.218c.013.113.023.223.028.331s.008.208.008.3v4.787h-1.215v-7.41h1.04c.062,0,.115,0,.159,0a.438.438,0,0,1,.12.026.286.286,0,0,1,.1.067.511.511,0,0,1,.087.123l2.214,4.115Q573.715,624.649,573.789,624.826Z" transform="translate(-569.907 -619.945)" fill="#fff"/>
        <path id="Path_1870" data-name="Path 1870" d="M612.853,631.464h-.569a.609.609,0,0,1-.282-.054.345.345,0,0,1-.154-.217l-.112-.374a4.367,4.367,0,0,1-.392.315,2.338,2.338,0,0,1-.4.228,2.014,2.014,0,0,1-.435.138,2.6,2.6,0,0,1-.513.047,2,2,0,0,1-.615-.09,1.325,1.325,0,0,1-.484-.27,1.227,1.227,0,0,1-.315-.448,1.586,1.586,0,0,1-.112-.622,1.231,1.231,0,0,1,.156-.589,1.476,1.476,0,0,1,.52-.524,3.325,3.325,0,0,1,.969-.388,6.206,6.206,0,0,1,1.5-.154v-.31a1.175,1.175,0,0,0-.223-.787.813.813,0,0,0-.648-.256,1.577,1.577,0,0,0-.512.072,1.991,1.991,0,0,0-.356.161c-.1.06-.194.114-.279.161a.567.567,0,0,1-.282.072.365.365,0,0,1-.22-.067.521.521,0,0,1-.149-.164l-.23-.4a3.126,3.126,0,0,1,2.188-.831,2.11,2.11,0,0,1,.822.151,1.746,1.746,0,0,1,.613.42,1.8,1.8,0,0,1,.382.643,2.466,2.466,0,0,1,.131.82Zm-2.46-.789a1.708,1.708,0,0,0,.359-.036,1.344,1.344,0,0,0,.31-.106,1.636,1.636,0,0,0,.282-.174,2.633,2.633,0,0,0,.274-.245v-.88a5.124,5.124,0,0,0-.925.069,2.454,2.454,0,0,0-.6.178.764.764,0,0,0-.32.253.563.563,0,0,0-.095.315.555.555,0,0,0,.2.48A.852.852,0,0,0,610.393,630.674Z" transform="translate(-595.172 -623.848)" fill="#fff"/>
        <path id="Path_1871" data-name="Path 1871" d="M637.987,619.555v4.361h.236a.451.451,0,0,0,.2-.036.522.522,0,0,0,.154-.133l1.307-1.614a.755.755,0,0,1,.184-.161.49.49,0,0,1,.257-.059h1.158l-1.635,1.952a2.189,2.189,0,0,1-.179.2,1.14,1.14,0,0,1-.2.157.921.921,0,0,1,.19.179c.054.068.109.142.164.22l1.752,2.552h-1.143a.561.561,0,0,1-.251-.051.5.5,0,0,1-.184-.174l-1.338-1.994a.408.408,0,0,0-.154-.154.568.568,0,0,0-.231-.036h-.287v2.409h-1.266v-7.615Z" transform="translate(-613.68 -619.555)" fill="#fff"/>
        <path id="Path_1872" data-name="Path 1872" d="M666.338,620.409a.721.721,0,0,1-.067.308.835.835,0,0,1-.436.422.786.786,0,0,1-.318.064.756.756,0,0,1-.31-.064.822.822,0,0,1-.254-.171.835.835,0,0,1-.172-.251.746.746,0,0,1-.064-.308.793.793,0,0,1,.064-.318.816.816,0,0,1,.172-.256.831.831,0,0,1,.254-.172.77.77,0,0,1,.31-.064.8.8,0,0,1,.318.064.856.856,0,0,1,.259.172.824.824,0,0,1,.177.256A.766.766,0,0,1,666.338,620.409Zm-.19,1.533V627.2h-1.266v-5.258Z" transform="translate(-632.022 -619.584)" fill="#fff"/>
        <path id="Path_1873" data-name="Path 1873" d="M684.9,631.493v-5.258h.774a.311.311,0,0,1,.323.23l.087.415a2.906,2.906,0,0,1,.336-.3,2.334,2.334,0,0,1,.374-.231,1.919,1.919,0,0,1,.423-.148,2.209,2.209,0,0,1,.492-.051,1.89,1.89,0,0,1,.764.146,1.51,1.51,0,0,1,.556.41,1.806,1.806,0,0,1,.338.631,2.669,2.669,0,0,1,.115.807v3.347h-1.266v-3.347a1.124,1.124,0,0,0-.223-.746.827.827,0,0,0-.669-.264,1.32,1.32,0,0,0-.615.149,2.209,2.209,0,0,0-.543.4v3.8Z" transform="translate(-645.242 -623.878)" fill="#fff"/>
        <path id="Path_1874" data-name="Path 1874" d="M714.528,626.123a2.84,2.84,0,0,1,.636.069,2.19,2.19,0,0,1,.543.2h1.512v.471a.259.259,0,0,1-.061.184.366.366,0,0,1-.21.093l-.471.087a1.605,1.605,0,0,1,.079.281,1.676,1.676,0,0,1,.028.313,1.547,1.547,0,0,1-.587,1.24,1.993,1.993,0,0,1-.651.341,2.669,2.669,0,0,1-.817.121,2.9,2.9,0,0,1-.579-.057c-.164.1-.246.212-.246.336a.247.247,0,0,0,.146.235,1.185,1.185,0,0,0,.384.106,4.29,4.29,0,0,0,.541.031q.3,0,.62.026a4.8,4.8,0,0,1,.62.09,1.824,1.824,0,0,1,.54.2,1.085,1.085,0,0,1,.384.378,1.164,1.164,0,0,1,.146.614,1.451,1.451,0,0,1-.172.678,1.826,1.826,0,0,1-.5.587,2.6,2.6,0,0,1-.8.413,3.39,3.39,0,0,1-1.076.157,4.124,4.124,0,0,1-1.04-.115,2.425,2.425,0,0,1-.73-.307,1.323,1.323,0,0,1-.433-.443,1.037,1.037,0,0,1-.144-.523.9.9,0,0,1,.226-.62,1.544,1.544,0,0,1,.625-.4.874.874,0,0,1-.312-.287.834.834,0,0,1-.118-.466.782.782,0,0,1,.041-.243.965.965,0,0,1,.126-.249,1.213,1.213,0,0,1,.213-.233,1.46,1.46,0,0,1,.3-.2,1.658,1.658,0,0,1-.628-.574,1.533,1.533,0,0,1-.228-.84,1.561,1.561,0,0,1,.156-.7,1.579,1.579,0,0,1,.436-.538,1.985,1.985,0,0,1,.661-.341A2.806,2.806,0,0,1,714.528,626.123Zm1.389,5.571a.361.361,0,0,0-.092-.256.605.605,0,0,0-.251-.155,1.844,1.844,0,0,0-.372-.081,3.657,3.657,0,0,0-.451-.026h-.492a2.1,2.1,0,0,1-.489-.056,1.151,1.151,0,0,0-.346.279.575.575,0,0,0-.13.372.511.511,0,0,0,.069.258.574.574,0,0,0,.22.208,1.31,1.31,0,0,0,.392.136,3.066,3.066,0,0,0,.589.048,2.98,2.98,0,0,0,.61-.055,1.468,1.468,0,0,0,.423-.152.644.644,0,0,0,.243-.23A.571.571,0,0,0,715.917,631.694Zm-1.389-2.978a1.175,1.175,0,0,0,.41-.064.8.8,0,0,0,.289-.176.73.73,0,0,0,.174-.272.994.994,0,0,0,.059-.348.825.825,0,0,0-.233-.618,1.187,1.187,0,0,0-1.4,0,.825.825,0,0,0-.233.618.985.985,0,0,0,.059.344.75.75,0,0,0,.174.274.774.774,0,0,0,.292.179A1.177,1.177,0,0,0,714.528,628.716Z" transform="translate(-663.127 -623.858)" fill="#fff"/>
        <path id="Path_1875" data-name="Path 1875" d="M762.818,620.15v1.132h-2.229v6.278h-1.378v-6.278h-2.239V620.15Z" transform="translate(-692.461 -619.945)" fill="#fff"/>
        <path id="Path_1876" data-name="Path 1876" d="M788.148,627.171v-7.615h1.266v2.926a2.691,2.691,0,0,1,.677-.471,1.959,1.959,0,0,1,.866-.179,1.889,1.889,0,0,1,.763.146,1.513,1.513,0,0,1,.556.41,1.8,1.8,0,0,1,.338.631,2.668,2.668,0,0,1,.115.807v3.347h-1.266v-3.347a1.123,1.123,0,0,0-.223-.745.826.826,0,0,0-.669-.264,1.321,1.321,0,0,0-.615.149,2.21,2.21,0,0,0-.543.4v3.8Z" transform="translate(-712.887 -619.555)" fill="#fff"/>
        <path id="Path_1877" data-name="Path 1877" d="M818.434,626.153a2.552,2.552,0,0,1,.915.159,2.008,2.008,0,0,1,.72.464,2.116,2.116,0,0,1,.471.748,2.826,2.826,0,0,1,.169,1.012,1.791,1.791,0,0,1-.013.238.376.376,0,0,1-.046.148.184.184,0,0,1-.09.077.377.377,0,0,1-.143.023h-3.249a1.809,1.809,0,0,0,.436,1.189,1.358,1.358,0,0,0,1,.379,1.736,1.736,0,0,0,.53-.072,2.459,2.459,0,0,0,.39-.159c.111-.058.208-.111.292-.159a.492.492,0,0,1,.243-.072.277.277,0,0,1,.133.031.3.3,0,0,1,.1.087l.369.461a2.128,2.128,0,0,1-.471.413,2.67,2.67,0,0,1-.546.266,2.991,2.991,0,0,1-.579.141,4.157,4.157,0,0,1-.571.041,2.806,2.806,0,0,1-1.019-.182,2.284,2.284,0,0,1-.82-.538,2.517,2.517,0,0,1-.548-.881,3.4,3.4,0,0,1-.2-1.217,2.919,2.919,0,0,1,.174-1.012,2.433,2.433,0,0,1,.5-.825,2.356,2.356,0,0,1,.794-.556A2.621,2.621,0,0,1,818.434,626.153Zm.025.907a1.171,1.171,0,0,0-.866.312,1.543,1.543,0,0,0-.4.887h2.378a1.584,1.584,0,0,0-.067-.464,1.062,1.062,0,0,0-.2-.381.978.978,0,0,0-.349-.259A1.189,1.189,0,0,0,818.459,627.06Z" transform="translate(-731.073 -623.878)" fill="#fff"/>
        <path id="Path_1878" data-name="Path 1878" d="M865.44,621.341a.384.384,0,0,1-.131.159.33.33,0,0,1-.177.046.446.446,0,0,1-.23-.08c-.086-.053-.187-.112-.3-.177a2.514,2.514,0,0,0-.408-.177,1.717,1.717,0,0,0-.551-.079,1.6,1.6,0,0,0-.5.069,1.049,1.049,0,0,0-.359.192.763.763,0,0,0-.218.295.966.966,0,0,0-.072.376.655.655,0,0,0,.146.436,1.22,1.22,0,0,0,.387.3,3.6,3.6,0,0,0,.549.22q.307.1.628.208a6.161,6.161,0,0,1,.628.256,2.18,2.18,0,0,1,.549.369,1.671,1.671,0,0,1,.387.545,1.9,1.9,0,0,1,.146.785,2.552,2.552,0,0,1-.172.94,2.162,2.162,0,0,1-.5.763,2.351,2.351,0,0,1-.807.513,2.974,2.974,0,0,1-1.092.187,3.541,3.541,0,0,1-.7-.069,3.719,3.719,0,0,1-.659-.2,3.418,3.418,0,0,1-.589-.308,2.877,2.877,0,0,1-.49-.4l.4-.661a.516.516,0,0,1,.135-.121.332.332,0,0,1,.177-.049.488.488,0,0,1,.277.105q.149.105.351.233a2.655,2.655,0,0,0,.477.233,1.843,1.843,0,0,0,.659.105,1.351,1.351,0,0,0,.912-.279,1,1,0,0,0,.323-.8.745.745,0,0,0-.146-.476,1.183,1.183,0,0,0-.387-.31,2.923,2.923,0,0,0-.548-.213q-.308-.087-.625-.189a5.3,5.3,0,0,1-.625-.246,2.015,2.015,0,0,1-.548-.374,1.7,1.7,0,0,1-.387-.577,2.2,2.2,0,0,1-.146-.853,2.04,2.04,0,0,1,.633-1.471,2.319,2.319,0,0,1,.761-.477,2.762,2.762,0,0,1,1.03-.18,3.47,3.47,0,0,1,1.209.2,2.735,2.735,0,0,1,.943.575Z" transform="translate(-760.553 -619.788)" fill="#fff"/>
        <path id="Path_1879" data-name="Path 1879" d="M891.665,626.153a2.551,2.551,0,0,1,.915.159,2,2,0,0,1,.72.464,2.113,2.113,0,0,1,.472.748,2.829,2.829,0,0,1,.169,1.012,1.887,1.887,0,0,1-.013.238.392.392,0,0,1-.046.148.187.187,0,0,1-.09.077.379.379,0,0,1-.143.023H890.4a1.812,1.812,0,0,0,.436,1.189,1.358,1.358,0,0,0,1,.379,1.74,1.74,0,0,0,.53-.072,2.451,2.451,0,0,0,.389-.159c.111-.058.208-.111.292-.159a.493.493,0,0,1,.243-.072.278.278,0,0,1,.134.031.3.3,0,0,1,.1.087l.369.461a2.117,2.117,0,0,1-.471.413,2.668,2.668,0,0,1-.546.266,2.992,2.992,0,0,1-.579.141,4.166,4.166,0,0,1-.571.041,2.807,2.807,0,0,1-1.02-.182,2.279,2.279,0,0,1-.82-.538,2.521,2.521,0,0,1-.548-.881,3.416,3.416,0,0,1-.2-1.217,2.913,2.913,0,0,1,.174-1.012,2.437,2.437,0,0,1,.5-.825,2.356,2.356,0,0,1,.795-.556A2.619,2.619,0,0,1,891.665,626.153Zm.026.907a1.17,1.17,0,0,0-.866.312,1.544,1.544,0,0,0-.4.887H892.8a1.59,1.59,0,0,0-.066-.464,1.064,1.064,0,0,0-.205-.381.974.974,0,0,0-.349-.259A1.186,1.186,0,0,0,891.691,627.06Z" transform="translate(-779.051 -623.878)" fill="#fff"/>
        <path id="Path_1880" data-name="Path 1880" d="M917.938,631.493v-5.258h.774a.311.311,0,0,1,.323.23l.087.415a2.9,2.9,0,0,1,.335-.3,2.366,2.366,0,0,1,.374-.231,1.922,1.922,0,0,1,.423-.148,2.209,2.209,0,0,1,.492-.051,1.89,1.89,0,0,1,.764.146,1.508,1.508,0,0,1,.556.41,1.8,1.8,0,0,1,.338.631,2.675,2.675,0,0,1,.115.807v3.347h-1.266v-3.347a1.125,1.125,0,0,0-.223-.746.827.827,0,0,0-.669-.264,1.319,1.319,0,0,0-.615.149,2.207,2.207,0,0,0-.543.4v3.8Z" transform="translate(-797.918 -623.878)" fill="#fff"/>
        <path id="Path_1881" data-name="Path 1881" d="M948.967,627.26a.344.344,0,0,1-.107.116.281.281,0,0,1-.143.033.453.453,0,0,1-.2-.051c-.07-.035-.151-.073-.243-.116a2.274,2.274,0,0,0-.315-.115,1.511,1.511,0,0,0-.418-.051.974.974,0,0,0-.589.159.492.492,0,0,0-.215.415.4.4,0,0,0,.11.284.987.987,0,0,0,.292.2,2.733,2.733,0,0,0,.412.157c.154.046.311.1.471.151s.318.117.472.187a1.633,1.633,0,0,1,.412.266,1.238,1.238,0,0,1,.292.387,1.224,1.224,0,0,1,.11.543,1.751,1.751,0,0,1-.139.7,1.539,1.539,0,0,1-.4.554,1.9,1.9,0,0,1-.659.363,3.051,3.051,0,0,1-1.429.082,3.1,3.1,0,0,1-.5-.136,2.729,2.729,0,0,1-.441-.2,2.13,2.13,0,0,1-.356-.256l.293-.482a.4.4,0,0,1,.133-.133.369.369,0,0,1,.195-.047.411.411,0,0,1,.223.067c.07.044.151.092.243.143a2.138,2.138,0,0,0,.326.143,1.429,1.429,0,0,0,.474.067,1.218,1.218,0,0,0,.387-.054.811.811,0,0,0,.267-.141.528.528,0,0,0,.153-.2.6.6,0,0,0,.049-.238.426.426,0,0,0-.11-.3.965.965,0,0,0-.292-.2,2.789,2.789,0,0,0-.415-.157q-.234-.069-.477-.151a4.242,4.242,0,0,1-.476-.192,1.636,1.636,0,0,1-.415-.279,1.262,1.262,0,0,1-.292-.416,1.445,1.445,0,0,1-.11-.594,1.513,1.513,0,0,1,.128-.615,1.441,1.441,0,0,1,.377-.51,1.87,1.87,0,0,1,.62-.349,2.587,2.587,0,0,1,.858-.13,2.628,2.628,0,0,1,.989.179,2.249,2.249,0,0,1,.743.471Z" transform="translate(-815.9 -623.878)" fill="#fff"/>
        <path id="Path_1882" data-name="Path 1882" d="M973.1,626.153a2.554,2.554,0,0,1,.915.159,2.005,2.005,0,0,1,.72.464,2.122,2.122,0,0,1,.471.748,2.823,2.823,0,0,1,.169,1.012,1.822,1.822,0,0,1-.013.238.379.379,0,0,1-.046.148.187.187,0,0,1-.09.077.378.378,0,0,1-.143.023h-3.249a1.812,1.812,0,0,0,.436,1.189,1.358,1.358,0,0,0,1,.379,1.742,1.742,0,0,0,.531-.072,2.491,2.491,0,0,0,.389-.159c.111-.058.208-.111.292-.159a.491.491,0,0,1,.243-.072.276.276,0,0,1,.133.031.3.3,0,0,1,.1.087l.369.461a2.109,2.109,0,0,1-.472.413,2.659,2.659,0,0,1-.546.266,2.98,2.98,0,0,1-.579.141,4.162,4.162,0,0,1-.571.041,2.809,2.809,0,0,1-1.02-.182,2.279,2.279,0,0,1-.82-.538,2.521,2.521,0,0,1-.548-.881,3.414,3.414,0,0,1-.2-1.217,2.914,2.914,0,0,1,.175-1.012,2.428,2.428,0,0,1,.5-.825,2.354,2.354,0,0,1,.795-.556A2.617,2.617,0,0,1,973.1,626.153Zm.026.907a1.17,1.17,0,0,0-.866.312,1.543,1.543,0,0,0-.4.887h2.378a1.568,1.568,0,0,0-.067-.464,1.067,1.067,0,0,0-.2-.381.978.978,0,0,0-.349-.259A1.186,1.186,0,0,0,973.126,627.06Z" transform="translate(-832.402 -623.878)" fill="#fff"/>
        <path id="Path_1883" data-name="Path 1883" d="M1018.552,626.153a2.884,2.884,0,0,1,1.068.19,2.314,2.314,0,0,1,.818.538,2.385,2.385,0,0,1,.523.851,3.518,3.518,0,0,1,0,2.25,2.432,2.432,0,0,1-.523.855,2.277,2.277,0,0,1-.818.544,3.116,3.116,0,0,1-2.14,0,2.293,2.293,0,0,1-.822-.544,2.433,2.433,0,0,1-.528-.855,3.479,3.479,0,0,1,0-2.25,2.386,2.386,0,0,1,.528-.851,2.331,2.331,0,0,1,.822-.538A2.908,2.908,0,0,1,1018.552,626.153Zm0,4.443a1.115,1.115,0,0,0,.971-.441,2.21,2.21,0,0,0,.315-1.291,2.236,2.236,0,0,0-.315-1.3,1.11,1.11,0,0,0-.971-.446,1.124,1.124,0,0,0-.984.449,2.225,2.225,0,0,0-.317,1.294,2.2,2.2,0,0,0,.317,1.289A1.13,1.13,0,0,0,1018.552,630.6Z" transform="translate(-862.127 -623.878)" fill="#fff"/>
        <path id="Path_1884" data-name="Path 1884" d="M1044.948,627.316v-4.3l-.456-.072a.481.481,0,0,1-.238-.1.268.268,0,0,1-.089-.215V622.1h.784v-.39a2.267,2.267,0,0,1,.136-.81,1.637,1.637,0,0,1,1.007-.994,2.375,2.375,0,0,1,.82-.134,2.247,2.247,0,0,1,.676.1l-.025.636a.185.185,0,0,1-.138.184,1.113,1.113,0,0,1-.3.036,1.518,1.518,0,0,0-.4.049.678.678,0,0,0-.3.169.769.769,0,0,0-.187.318,1.612,1.612,0,0,0-.064.49v.348h1.368v.9h-1.327v4.31Z" transform="translate(-880.615 -619.701)" fill="#fff"/>
        <path id="Path_1885" data-name="Path 1885" d="M1092.26,623.7a4.3,4.3,0,0,1-.1.951,3.882,3.882,0,0,1-.295.848,3.544,3.544,0,0,1-.469.726,3.343,3.343,0,0,1-.631.581l1.881,2.05h-1.138a1.382,1.382,0,0,1-.443-.067.863.863,0,0,1-.361-.246l-1.086-1.2a4.067,4.067,0,0,1-.536.108,4.419,4.419,0,0,1-.571.036,4.019,4.019,0,0,1-1.535-.284,3.478,3.478,0,0,1-1.188-.792,3.548,3.548,0,0,1-.766-1.2,4.322,4.322,0,0,1,0-3.018,3.552,3.552,0,0,1,.766-1.2,3.477,3.477,0,0,1,1.188-.792,4.012,4.012,0,0,1,1.535-.284,3.962,3.962,0,0,1,1.532.287,3.462,3.462,0,0,1,1.947,1.991A4.113,4.113,0,0,1,1092.26,623.7Zm-1.415,0a3.454,3.454,0,0,0-.161-1.095,2.324,2.324,0,0,0-.464-.822,2,2,0,0,0-.735-.517,2.757,2.757,0,0,0-1.955,0,2.013,2.013,0,0,0-.741.517,2.327,2.327,0,0,0-.469.822,3.734,3.734,0,0,0,0,2.188,2.293,2.293,0,0,0,.469.82,2.017,2.017,0,0,0,.741.515,2.755,2.755,0,0,0,1.955,0,2,2,0,0,0,.735-.515,2.29,2.29,0,0,0,.464-.82A3.45,3.45,0,0,0,1090.845,623.7Z" transform="translate(-907.202 -619.788)" fill="#fff"/>
        <path id="Path_1886" data-name="Path 1886" d="M1122.317,626.391v3.341a1.122,1.122,0,0,0,.224.746.826.826,0,0,0,.668.264,1.342,1.342,0,0,0,.615-.146,2.145,2.145,0,0,0,.543-.4v-3.8h1.266v5.258h-.774a.311.311,0,0,1-.323-.231l-.087-.42a3.594,3.594,0,0,1-.339.3,2.027,2.027,0,0,1-.8.38,2.117,2.117,0,0,1-.489.054,1.861,1.861,0,0,1-.761-.147,1.512,1.512,0,0,1-.556-.412,1.806,1.806,0,0,1-.341-.632,2.682,2.682,0,0,1-.115-.808v-3.341Z" transform="translate(-930.987 -624.034)" fill="#fff"/>
        <path id="Path_1887" data-name="Path 1887" d="M1153.772,631.464h-.569a.613.613,0,0,1-.282-.054.345.345,0,0,1-.154-.217l-.112-.374a4.395,4.395,0,0,1-.392.315,2.3,2.3,0,0,1-.4.228,2,2,0,0,1-.435.138,2.6,2.6,0,0,1-.513.047,2,2,0,0,1-.614-.09,1.328,1.328,0,0,1-.485-.27,1.224,1.224,0,0,1-.315-.448,1.578,1.578,0,0,1-.113-.622,1.234,1.234,0,0,1,.156-.589,1.482,1.482,0,0,1,.521-.524,3.32,3.32,0,0,1,.969-.388,6.2,6.2,0,0,1,1.5-.154v-.31a1.175,1.175,0,0,0-.222-.787.815.815,0,0,0-.649-.256,1.578,1.578,0,0,0-.512.072,2.009,2.009,0,0,0-.356.161c-.1.06-.194.114-.279.161a.566.566,0,0,1-.282.072.367.367,0,0,1-.221-.067.527.527,0,0,1-.149-.164l-.231-.4a3.126,3.126,0,0,1,2.188-.831,2.111,2.111,0,0,1,.823.151,1.745,1.745,0,0,1,.612.42,1.8,1.8,0,0,1,.382.643,2.474,2.474,0,0,1,.131.82Zm-2.46-.789a1.7,1.7,0,0,0,.359-.036,1.351,1.351,0,0,0,.31-.106,1.651,1.651,0,0,0,.282-.174,2.584,2.584,0,0,0,.274-.245v-.88a5.116,5.116,0,0,0-.925.069,2.439,2.439,0,0,0-.6.178.757.757,0,0,0-.32.253.634.634,0,0,0,.1.795A.852.852,0,0,0,1151.312,630.674Z" transform="translate(-949.553 -623.848)" fill="#fff"/>
        <path id="Path_1888" data-name="Path 1888" d="M1179.1,619.555v7.615h-1.266v-7.615Z" transform="translate(-968.189 -619.555)" fill="#fff"/>
        <path id="Path_1889" data-name="Path 1889" d="M1198.919,620.409a.727.727,0,0,1-.066.308.835.835,0,0,1-.436.422.788.788,0,0,1-.318.064.755.755,0,0,1-.31-.064.818.818,0,0,1-.254-.171.833.833,0,0,1-.172-.251.74.74,0,0,1-.064-.308.786.786,0,0,1,.064-.318.814.814,0,0,1,.172-.256.828.828,0,0,1,.254-.172.769.769,0,0,1,.31-.064.8.8,0,0,1,.318.064.858.858,0,0,1,.259.172.83.83,0,0,1,.177.256A.772.772,0,0,1,1198.919,620.409Zm-.189,1.533V627.2h-1.266v-5.258Z" transform="translate(-980.942 -619.584)" fill="#fff"/>
        <path id="Path_1890" data-name="Path 1890" d="M1218.3,628.674a1.383,1.383,0,0,1-1.051-.387,1.484,1.484,0,0,1-.369-1.068v-2.936h-.533a.243.243,0,0,1-.251-.267v-.5l.846-.138.266-1.435a.251.251,0,0,1,.095-.159.3.3,0,0,1,.187-.057h.656v1.655h1.384v.9h-1.384v2.849a.56.56,0,0,0,.123.385.417.417,0,0,0,.328.138.6.6,0,0,0,.2-.028,1.062,1.062,0,0,0,.139-.059c.039-.02.074-.04.105-.059a.174.174,0,0,1,.092-.028.144.144,0,0,1,.092.028.441.441,0,0,1,.077.085l.38.615a1.913,1.913,0,0,1-.636.349A2.368,2.368,0,0,1,1218.3,628.674Z" transform="translate(-993.258 -620.976)" fill="#fff"/>
        <path id="Path_1891" data-name="Path 1891" d="M1241.52,633.094a.5.5,0,0,1-.146.2.451.451,0,0,1-.274.069h-.943l.985-2.106-2.127-4.868h1.107a.347.347,0,0,1,.236.072.462.462,0,0,1,.123.164l1.122,2.726a2.308,2.308,0,0,1,.1.277c.027.1.052.191.072.287q.04-.149.09-.287c.032-.093.067-.187.1-.282l1.056-2.721a.371.371,0,0,1,.136-.169.362.362,0,0,1,.213-.066h1.015Z" transform="translate(-1008.27 -624.034)" fill="#fff"/>
      </g>
    </g>
    <g id="Icon" transform="translate(315.313 513.002)">
      <path id="Path_1892" data-name="Path 1892" d="M371.945,513H315.313l4.93,8.861,4.638,8.336H335.02l-1.887-3.394-2.75-4.942h36.632l-2.753,4.948-1.876,3.387h10.143l4.627-8.336L382.085,513Z" transform="translate(-315.313 -513.002)" fill="#fff"/>
      <path id="Path_1893" data-name="Path 1893" d="M378.459,574.3l-8.6,15.583-7.147-12.844-1.56-2.805,5.44.037v1.5l3.977-2.3,3.976-2.3-3.233-1.867-.742-.43-1.292-.746-2.685-1.55v1.55h-8.834l0,0H347.616v0h0l.008.01.02.035.272.49.154.278,1.744,3.133,2.76,4.96.065.115L364.789,599l1.809,3.252,3.262,5.86,3.26-5.86L374.929,599l13.67-24.7Z" transform="translate(-336.475 -548.108)" fill="#fff"/>
    </g>
  </g>
</svg>
