<svg xmlns="http://www.w3.org/2000/svg" width="600" height="430" viewBox="0 0 600 430">
  <g id="Img" transform="translate(0 0.003)">
    <path id="Path_646" data-name="Path 646" d="M816.26,353.565c-1.122-2.887.481-4.33,1.123-6.9s-1.443-10.584-1.443-10.584-6.735-27.743-8.82-33.2a10.023,10.023,0,0,0-4.715-4.96c-.13-.708-.318-1.164-.577-1.294a44.812,44.812,0,0,0-9.569-3.505,15.654,15.654,0,0,0-2.039-2.758,6.519,6.519,0,0,0,.727-3.376c-.2-3.026-2.488-5.737-2.19-8.754.226-2.288,1.9-4.168,2.545-6.375a7.5,7.5,0,0,0-.852-5.912l1.423,1.514a5.318,5.318,0,0,0-.4-6.425c-1.5-1.659-4.014-2.282-5.179-4.193-1.2-1.964-.555-4.632-1.687-6.633-2.774-4.9-9.876-1.428-14.129-3.139-1.748-.7-3.077-1.477-5.044-1.422a19.708,19.708,0,0,0-4.92.919,10.394,10.394,0,0,0-5.638,4.042,3.494,3.494,0,0,1,.44-.421c1.031-.808,2.839-.74,3.383.451a2,2,0,0,1,.159.951c-.089,1.436-1.344,2.508-2.59,3.227s-2.649,1.32-3.462,2.506c-1.343,1.958-.553,4.586-.553,6.96a10.09,10.09,0,0,1-3.824,7.835l4.525-1.85a34.2,34.2,0,0,0-4.179,12.255l6.118-5.055a26.9,26.9,0,0,0-4.018,11.943l4.911-5.032a2.485,2.485,0,0,1,.324,1.292l-.512,1.975a12.846,12.846,0,0,1-.6,1.147c-.79,1.357-1.607,3.027-.868,4.413l0,0c-.778,2.618-1.952,5.237-4.562,6.51a7.6,7.6,0,0,0,7.226-3.45,6.45,6.45,0,0,0,.768,1.164l.25.314-.722.481-1.934,1.289s-12.669,2.566-11.867,7.377c.033.2.072.434.117.7l-3.645,6.2-5.292,17.961s-2.726,5.773-2.245,8.179,0,3.368,0,7.7-2.085,6.094,0,9.622,8.339,13.791,8.339,13.791l1.374,1.03a6.42,6.42,0,0,0,.07,1.856c1.283,6.415,13.31,67.834,13.31,67.834s-6.094,48.591,6.254,51.638c1.549.382,3.07.729,4.547,1.038l1.868,12.273-1.123,15.555s-8.5,19.244,7.056,20.366,8.5-16.678,8.5-16.678a8.455,8.455,0,0,0,.962-4.971c-.159-1.428-1.494-8.856-2.8-16,5.9-.708,4.8-6.973,4.012-9.728a1.6,1.6,0,0,0,.716-.892c.178-.64-.236-3.156-.987-6.683-.611-3.506-1.656-9.181-2.369-13.025l3.837.625,16.2-94.936s.107-1.511.058-3.722a60.134,60.134,0,0,1,6.838-3.014c5.292-2.085,7.377-9.782,9.141-12.99S817.383,356.451,816.26,353.565Zm-57.508-60.446a3.429,3.429,0,0,1,1.774-.6c-.137.746-1.42.964-2.5,1.354a3.175,3.175,0,0,1,.722-.753ZM750.671,340.9c1.3,2.134-1.053,7.919-3.173,12.509-1.215-1.047-2.482-.717-1-3.689a15.088,15.088,0,0,0,1.764-6.094c0-.367.188-3.061,1.768-4.18A8.435,8.435,0,0,0,750.671,340.9ZM745.8,359.319c.735-.3,1.849-.759,3.352-1.27-.72.945-1.543,2.072-2.37,3.3a2.484,2.484,0,0,1-.982-2.031Zm52.014,2.1c-.975-1.036-1.763-1.962-2.411-2.792q1.814.477,3.694,1.028a4.4,4.4,0,0,0,1.869-.124c.056,1.109.056,2.69.056,2.69l-1.756,1.216A10.3,10.3,0,0,0,797.818,361.423Zm4.977-5.562-.058.052a10.621,10.621,0,0,0-.428-1.867c-1.051-3.315-1.612-9.2-1.911-14.214l3.034,10.205s.16,5.132-.636,5.824Z" transform="translate(-349.211 -158.168)" fill="#d0cde1"/>
    <path id="Path_647" data-name="Path 647" d="M686.052,301.691s-16.452-28.277-16.966-31.362-8.74-8.74-8.74-8.74c-2.811-2.811-7.422-3.7-12.275-3.654,1.828-1.512-4.7-2.528-5.206-3.544s-2.057-1.028-4.113-2.571-7.19-.257-7.19-.257a18.956,18.956,0,0,1-1.595-5.124,14.335,14.335,0,0,0,3.387-9.272c0-.037,0-.073,0-.11.131.2.262.409.393.62.963-5.769,2.663-10.565-.577-15.827a17.745,17.745,0,0,0-10.094-7.717l-3.086,2.469,1.2-2.88a16.336,16.336,0,0,0-3.05-.176l-2.777,3.57,1.149-3.448a17.576,17.576,0,0,0-12.125,7.212,15.574,15.574,0,0,0,.178,17.316c.012-.036.021-.071.032-.107a14.392,14.392,0,0,0,7.356,11.653l.873,6.985h0a4.788,4.788,0,0,1-2.863,1.263c-1.542,0-3.085,4.113-3.085,4.113s-.874.441-1.816,2.524c-2.427,1.652-9.831,6.843-12.577,10.47-1.625.8-3.37,2.578-3.087,6.544.514,7.2,0,40.617,0,40.617s-4.627,28.277-3.085,30.334-.514,8.74-.514,8.74l1.542.343v1.714s-4.639,21.506,2.571,20.565c11.825-1.542,3.085-19.023,3.085-19.023v-2l2.057.457s1.028-7.2,3.085-7.712c.715-.179,1.555-2.1,2.346-4.53.461,3.789.739,6.072.739,6.072l3.217-.715.9,3.286a4.424,4.424,0,0,0,.691.313l-.691,3.8a26.669,26.669,0,0,0,0,6.684c.259,1.3,9.8,29.008,19.2,56.161l-.177,6.564s-4.627,5.141-3.6,8.74-2.571,33.419-2.571,33.419l-3.085,14.91.776.239-.713,2.613a5.187,5.187,0,0,0-1.606,1.262c-4.113,4.627-9.254,17.995-9.254,17.995s-9.255,13.882,5.141,13.368S624.87,520.2,624.87,520.2s2.057-13.368,2.057-13.882-1.028-5.8-1.028-5.8l-.4-.44.279-6.414,2.691.828s2.571-13.368,4.627-14.91c.719-.539,2.631-6.544,4.814-14.257,2.232,6.426,4.393,28.644,5.094,30.661a7.322,7.322,0,0,0-.654,1.077,124.916,124.916,0,0,1-7.712,12.853s-16.453,9.769,0,12.339c0,0,9.255.514,13.882-2.571s16.966-7.712,16.966-8.74-3.085-16.144-6.169-14.5h0l-2.067-4.753,2.067-.8L646.3,432.467a29.477,29.477,0,0,0,.677-3.784c0-2.692,6.657-55.118,8.351-68.415,7.456,2.112,14.271-13.332,14.271-13.332l1.69-3.042,2.423,1.5s2.057-5.141,5.141-5.656,8.74-27.763,8.74-31.362a16.734,16.734,0,0,0-1.543-6.684ZM662.1,341.973a13.849,13.849,0,0,0-1.752-2.236,63.677,63.677,0,0,0,3.085-10.8c1.028-5.656-1.542-24.164-1.542-24.164l-.045-1.257c2.523,3.313,5.7,7.729,5.7,8.969a3.856,3.856,0,0,0,1.542,3.085L666,326.369a63.921,63.921,0,0,0-2.571,7.712,26.261,26.261,0,0,0-.514,4.627l.729.451Z" transform="translate(-294.711 -146.148)" fill="#d0cde1"/>
    <path id="Path_648" data-name="Path 648" d="M317.052,318.836l2.743-.617-11.311-31.876-24.421-9s-.094.1-.266.283a12.939,12.939,0,0,1-3.337-7.244,14.391,14.391,0,0,0,6.71-21.136c2.012-.483,2.731-2.309,3.406-4.486a9,9,0,0,0-1.276-.278l.949-2.129-1.669-.15.427-1.99-2.128,1.469a4.347,4.347,0,0,0-.725-4.15,8.3,8.3,0,0,0-3.559-2.509,15.878,15.878,0,0,0-16.293,2.848l-.154-.6a20.679,20.679,0,0,0-7.9,13.686c-.681,5.365,1.9,10.828,5.247,15.074-.028-.185-.058-.37-.089-.555q.217.3.449.587l.412,15.649-1.031.884s-17.3,7.829-17.979,17.179l0,.007c-1.039,4.552-1.553,28.2-1.553,28.2h1.424l-1.424,9.254-9.254,35.99s-11.825,15.424-1.542,18.509c6.39,1.917,8.213-5.5,8.678-11.385.37,1.46,1.477,2.446,3.662,2.645.172.016.355.029.533.043-4.862,12.565-1.561,53.427-1.561,53.427-2.571,5.141,27.763,40.617,27.763,40.617l1.827-.974.4.79c-1.017.1-1.708.184-1.708.184v15.938s-4.627,15.938,1.542,19.023c1.6.8,3.262.218,4.853-1.079-.3,4.918-.74,12.258-.74,13.932,0,2.571,6.684,7.2,6.684,7.2s1.542,5.655,13.882,5.655,3.085-14.91,3.085-14.91l-6.684-14.91s-.5.245-2.013-.987l.542-5.962,3.014.266,4.113-60.154s3.6-53.47,4.113-61.7a57.263,57.263,0,0,0-.186-7.909l15.1-31.166Zm-11.138,19.948-1.542,5.375V332.272Zm-64.186,38.128c.013-1.884-.081-3.166-.081-3.166l10.051-20.1-.283,6.221S243.365,370.047,241.727,376.912Zm23.57,58.016,9.769-34.447,5.655,41.645-.405,15.14a24.136,24.136,0,0,1-1.651-4.343C277.122,446.753,265.3,434.928,265.3,434.928Z" transform="translate(-160.902 -153.778)" fill="#d0cde1"/>
    <path id="Path_649" data-name="Path 649" d="M425.029,511.145c-4.817-1.984-14.168-6.234-15.3-8.5s-6.8-19.836-6.8-19.836l-1.459.106c-.188-7.981-.992-38.914-2.224-42.611,0,0,5.951-49.023-5.951-68.575l-2.144-8.663c.7-3.473.613-11.515.161-12.873-.567-1.7,6.517-7.084,4.534-10.485s-7.368-15.019-7.368-15.019.567-7.368-7.084-14.168c0,0-2.236-12.658-12.311-12.846-1.362-2.377-3.269-6.157-2.708-7.84.6-1.8,2.9-7.419,4.194-10.563a13.585,13.585,0,0,0,1.978-1.1c8.013-3.59,13.661-12.221,13.661-22.3,0-10.793-6.471-19.926-15.388-22.989a7.647,7.647,0,1,0-14.8-2.744,7.643,7.643,0,0,1,8.529-10.465,7.644,7.644,0,0,0-8.19,12.764,7.585,7.585,0,0,0,.312.822c-8.391,3.386-14.376,12.232-14.376,22.612,0,9.629,5.151,17.934,12.594,21.789-.04,3.132-.816,8.413-5.136,11.631-2.231-1.02-5.328-2.139-7.315-1.631-1.027-.8-2.578-1.065-4.688,1.044-4.251,4.251-7.934,15.3-7.934,22.1s.85,46.189.85,46.189-4.534,1.7-1.417,4.25a3.675,3.675,0,0,0,2.289.851l3.095,22.952s-1.984,22.1,5.667,22.386a3.028,3.028,0,0,0,1.713-.42l-5.68,25.64a85.392,85.392,0,0,0-23.236,25.22,134.5,134.5,0,0,0-9.182,17.027l-1.869-1.159-6.517,12.468s-14.452,8.784-11.335,15.3,5.951,8.218,5.951,8.218l1.984-.85,3.684,6.8s9.635,13.885,25.22,6.8a5.7,5.7,0,0,0,0-6.8c-2.55-3.684-9.068-11.618-9.068-11.618l4.251-21.536-.88-.545,26.95-32.609s7.934-4.817,10.768-9.068,20.4-48.173,20.4-48.173l9.918,45.906s-.567,16.719,1.984,27.487a116.68,116.68,0,0,1,2.711,18.366l-.727.053,1.7,12.752s-7.368,18.136-2.267,19.552a74.741,74.741,0,0,0,11.051,1.984l.567-1.984s21.819,11.9,29.754,3.117C428.146,519.362,429.846,513.128,425.029,511.145ZM347.386,372.01c.85.85.567,4.817.567,4.817l-1.7,11.051-1.7,7.665a82.341,82.341,0,0,0-1.419-10.782l-.784-21.179a1.636,1.636,0,0,0,.5.209c.567,0,.283-4.817.283-4.817s.331-.86.743-2.218c1.1,3.3,2.447,5.45,4.074,5.9l.283,3.684s-3.684,1.7-.283,1.7a2.679,2.679,0,0,0,.584-.087l-.3,1.5S346.536,371.16,347.386,372.01Z" transform="translate(-181.573 -148.166)" fill="#d0cde1"/>
    <ellipse id="Ellipse_42" data-name="Ellipse 42" cx="227.788" cy="3.755" rx="227.788" ry="3.755" transform="translate(10.894 368.67)" fill="#3f3d56"/>
    <ellipse id="Ellipse_43" data-name="Ellipse 43" cx="250.41" cy="9.7" rx="250.41" ry="9.7" transform="translate(67.842 372.424)" fill="#3f3d56"/>
    <ellipse id="Ellipse_44" data-name="Ellipse 44" cx="122.968" cy="9.7" rx="122.968" ry="9.7" transform="translate(149.063 386.818)" fill="#3f3d56"/>
    <ellipse id="Ellipse_45" data-name="Ellipse 45" cx="54.757" cy="5.006" rx="54.757" ry="5.006" transform="translate(394.88 403.088)" fill="#3f3d56"/>
    <ellipse id="Ellipse_46" data-name="Ellipse 46" cx="25.97" cy="5.006" rx="25.97" ry="5.006" transform="translate(348.624 419.985)" fill="#3f3d56"/>
    <ellipse id="Ellipse_47" data-name="Ellipse 47" cx="25.97" cy="5.006" rx="25.97" ry="5.006" transform="translate(137.227 398.708)" fill="#3f3d56"/>
    <path id="Path_650" data-name="Path 650" d="M465.909,552.332l2.5,17.522,12.516-1.251-1.252-18.148Z" transform="translate(-174.502 -205.253)" fill="#ffb8b8"/>
    <path id="Path_651" data-name="Path 651" d="M361.928,552.332l-2.5,17.522L346.909,568.6l1.252-18.148Z" transform="translate(-129.931 -205.253)" fill="#ffb8b8"/>
    <path id="Path_652" data-name="Path 652" d="M456.812,370.233s-11.264,13.142-8.761,33.793,6.884,67.586,6.884,67.586l3.129,83.231,20.025-1.252,3.129-70.715,10.013-56.947,26.909,66.334s13.142,61.953,13.767,61.953,18.774-1.877,18.774-1.877l-8.761-73.218s-13.768-106.385-21.9-108.262S456.812,370.233,456.812,370.233Z" transform="translate(-242.976 -204.873)" fill="#2f2e41"/>
    <path id="Path_653" data-name="Path 653" d="M601.643,680.687s-11.264-7.51-15.645,1.252-.626,15.019-.626,15.019,3.755,2.5,1.877,5.006-2.5,18.774,13.767,16.271,8.135-19.4,8.135-19.4Z" transform="translate(-293.968 -319.839)" fill="#2f2e41"/>
    <path id="Path_654" data-name="Path 654" d="M459.561,680.687s11.264-7.51,15.645,1.252.626,15.019.626,15.019-3.755,2.5-1.877,5.006,2.5,18.774-13.767,16.271-8.135-19.4-8.135-19.4Z" transform="translate(-243.832 -319.839)" fill="#2f2e41"/>
    <path id="Path_655" data-name="Path 655" d="M486.768,174.107s5.632,15.645,1.252,24.406,6.884,18.774,6.884,18.774,29.412-15.019,25.657-22.529-10.013-17.522-8.761-23.78Z" transform="translate(-257.598 -130.956)" fill="#ffb8b8"/>
    <circle id="Ellipse_48" data-name="Ellipse 48" cx="20.025" cy="20.025" r="20.025" transform="translate(220.1 9.045)" fill="#ffb8b8"/>
    <path id="Path_656" data-name="Path 656" d="M476.029,209.309s20.093,16.72,35.078-6.972l15.611,8.849,8.135,95.12s-45.683,26.283-67.586,3.755l3.129-88.237Z" transform="translate(-250.302 -142.691)" fill="#d0cde1"/>
    <path id="Path_657" data-name="Path 657" d="M352.251,91.488l-28.213,18.753,10.013,46.309-13.142,71.966L342.186,196.6Z" transform="translate(-120.197 -34.237)" fill="#575a89"/>
    <path id="Path_658" data-name="Path 658" d="M526.641,190.169l6.929,4.574,28.161,10.013-4.38,77.6,11.89,50.063-16.9,8.761s-3.129-23.78-22.529-35.67S522.215,193.731,526.641,190.169Z" transform="translate(-269.684 -138.138)" fill="#575a89"/>
    <path id="Path_659" data-name="Path 659" d="M451.777,384.478l8.135,5.632s-10.326,10.951-12.2,9.074a5.131,5.131,0,0,1-1.564-4.068l-1.877-4.381Z" transform="translate(-241.676 -210.542)" fill="#ffb8b8"/>
    <path id="Path_660" data-name="Path 660" d="M537.123,382.532l-2.766,4.346s-8.135,3.755-6.258,6.258,17.522,8.135,20.651,2.5l3.129-5.632Z" transform="translate(-272.971 -209.816)" fill="#ffb8b8"/>
    <path id="Path_661" data-name="Path 661" d="M444.649,227.478l-4.381.626-7.2,46.622s-2.816,8.448.313,28.474,6.227,33.065,6.227,33.065l13.8-9.911-6.258-16.271,8.135-59.45Z" transform="translate(-237.048 -151.926)" fill="#575a89"/>
    <path id="Path_662" data-name="Path 662" d="M559.293,211.478l10.013,1.252s11.264,11.89,13.142,24.406,1.252,48.186,1.252,48.186L554.913,331,539.268,319.74l21.9-38.8-10.638-46.309Z" transform="translate(-277.265 -145.957)" fill="#575a89"/>
    <path id="Path_663" data-name="Path 663" d="M509.746,117.981a23.4,23.4,0,0,0-13.308-10.173l-4.069,3.255,1.582-3.8a21.536,21.536,0,0,0-4.021-.232l-3.661,4.707,1.515-4.546A23.171,23.171,0,0,0,471.8,116.7c-4.659,6.718-5.445,16.061-.863,22.832,1.258-3.866,2.785-7.493,4.043-11.359a11.444,11.444,0,0,0,2.981.015l1.531-3.571.427,3.42c4.744-.413,11.78-1.321,16.277-2.152l-.437-2.624,2.616,2.18c1.378-.317,2.2-.6,2.128-.825,3.345,5.392,6.659,8.836,10,14.228C511.776,131.241,514.017,124.919,509.746,117.981Z" transform="translate(-250.524 -107.022)" fill="#2f2e41"/>
    <ellipse id="Ellipse_49" data-name="Ellipse 49" cx="1.356" cy="2.711" rx="1.356" ry="2.711" transform="translate(256.745 25.73)" fill="#ffb8b8"/>
    <path id="Path_664" data-name="Path 664" d="M847.77,691.685c.577,19.749-10.962,26.986-25.444,27.409q-.5.015-1,.018-1.007.008-2-.034c-13.1-.544-23.464-7.5-24-25.862-.555-19.007,23.037-43.7,24.807-45.53l0,0,.1-.1S847.193,671.937,847.77,691.685Z" transform="translate(-373.173 -308.572)" fill="#ff9f26"/>
    <path id="Path_665" data-name="Path 665" d="M829.918,716.1l9.2-13.68-9.18,15.151.019,1.539q-1.007.008-2-.034l.456-19.787-.012-.153.017-.03.044-1.87-10.074-14.626,10.062,13.227.036.4.345-14.95-8.7-15.164,8.726,12.538-.091-30.972v-.1l0,.1.577,24.41,7.93-9.916-7.9,12.018.173,13.372,7.3-13.051-7.271,15.017.1,7.436,10.612-18.18L829.7,699.568Z" transform="translate(-381.803 -308.574)" fill="#3f3d56"/>
    <path id="Path_666" data-name="Path 666" d="M311.77,644.685c.577,19.749-10.962,26.986-25.444,27.409q-.5.015-1,.018-1.007.008-2-.034c-13.1-.544-23.464-7.5-24-25.862-.555-19.007,23.037-43.7,24.807-45.53l0,0,.1-.1S311.193,624.938,311.77,644.685Z" transform="translate(-172.358 -290.984)" fill="#ff9f26"/>
    <path id="Path_667" data-name="Path 667" d="M293.918,669.1l9.2-13.68-9.18,15.152.019,1.539q-1.007.008-2-.033l.456-19.787-.012-.153.017-.03.044-1.87-10.074-14.626,10.062,13.227.036.4.345-14.95-8.7-15.164,8.726,12.538-.091-30.972v-.1l0,.1.578,24.41,7.93-9.915-7.9,12.018.173,13.372,7.3-13.051-7.271,15.017.1,7.436,10.612-18.18L293.7,652.568Z" transform="translate(-181.047 -290.986)" fill="#3f3d56"/>
    <path id="Path_668" data-name="Path 668" d="M725.243,747.068c.339,11.592-6.435,15.84-14.935,16.089q-.3.009-.59.011-.592,0-1.171-.02c-7.688-.319-13.773-4.4-14.088-15.18-.326-11.157,13.522-25.653,14.561-26.725h0l.06-.061S724.9,735.477,725.243,747.068Z" transform="translate(-335.386 -336.113)" fill="#ff9f26"/>
    <path id="Path_669" data-name="Path 669" d="M714.764,761.4l5.4-8.03-5.389,8.894.011.9q-.591,0-1.171-.02l.268-11.614-.007-.09.01-.017.026-1.1L708,741.745l5.906,7.764.021.232.2-8.775-5.107-8.9,5.122,7.359-.054-18.18v-.06l0,.059.339,14.328,4.655-5.82-4.64,7.055.1,7.849,4.283-7.661-4.268,8.815.056,4.365,6.229-10.671-6.21,12.194Z" transform="translate(-340.453 -336.114)" fill="#3f3d56"/>
    <path id="Path_670" data-name="Path 670" d="M1079.553,158.106c.018-.057.037-.115.055-.172-.008.025-.018.049-.025.074Z" transform="translate(-479.608 -126.075)" fill="#2f2e41"/>
    <path id="Path_671" data-name="Path 671" d="M905.08,483.089l46.351-69.069-46.256,76.5.1,7.772q-5.076.039-10.053-.169l2.3-99.9-.063-.771.085-.149.22-9.44L847,314.011l50.7,66.782.18,2,1.737-75.481-43.843-76.563,43.968,63.3-.459-156.378v-.52l.015.512,2.911,123.247,39.957-50.063-39.827,60.68.872,67.516,36.769-65.893-36.634,75.819.485,37.542L957.3,294.721l-53.31,104.885Z" transform="translate(-392.585 -118.297)" fill="#3f3d56"/>
    <path id="Path_672" data-name="Path 672" d="M159.881,544.082l31.541-46.9-31.476,51.95.066,5.278q-3.454.026-6.841-.115l1.564-67.844-.043-.523.058-.1.15-6.411-34.541-50.149,34.5,45.351.122,1.355,1.182-51.259-29.834-51.993,29.919,42.988-.312-106.195v-.353l.01.348,1.98,83.7,27.19-34-27.1,41.207.593,45.85,25.02-44.747L158.7,453l.33,25.495,36.386-62.333L159.142,487.39Z" transform="translate(-120.359 -181.931)" fill="#3f3d56"/>
  </g>
</svg>
