<svg id="Img" xmlns="http://www.w3.org/2000/svg" width="159.66" height="120" viewBox="0 0 159.66 120">
  <circle id="Ellipse_164" data-name="Ellipse 164" cx="3.827" cy="3.827" r="3.827" transform="translate(130.919 38.483)" fill="#ff9f26" opacity="0.4"/>
  <circle id="Ellipse_165" data-name="Ellipse 165" cx="5.455" cy="5.455" r="5.455" transform="translate(48.637 14.185)" fill="#ff9f26" opacity="0.4"/>
  <circle id="Ellipse_166" data-name="Ellipse 166" cx="3.827" cy="3.827" r="3.827" transform="translate(40.172 18.413)" fill="#ff9f26" opacity="0.4"/>
  <path id="Path_1197" data-name="Path 1197" d="M918.233,575.533a13.91,13.91,0,0,0-3.133,8.132,11.976,11.976,0,0,0,10.95-11.988A13.911,13.911,0,0,0,918.233,575.533Z" transform="translate(-780.283 -490.445)" fill="#3f3d56"/>
  <path id="Path_1198" data-name="Path 1198" d="M912.481,558.583a13.912,13.912,0,0,1-4.761,7.3,11.976,11.976,0,0,1,3.313-15.894A13.911,13.911,0,0,1,912.481,558.583Z" transform="translate(-772.823 -472.542)" fill="#ff9f26"/>
  <path id="Path_1199" data-name="Path 1199" d="M273.411,233.581V285.9l-17.44,14.407H166.746V245.461l26.034-11.88Z" transform="translate(-137.68 -192.837)" fill="#3f3d56"/>
  <path id="Path_1200" data-name="Path 1200" d="M273.411,233.581v.21l-6.261,4.191-11.18,7.479H166.746l26.034-11.88Z" transform="translate(-137.68 -192.816)" opacity="0.1"/>
  <path id="Path_1201" data-name="Path 1201" d="M695.284,233.581V285.9l-17.44,14.407.126-54.975,11.053-7.353,6.16-4.4Z" transform="translate(-559.552 -192.837)" opacity="0.1"/>
  <path id="Path_1202" data-name="Path 1202" d="M386.147,264.089H331.8l4.044-2.275h52.069Z" transform="translate(-273.903 -216.121)" fill="#2f2e41"/>
  <path id="Path_1203" data-name="Path 1203" d="M1005.9,738.332s1.054,4.406.1,4.6-5.651.13-6.8.321-3.544-.13-3.544-.992,2.49-1.437,2.49-1.437,3.544-1.915,3.639-2.011S1005.9,738.332,1005.9,738.332Z" transform="translate(-846.771 -628.013)" fill="#2f2e41"/>
  <path id="Path_1204" data-name="Path 1204" d="M1024.056,587.393s-.287,3.256-.287,3.544.287,4.789,0,4.98.192,1.532.192,2.011,1.532,8.428,1.149,11.493.575,2.777.287,3.065-.287.287-.287.862-3.065,1.054-3.065,1.054l-3.352-21.166,1.724-6.321Z" transform="translate(-865.791 -503.029)" fill="#575a89"/>
  <path id="Path_1205" data-name="Path 1205" d="M1024.056,587.393s-.287,3.256-.287,3.544.287,4.789,0,4.98.192,1.532.192,2.011,1.532,8.428,1.149,11.493.575,2.777.287,3.065-.287.287-.287.862-3.065,1.054-3.065,1.054l-3.352-21.166,1.724-6.321Z" transform="translate(-865.791 -503.029)" opacity="0.1"/>
  <path id="Path_1206" data-name="Path 1206" d="M997.765,743.7s.958,3.448,0,3.639-5.651-.219-6.8-.028-3.544.219-3.544-.643,2.49-1.437,2.49-1.437,3.544-1.916,3.639-2.011S997.765,743.7,997.765,743.7Z" transform="translate(-839.979 -632.038)" fill="#2f2e41"/>
  <path id="Path_1207" data-name="Path 1207" d="M1009.538,567.713s1.149,2.777-.192,4.214a19.472,19.472,0,0,0-2.873,4.5c0,.192,2.682,19.251,2.3,20.5a3.74,3.74,0,0,0-.192,2.2c.1.192-.958,1.245-2.107,1.245s-2.873-.862-3.065-1.628.287-7.375.192-8.62a14.435,14.435,0,0,0-.766-3.448c-.192-.383-1.245-.766-1.437-1.915s-1.724-15.8-1.245-16.282S1009.538,567.713,1009.538,567.713Z" transform="translate(-850.411 -487.179)" fill="#575a89"/>
  <circle id="Ellipse_167" data-name="Ellipse 167" cx="3.256" cy="3.256" r="3.256" transform="translate(148.592 52.01)" fill="#ffb9b9"/>
  <path id="Path_1208" data-name="Path 1208" d="M1003.341,430.1s-.67,3.544-.192,3.927-3.639.958-3.639.958-.479-4.693-.575-5.172S1003.341,430.1,1003.341,430.1Z" transform="translate(-849.481 -373.208)" fill="#ffb9b9"/>
  <path id="Path_1209" data-name="Path 1209" d="M990.32,446.4s1.149-3.352,5.842-2.394c0,0,.862.287.575.575s-.575.287-.192.575.862,0,.575.287,2.586,2.011,2.394,5.268.671,7.854,0,8.62.479,4.118.287,4.789,1.149,1.532.575,1.82-10.918,2.011-11.206,0-.1-.575-.383-1.054a3.677,3.677,0,0,1-.192-2.394,19.254,19.254,0,0,0,.479-4.6c-.192-.958,0-9,.575-9.961A4.969,4.969,0,0,0,990.32,446.4Z" transform="translate(-840.866 -384.916)" fill="#ff9f26"/>
  <path id="Path_1210" data-name="Path 1210" d="M1000.5,591.495s1.437,5.459-.383,5.459-1.724-5.651-1.724-5.651Z" transform="translate(-849.031 -506.643)" fill="#ffb9b9"/>
  <path id="Path_1211" data-name="Path 1211" d="M1004.428,401.536c0,.278.4.454,1.026.494h0a5.221,5.221,0,0,0,.793-.015c.4-.036.563.338.631.832.111.815-.044,1.958.135,2.137a3.372,3.372,0,0,0,2.612-.561.521.521,0,0,0,.166-.3,1.6,1.6,0,0,1,.481-.894c.332-.363.805-.765,1.339-1.4.958-1.149,0-1.245-.287-2.107s-.766-1.149-.766-1.724-2.2-1.054-4.023-.958-1.437,2.394-1.437,2.394-.108.278-.238.636a10,10,0,0,0-.425,1.381A.716.716,0,0,0,1004.428,401.536Z" transform="translate(-854.017 -346.27)" fill="#2f2e41"/>
  <path id="Path_1212" data-name="Path 1212" d="M1000.048,466.762s3.256-.192,3.544,4.6.192,9.29.192,9.386-1.341,9.194-2.586,9.194-2.2-.192-2.49-.671.766-7.375.766-7.375.479-7.279-.287-9.577S998.324,467.05,1000.048,466.762Z" transform="translate(-849.254 -403.84)" opacity="0.1"/>
  <path id="Path_1213" data-name="Path 1213" d="M997.305,464.019s3.256-.192,3.544,4.6.192,9.29.192,9.386-1.341,9.194-2.586,9.194-2.2-.192-2.49-.67.766-7.375.766-7.375.479-7.279-.287-9.577S995.581,464.307,997.305,464.019Z" transform="translate(-846.99 -401.576)" fill="#ff9f26"/>
  <path id="Path_1214" data-name="Path 1214" d="M681.887,181.649s-1.419-4.021-2.444-2.759,1.577,3.39,1.577,3.39Z" transform="translate(-585.55 -166)" fill="#a0616a"/>
  <path id="Path_1215" data-name="Path 1215" d="M694.565,173.273l-.854.316a7.864,7.864,0,0,0-.25,2.128c.158.315.237.079,0,.71s-.946,2.286-1.025,2.523-4.573-1.5-4.573-2.365a8.026,8.026,0,0,1-1.419,1.34s5.2,3.784,5.913,4.257,1.1.237,1.734-.315a53.4,53.4,0,0,0,3.311-5.125Z" transform="translate(-591.529 -161.566)" fill="#575a89"/>
  <path id="Path_1216" data-name="Path 1216" d="M681.46,331.2s.079.867.237.946,1.34,2.05,0,2.444-2.129.237-2.444.394-5.834.473-5.913-.394,2.681-1.025,2.681-1.025,2.523-1.656,2.917-2.523S681.46,331.2,681.46,331.2Z" transform="translate(-580.709 -291.519)" fill="#2f2e41"/>
  <path id="Path_1217" data-name="Path 1217" d="M785.861,342.628s1.892,3.232,1.419,3.627a32.322,32.322,0,0,1-5.755,1.892c-.867.079-1.5-.631-.788-1.025s2.208-2.05,2.208-2.6V343.1Z" transform="translate(-669.111 -301.368)" fill="#2f2e41"/>
  <path id="Path_1218" data-name="Path 1218" d="M723.516,221.6s1.656,2.05-.946,5.361l-4.336,5.519s2.68,4.257,2.759,6.465.631,1.734.788,2.681.867.473.315,1.183-2.6,1.34-3.232.788a1.955,1.955,0,0,1-.631-1.577c0-.315-1.1-2.129-1.183-2.681a53.487,53.487,0,0,0-3-5.046s-.946-2.681.158-4.179a15.834,15.834,0,0,0,1.833-3.622s-3.252,3.938-5.538,4.884c0,0-.867.158-.71.552s0,.631-.237,1.025-1.892,4.967-2.444,6.15-.315,1.892-.946,2.286-3.469.079-3.469-.315a8.035,8.035,0,0,1,.631-1.971c.236-.552,2.129-6.938,1.971-8.042a3.091,3.091,0,0,1,1.261-3.232c1.183-.631,7.174-5.755,7.49-5.755S723.516,221.6,723.516,221.6Z" transform="translate(-604.951 -201.46)" fill="#2f2e41"/>
  <circle id="Ellipse_168" data-name="Ellipse 168" cx="3.311" cy="3.311" r="3.311" transform="translate(99.409 1.142)" fill="#a0616a"/>
  <path id="Path_1219" data-name="Path 1219" d="M731.289,133.531s1.025,1.813,2.286,2.05-3.311,3.863-3.311,3.863-1.1-3.469-2.05-3.627S731.289,133.531,731.289,133.531Z" transform="translate(-625.889 -128.762)" fill="#a0616a"/>
  <path id="Path_1220" data-name="Path 1220" d="M727.992,148.6c0,1.025,3.075,3.942,3.075,3.942l2.917,2.444s.079.867.394.946.71.079.394.552-1.1,1.5-.394,1.656a5.8,5.8,0,0,0,.646.061c.189.011.412.021.661.031.583.02,1.313.034,2.1.028q.337,0,.686-.008c2.981-.059,6.434-.4,6.152-1.532-.473-1.892-.158-2.523-1.183-3.548a24.664,24.664,0,0,1-2.681-4.573s-3.311-5.6-6.071-5.6l-.573-.151a1.313,1.313,0,0,0-1.432.55,14.518,14.518,0,0,1-1.936,2.517c-.788.631-.911.178-.911.178S727.992,147.574,727.992,148.6Z" transform="translate(-625.827 -136.419)" fill="#575a89"/>
  <path id="Path_1221" data-name="Path 1221" d="M761.89,244.628s-2.286,3.548-.867,4.179,2.208-3.706,2.208-3.706Z" transform="translate(-652.707 -220.471)" fill="#a0616a"/>
  <path id="Path_1222" data-name="Path 1222" d="M716.51,110.292c-.127-.016-.167-.176-.189-.3a1.7,1.7,0,0,0-1.3-1.427,1.835,1.835,0,0,0-.772.062,2.93,2.93,0,0,0-.991.488,1.634,1.634,0,0,1-.495.311c-.124.036-.652.271-.775.311-.271.087-.5.371-.774.315s-.368-.376-.411-.645a3.391,3.391,0,0,1,.6-2.04,2.164,2.164,0,0,1,1.16-.76,8.337,8.337,0,0,1,1.609-.32,5.2,5.2,0,0,1,2.205.095,2.105,2.105,0,0,1,1.48,1.514c.027.152.033.308.066.459a6.812,6.812,0,0,0,.467,1.026,1.976,1.976,0,0,1-.06,1.6c-.2.4-.538.775-.465,1.211l-.608-.48a.442.442,0,0,1-.2-.517l.088-.762a.67.67,0,0,0-.039-.412C716.84,109.547,716.722,110.319,716.51,110.292Z" transform="translate(-611.626 -106.213)" fill="#2f2e41"/>
  <path id="Path_1223" data-name="Path 1223" d="M764.219,160.906l-.743,3.088c.749.027,1.74.041,2.79.02.265-.795.518-1.623.712-2.4.71-2.838-.473-7.174-1.1-9.224a3.957,3.957,0,0,0-2.208-2.6,7.188,7.188,0,0,0-1.813.946C760.829,151.445,764.219,160.906,764.219,160.906Z" transform="translate(-653.617 -142.182)" opacity="0.1"/>
  <path id="Path_1224" data-name="Path 1224" d="M767.327,168.225l-.773,3.215c.189.011.412.021.661.031.583.021,1.313.034,2.1.028.285-.844.56-1.735.767-2.565.71-2.838-.473-7.174-1.1-9.224s-2.01.2-2.01.2.552-1.34-.473-.631S767.327,168.225,767.327,168.225Z" transform="translate(-657.356 -149.659)" opacity="0.1"/>
  <path id="Path_1225" data-name="Path 1225" d="M761.861,148.886a3.957,3.957,0,0,1,2.208,2.6c.631,2.05,1.813,6.386,1.1,9.224a53.157,53.157,0,0,1-2.208,6.386s-1.5-1.1-2.05-.867l1.5-6.228s-3.39-9.461-2.365-10.17A7.188,7.188,0,0,1,761.861,148.886Z" transform="translate(-652.126 -141.436)" fill="#575a89"/>
  <path id="Path_1226" data-name="Path 1226" d="M359.9,54.282,338.092,8.828,301.62,26.33l13.414,27.952Z" transform="translate(-248.987 -7.287)" fill="#f2f2f2"/>
  <rect id="Rectangle_155" data-name="Rectangle 155" width="21.487" height="1.334" transform="translate(62.356 28.674) rotate(-25.635)" fill="#3f3d56"/>
  <rect id="Rectangle_156" data-name="Rectangle 156" width="21.487" height="1.334" transform="translate(67.483 39.358) rotate(-25.635)" fill="#3f3d56"/>
  <rect id="Rectangle_157" data-name="Rectangle 157" width="5.335" height="5.335" transform="translate(85.565 15.403) rotate(-25.635)" fill="#3f3d56"/>
  <rect id="Rectangle_158" data-name="Rectangle 158" width="5.335" height="5.335" transform="translate(90.692 26.084) rotate(-25.635)" fill="#3f3d56"/>
  <path id="Path_1227" data-name="Path 1227" d="M496,55.924,494.02,61.56l-2.67-.939-.365,1.04,3.706,1.3,2.349-6.674Z" transform="translate(-405.295 -46.161)" fill="#57b894"/>
  <path id="Path_1228" data-name="Path 1228" d="M525.38,117.146l-1.981,5.636-2.67-.938-.365,1.039,3.706,1.3,2.35-6.674Z" transform="translate(-429.547 -96.701)" fill="#57b894"/>
  <g id="woman" transform="translate(0 51.941)">
    <rect id="Rectangle_159" data-name="Rectangle 159" width="10.077" height="10.077" transform="translate(11.96 45.231) rotate(167.942)" fill="#f2f2f2"/>
    <path id="right_hand" data-name="right hand" d="M196.956,591.492s-3.62,2.586-2.413,3.62,3.62-3.1,3.62-3.1Z" transform="translate(-185.27 -558.748)" fill="#ffb9b9"/>
    <path id="left_leg" data-name="left leg" d="M278.538,612.943s-.689,8.618-.862,9.825-.345,12.066-.689,13.272a39.351,39.351,0,0,0-.689,4.137h-2.068s.172-5.343-.345-7.412-.345-7.756-.345-7.756-1.034-10.169-.517-11.548S278.538,612.943,278.538,612.943Z" transform="translate(-250.133 -576.235)" fill="#ffb9b9"/>
    <path id="left_shoe" data-name="left shoe" d="M278.91,767.239s.862.517.862.862a4.687,4.687,0,0,0,0,1.551c.172.345,1.379,1.724.689,2.068s-3.792,0-3.792,0a15.294,15.294,0,0,1,.345-2.586c.172-.172-.172-1.9-.172-1.9Z" transform="translate(-253.262 -703.814)" fill="#2f2e41"/>
    <path id="right_leg" data-name="right leg" d="M225.508,612.832s-.219,8.643-.174,9.861-.924,12.035-.707,13.271a39.353,39.353,0,0,1,.251,4.186l2.057.217s.389-5.332,1.121-7.335,1.157-7.677,1.157-7.677,2.1-10,1.726-11.43S225.508,612.832,225.508,612.832Z" transform="translate(-210.278 -576.335)" fill="#ffb9b9"/>
    <path id="right_shoe" data-name="right shoe" d="M219.123,766.842s-.911.424-.948.767a4.686,4.686,0,0,1-.163,1.543c-.208.325-1.552,1.569-.9,1.985s3.771.4,3.771.4a15.3,15.3,0,0,0-.071-2.607c-.153-.189.37-1.867.37-1.867Z" transform="translate(-203.955 -703.487)" fill="#2f2e41"/>
    <path id="pants" d="M236.861,540.15s1.379.172,1.9,3.1,2.413,10.342.862,10.859-6.205,1.551-6.378,1.207-.517-1.207-.517-1.207.517,1.551-.172,1.551-7.412-1.034-7.239-1.551.517-4.309.517-4.309,1.034-6.378,2.068-7.412a2.827,2.827,0,0,0,.862-2.241Z" transform="translate(-210.868 -516.369)" fill="#2f2e41"/>
    <path id="left_hand" data-name="left hand" d="M293.777,531.371s-2.241-.517-2.585.172.862,1.724,1.379,1.724a3.778,3.778,0,0,0,1.379-.517Z" transform="translate(-265.199 -508.969)" fill="#ffb9b9"/>
    <circle id="head" cx="3.103" cy="3.103" r="3.103" transform="translate(20.822 1.545)" fill="#ffb9b9"/>
    <path id="neck" d="M249.775,435.771s-.517,2.413-.172,2.413-2.585,1.551-2.585,1.551l-2.241-.345-.689-1.034s3.62-2.413,3.62-3.792S249.775,435.771,249.775,435.771Z" transform="translate(-226.368 -428.882)" fill="#ffb9b9"/>
    <path id="upper_body" data-name="upper body" d="M231.109,455.583a2.527,2.527,0,0,1,.689-.345h1.379c.172,0,2.413.517,2.413.517l1.379,7.756s-2.413,3.964-.689,7.067c0,0-.517-.345-2.93-.172s-6.722.689-6.895.689-.172-1.379,0-1.724-.172-.172-.172-1.034a10.544,10.544,0,0,0-.517-2.413l-2.413-8.791s3.1-1.724,3.62-1.551a6.766,6.766,0,0,0,2.413.517A15.941,15.941,0,0,1,231.109,455.583Z" transform="translate(-209.253 -446.281)" fill="#ff9f26"/>
    <path id="left_arm" data-name="left arm" d="M290.492,458.322l.517-.172a2.974,2.974,0,0,1,2.241.862c1.207,1.034,5.688,4.137,5.688,4.137s1.724,1.379,1.207,2.93-1.379,5.343-3.964,5.171c0,0-1.551,2.068-2.413,1.724s-1.551-1.724-1.034-1.9,1.9-1.9,1.9-1.9l-1.724-3.275h-.517l-1.9-1.034Z" transform="translate(-264.672 -448.675)" fill="#ff9f26"/>
    <path id="right_arm" data-name="right arm" d="M210.662,465.112l-1.379.172s-1.207.517-1.034,2.758-1.034,12.41-.517,13.617c0,0-1.724,5.86-1.379,6.033s2.413,1.207,2.241.517,1.9-5.516,1.9-5.516a6.811,6.811,0,0,0,1.379-6.205v-2.93Z" transform="translate(-195.183 -454.431)" fill="#ff9f26"/>
    <path id="hair" d="M252.687,411.578l-2.191.477-.282-1.079.108,1.117-3.535.77-.155-.6.06.617-2.264.493-.484-4.649c-.5-1.908,1.319-3.941,3.227-4.439l.846-.221c1.4-.366,3.948-.033,4.314,1.368C251.691,407.879,250.6,410.557,252.687,411.578Z" transform="translate(-226.181 -403.93)" fill="#2f2e41"/>
  </g>
</svg>
