<svg id="Img" xmlns="http://www.w3.org/2000/svg" width="170.283" height="120.002" viewBox="0 0 170.283 120.002">
  <circle id="Ellipse_121" data-name="Ellipse 121" cx="9.273" cy="9.273" r="9.273" transform="translate(77.694 101.201)" fill="#ff9f26"/>
  <path id="Path_990" data-name="Path 990" d="M418.756,309.038c5.188-1.558,10.7-3.183,14.818-6.887,3.677-3.31,6.159-8.364,4.636-13.328s-6.073-8.257-10.774-9.9a44.2,44.2,0,0,0-8.244-1.855c-3.031-.441-6.075-.8-9.118-1.151q-18.482-2.114-37.1-2.583c-6.125-.154-12.25-.151-18.376-.062-5.471.079-11.233.077-16.309-2.248-3.947-1.808-7.529-5.1-8.629-9.421-1.27-4.99,1.072-10.072,4.431-13.687a35.879,35.879,0,0,1,5.975-4.983c2.316-1.6,4.712-3.086,7.161-4.473a99.72,99.72,0,0,1,15.073-6.949c2.569-.934,5.177-1.74,7.807-2.484a66.812,66.812,0,0,0,6.6-2.112c4.15-1.654,8.1-4.455,9.151-9.048,1-4.353-.686-9.078-3.642-12.312-3.42-3.741-8.576-5.381-13.519-5.646-5.55-.3-10.971,1.091-16.187,2.854-5.563,1.88-11.007,4.042-16.688,5.565a112.28,112.28,0,0,1-17.175,3.193,46.591,46.591,0,0,1-8.62.412,10.423,10.423,0,0,1-6.539-2.6,6.466,6.466,0,0,1-2.1-5.571c.056-.384.639-.221.583.161-.377,2.571,1.371,4.941,3.525,6.155,2.489,1.4,5.519,1.4,8.29,1.244a108.43,108.43,0,0,0,17.844-2.58,143.4,143.4,0,0,0,16.874-5.209c5.273-1.909,10.664-3.773,16.3-4.187,4.888-.359,10.03.353,14.288,2.908a15.806,15.806,0,0,1,7.371,10.285,11.922,11.922,0,0,1-3.508,11.353c-3.29,3.033-7.8,4.33-12.006,5.524a110,110,0,0,0-15.6,5.585,97.945,97.945,0,0,0-14.676,8.251c-4.485,3.065-8.911,6.921-10.329,12.388a11.413,11.413,0,0,0,.567,7.654,13.986,13.986,0,0,0,4.488,5.326c4.5,3.311,10.171,3.991,15.606,4.059,6.1.076,12.209-.13,18.316-.03q18.668.306,37.259,2.273,4.658.493,9.305,1.09a84.142,84.142,0,0,1,8.322,1.35c4.871,1.131,9.611,3.3,12.638,7.434a11.756,11.756,0,0,1,1,12.855c-2.325,4.574-6.68,7.484-11.3,9.4a80.216,80.216,0,0,1-7.611,2.57.3.3,0,0,1-.161-.583Z" transform="translate(-276.388 -189.811)" fill="#f2f2f2"/>
  <circle id="Ellipse_122" data-name="Ellipse 122" cx="4.838" cy="4.838" r="4.838" transform="translate(20.541 9.173)" fill="#f2f2f2"/>
  <circle id="Ellipse_123" data-name="Ellipse 123" cx="4.838" cy="4.838" r="4.838" transform="translate(54.107 18.345)" fill="#f2f2f2"/>
  <circle id="Ellipse_124" data-name="Ellipse 124" cx="4.838" cy="4.838" r="4.838" transform="translate(82.532)" fill="#f2f2f2"/>
  <circle id="Ellipse_125" data-name="Ellipse 125" cx="4.838" cy="4.838" r="4.838" transform="translate(100.273 20.563)" fill="#f2f2f2"/>
  <circle id="Ellipse_126" data-name="Ellipse 126" cx="4.838" cy="4.838" r="4.838" transform="translate(76.283 44.351)" fill="#f2f2f2"/>
  <circle id="Ellipse_127" data-name="Ellipse 127" cx="4.838" cy="4.838" r="4.838" transform="translate(45.842 55.842)" fill="#f2f2f2"/>
  <circle id="Ellipse_128" data-name="Ellipse 128" cx="4.838" cy="4.838" r="4.838" transform="translate(78.097 73.784)" fill="#f2f2f2"/>
  <circle id="Ellipse_129" data-name="Ellipse 129" cx="4.838" cy="4.838" r="4.838" transform="translate(112.772 83.864)" fill="#f2f2f2"/>
  <circle id="Ellipse_130" data-name="Ellipse 130" cx="4.838" cy="4.838" r="4.838" transform="translate(153.292 81.646)" fill="#f2f2f2"/>
  <path id="Path_991" data-name="Path 991" d="M498.906,220.37a26.836,26.836,0,0,0-26.566,26.372c0,.134,0,1.075,0,2.305a6.8,6.8,0,0,0,6.8,6.8h0a6.807,6.807,0,0,0,6.806-6.812c0-.839,0-1.418,0-1.453a12.9,12.9,0,1,1,19.861,10.862l0,0s-9.682,6.233-12.634,14.784h0a18.953,18.953,0,0,0-.781,5.4c0,.751.044,7.322.13,12.656a7.013,7.013,0,0,0,7.014,6.9h0a7.015,7.015,0,0,0,7.014-7.058c-.03-4.884-.046-10.572-.046-10.985,0-5.251,5.065-10.482,9.226-13.893a27.982,27.982,0,0,0,9.624-15.321,17.5,17.5,0,0,0,.5-3.8,26.762,26.762,0,0,0-26.955-26.761Z" transform="translate(-412.932 -206.661)" fill="#ff9f26"/>
  <path id="Path_992" data-name="Path 992" d="M347.706,745.729H177.9a.24.24,0,1,1,0-.48h169.8a.24.24,0,1,1,0,.48Z" transform="translate(-177.662 -625.727)" fill="#3f3d56"/>
  <circle id="Ellipse_131" data-name="Ellipse 131" cx="6.048" cy="6.048" r="6.048" transform="translate(120.645 42.939)" fill="#2f2e41"/>
  <path id="Path_993" data-name="Path 993" d="M558.567,544.374H556.1l-1.176-9.533h3.648Z" transform="translate(-443.05 -427.019)" fill="#a0616a"/>
  <path id="Path_994" data-name="Path 994" d="M540.11,578.626h4.766v3h-7.768A3,3,0,0,1,540.11,578.626Z" transform="translate(-428.83 -461.977)" fill="#2f2e41"/>
  <path id="Path_995" data-name="Path 995" d="M653.567,544.374H651.1l-1.176-9.533h3.648Z" transform="translate(-518.898 -427.019)" fill="#a0616a"/>
  <path id="Path_996" data-name="Path 996" d="M635.11,578.626h4.766v3h-7.768A3,3,0,0,1,635.11,578.626Z" transform="translate(-504.678 -461.977)" fill="#2f2e41"/>
  <circle id="Ellipse_132" data-name="Ellipse 132" cx="4.951" cy="4.951" r="4.951" transform="translate(120.822 45.167)" fill="#a0616a"/>
  <path id="Path_997" data-name="Path 997" d="M746.079,448.815l2.216-5.09a6.326,6.326,0,0,0-1.4-7.177,6.407,6.407,0,0,0-.619-.538,6.236,6.236,0,0,0-3.828-1.324,6.486,6.486,0,0,0-2.7.6c-.073.032-.143.066-.216.1-.139.067-.276.139-.409.214a6.386,6.386,0,0,0-3.165,4.814l-.978,8.193c-.246.643-9.019,23.867-5.951,41.6a.9.9,0,0,0,.77.74l3.111.423a.907.907,0,0,0,1.01-.712l5.219-24.879a.706.706,0,0,1,1.371-.046l7.374,26.163a.9.9,0,0,0,.869.661,1.037,1.037,0,0,0,.175-.016l3.8-.732a.9.9,0,0,0,.732-.97C752.9,484.61,749.932,453.417,746.079,448.815Z" transform="translate(-617.354 -377.771)" fill="#2f2e41"/>
  <path id="Path_998" data-name="Path 998" d="M706.048,414.231a2.027,2.027,0,0,0,2.136,2.259l2.768,6.651,2.094-3.1L710.1,414.2a2.038,2.038,0,0,0-4.048.034Z" transform="translate(-599.516 -359.992)" fill="#a0616a"/>
  <path id="Path_999" data-name="Path 999" d="M791.107,505.689a2.027,2.027,0,0,0,1.7-2.6l5.823-4.241-3.506-1.313-4.992,4.229a2.038,2.038,0,0,0,.976,3.928Z" transform="translate(-665.608 -427.948)" fill="#a0616a"/>
  <path id="Path_1000" data-name="Path 1000" d="M724.758,448.313a3.44,3.44,0,0,1-.665-.066,3.287,3.287,0,0,1-2.409-1.939l-3.878-4.728a.907.907,0,0,1,.224-1.347l2.759-1.708a.907.907,0,0,1,1.253.3l2.733,4.5,5.234-3.868a1.96,1.96,0,0,1,2.28,3.137l-5.224,4.765A3.277,3.277,0,0,1,724.758,448.313Z" transform="translate(-608.751 -380.73)" fill="#2f2e41"/>
  <path id="Path_1001" data-name="Path 1001" d="M809.946,461.279h-.021a.909.909,0,0,1-.667-.317L806.8,458.1a.907.907,0,0,1,.186-1.345l4.593-3.062-4.161-5a1.96,1.96,0,0,1,3-2.456l5.057,4.942a3.331,3.331,0,0,1-.741,5.431l-4.133,4.385a.908.908,0,0,1-.66.285Z" transform="translate(-679.797 -386.585)" fill="#2f2e41"/>
  <path id="Path_1002" data-name="Path 1002" d="M784.459,439.926a.938.938,0,0,1-.118-.007.9.9,0,0,1-.748-.619l-1.843-5.651a.621.621,0,0,1,.321-.751l.06-.028c.054-.026.108-.051.163-.076a6.566,6.566,0,0,1,2.742-.609,6.315,6.315,0,0,1,3.46,1.04.631.631,0,0,1,.182.866l-3.457,5.416A.9.9,0,0,1,784.459,439.926Z" transform="translate(-659.945 -375.775)" fill="#e6e6e6"/>
  <circle id="Ellipse_133" data-name="Ellipse 133" cx="1.979" cy="1.979" r="1.979" transform="translate(129.482 42.329)" fill="#2f2e41"/>
  <path id="Path_1003" data-name="Path 1003" d="M775.353,361.365h0a5.242,5.242,0,0,0-5.242,5.241v2.218h2.727l1.3-2.218.391,2.218h8.277l-2.218-2.218A5.241,5.241,0,0,0,775.353,361.365Z" transform="translate(-650.676 -319.232)" fill="#2f2e41"/>
  <path id="Path_1004" data-name="Path 1004" d="M834.809,357.019a3.054,3.054,0,0,1,3.322-2.1,4.233,4.233,0,0,1,2.853,2.357,23.232,23.232,0,0,1,1.268,3.614,6.544,6.544,0,0,0,1.974,3.222,2.938,2.938,0,0,0,3.546.191,4.056,4.056,0,0,1-7.555,1.448,8.772,8.772,0,0,1-.812-3.075,6.719,6.719,0,0,0-.98-3.012,2.491,2.491,0,0,0-2.783-1.036Z" transform="translate(-702.331 -314.067)" fill="#2f2e41"/>
  <path id="Path_1005" data-name="Path 1005" d="M480.683,296.5h0a6.8,6.8,0,0,1-6.8-6.8c0-1.231,0-2.172,0-2.306a26.511,26.511,0,0,1,3.1-12.077,26.571,26.571,0,0,0-5.112,15.3c0,.134,0,1.075,0,2.305a6.8,6.8,0,0,0,6.8,6.8h0a6.808,6.808,0,0,0,6.549-4.957A6.778,6.778,0,0,1,480.683,296.5Z" transform="translate(-412.555 -250.533)" fill="#3f3d56"/>
  <path id="Path_1006" data-name="Path 1006" d="M565.084,278.645A12.9,12.9,0,0,1,576.3,296.671a12.9,12.9,0,1,0-21.657-13.5A12.876,12.876,0,0,1,565.084,278.645Z" transform="translate(-478.649 -250.601)" fill="#3f3d56"/>
  <path id="Path_1007" data-name="Path 1007" d="M580.523,481.448h0a7.013,7.013,0,0,1-7.014-6.9c-.085-5.332-.13-11.9-.13-12.654a18.952,18.952,0,0,1,.781-5.4h0a19.142,19.142,0,0,1,1.108-2.56,22.184,22.184,0,0,0-3.124,5.786h0a18.952,18.952,0,0,0-.781,5.4c0,.751.044,7.322.13,12.656a7.013,7.013,0,0,0,7.013,6.9h0a7.016,7.016,0,0,0,6.733-5.048,6.987,6.987,0,0,1-4.717,1.823Z" transform="translate(-491.996 -393.141)" fill="#3f3d56"/>
  <path id="Path_1008" data-name="Path 1008" d="M126.539,544.829h2.471l1.176-9.533h-3.648Z" transform="translate(-101.028 -427.382)" fill="#ffb8b8"/>
  <path id="Path_1009" data-name="Path 1009" d="M0,0H7.768V3H3A3,3,0,0,1,0,0H0Z" transform="translate(32.748 119.742) rotate(179.997)" fill="#2f2e41"/>
  <path id="Path_1010" data-name="Path 1010" d="M82.539,544.829H85.01l1.176-9.533H82.538Z" transform="translate(-65.899 -427.382)" fill="#ffb8b8"/>
  <path id="Path_1011" data-name="Path 1011" d="M0,0H7.768V3H3A3,3,0,0,1,0,0H0Z" transform="translate(23.877 119.742) rotate(179.997)" fill="#2f2e41"/>
  <path id="Path_1012" data-name="Path 1012" d="M257.82,589.422l-2.414-.127a.942.942,0,0,1-.891-1l2.885-31.946,13.287,3.586,1.28-.349-4,28.281a.947.947,0,0,1-.879.8l-2.6.121a.942.942,0,0,1-.994-.967l.472-16.974a.314.314,0,0,0-.622-.073l-4.547,17.9a.937.937,0,0,1-.921.751Z" transform="translate(-239.021 -474.907)" fill="#2f2e41"/>
  <circle id="Ellipse_134" data-name="Ellipse 134" cx="4.951" cy="4.951" r="4.951" transform="translate(21.003 45.399)" fill="#ffb8b8"/>
  <path id="Path_1013" data-name="Path 1013" d="M265.478,443.218l.544,11.746.2,4.274a.936.936,0,0,0,.62.842l12.768,4.625a.9.9,0,0,0,.322.056.936.936,0,0,0,.94-.965l-.523-21.121a7.445,7.445,0,0,0-6.2-7.192c-.124-.019-.249-.038-.375-.054a7.308,7.308,0,0,0-5.88,1.9A7.506,7.506,0,0,0,265.478,443.218Z" transform="translate(-247.767 -378.321)" fill="#ccc"/>
  <path id="Path_1014" data-name="Path 1014" d="M344.42,533.37a2.029,2.029,0,0,1-1.082-3.07l-4.33-5.758,3.736-.231,3.539,5.5a2.038,2.038,0,0,1-1.863,3.555Z" transform="translate(-306.481 -449.329)" fill="#ffb8b8"/>
  <path id="Path_1015" data-name="Path 1015" d="M322.112,471.483a.936.936,0,0,1-.512-.508l-6.523-15.542a2.513,2.513,0,1,1,4.634-1.945l6.523,15.542a.943.943,0,0,1-.5,1.233l-2.9,1.215a.936.936,0,0,1-.721,0Z" transform="translate(-287.217 -391.553)" fill="#ccc"/>
  <path id="Path_1016" data-name="Path 1016" d="M298.066,496.53l6.265-12a.983.983,0,0,1,1.325-.416l9.094,4.75a.983.983,0,0,1,.416,1.325l-6.265,12a.983.983,0,0,1-1.326.416l-9.094-4.75A.983.983,0,0,1,298.066,496.53Z" transform="translate(-273.705 -417.149)" fill="#3f3d56"/>
  <path id="Path_1017" data-name="Path 1017" d="M283.146,499.61a2.029,2.029,0,0,0-3.128-.9l-6-3.982-.01,3.744,5.7,3.208a2.038,2.038,0,0,0,3.439-2.07Z" transform="translate(-254.582 -425.71)" fill="#ffb8b8"/>
  <path id="Path_1018" data-name="Path 1018" d="M252.929,459.985l-4.906-3.886a3.46,3.46,0,0,1-1.577-5.47l4.455-5.838a2.035,2.035,0,0,1,3.453,2.073l-3.525,5.766,5.18,2.457a.942.942,0,0,1,.393,1.355l-2.091,3.309a.944.944,0,0,1-.638.426l-.016,0A.946.946,0,0,1,252.929,459.985Z" transform="translate(-231.955 -385.243)" fill="#ccc"/>
  <path id="Path_1019" data-name="Path 1019" d="M278.2,377.822a.43.43,0,0,1,.374-.568.994.994,0,0,1,.7.346,2.788,2.788,0,0,0,.619.532.533.533,0,0,0,.7-.127.975.975,0,0,0-.037-.757,7.443,7.443,0,0,1-.329-1.97,3.468,3.468,0,0,1,.5-2.106,2.787,2.787,0,0,1,2.388-1.015,16.048,16.048,0,0,1,2.683.475.9.9,0,0,0,.877-.147,1.131,1.131,0,0,0,.045-1.009,7.006,7.006,0,0,0-1.061-2.53,3.81,3.81,0,0,0-2.431-1.369,5.834,5.834,0,0,0-2.714.308,7.276,7.276,0,0,0-3.565,2.483,5.894,5.894,0,0,0-1.125,4.354,5.376,5.376,0,0,0,1.993,3.4Z" transform="translate(-255.992 -324.156)" fill="#2f2e41"/>
  <path id="Path_1020" data-name="Path 1020" d="M570.222,678.072a9.272,9.272,0,0,1-3.441-14.412,9.273,9.273,0,1,0,12.614,13.4A9.268,9.268,0,0,1,570.222,678.072Z" transform="translate(-485.298 -560.586)" fill="#3f3d56"/>
</svg>
