<svg id="Img" xmlns="http://www.w3.org/2000/svg" width="80.389" height="120" viewBox="0 0 80.389 120">
  <rect id="Rectangle_181" data-name="Rectangle 181" width="0.348" height="75.358" transform="matrix(-0.363, -0.932, 0.932, -0.363, 10.175, 118.081)" fill="#cacaca"/>
  <path id="Path_1" data-name="Path 1" d="M429.454,105.514,468.483,115.8a1.081,1.081,0,0,1,.422.23,1.686,1.686,0,0,1,.343.414,2.2,2.2,0,0,1,.23.538,2.267,2.267,0,0,1,.085.608v57.9a2.162,2.162,0,0,1-.085.6,1.937,1.937,0,0,1-.23.512,1.421,1.421,0,0,1-.343.374.945.945,0,0,1-.422.181L429.454,182.9a1.494,1.494,0,0,1-.676-.052,1.438,1.438,0,0,1-.555-.331,1.611,1.611,0,0,1-.376-.559,1.935,1.935,0,0,1-.139-.731V106.984a1.814,1.814,0,0,1,.139-.715,1.37,1.37,0,0,1,.376-.515,1.247,1.247,0,0,1,.555-.267A1.484,1.484,0,0,1,429.454,105.514Z" transform="translate(-399.364 -105.46)" fill="#f2f2f2"/>
  <path id="Path_2" data-name="Path 2" d="M472.841,130.5a.771.771,0,0,1,.3.166,1.19,1.19,0,0,1,.24.292,1.536,1.536,0,0,1,.16.381,1.571,1.571,0,0,1,.055.428v55.548a1.5,1.5,0,0,1-.055.421,1.354,1.354,0,0,1-.16.361,1,1,0,0,1-.24.265.673.673,0,0,1-.3.13l-36.558,4.925a1.016,1.016,0,0,1-.462-.051,1,1,0,0,1-.376-.241,1.142,1.142,0,0,1-.251-.394,1.366,1.366,0,0,1-.088-.508V122.381a1.289,1.289,0,0,1,.088-.5.974.974,0,0,1,.251-.365.864.864,0,0,1,.376-.2,1,1,0,0,1,.462,0Z" transform="translate(-404.684 -118.537)" fill="#fff"/>
  <path id="Path_3" data-name="Path 3" d="M478.786,150.6a.466.466,0,0,1,.2.11.812.812,0,0,1,.164.21,1.17,1.17,0,0,1,.11.28,1.293,1.293,0,0,1,.041.321v7.737a1.107,1.107,0,0,1-.041.3.754.754,0,0,1-.11.235.448.448,0,0,1-.164.143.327.327,0,0,1-.2.028l-32.676-5.627a.73.73,0,0,1-.3-.128,1.023,1.023,0,0,1-.245-.252,1.27,1.27,0,0,1-.166-.34,1.306,1.306,0,0,1-.061-.392v-9.473a1.079,1.079,0,0,1,.061-.367.766.766,0,0,1,.166-.273.556.556,0,0,1,.543-.16Z" transform="translate(-412.175 -136.408)" fill="#f2f2f2"/>
  <path id="Path_4" data-name="Path 4" d="M478.785,239.478a.47.47,0,0,1,.2.091.7.7,0,0,1,.166.182.929.929,0,0,1,.11.247,1.016,1.016,0,0,1,.037.286V256.82a.947.947,0,0,1-.038.279.759.759,0,0,1-.11.227.538.538,0,0,1-.166.153.4.4,0,0,1-.2.055l-32.675-.932a.718.718,0,0,1-.3-.083.823.823,0,0,1-.246-.2.936.936,0,0,1-.164-.287.991.991,0,0,1-.058-.345V235.441a.909.909,0,0,1,.058-.335.743.743,0,0,1,.164-.258.644.644,0,0,1,.246-.156.654.654,0,0,1,.3-.03Z" transform="translate(-412.175 -212.156)" fill="#f2f2f2"/>
  <path id="Rectangle_1" data-name="Rectangle 1" d="M490.5,161.812l-25.754-5.839v1.973L490.5,163.5Z" transform="translate(-426.755 -147.177)" fill="#fff"/>
  <path id="Rectangle_2" data-name="Rectangle 2" d="M490.778,185.028l-25.77-5.249v.916l25.77,5.118Z" transform="translate(-427.075 -166.837)" fill="#fff"/>
  <path id="Rectangle_3" data-name="Rectangle 3" d="M490.778,194.107l-25.77-5.017v.916l25.77,4.886Z" transform="translate(-427.075 -174.527)" fill="#fff"/>
  <path id="Rectangle_4" data-name="Rectangle 4" d="M490.778,203.187l-25.77-4.786v.916l25.77,4.655Z" transform="translate(-427.075 -182.216)" fill="#fff"/>
  <path id="Path_5" data-name="Path 5" d="M469.335,292.374,456.266,292a.406.406,0,0,1-.133-.026.446.446,0,0,1-.119-.068.5.5,0,0,1-.1-.1.558.558,0,0,1-.069-.134.592.592,0,0,1-.026-.3.553.553,0,0,1,.044-.141.5.5,0,0,1,.08-.121l8.615-9.551a.365.365,0,0,1,.136-.1.337.337,0,0,1,.155-.022.378.378,0,0,1,.155.05.47.47,0,0,1,.136.12l2,2.59a.942.942,0,0,0,.277.245.748.748,0,0,0,.315.1.676.676,0,0,0,.313-.051.752.752,0,0,0,.275-.2h0l5.907-6.788a.315.315,0,0,1,.122-.088.282.282,0,0,1,.138-.018.331.331,0,0,1,.138.051.444.444,0,0,1,.121.117l10.378,14.453a.472.472,0,0,1,.057.106.56.56,0,0,1,.031.12.594.594,0,0,1,0,.127.558.558,0,0,1-.023.124.471.471,0,0,1-.049.109.368.368,0,0,1-.069.083.283.283,0,0,1-.084.052.24.24,0,0,1-.094.016l-15.584-.447Z" transform="translate(-419.921 -247.453)" fill="#fff"/>
  <path id="Ellipse_1" data-name="Ellipse 1" d="M464.746,272.282a.932.932,0,0,0-.5.069,1.108,1.108,0,0,0-.409.313,1.564,1.564,0,0,0-.276.51,2.083,2.083,0,0,0-.1.656,2.323,2.323,0,0,0,.1.68,2.1,2.1,0,0,0,.276.577,1.581,1.581,0,0,0,.408.413,1.106,1.106,0,0,0,.5.189.932.932,0,0,0,.494-.079,1.12,1.12,0,0,0,.4-.318,1.576,1.576,0,0,0,.27-.507,2.087,2.087,0,0,0,.1-.646,2.323,2.323,0,0,0-.1-.67,2.106,2.106,0,0,0-.269-.572,1.6,1.6,0,0,0-.4-.416A1.12,1.12,0,0,0,464.746,272.282Z" transform="translate(-402.037 -243.224)" fill="#fff"/>
  <path id="Path_6" data-name="Path 6" d="M478.784,387.889a.409.409,0,0,1,.2.061.562.562,0,0,1,.165.158.789.789,0,0,1,.11.231.962.962,0,0,1,.038.281v16.536a1,1,0,0,1-.038.285.9.9,0,0,1-.11.243.665.665,0,0,1-.166.177.455.455,0,0,1-.2.085l-32.674,3.79a.66.66,0,0,1-.3-.039.67.67,0,0,1-.246-.164.775.775,0,0,1-.164-.264.923.923,0,0,1-.058-.337V388.684a.977.977,0,0,1,.058-.344.9.9,0,0,1,.164-.282.785.785,0,0,1,.246-.192.7.7,0,0,1,.3-.073Z" transform="translate(-412.174 -338.626)" fill="#f2f2f2"/>
  <path id="Path_7" data-name="Path 7" d="M469.334,429.106l-13.068,1.518a.386.386,0,0,1-.133-.007.377.377,0,0,1-.119-.051.407.407,0,0,1-.1-.09.466.466,0,0,1-.069-.124.542.542,0,0,1-.033-.146.6.6,0,0,1,.007-.152.623.623,0,0,1,.044-.147.606.606,0,0,1,.08-.133l8.615-10.8a.449.449,0,0,1,.137-.116.368.368,0,0,1,.155-.044.342.342,0,0,1,.155.028.382.382,0,0,1,.136.1l2,2.3a.765.765,0,0,0,.277.205.68.68,0,0,0,.315.053.742.742,0,0,0,.313-.1.926.926,0,0,0,.275-.242h0l5.907-7.642a.387.387,0,0,1,.122-.105.307.307,0,0,1,.138-.037.3.3,0,0,1,.138.031.36.36,0,0,1,.122.1l10.377,12.955a.394.394,0,0,1,.057.1.5.5,0,0,1,.031.116.584.584,0,0,1,0,.126.6.6,0,0,1-.023.128.549.549,0,0,1-.049.116.451.451,0,0,1-.069.093.347.347,0,0,1-.084.064.266.266,0,0,1-.094.03l-15.585,1.8Z" transform="translate(-419.92 -359.759)" fill="#fff"/>
  <path id="Ellipse_2" data-name="Ellipse 2" d="M464.745,401.549a1.014,1.014,0,0,0-.5.14,1.366,1.366,0,0,0-.408.372,1.865,1.865,0,0,0-.276.55,2.224,2.224,0,0,0-.1.67,2.179,2.179,0,0,0,.1.666,1.766,1.766,0,0,0,.276.537,1.278,1.278,0,0,0,.408.354.982.982,0,0,0,.5.117,1.023,1.023,0,0,0,.494-.15,1.382,1.382,0,0,0,.4-.376,1.878,1.878,0,0,0,.269-.546,2.225,2.225,0,0,0,.1-.66,2.18,2.18,0,0,0-.1-.656,1.778,1.778,0,0,0-.269-.533,1.292,1.292,0,0,0-.4-.358A.987.987,0,0,0,464.745,401.549Z" transform="translate(-402.036 -349.987)" fill="#fff"/>
  <path id="Path_8" data-name="Path 8" d="M544.046,191.866a.826.826,0,0,1,.34.148,1.16,1.16,0,0,1,.276.29,1.463,1.463,0,0,1,.186.39,1.532,1.532,0,0,1,.069.45V255.7a1.583,1.583,0,0,1-.254.854,1.265,1.265,0,0,1-.276.305.88.88,0,0,1-.34.168l-46.349,10.7a1.365,1.365,0,0,1-.566.015,1.1,1.1,0,0,1-.465-.207,1.068,1.068,0,0,1-.315-.394,1.278,1.278,0,0,1-.116-.545V185.025a1.324,1.324,0,0,1,.116-.552,1.157,1.157,0,0,1,.315-.412,1.174,1.174,0,0,1,.465-.234,1.366,1.366,0,0,1,.566-.017Z" transform="translate(-486.651 -170.148)" fill="#e6e6e6"/>
  <path id="Path_9" data-name="Path 9" d="M547.148,205.713a.849.849,0,0,1,.346.154,1.179,1.179,0,0,1,.279.3,1.47,1.47,0,0,1,.186.4,1.535,1.535,0,0,1,.065.456v59.9a1.592,1.592,0,0,1-.25.868,1.287,1.287,0,0,1-.279.313.908.908,0,0,1-.346.175l-43.372,9.672a1.325,1.325,0,0,1-.559,0,1.074,1.074,0,0,1-.759-.623,1.3,1.3,0,0,1-.106-.549V199.906a1.351,1.351,0,0,1,.106-.555,1.167,1.167,0,0,1,.759-.669,1.332,1.332,0,0,1,.559-.033Z" transform="translate(-490.824 -182.408)" fill="#fff"/>
  <path id="Path_10" data-name="Path 10" d="M566.559,271.038a.384.384,0,0,1,.164.059.5.5,0,0,1,.133.127.623.623,0,0,1,.09.176.668.668,0,0,1,.033.207V274a.609.609,0,0,1-.033.2.486.486,0,0,1-.09.158.378.378,0,0,1-.134.1.333.333,0,0,1-.164.027l-29.214-2.577a.59.59,0,0,1-.227-.069.664.664,0,0,1-.185-.148.7.7,0,0,1-.125-.207.681.681,0,0,1-.047-.243v-2.832a.61.61,0,0,1,.046-.235.537.537,0,0,1,.125-.183.5.5,0,0,1,.185-.112.526.526,0,0,1,.227-.024Z" transform="translate(-515.772 -239.576)" fill="#ff9f26"/>
  <path id="Path_11" data-name="Path 11" d="M567.546,323.22a.092.092,0,0,1,.041.013.117.117,0,0,1,.033.03.146.146,0,0,1,.022.043.163.163,0,0,1,.008.051v.937a.152.152,0,0,1-.008.05.128.128,0,0,1-.023.04.1.1,0,0,1-.033.026.085.085,0,0,1-.041.008l-29.736-1.612a.144.144,0,0,1-.057-.015.158.158,0,0,1-.046-.036.166.166,0,0,1-.043-.111v-1.1a.158.158,0,0,1,.011-.059.145.145,0,0,1,.031-.047.134.134,0,0,1,.1-.039Z" transform="translate(-516.602 -283.791)" fill="#ccc"/>
  <path id="Path_12" data-name="Path 12" d="M567.546,343.289a.09.09,0,0,1,.041.012.115.115,0,0,1,.033.03.145.145,0,0,1,.022.042.162.162,0,0,1,.008.051v.937a.154.154,0,0,1-.008.051.131.131,0,0,1-.023.041.1.1,0,0,1-.033.027.085.085,0,0,1-.041.009l-29.736-1.071a.142.142,0,0,1-.057-.014.154.154,0,0,1-.046-.035.164.164,0,0,1-.043-.11v-1.105a.158.158,0,0,1,.011-.059.146.146,0,0,1,.031-.048.135.135,0,0,1,.1-.041Z" transform="translate(-516.602 -300.812)" fill="#ccc"/>
  <path id="Path_13" data-name="Path 13" d="M567.549,363.356a.089.089,0,0,1,.041.011.112.112,0,0,1,.033.029.139.139,0,0,1,.022.042.159.159,0,0,1,.008.051v.937a.156.156,0,0,1-.008.051.134.134,0,0,1-.022.041.106.106,0,0,1-.033.028.087.087,0,0,1-.041.01l-29.736-.53a.141.141,0,0,1-.057-.014.149.149,0,0,1-.046-.034.16.16,0,0,1-.031-.05.164.164,0,0,1-.011-.06v-1.1a.16.16,0,0,1,.011-.06.15.15,0,0,1,.031-.048.141.141,0,0,1,.046-.033.137.137,0,0,1,.057-.01Z" transform="translate(-516.604 -317.831)" fill="#ccc"/>
  <path id="Path_14" data-name="Path 14" d="M567.227,401.833a.087.087,0,0,1,.041.01.105.105,0,0,1,.033.028.133.133,0,0,1,.022.041.157.157,0,0,1,.008.051v.937a.158.158,0,0,1-.008.051.139.139,0,0,1-.022.041.111.111,0,0,1-.033.029.089.089,0,0,1-.041.011l-29.716.551a.137.137,0,0,1-.057-.011.142.142,0,0,1-.046-.032.152.152,0,0,1-.031-.048.16.16,0,0,1-.011-.06v-1.1a.163.163,0,0,1,.011-.06.158.158,0,0,1,.031-.049.148.148,0,0,1,.046-.034.138.138,0,0,1,.057-.013Z" transform="translate(-516.229 -350.221)" fill="#ccc"/>
  <path id="Path_15" data-name="Path 15" d="M567.227,419.329a.086.086,0,0,1,.041.009.1.1,0,0,1,.033.028.134.134,0,0,1,.023.041.156.156,0,0,1,.008.049v.937a.162.162,0,0,1-.008.051.143.143,0,0,1-.022.042.114.114,0,0,1-.033.029.09.09,0,0,1-.041.012L537.51,421.62a.137.137,0,0,1-.057-.01.14.14,0,0,1-.046-.031.148.148,0,0,1-.031-.048.16.16,0,0,1-.011-.06v-1.1a.163.163,0,0,1,.043-.11.153.153,0,0,1,.046-.034.141.141,0,0,1,.057-.014Z" transform="translate(-516.229 -364.67)" fill="#ccc"/>
  <path id="Path_16" data-name="Path 16" d="M567.227,436.824a.085.085,0,0,1,.041.009.1.1,0,0,1,.033.026.129.129,0,0,1,.022.04.154.154,0,0,1,.008.05v.937a.163.163,0,0,1-.008.051.146.146,0,0,1-.022.043.118.118,0,0,1-.033.03.091.091,0,0,1-.041.013l-29.716,1.632a.135.135,0,0,1-.1-.039.145.145,0,0,1-.031-.047.156.156,0,0,1-.011-.059v-1.1a.166.166,0,0,1,.043-.11.158.158,0,0,1,.046-.035.144.144,0,0,1,.057-.015Z" transform="translate(-516.229 -379.119)" fill="#ccc"/>
  <path id="Path_17" data-name="Path 17" d="M567.226,454.406a.084.084,0,0,1,.041.008.1.1,0,0,1,.033.026.125.125,0,0,1,.022.04.154.154,0,0,1,.008.05v.937a.164.164,0,0,1-.008.051.149.149,0,0,1-.022.043.12.12,0,0,1-.033.03.093.093,0,0,1-.041.014l-29.715,2.175a.132.132,0,0,1-.1-.038.141.141,0,0,1-.031-.047.154.154,0,0,1-.011-.059v-1.1a.169.169,0,0,1,.011-.061.171.171,0,0,1,.031-.051.161.161,0,0,1,.046-.036.144.144,0,0,1,.057-.016Z" transform="translate(-516.229 -393.638)" fill="#ccc"/>
  <path id="Path_18" data-name="Path 18" d="M567.226,471.9a.083.083,0,0,1,.041.007.1.1,0,0,1,.033.026.122.122,0,0,1,.022.039.15.15,0,0,1,.008.05v.937a.166.166,0,0,1-.008.052.152.152,0,0,1-.022.044.122.122,0,0,1-.033.031.1.1,0,0,1-.041.014l-29.715,2.716a.134.134,0,0,1-.057-.007.131.131,0,0,1-.046-.029.138.138,0,0,1-.031-.046.152.152,0,0,1-.011-.059v-1.1a.171.171,0,0,1,.011-.061.175.175,0,0,1,.031-.052.166.166,0,0,1,.046-.037.147.147,0,0,1,.057-.017Z" transform="translate(-516.229 -408.087)" fill="#ccc"/>
  <path id="Path_19" data-name="Path 19" d="M567.226,489.4a.082.082,0,0,1,.041.006.092.092,0,0,1,.033.025.119.119,0,0,1,.022.039.15.15,0,0,1,.008.05v.937a.167.167,0,0,1-.008.052.157.157,0,0,1-.022.044.126.126,0,0,1-.033.032.1.1,0,0,1-.041.015l-29.715,3.257a.132.132,0,0,1-.057-.006.127.127,0,0,1-.046-.028.134.134,0,0,1-.031-.046.151.151,0,0,1-.011-.059v-1.1a.17.17,0,0,1,.011-.061.179.179,0,0,1,.031-.052.17.17,0,0,1,.046-.038.15.15,0,0,1,.057-.018Z" transform="translate(-516.229 -422.535)" fill="#ccc"/>
  <path id="Path_20" data-name="Path 20" d="M567.226,506.978a.083.083,0,0,1,.041.005.091.091,0,0,1,.033.023.116.116,0,0,1,.022.039.149.149,0,0,1,.008.05v.937a.168.168,0,0,1-.008.052.159.159,0,0,1-.022.044.129.129,0,0,1-.033.032.1.1,0,0,1-.041.016l-29.715,3.8a.131.131,0,0,1-.057,0,.123.123,0,0,1-.046-.028.131.131,0,0,1-.031-.045.149.149,0,0,1-.011-.059v-1.1a.173.173,0,0,1,.011-.061.185.185,0,0,1,.031-.053.174.174,0,0,1,.046-.039.152.152,0,0,1,.057-.019Z" transform="translate(-516.229 -437.055)" fill="#ccc"/>
  <path id="Path_21" data-name="Path 21" d="M567.226,524.473a.081.081,0,0,1,.041,0,.089.089,0,0,1,.033.023.113.113,0,0,1,.022.038.147.147,0,0,1,.008.05v.937a.169.169,0,0,1-.008.052.163.163,0,0,1-.022.045.133.133,0,0,1-.033.033.1.1,0,0,1-.041.016l-29.715,4.341a.131.131,0,0,1-.057,0,.121.121,0,0,1-.046-.026.128.128,0,0,1-.031-.044.149.149,0,0,1-.011-.058v-1.1a.175.175,0,0,1,.011-.062.189.189,0,0,1,.031-.053.182.182,0,0,1,.046-.039.154.154,0,0,1,.057-.02Z" transform="translate(-516.229 -451.503)" fill="#ccc"/>
  <path id="Path_22" data-name="Path 22" d="M567.226,541.967a.081.081,0,0,1,.041,0,.086.086,0,0,1,.033.023.111.111,0,0,1,.022.038.146.146,0,0,1,.008.049v.937a.171.171,0,0,1-.008.052.166.166,0,0,1-.022.045.136.136,0,0,1-.033.034.1.1,0,0,1-.041.017l-29.715,4.882a.13.13,0,0,1-.057,0,.118.118,0,0,1-.046-.025.124.124,0,0,1-.031-.044.147.147,0,0,1-.011-.058v-1.1a.178.178,0,0,1,.011-.062.194.194,0,0,1,.031-.054.184.184,0,0,1,.046-.04.158.158,0,0,1,.057-.021Z" transform="translate(-516.229 -465.951)" fill="#ccc"/>
  <path id="Ellipse_3" data-name="Ellipse 3" d="M709.126,567.317a13.311,13.311,0,0,0-4.63,1.637,15.8,15.8,0,0,0-6.676,7.626,13.348,13.348,0,0,0-1.022,5.037,10.406,10.406,0,0,0,1.022,4.615,8.776,8.776,0,0,0,2.739,3.264,9.124,9.124,0,0,0,3.937,1.6,11.225,11.225,0,0,0,4.629-.276,14.046,14.046,0,0,0,4.43-2.071,15.827,15.827,0,0,0,3.479-3.323,15.44,15.44,0,0,0,2.279-4.114,13.206,13.206,0,0,0,.822-4.519,10.546,10.546,0,0,0-.822-4.179,8.789,8.789,0,0,0-5.757-5.059A10.513,10.513,0,0,0,709.126,567.317Z" transform="translate(-696.798 -486.778)" fill="#ff9f26"/>
  <path id="Path_23" data-name="Path 23" d="M737.629,620.776l-3.387-5.206,1.956-1.163,1.621,2.458,5.672-4.878,1.968,2.2Z" transform="translate(-728.641 -523.778)" fill="#fff"/>
  <path id="Path_1376" data-name="Path 1376" d="M593.72,548.688l.612-8.484-1.1-7.95,3.123-.211.616,8.782-1.742,8.258a1.229,1.229,0,1,1-1.51-.4Z" transform="translate(-555.56 -457.756)" fill="#9f616a"/>
  <path id="Path_1377" data-name="Path 1377" d="M599.815,514.574l-.733-3.174a2.443,2.443,0,0,0-4.809.823l.4,3.586Z" transform="translate(-558.621 -439.144)" fill="#cbcbcb"/>
  <path id="Path_1378" data-name="Path 1378" d="M260.438,653.955h-1.472l-.7-5.678h2.173Z" transform="translate(-225.024 -535.383)" fill="#9f616a"/>
  <path id="Path_1379" data-name="Path 1379" d="M630.045,783.585h-2.9a1.848,1.848,0,0,0-1.848,1.847v.06h4.747Z" transform="translate(-594.256 -665.492)" fill="#2f2e41"/>
  <path id="Path_1380" data-name="Path 1380" d="M292.817,651.883l-1.415-.405.89-5.652,2.089.6Z" transform="translate(-264.738 -533.358)" fill="#9f616a"/>
  <path id="Path_1381" data-name="Path 1381" d="M671.826,779.881l-2.787-.8h0a1.848,1.848,0,0,0-2.285,1.267l-.017.058,4.563,1.307Z" transform="translate(-643.254 -661.715)" fill="#2f2e41"/>
  <path id="Path_1382" data-name="Path 1382" d="M620.792,602.184l-.685-17.2,1.778-7.784c2.393-4.013-.189-10.413-.215-10.477l-.01-.023-.025,0-6.26-.848-.088.2a29.98,29.98,0,0,0-1.948,17.807l.652,3.333-3.22,13,3.048,1.524,2.338-6.064,1.581,6.2Z" transform="translate(-584.583 -485.672)" fill="#2f2e41"/>
  <path id="Path_1383" data-name="Path 1383" d="M605.312,514.982,607.354,509a4.9,4.9,0,0,0-.435-5.493,5.309,5.309,0,0,1-1.042-2.152l-.01-.007-2.683-.081-2.483,2.524a13.183,13.183,0,0,0-1.364,3.354L597.6,512.75Z" transform="translate(-567.4 -432.338)" fill="#cbcbcb"/>
  <path id="Path_1384" data-name="Path 1384" d="M628.492,532.256l6.728-5.2,5.188-6.123,2.241,2.185-6.13,6.318-7.314,4.212a1.228,1.228,0,1,1-.713-1.389Z" transform="translate(-607.117 -448.577)" fill="#9f616a"/>
  <path id="Path_1385" data-name="Path 1385" d="M614.145,515.3l1.875-2.664a2.443,2.443,0,0,0-3.822-3.033l-2.4,2.693Z" transform="translate(-577.976 -438.553)" fill="#cbcbcb"/>
  <ellipse id="Ellipse_226" data-name="Ellipse 226" cx="3.187" cy="3.187" rx="3.187" ry="3.187" transform="translate(34.255 61.821)" fill="#9f616a"/>
  <path id="Path_1386" data-name="Path 1386" d="M605.362,456.727h5.06v-2.206c-1.111-.441-2.2-.816-2.854,0a2.206,2.206,0,0,0-2.206,2.206Z" transform="translate(-571.161 -393.336)" fill="#2f2e41"/>
  <path id="Path_1387" data-name="Path 1387" d="M591.247,453.761c4.636-.127,3.758,7.511,3.758,7.511s-.875.116-1.274.184l-.482-.271-.519.34c-.238,0-.488,0-.748-.008l-.238-.49-.53.481c-.965,0-3.584.028-3.584.028S586.053,453.9,591.247,453.761Z" transform="translate(-552.684 -393.105)" fill="#2f2e41"/>
  <path id="Path_1388" data-name="Path 1388" d="M481.811,513.389a1.029,1.029,0,0,1,1.078-1.153l1.019-2.12,1.439.3-1.48,2.974a1.035,1.035,0,0,1-2.055-.005Z" transform="translate(-424.569 -439.647)" fill="#ffb7b7"/>
  <path id="Path_1389" data-name="Path 1389" d="M10.08,542.889l-1.2.613-2.935-4.329,1.768-.9Z" transform="translate(69.274 -444.531)" fill="#ffb7b7"/>
  <path id="Path_1390" data-name="Path 1390" d="M373.248,667.118l-2.359,1.207h0a1.689,1.689,0,0,0-.734,2.273l.025.049,3.863-1.977Z" transform="translate(-293.789 -569.308)" fill="#2f2e41"/>
  <path id="Path_1391" data-name="Path 1391" d="M87.382,549.816H86.036l-.64-5.191h1.986Z" transform="translate(-21.864 -449.781)" fill="#ffb7b7"/>
  <path id="Path_1392" data-name="Path 1392" d="M456.954,677.369H454.3a1.689,1.689,0,0,0-1.689,1.689v.055h4.339Z" transform="translate(-391.093 -577.774)" fill="#2f2e41"/>
  <path id="Path_1393" data-name="Path 1393" d="M413.918,436.105s.9-.69.9,1l.142,5.573-1.589,5.265-.925-1.707.379-3.7Z" transform="translate(-342.106 -378.409)" fill="#ff9f26"/>
  <path id="Path_1394" data-name="Path 1394" d="M379.576,515.137s-1.045,5.089.279,9.266l.731,16.058,2.682-.209.94-11.913.906-5.922,1.881,5.4,6.2,11.425,2.856-2.229s-3.165-8.637-5.5-10.45L389.376,513.2Z" transform="translate(-317.403 -442.198)" fill="#2f2e41"/>
  <ellipse id="Ellipse_227" data-name="Ellipse 227" cx="3.058" cy="3.058" rx="3.058" ry="3.058" transform="translate(62.294 44.775)" fill="#ffb8b8"/>
  <path id="Path_1395" data-name="Path 1395" d="M440.57,360.022c-.367.048-.643-.327-.771-.674s-.226-.75-.545-.938c-.435-.256-.993.052-1.491-.033a1.306,1.306,0,0,1-.957-1.261,3.817,3.817,0,0,1,.42-1.643l.078.653A1.294,1.294,0,0,1,437.87,355l-.1.958a1.017,1.017,0,0,1,1.17-.841l-.016.571a9.425,9.425,0,0,1,1.956-.1,2.826,2.826,0,0,1,2.719,3.367,8.414,8.414,0,0,1-.912,2.774c-.105.222-.251.473-.5.5a.5.5,0,0,1-.489-.369,1.336,1.336,0,0,1,.006-.656,2.791,2.791,0,0,0,.082-.993.809.809,0,0,0-.627-.695c-.332-.04-.671.339-.512.632Z" transform="translate(-375.001 -311.54)" fill="#2f2e41"/>
  <path id="Path_1396" data-name="Path 1396" d="M421.362,399.87l-.64-.889a25.781,25.781,0,0,0-2.632,1.2l-.135.833-3.327,20.463,6.047-.261,1.647-.035,1.2-.026,1.608-.034.024-5.881-.522-4.506.806-4.245a5.4,5.4,0,0,0-2.893-6Z" transform="translate(-353.083 -347.866)" fill="#ff9f26"/>
  <path id="Path_1397" data-name="Path 1397" d="M119.424,412.949l-.22.768-1.537-1,.58-.664Z" transform="translate(-59.526 -340.296)" fill="#cbcbcb"/>
  <path id="Path_1398" data-name="Path 1398" d="M454.292,412.341s-2.382-3.041-3.822.348l-.454,3.552s-1.744,4.415-1.8,6.2A11.315,11.315,0,0,0,447.048,426l-1.749,3.96,1.794,1.114,4.966-7.614Z" transform="translate(-387.157 -357.864)" fill="#ff9f26"/>
</svg>
