<svg id="Img" xmlns="http://www.w3.org/2000/svg" xmlns:xlink="http://www.w3.org/1999/xlink" width="151.619" height="120.005" viewBox="0 0 151.619 120.005">
  <defs>
    <linearGradient id="linear-gradient" x1="0.5" y1="1" x2="0.5" gradientUnits="objectBoundingBox">
      <stop offset="0" stop-color="gray" stop-opacity="0.251"/>
      <stop offset="0.54" stop-color="gray" stop-opacity="0.122"/>
      <stop offset="1" stop-color="gray" stop-opacity="0.102"/>
    </linearGradient>
    <linearGradient id="linear-gradient-4" x1="0.5" x2="0.5" xlink:href="#linear-gradient"/>
  </defs>
  <g id="Group_14" data-name="Group 14" transform="translate(8.421)" opacity="0.5">
    <rect id="Rectangle_94" data-name="Rectangle 94" width="53.812" height="81.343" rx="4.5" fill="url(#linear-gradient)"/>
  </g>
  <rect id="Rectangle_95" data-name="Rectangle 95" width="52.432" height="79.698" rx="4.5" transform="translate(9.11 0.597)" fill="#f2f2f2"/>
  <g id="Group_15" data-name="Group 15" transform="translate(14.354 15.279)" opacity="0.5">
    <rect id="Rectangle_96" data-name="Rectangle 96" width="10.486" height="9.438" rx="4.5" fill="#ff9f26"/>
  </g>
  <rect id="Rectangle_97" data-name="Rectangle 97" width="28.313" height="1.049" rx="0.525" transform="translate(27.987 15.279)" fill="#e0e0e0"/>
  <rect id="Rectangle_98" data-name="Rectangle 98" width="23.536" height="1.049" rx="0.525" transform="translate(27.987 18.424)" fill="#e0e0e0"/>
  <g id="Group_16" data-name="Group 16" transform="translate(14.354 29.96)" opacity="0.5">
    <rect id="Rectangle_99" data-name="Rectangle 99" width="10.486" height="9.438" rx="4.5" fill="#ff9f26"/>
  </g>
  <rect id="Rectangle_100" data-name="Rectangle 100" width="28.313" height="1.049" rx="0.525" transform="translate(27.987 29.96)" fill="#e0e0e0"/>
  <rect id="Rectangle_101" data-name="Rectangle 101" width="28.313" height="1.049" rx="0.525" transform="translate(27.987 33.105)" fill="#e0e0e0"/>
  <g id="Group_17" data-name="Group 17" transform="translate(14.354 44.641)" opacity="0.5">
    <rect id="Rectangle_102" data-name="Rectangle 102" width="10.486" height="9.438" rx="4.5" fill="#ff9f26"/>
  </g>
  <rect id="Rectangle_103" data-name="Rectangle 103" width="28.313" height="1.049" rx="0.525" transform="translate(27.987 44.641)" fill="#e0e0e0"/>
  <rect id="Rectangle_104" data-name="Rectangle 104" width="3.147" height="1.049" rx="0.525" transform="translate(27.987 47.787)" fill="#e0e0e0"/>
  <g id="Group_18" data-name="Group 18" transform="translate(41.906 26.19)" opacity="0.5">
    <rect id="Rectangle_105" data-name="Rectangle 105" width="53.005" height="47.813" rx="4.5" fill="url(#linear-gradient)"/>
  </g>
  <rect id="Rectangle_106" data-name="Rectangle 106" width="51.457" height="46.311" rx="4.5" transform="translate(42.725 26.67)" fill="#fff"/>
  <g id="Group_19" data-name="Group 19" transform="translate(47.778 36.62)" opacity="0.5">
    <rect id="Rectangle_107" data-name="Rectangle 107" width="11.056" height="9.95" rx="4.5" fill="#ff9f26"/>
  </g>
  <rect id="Rectangle_108" data-name="Rectangle 108" width="29.851" height="1.106" rx="0.553" transform="translate(62.151 36.62)" fill="#e0e0e0"/>
  <rect id="Rectangle_109" data-name="Rectangle 109" width="29.851" height="1.106" rx="0.553" transform="translate(62.151 39.938)" fill="#e0e0e0"/>
  <rect id="Rectangle_110" data-name="Rectangle 110" width="45.33" height="1.106" rx="0.553" transform="translate(46.672 51.975)" fill="#e0e0e0"/>
  <rect id="Rectangle_111" data-name="Rectangle 111" width="45.33" height="1.106" rx="0.553" transform="translate(46.672 55.293)" fill="#e0e0e0"/>
  <rect id="Rectangle_112" data-name="Rectangle 112" width="45.33" height="1.106" rx="0.553" transform="translate(46.672 59.714)" fill="#e0e0e0"/>
  <rect id="Rectangle_113" data-name="Rectangle 113" width="34.274" height="1.106" rx="0.553" transform="translate(46.672 63.031)" fill="#e0e0e0"/>
  <g id="Group_20" data-name="Group 20" transform="translate(0 41.222)" opacity="0.5">
    <path id="Path_1021" data-name="Path 1021" d="M225.193,337.731h0l.188-.84-.264.821a82.1,82.1,0,0,0-21.053-2.839C152.829,334.57,129,379.851,129,379.851l48.553,25.617S183.509,387,204.66,387.6a36.412,36.412,0,0,1,4.346.38l-6.435,20.044a3.573,3.573,0,1,0,5.967,3.927h0v-.01a3.552,3.552,0,0,0,.526-1.8,3.055,3.055,0,0,0-.011-.322l4.652-20.786a28.538,28.538,0,0,1,18.057,16.433l48.858-24.425S262.27,347.8,225.193,337.731Z" transform="translate(-129 -334.871)" fill="url(#linear-gradient)"/>
  </g>
  <path id="Path_1022" data-name="Path 1022" d="M209.108,337.992C158.527,337.7,135,382.4,135,382.4l47.935,25.288s5.881-18.233,26.762-17.645a35.928,35.928,0,0,1,4.392.39l15.873-49.614A81.048,81.048,0,0,0,209.108,337.992Z" transform="translate(-134.034 -296.267)" fill="#ff9f26"/>
  <path id="Path_1023" data-name="Path 1023" d="M642.253,355.54,626.38,405.159a28.309,28.309,0,0,1,22.368,17.251l48.23-24.111S678.856,365.481,642.253,355.54Z" transform="translate(-546.325 -310.991)" fill="#e0e0e0"/>
  <path id="Path_1024" data-name="Path 1024" d="M589.239,422.38l16.115-72-22.521,70.229a3.528,3.528,0,1,0,5.889,3.877h0v-.01a3.508,3.508,0,0,0,.52-1.779A1.908,1.908,0,0,0,589.239,422.38Z" transform="translate(-509.235 -306.662)" fill="#535461"/>
  <g id="Group_21" data-name="Group 21" transform="translate(69.768 9.382)" opacity="0.7">
    <path id="Path_1025" data-name="Path 1025" d="M578.527,169.308l-.422-.079.832-3.058c1.31-9.818-3.639-10.815-5.495-10.848a6.1,6.1,0,0,0-.652-.2v-1.159a6.152,6.152,0,0,0,4.6-4.967h.016c.294,0,.534-.449.534-1a1.39,1.39,0,0,0-.233-.827q.032-.322.032-.644a6.393,6.393,0,0,0-1.985-4.634,4.121,4.121,0,0,0-.454-1.22c-.456-.8-1.214-1.639-.9-2.509l-2,.206-.019-1.318c-.625.113-.887.835-1.257,1.35-.892,1.239-2.68,1.412-3.863,2.377-.4.322-1.307,1.326-1.135,1.981a6.414,6.414,0,0,0-1.188,4.405,1.39,1.39,0,0,0-.233.827c0,.554.24,1,.534,1h.016a6.152,6.152,0,0,0,4.6,4.967v1.159a6.1,6.1,0,0,0-.652.2c-1.856.034-6.805,1.024-5.495,10.848l.832,3.058-.2.037a2.281,2.281,0,0,0-1.824,2.661l3.288,17.575a.69.69,0,0,0,.8.552l.578-.108v.341A1.919,1.919,0,0,0,566.108,192v.217h3.876V192a1.919,1.919,0,0,0-.935-1.647v-.765l.528-.1a.69.69,0,0,0,.552-.8l-3.081-16.511h8.542l-3.077,16.512a.691.691,0,0,0,.552.8l.528.1v.765a1.918,1.918,0,0,0-.935,1.647v.217h3.876V192a1.919,1.919,0,0,0-1.069-1.719v-.341l.578.108a.691.691,0,0,0,.8-.552l3.322-17.8a2.052,2.052,0,0,0-1.642-2.395Z" transform="translate(-562.467 -137.05)" fill="url(#linear-gradient-4)"/>
  </g>
  <rect id="Rectangle_114" data-name="Rectangle 114" width="1.799" height="2.443" transform="translate(74.638 60.036)" fill="#fdb797"/>
  <rect id="Rectangle_115" data-name="Rectangle 115" width="1.799" height="2.443" transform="translate(80.809 60.036)" fill="#fdb797"/>
  <rect id="Rectangle_116" data-name="Rectangle 116" width="11.829" height="4.243" transform="translate(72.709 39.981)" fill="#4d8af0"/>
  <g id="Group_22" data-name="Group 22" transform="translate(72.709 39.981)" opacity="0.05">
    <rect id="Rectangle_117" data-name="Rectangle 117" width="11.829" height="4.243"/>
  </g>
  <path id="Path_1026" data-name="Path 1026" d="M580.74,328.594a45.178,45.178,0,0,0,5.913,1.028,45.179,45.179,0,0,0,5.914-1.028v-.644H580.74Z" transform="translate(-508.031 -287.842)" opacity="0.1"/>
  <path id="Path_1027" data-name="Path 1027" d="M592.567,263.464a45.176,45.176,0,0,1-5.914,1.029,45.176,45.176,0,0,1-5.913-1.029v-7.071a5.913,5.913,0,0,1,5.913-5.913h0a5.914,5.914,0,0,1,5.914,5.913Z" transform="translate(-508.031 -222.841)" fill="#f55f44"/>
  <path id="Path_1028" data-name="Path 1028" d="M479.7,153.34h2.828v3.4a1.225,1.225,0,0,1-1.225,1.225h-.377a1.225,1.225,0,0,1-1.225-1.225v-3.4Z" transform="translate(-402.49 -128.659)" fill="#fdb797"/>
  <path id="Path_1029" data-name="Path 1029" d="M571.747,354.367l-2.535.473a.832.832,0,0,1-.966-.665l-3.023-16.2a2.746,2.746,0,0,1,2.2-3.2l.653-.122a.832.832,0,0,1,.966.665l3.38,18.08a.832.832,0,0,1-.671.972Z" transform="translate(-494.971 -293.452)" fill="#4d8af0"/>
  <path id="Path_1030" data-name="Path 1030" d="M625.349,354.375l2.535.473a.832.832,0,0,0,.966-.665l3.074-16.469a2.472,2.472,0,0,0-1.977-2.883l-.924-.172a.832.832,0,0,0-.966.665l-3.38,18.08a.832.832,0,0,0,.671.971Z" transform="translate(-544.884 -293.461)" fill="#4d8af0"/>
  <path id="Path_1031" data-name="Path 1031" d="M608.7,234.915a5.918,5.918,0,0,0,2.828,0V232.9H608.7Z" transform="translate(-531.49 -208.09)" opacity="0.1"/>
  <circle id="Ellipse_135" data-name="Ellipse 135" cx="6.171" cy="6.171" r="6.171" transform="translate(72.452 13.367)" fill="#333"/>
  <circle id="Ellipse_136" data-name="Ellipse 136" cx="5.913" cy="5.913" r="5.913" transform="translate(72.709 15.04)" fill="#fdb797"/>
  <path id="Path_1032" data-name="Path 1032" d="M587.4,147.118c1.138-.929,2.859-1.094,3.715-2.287.356-.5.608-1.193,1.209-1.3l.018,1.268,1.931-.2c-.3.837.431,1.642.871,2.414a3.969,3.969,0,0,1,.513,1.869c-.668.4-1.5-.037-2.24-.27a8.1,8.1,0,0,0-2.253-.272,4.677,4.677,0,0,0-1.162.064,5.859,5.859,0,0,0-.966.353c-.512.214-2.129,1.024-2.6.5C585.9,148.669,586.964,147.477,587.4,147.118Z" transform="translate(-512.686 -133.105)" fill="#333"/>
  <path id="Path_1033" data-name="Path 1033" d="M590.426,172.647a2.712,2.712,0,0,0,1.046.322,9.213,9.213,0,0,0,4.489-.5,2.189,2.189,0,0,0,1.415,1.2,6.574,6.574,0,0,0,1.9.212.7.7,0,0,0,.407-.077c.285-.192.147-.633-.019-.932l-.824-1.494a4.424,4.424,0,0,0-.871-1.225,3.621,3.621,0,0,0-1.719-.739,9.7,9.7,0,0,0-4.413.146C590.292,169.96,588.314,171.369,590.426,172.647Z" transform="translate(-515.385 -154.66)" opacity="0.1"/>
  <path id="Path_1034" data-name="Path 1034" d="M590.426,171.847a2.712,2.712,0,0,0,1.046.322,9.213,9.213,0,0,0,4.489-.5,2.189,2.189,0,0,0,1.415,1.2,6.573,6.573,0,0,0,1.9.212.7.7,0,0,0,.407-.077c.285-.192.147-.633-.019-.932l-.824-1.494a4.425,4.425,0,0,0-.871-1.225,3.621,3.621,0,0,0-1.719-.739,9.7,9.7,0,0,0-4.413.146C590.292,169.157,588.314,170.57,590.426,171.847Z" transform="translate(-515.385 -153.989)" fill="#333"/>
  <ellipse id="Ellipse_137" data-name="Ellipse 137" cx="0.515" cy="0.964" rx="0.515" ry="0.964" transform="translate(83.959 19.989)" fill="#fdb797"/>
  <ellipse id="Ellipse_138" data-name="Ellipse 138" cx="0.515" cy="0.964" rx="0.515" ry="0.964" transform="translate(72.259 19.989)" fill="#fdb797"/>
  <path id="Path_1035" data-name="Path 1035" d="M576.794,252.749s-7.481-1.165-5.938,10.406l.9,3.317,2.575-.1s-1.671-3.863-.644-6.428S576.794,252.749,576.794,252.749Z" transform="translate(-499.562 -224.717)" fill="#f55f44"/>
  <path id="Path_1036" data-name="Path 1036" d="M626.12,252.749s7.481-1.165,5.938,10.406l-.9,3.317-2.575-.1s1.671-3.863.644-6.428S626.12,252.749,626.12,252.749Z" transform="translate(-546.106 -224.717)" fill="#f55f44"/>
  <circle id="Ellipse_139" data-name="Ellipse 139" cx="1.415" cy="1.415" r="1.415" transform="translate(72.194 40.75)" fill="#fdb797"/>
  <circle id="Ellipse_140" data-name="Ellipse 140" cx="1.415" cy="1.415" r="1.415" transform="translate(82.479 40.75)" fill="#fdb797"/>
  <path id="Path_1037" data-name="Path 1037" d="M458.946,381.79h.5a1.61,1.61,0,0,1,1.61,1.61v.441H457.33V383.4a1.61,1.61,0,0,1,1.616-1.61Z" transform="translate(-383.721 -320.339)" fill="#333"/>
  <path id="Path_1038" data-name="Path 1038" d="M498.086,381.79h.5a1.61,1.61,0,0,1,1.61,1.61v.441H496.47V383.4a1.61,1.61,0,0,1,1.616-1.61Z" transform="translate(-416.561 -320.339)" fill="#333"/>
  <path id="Path_1039" data-name="Path 1039" d="M587.966,291.21s-.515,2.7.386,3.863" transform="translate(-513.971 -257.015)" opacity="0.1"/>
  <path id="Path_1040" data-name="Path 1040" d="M644.226,291.21s.515,2.7-.386,3.863" transform="translate(-560.974 -257.015)" opacity="0.1"/>
</svg>
