<svg id="Img" xmlns="http://www.w3.org/2000/svg" width="134.888" height="120" viewBox="0 0 134.888 120">
  <path id="Path_1041" data-name="Path 1041" d="M187.587,730.873a5.469,5.469,0,0,0,1.962-4.715,4.421,4.421,0,0,0-3.287-3.753,3.721,3.721,0,0,0-4.238,2.355c-.29-3.266-.624-6.669-2.36-9.45a10.008,10.008,0,0,0-7.247-4.643,8.98,8.98,0,0,0-7.9,3.225,8.149,8.149,0,0,0-1,8.39,12.125,12.125,0,0,0,4.532,4.629,29.082,29.082,0,0,0,20.006,4.075Z" transform="translate(-161.21 -611.353)" fill="#f2f2f2"/>
  <path id="Path_1042" data-name="Path 1042" d="M190.928,716.967a47.861,47.861,0,0,1,6.67,6.623,48,48,0,0,1,7.512,12.554c.135.332-.4.476-.537.148a47.732,47.732,0,0,0-14.039-18.931C190.257,717.134,190.653,716.742,190.928,716.967Z" transform="translate(-184.701 -616.689)" fill="#fff"/>
  <path id="Path_1043" data-name="Path 1043" d="M860.754,356.882H842.218a1.056,1.056,0,0,1-1.055-1.055V353.6a1.056,1.056,0,0,1,1.055-1.055h18.536a1.056,1.056,0,0,1,1.055,1.055v2.224A1.056,1.056,0,0,1,860.754,356.882Z" transform="translate(-737.388 -307.23)" fill="#ff9f26"/>
  <path id="Path_1044" data-name="Path 1044" d="M801.756,317.173l-7.9-7.123A.978.978,0,0,0,792.6,310l-17.288,5.708a.98.98,0,0,0-.623,1.237l.7,2.112a.977.977,0,0,0,1.237.623l15.858-5.236,6.47,5.833a.973.973,0,0,0,.655.252h.052a.973.973,0,0,0,.677-.322l1.489-1.652A.981.981,0,0,0,801.756,317.173Z" transform="translate(-680.892 -270.922)" fill="#ff9f26"/>
  <path id="Path_1045" data-name="Path 1045" d="M368.965,712.208a.905.905,0,0,0-.9.9v18.536a.905.905,0,0,0,.9.9h2.224a.905.905,0,0,0,.9-.9V713.112a.9.9,0,0,0-.9-.9Z" transform="translate(-335.562 -612.704)" fill="#ff9f26"/>
  <path id="Path_1046" data-name="Path 1046" d="M401.532,731.854h-2.224a1.056,1.056,0,0,1-1.055-1.055V712.263a1.056,1.056,0,0,1,1.055-1.055h2.224a1.056,1.056,0,0,1,1.055,1.055V730.8A1.056,1.056,0,0,1,401.532,731.854Z" transform="translate(-361.206 -611.855)" fill="#ff9f26"/>
  <path id="Path_1047" data-name="Path 1047" d="M368.328,722.025s.84,7.556-7.642,7.3-5.182-7.681-5.182-7.681,1.773-1.393,6.254-.046S368.328,722.025,368.328,722.025Z" transform="translate(-324.36 -620.18)" fill="#ccc"/>
  <path id="Path_1048" data-name="Path 1048" d="M407.753,564.822a2.166,2.166,0,0,1-1.2-3.973l14.53-9.616a1.055,1.055,0,0,1,1.462.3l1.227,1.855a1.056,1.056,0,0,1-.3,1.462l-14.53,9.617A2.156,2.156,0,0,1,407.753,564.822Z" transform="translate(-367.431 -475.832)" fill="#ff9f26"/>
  <circle id="Ellipse_141" data-name="Ellipse 141" cx="7.685" cy="7.685" r="7.685" transform="translate(30 64.72)" fill="#ff9f26"/>
  <path id="Path_1049" data-name="Path 1049" d="M402.468,524.822a2.772,2.772,0,0,0,1.6-.38,1.225,1.225,0,0,0,.482-.915.824.824,0,0,0-.28-.677,1.064,1.064,0,0,0-1.006-.145l.407-2.972-.3-.041-.478,3.494.249-.114a.912.912,0,0,1,.932.008.53.53,0,0,1,.174.436.927.927,0,0,1-.359.682,2.493,2.493,0,0,1-1.426.322Z" transform="translate(-364.778 -449.191)" fill="#2f2e41"/>
  <rect id="Rectangle_118" data-name="Rectangle 118" width="1.623" height="0.301" transform="translate(40.364 70.798)" fill="#2f2e41"/>
  <rect id="Rectangle_119" data-name="Rectangle 119" width="1.623" height="0.301" transform="translate(35.242 70.798)" fill="#2f2e41"/>
  <path id="Path_1050" data-name="Path 1050" d="M350.9,619.451s-.664-22.559,8.626-21.011,5.419,23.333,5.419,23.333-1.991,3.981-6.856-.442S350.9,619.451,350.9,619.451Z" transform="translate(-320.981 -516.014)" fill="#2f2e41"/>
  <path id="Path_1051" data-name="Path 1051" d="M331.889,461.087c1.5-1.015,3.382-.326,4.835.4,1.411.7,3,1.6,4.6.921a1.909,1.909,0,0,0,1.218-1.475,2.742,2.742,0,0,0-.949-2.159,6.913,6.913,0,0,0-2.074-1.367,9.694,9.694,0,0,0-2.361-.718,10.275,10.275,0,0,0-8.978,2.822,11.384,11.384,0,0,0-3.228,8.75,8.6,8.6,0,0,0,1.768,4.795,5.9,5.9,0,0,0,4.209,2.218,4.72,4.72,0,0,0,1.2-.1c.284-.06.4.375.12.436a5.92,5.92,0,0,1-4.839-1.244,7.934,7.934,0,0,1-2.689-4.577,11.76,11.76,0,0,1,2.3-9.647,10.516,10.516,0,0,1,3.935-3.105,10.926,10.926,0,0,1,5.077-.932,10.111,10.111,0,0,1,4.894,1.551c1.316.85,2.8,2.652,1.725,4.247a2.8,2.8,0,0,1-1.759,1.109,4.317,4.317,0,0,1-2.369-.206c-1.719-.607-3.308-1.963-5.232-1.758a2.551,2.551,0,0,0-1.17.427C331.876,461.641,331.65,461.249,331.889,461.087Z" transform="translate(-298.539 -395.172)" fill="#2f2e41"/>
  <path id="Path_1052" data-name="Path 1052" d="M804.024,214.518a2.091,2.091,0,0,1,.686-3.8l17.025-3.706a.98.98,0,0,1,1.165.749l-.074.016.074-.016.473,2.173a.979.979,0,0,1-.749,1.165L805.6,214.8a2.132,2.132,0,0,1-.224.036,2.075,2.075,0,0,1-1.352-.32Z" transform="translate(-705.029 -183.599)" fill="#ff9f26"/>
  <path id="Path_1053" data-name="Path 1053" d="M799.827,218.407h0q-.015-.061-.027-.122a2.558,2.558,0,0,1,.72-2.186,4.627,4.627,0,0,1,2.452-1.366l7.762-1.7a.98.98,0,0,1,1.172.774l.677,3.567a.974.974,0,0,1-.753,1.139l-7.811,1.709a5.02,5.02,0,0,1-1.072.118A3,3,0,0,1,799.827,218.407Z" transform="translate(-702.223 -188.717)" fill="#2f2e41"/>
  <circle id="Ellipse_142" data-name="Ellipse 142" cx="7.685" cy="7.685" r="7.685" transform="translate(91.278 6.342)" fill="#ff9f26"/>
  <path id="Path_1054" data-name="Path 1054" d="M852.2,134.339a2.772,2.772,0,0,0,1.6-.38,1.226,1.226,0,0,0,.482-.915.824.824,0,0,0-.28-.677,1.064,1.064,0,0,0-1.006-.145l.407-2.972-.3-.041-.478,3.494.249-.114a.912.912,0,0,1,.932.008.53.53,0,0,1,.174.436.926.926,0,0,1-.359.682,2.492,2.492,0,0,1-1.426.322Z" transform="translate(-746.748 -117.538)" fill="#2f2e41"/>
  <rect id="Rectangle_120" data-name="Rectangle 120" width="1.623" height="0.301" transform="translate(102.999 11.968)" fill="#2f2e41"/>
  <path id="Path_1055" data-name="Path 1055" d="M678.153,58.076a6.353,6.353,0,0,0-2.484-4.654,6.187,6.187,0,0,0-5.276-1.006,6.093,6.093,0,0,0-4.051,3.456,6.342,6.342,0,0,0-.544,2.666,7.205,7.205,0,0,0,.728,2.873c.453.987,1.025,1.914,1.521,2.879a22.988,22.988,0,0,1,1.262,2.947,23.232,23.232,0,0,1,1.254,6.385c.184,3.431-.144,8.44-4.017,9.757a9.493,9.493,0,0,1-3.08.394,12.648,12.648,0,0,1-3.228-.378,6.425,6.425,0,0,1-4.344-3.416,4.757,4.757,0,0,1-.358-1.291c-.016-.122.116-.225.226-.226a.232.232,0,0,1,.226.226,5.336,5.336,0,0,0,3.551,4.008,10.2,10.2,0,0,0,3.125.6,11.552,11.552,0,0,0,3.2-.2,4.64,4.64,0,0,0,2.413-1.372,6.239,6.239,0,0,0,1.26-2.279,16.132,16.132,0,0,0,.568-5.863,22.793,22.793,0,0,0-1.28-6.358,22.29,22.29,0,0,0-1.327-3.007c-.5-.947-1.063-1.868-1.487-2.855a7.449,7.449,0,0,1-.67-2.886,6.817,6.817,0,0,1,.539-2.681,6.535,6.535,0,0,1,3.889-3.671,6.727,6.727,0,0,1,5.427.445,6.839,6.839,0,0,1,3.2,4.179,6.544,6.544,0,0,1,.2,1.322c.015.291-.437.29-.452,0Z" transform="translate(-579.727 -51.756)" fill="#2f2e41"/>
  <path id="Path_1056" data-name="Path 1056" d="M774.009,75.439a3.539,3.539,0,0,0-1.184-2.16,3.491,3.491,0,0,0-2.44-.81c-.291.015-.29-.438,0-.452a3.933,3.933,0,0,1,4.06,3.3C774.488,75.6,774.052,75.726,774.009,75.439Z" transform="translate(-677.085 -68.961)" fill="#2f2e41"/>
  <path id="Path_1057" data-name="Path 1057" d="M789.124,84.791a.829.829,0,0,1,.527-1.047l2.146-.709a.829.829,0,1,1,.52,1.574l-2.146.709a.828.828,0,0,1-1.047-.527Z" transform="translate(-693.151 -78.287)" fill="#2f2e41"/>
  <path id="Path_1058" data-name="Path 1058" d="M897.218,139.037a.754.754,0,0,0-.326,1.318l3.317,2.756a.489.489,0,0,1,.118.147.461.461,0,0,1,.045.182l.207,5.054a.737.737,0,0,0,.58.7h.006a.736.736,0,0,0,.827-.373l1.2-2.182a.453.453,0,0,1,.405-.232.439.439,0,0,1,.322.143l5.741,6.126a.749.749,0,0,0,.659.23.756.756,0,0,0,.564-.408l8.418-16.842a.754.754,0,0,0-.829-1.076l-.273.057Zm-.134,1.087a.453.453,0,0,1,.2-.791l20.97-4.393.279-.059a.453.453,0,0,1,.5.645l-8.418,16.842a.452.452,0,0,1-.734.107l-5.741-6.126a.723.723,0,0,0-.2-.151l14.588-10.583a.3.3,0,0,0-.248-.539.26.26,0,0,0-.049.017L900.517,143a.742.742,0,0,0-.117-.119Z" transform="translate(-784.489 -122.09)" fill="#ccc"/>
  <path id="Path_1059" data-name="Path 1059" d="M897.218,139.037a.754.754,0,0,0-.326,1.318l3.317,2.756a.489.489,0,0,1,.118.147.461.461,0,0,1,.045.182l.207,5.054a.737.737,0,0,0,.58.7h.006a.736.736,0,0,0,.827-.373l1.2-2.182a.453.453,0,0,1,.405-.232.439.439,0,0,1,.322.143l5.741,6.126a.749.749,0,0,0,.659.23.756.756,0,0,0,.564-.408l8.418-16.842a.754.754,0,0,0-.829-1.076l-.273.057Zm-.134,1.087a.453.453,0,0,1,.2-.791l20.97-4.393.279-.059a.453.453,0,0,1,.5.645l-8.418,16.842a.452.452,0,0,1-.734.107l-5.741-6.126a.723.723,0,0,0-.2-.151.733.733,0,0,0-.342-.087h-.053a.752.752,0,0,0-.62.389l-1.2,2.183a.439.439,0,0,1-.5.222h0a.438.438,0,0,1-.347-.422l-.207-5.054a.707.707,0,0,0-.023-.158h0a.722.722,0,0,0-.054-.144.705.705,0,0,0-.08-.126.739.739,0,0,0-.117-.119Z" transform="translate(-784.489 -122.09)" fill="#3f3d56"/>
  <path id="Path_1060" data-name="Path 1060" d="M922.107,145.8l17.712-7.906a.259.259,0,0,1,.049-.017.3.3,0,0,1,.248.539L925.528,149l-.257.187-.176-.244.039-.03h0l14.8-10.741-17.7,7.9h0l-.077.033-.123-.275Z" transform="translate(-806.078 -124.893)" fill="#3f3d56"/>
  <path id="Path_1061" data-name="Path 1061" d="M770.949,349.73a.83.83,0,0,0-.829.829v3.014a.83.83,0,0,0,.829.829h9.644a.83.83,0,0,0,.829-.829v-3.014a.83.83,0,0,0-.829-.829Z" transform="translate(-677.046 -304.836)" fill="#2f2e41"/>
  <path id="Path_1062" data-name="Path 1062" d="M765.141,221.484a7.725,7.725,0,0,0-.248,4.15c.766,3.757.481,8.2-.272,12.945a.848.848,0,0,0,.777.9h11.782a.848.848,0,0,0,.777-.9V224.49c0-4.163-2.83-7.57-6.37-7.751-.1-.006-.2-.009-.3-.009A6.75,6.75,0,0,0,765.141,221.484Z" transform="translate(-672.375 -191.875)" fill="#2f2e41"/>
  <path id="Path_1063" data-name="Path 1063" d="M792.976,259.632V242.208a2.091,2.091,0,1,1,4.183,0v17.424a.981.981,0,0,1-.979.979h-2.224A.981.981,0,0,1,792.976,259.632Z" transform="translate(-696.458 -211.738)" fill="#ff9f26"/>
  <path id="Path_1064" data-name="Path 1064" d="M793.623,238.037l-3.161-.139a.981.981,0,0,1-.935-1.022l.222-5.043a2.562,2.562,0,0,1,5.118.225l-.222,5.043a.979.979,0,0,1-.977.936Z" transform="translate(-693.527 -202.622)" fill="#2f2e41"/>
  <ellipse id="Ellipse_143" data-name="Ellipse 143" cx="0.678" cy="2.185" rx="0.678" ry="2.185" transform="translate(104.902 34.272)" fill="#2f2e41"/>
  <circle id="Ellipse_144" data-name="Ellipse 144" cx="3.767" cy="3.767" r="3.767" transform="translate(64.657 56.118)" fill="#ccc"/>
  <path id="Path_1065" data-name="Path 1065" d="M683.871,460.641H654.94a1.205,1.205,0,1,1,0-2.411h28.931a1.205,1.205,0,1,1,0,2.411Z" transform="translate(-578.197 -396.989)" fill="#ccc"/>
  <path id="Path_1066" data-name="Path 1066" d="M676.035,426.641h-21.1a1.205,1.205,0,1,1,0-2.411h21.1a1.205,1.205,0,1,1,0,2.411Z" transform="translate(-578.197 -368.112)" fill="#ccc"/>
  <circle id="Ellipse_145" data-name="Ellipse 145" cx="3.767" cy="3.767" r="3.767" transform="translate(64.657 70.431)" fill="#ccc"/>
  <path id="Path_1067" data-name="Path 1067" d="M683.871,555.641H654.94a1.206,1.206,0,0,1,0-2.411h28.931a1.206,1.206,0,0,1,0,2.411Z" transform="translate(-578.197 -477.676)" fill="#ccc"/>
  <path id="Path_1068" data-name="Path 1068" d="M676.035,521.641h-21.1a1.206,1.206,0,0,1,0-2.411h21.1a1.206,1.206,0,0,1,0,2.411Z" transform="translate(-578.197 -448.799)" fill="#ccc"/>
  <circle id="Ellipse_146" data-name="Ellipse 146" cx="3.767" cy="3.767" r="3.767" transform="translate(64.657 84.895)" fill="#ccc"/>
  <path id="Path_1069" data-name="Path 1069" d="M683.871,651.641H654.94a1.205,1.205,0,1,1,0-2.411h28.931a1.205,1.205,0,1,1,0,2.411Z" transform="translate(-578.197 -559.213)" fill="#ccc"/>
  <path id="Path_1070" data-name="Path 1070" d="M676.035,617.641h-21.1a1.206,1.206,0,0,1,0-2.411h21.1a1.206,1.206,0,0,1,0,2.411Z" transform="translate(-578.197 -530.335)" fill="#ccc"/>
  <path id="Path_1071" data-name="Path 1071" d="M568.153,429.106H508.182a2.565,2.565,0,0,1-2.562-2.562V381.792a2.565,2.565,0,0,1,2.562-2.562h59.971a2.565,2.565,0,0,1,2.562,2.562v44.752A2.565,2.565,0,0,1,568.153,429.106Zm-59.971-49.574a2.263,2.263,0,0,0-2.26,2.26v44.752a2.263,2.263,0,0,0,2.26,2.26h59.971a2.263,2.263,0,0,0,2.26-2.26V381.792a2.263,2.263,0,0,0-2.26-2.26Z" transform="translate(-452.406 -329.896)" fill="#3f3d56"/>
  <circle id="Ellipse_147" data-name="Ellipse 147" cx="8.438" cy="8.438" r="8.438" transform="translate(45.841 41.654)" fill="#ff9f26"/>
  <path id="Path_1072" data-name="Path 1072" d="M490.925,369.42a.875.875,0,0,1-.527-.175l-.009-.007-1.983-1.518a.881.881,0,1,1,1.072-1.4l1.284.985,3.035-3.959a.881.881,0,0,1,1.235-.163l-.019.026.019-.025a.882.882,0,0,1,.163,1.235l-3.57,4.656A.882.882,0,0,1,490.925,369.42Z" transform="translate(-437.482 -316.109)" fill="#fff"/>
  <path id="Path_1073" data-name="Path 1073" d="M412.942,654.99a1.044,1.044,0,0,1-.43-.092h0l-15.9-7.132a2.167,2.167,0,1,1,1.774-3.954l15.9,7.132a1.055,1.055,0,0,1,.531,1.394l-.91,2.029A1.058,1.058,0,0,1,412.942,654.99Z" transform="translate(-358.726 -554.45)" fill="#ff9f26"/>
  <path id="Path_1074" data-name="Path 1074" d="M209.917,846.531h-57.41a.151.151,0,0,1,0-.3h57.41a.151.151,0,0,1,0,.3Z" transform="translate(-152.356 -726.531)" fill="#3f3d56"/>
</svg>
