<svg id="Img" xmlns="http://www.w3.org/2000/svg" width="207.721" height="120" viewBox="0 0 207.721 120">
  <path id="Path_1998" data-name="Path 1998" d="M421.8,365.871a1.779,1.779,0,0,1-.876-.232l-50.672-28.6a1.784,1.784,0,0,1-.676-2.43l39.911-70.486a1.787,1.787,0,0,1,2.434-.675l50.672,28.6a1.784,1.784,0,0,1,.676,2.43l-39.911,70.485a1.774,1.774,0,0,1-1.077.841A1.8,1.8,0,0,1,421.8,365.871Z" transform="translate(-325.853 -252.05)" fill="#e6e6e6"/>
  <rect id="Rectangle_276" data-name="Rectangle 276" width="0.414" height="61.52" transform="matrix(0.492, -0.871, 0.871, 0.492, 81.971, 15.196)" fill="#fff"/>
  <rect id="Rectangle_277" data-name="Rectangle 277" width="0.414" height="61.52" transform="matrix(0.492, -0.871, 0.871, 0.492, 78.313, 21.642)" fill="#fff"/>
  <rect id="Rectangle_278" data-name="Rectangle 278" width="0.414" height="61.52" transform="matrix(0.492, -0.871, 0.871, 0.492, 74.654, 28.113)" fill="#fff"/>
  <rect id="Rectangle_279" data-name="Rectangle 279" width="0.414" height="61.52" transform="matrix(0.492, -0.871, 0.871, 0.492, 70.995, 34.585)" fill="#fff"/>
  <rect id="Rectangle_280" data-name="Rectangle 280" width="0.414" height="61.52" transform="matrix(0.492, -0.871, 0.871, 0.492, 67.336, 41.057)" fill="#fff"/>
  <rect id="Rectangle_281" data-name="Rectangle 281" width="0.414" height="61.52" transform="matrix(0.492, -0.871, 0.871, 0.492, 63.677, 47.528)" fill="#fff"/>
  <rect id="Rectangle_282" data-name="Rectangle 282" width="0.414" height="61.52" transform="matrix(0.492, -0.871, 0.871, 0.492, 60.019, 54)" fill="#fff"/>
  <rect id="Rectangle_283" data-name="Rectangle 283" width="0.414" height="61.52" transform="matrix(0.492, -0.871, 0.871, 0.492, 56.36, 60.472)" fill="#fff"/>
  <rect id="Rectangle_284" data-name="Rectangle 284" width="0.414" height="61.52" transform="matrix(0.492, -0.871, 0.871, 0.492, 52.701, 66.943)" fill="#fff"/>
  <rect id="Rectangle_285" data-name="Rectangle 285" width="0.414" height="61.52" transform="matrix(0.492, -0.871, 0.871, 0.492, 49.042, 73.386)" fill="#fff"/>
  <rect id="Rectangle_286" data-name="Rectangle 286" width="0.414" height="61.52" transform="matrix(0.492, -0.871, 0.871, 0.492, 45.383, 79.869)" fill="#fff"/>
  <path id="Path_1999" data-name="Path 1999" d="M403.8,324.871a1.779,1.779,0,0,1-.876-.232l-50.672-28.6a1.784,1.784,0,0,1-.676-2.43l39.911-70.486a1.787,1.787,0,0,1,2.434-.675l50.672,28.6a1.784,1.784,0,0,1,.676,2.43l-39.911,70.485a1.774,1.774,0,0,1-1.077.841A1.8,1.8,0,0,1,403.8,324.871Z" transform="translate(-312.556 -221.787)" fill="#f2f2f2"/>
  <rect id="Rectangle_287" data-name="Rectangle 287" width="0.414" height="61.52" transform="matrix(0.492, -0.871, 0.871, 0.492, 77.266, 4.459)" fill="#fff"/>
  <rect id="Rectangle_288" data-name="Rectangle 288" width="0.414" height="61.52" transform="matrix(0.492, -0.871, 0.871, 0.492, 73.607, 10.942)" fill="#fff"/>
  <rect id="Rectangle_289" data-name="Rectangle 289" width="0.414" height="61.52" transform="matrix(0.492, -0.871, 0.871, 0.492, 69.948, 17.425)" fill="#fff"/>
  <rect id="Rectangle_290" data-name="Rectangle 290" width="0.414" height="61.52" transform="matrix(0.492, -0.871, 0.871, 0.492, 66.289, 23.867)" fill="#fff"/>
  <rect id="Rectangle_291" data-name="Rectangle 291" width="0.414" height="61.52" transform="matrix(0.492, -0.871, 0.871, 0.492, 62.631, 30.339)" fill="#fff"/>
  <rect id="Rectangle_292" data-name="Rectangle 292" width="0.414" height="61.52" transform="matrix(0.492, -0.871, 0.871, 0.492, 58.972, 36.81)" fill="#fff"/>
  <rect id="Rectangle_293" data-name="Rectangle 293" width="0.414" height="61.52" transform="matrix(0.492, -0.871, 0.871, 0.492, 55.313, 43.282)" fill="#fff"/>
  <rect id="Rectangle_294" data-name="Rectangle 294" width="0.414" height="61.52" transform="matrix(0.492, -0.871, 0.871, 0.492, 51.654, 49.754)" fill="#fff"/>
  <rect id="Rectangle_295" data-name="Rectangle 295" width="0.414" height="61.52" transform="matrix(0.492, -0.871, 0.871, 0.492, 47.995, 56.225)" fill="#fff"/>
  <rect id="Rectangle_296" data-name="Rectangle 296" width="0.414" height="61.52" transform="matrix(0.492, -0.871, 0.871, 0.492, 44.337, 62.697)" fill="#fff"/>
  <rect id="Rectangle_297" data-name="Rectangle 297" width="0.414" height="61.52" transform="matrix(0.492, -0.871, 0.871, 0.492, 40.678, 69.169)" fill="#fff"/>
  <path id="Path_2000" data-name="Path 2000" d="M304.108,220.586H223.126v112.45h80.982a1.1,1.1,0,0,0,1.1-1.1V221.681a1.1,1.1,0,0,0-1.1-1.1ZM227.7,329.933a2.008,2.008,0,1,1,2.011-2.008,2.009,2.009,0,0,1-2.011,2.008Zm0-10.223a2.008,2.008,0,1,1,2.011-2.008,2.009,2.009,0,0,1-2.011,2.008Zm0-10.223a2.008,2.008,0,1,1,2.011-2.008A2.009,2.009,0,0,1,227.7,309.487Zm0-10.223a2.008,2.008,0,1,1,2.011-2.008,2.009,2.009,0,0,1-2.011,2.008Zm0-10.223a2.008,2.008,0,1,1,2.011-2.008,2.009,2.009,0,0,1-2.011,2.008Zm0-10.223a2.008,2.008,0,1,1,2.011-2.008,2.009,2.009,0,0,1-2.011,2.008Zm0-10.223a2.008,2.008,0,1,1,2.011-2.008A2.009,2.009,0,0,1,227.7,268.6Zm0-10.223a2.008,2.008,0,1,1,2.011-2.008,2.009,2.009,0,0,1-2.011,2.008Zm0-10.223a2.008,2.008,0,1,1,2.011-2.008,2.009,2.009,0,0,1-2.011,2.008Zm0-10.223a2.008,2.008,0,1,1,2.011-2.008,2.009,2.009,0,0,1-2.011,2.008Zm0-10.223a2.008,2.008,0,1,1,2.011-2.008,2.009,2.009,0,0,1-2.011,2.008Z" transform="translate(-217.825 -220.586)" fill="#3f3d56"/>
  <path id="Path_2001" data-name="Path 2001" d="M208.184,239.167c-.543,0-5.3-.026-5.3-.914s4.759-.914,5.3-.914v.366c-2.8,0-4.62.314-4.913.548.293.235,2.11.548,4.913.548s4.612-.312,4.911-.547a6.1,6.1,0,0,0-2.281-.446l.031-.364c2.64.228,2.64.65,2.64.808C213.485,239.141,208.726,239.167,208.184,239.167Z" transform="translate(-202.882 -232.952)" fill="#2f2e41"/>
  <path id="Path_2002" data-name="Path 2002" d="M208.184,277.56c-.543,0-5.3-.026-5.3-.914s4.759-.914,5.3-.914v.366c-2.8,0-4.62.314-4.913.548.293.235,2.11.548,4.913.548s4.612-.312,4.911-.547a6.1,6.1,0,0,0-2.281-.446l.031-.364c2.64.228,2.64.65,2.64.808C213.485,277.534,208.726,277.56,208.184,277.56Z" transform="translate(-202.882 -261.29)" fill="#2f2e41"/>
  <path id="Path_2003" data-name="Path 2003" d="M208.184,316.651c-.543,0-5.3-.026-5.3-.914s4.759-.914,5.3-.914v.366c-2.8,0-4.62.314-4.913.548.293.235,2.11.548,4.913.548s4.612-.312,4.911-.547a6.1,6.1,0,0,0-2.281-.446l.031-.364c2.64.228,2.64.65,2.64.808C213.485,316.625,208.726,316.651,208.184,316.651Z" transform="translate(-202.882 -290.177)" fill="#2f2e41"/>
  <path id="Path_2004" data-name="Path 2004" d="M208.184,355.742c-.543,0-5.3-.026-5.3-.914s4.759-.914,5.3-.914v.366c-2.8,0-4.62.314-4.913.548.293.235,2.11.548,4.913.548s4.612-.312,4.911-.547a6.1,6.1,0,0,0-2.281-.446l.031-.364c2.64.228,2.64.65,2.64.808C213.485,355.716,208.726,355.742,208.184,355.742Z" transform="translate(-202.882 -319.044)" fill="#2f2e41"/>
  <path id="Path_2005" data-name="Path 2005" d="M208.184,394.833c-.543,0-5.3-.026-5.3-.914s4.759-.914,5.3-.914v.366c-2.8,0-4.62.314-4.913.548.293.235,2.11.548,4.913.548s4.612-.312,4.911-.547a6.1,6.1,0,0,0-2.281-.446l.031-.364c2.64.228,2.64.65,2.64.808C213.485,394.807,208.726,394.833,208.184,394.833Z" transform="translate(-202.882 -347.912)" fill="#2f2e41"/>
  <path id="Path_2006" data-name="Path 2006" d="M208.184,433.924c-.543,0-5.3-.026-5.3-.914s4.759-.914,5.3-.914v.366c-2.8,0-4.62.314-4.913.548.293.235,2.11.548,4.913.548s4.612-.312,4.911-.547a6.1,6.1,0,0,0-2.281-.446l.031-.364c2.64.228,2.64.65,2.64.808C213.485,433.9,208.726,433.924,208.184,433.924Z" transform="translate(-202.882 -376.779)" fill="#2f2e41"/>
  <path id="Path_2007" data-name="Path 2007" d="M208.184,473.014c-.543,0-5.3-.026-5.3-.914s4.759-.914,5.3-.914v.366c-2.8,0-4.62.314-4.913.548.293.235,2.11.548,4.913.548s4.612-.312,4.911-.547a6.1,6.1,0,0,0-2.281-.446l.031-.364c2.64.228,2.64.65,2.64.808C213.485,472.989,208.726,473.014,208.184,473.014Z" transform="translate(-202.882 -405.647)" fill="#2f2e41"/>
  <path id="Path_2008" data-name="Path 2008" d="M208.184,512.105c-.543,0-5.3-.026-5.3-.914s4.759-.914,5.3-.914v.366c-2.8,0-4.62.314-4.913.548.293.235,2.11.548,4.913.548s4.612-.312,4.911-.547a6.1,6.1,0,0,0-2.281-.446l.031-.364c2.64.228,2.64.65,2.64.808C213.485,512.08,208.726,512.105,208.184,512.105Z" transform="translate(-202.882 -434.514)" fill="#2f2e41"/>
  <path id="Path_2009" data-name="Path 2009" d="M208.184,551.2c-.543,0-5.3-.026-5.3-.914s4.759-.914,5.3-.914v.366c-2.8,0-4.62.314-4.913.548.293.235,2.11.548,4.913.548s4.612-.312,4.911-.547a6.1,6.1,0,0,0-2.281-.446l.031-.364c2.64.228,2.64.65,2.64.808C213.485,551.171,208.726,551.2,208.184,551.2Z" transform="translate(-202.882 -463.382)" fill="#2f2e41"/>
  <path id="Path_2010" data-name="Path 2010" d="M208.184,590.287c-.543,0-5.3-.026-5.3-.914s4.759-.914,5.3-.914v.366c-2.8,0-4.62.314-4.913.548.293.235,2.11.548,4.913.548s4.612-.312,4.911-.547a6.1,6.1,0,0,0-2.281-.446l.031-.364c2.64.228,2.64.65,2.64.808C213.485,590.262,208.726,590.287,208.184,590.287Z" transform="translate(-202.882 -492.278)" fill="#2f2e41"/>
  <path id="Path_2011" data-name="Path 2011" d="M208.184,629.378c-.543,0-5.3-.026-5.3-.914s4.759-.914,5.3-.914v.366c-2.8,0-4.62.314-4.913.548.293.235,2.11.548,4.913.548s4.612-.312,4.911-.547a6.1,6.1,0,0,0-2.281-.446l.031-.364c2.64.228,2.64.65,2.64.808C213.485,629.353,208.726,629.378,208.184,629.378Z" transform="translate(-202.882 -521.132)" fill="#2f2e41"/>
  <path id="Path_2012" data-name="Path 2012" d="M352.486,333.967H312.269a1.19,1.19,0,0,1-1.188-1.188V317.058a1.19,1.19,0,0,1,1.188-1.188h40.217a1.19,1.19,0,0,1,1.188,1.188v15.721A1.19,1.19,0,0,1,352.486,333.967Z" transform="translate(-282.746 -290.955)" fill="#fff"/>
  <path id="Path_2013" data-name="Path 2013" d="M380.519,331.31H370.282a.914.914,0,0,1,0-1.828h10.237a.914.914,0,0,1,0,1.828Z" transform="translate(-325.829 -301.002)" fill="#ff9f26"/>
  <path id="Path_2014" data-name="Path 2014" d="M370.213,348.761H348.642a.914.914,0,0,1,0-1.828h21.571a.914.914,0,1,1,0,1.828Z" transform="translate(-309.852 -313.889)" fill="#ff9f26"/>
  <path id="Path_2015" data-name="Path 2015" d="M370.213,366.213H348.642a.914.914,0,0,1,0-1.828h21.571a.914.914,0,0,1,0,1.828Z" transform="translate(-309.852 -326.777)" fill="#ff9f26"/>
  <path id="Path_2016" data-name="Path 2016" d="M820.757,318.984a3.032,3.032,0,0,0,2.368-4.926c-1.493-1.866-4.763-1.58-6.07-3.581-1.108-1.7-.085-4.023,1.391-5.41a9.734,9.734,0,0,1,16.33,8.25c-.179,1.5-.6,3.32.568,4.282,1.033.854,2.56.369,3.857.033a13.759,13.759,0,0,1,11.3,2.1,10.909,10.909,0,0,1,4.766,8.556c0,3.391-2.308,6.808-5.613,7.567-3.239.744-6.578-1.065-8.87-3.473s-3.865-5.4-5.953-7.988-4.978-4.863-8.3-4.923c-1.925-.035-4.033.643-5.668-.376" transform="translate(-656.143 -281.069)" fill="#2f2e41"/>
  <circle id="Ellipse_277" data-name="Ellipse 277" cx="6.432" cy="6.432" r="6.432" transform="translate(159.66 26.401)" fill="#ffb8b8"/>
  <path id="Path_2017" data-name="Path 2017" d="M785.391,473.7a2.633,2.633,0,0,1,2.195-3.389l1.965-9.15,3.407,3.47-2.388,8.157a2.648,2.648,0,0,1-5.179.913Z" transform="translate(-632.965 -398.254)" fill="#ffb8b8"/>
  <path id="Path_2018" data-name="Path 2018" d="M673.288,351.349l-3.155.592L660.62,320.7l6.752-.874Z" transform="translate(-487.89 -236.225)" fill="#ffb8b8"/>
  <path id="Path_2019" data-name="Path 2019" d="M3.9,0H10.09V3.9H0A3.9,3.9,0,0,1,3.9,0Z" transform="matrix(0.983, -0.184, 0.184, 0.983, 175.987, 115.957)" fill="#2f2e41"/>
  <path id="Path_2020" data-name="Path 2020" d="M619.631,365.08h-3.21l-.48-28.934h6.833Z" transform="translate(-454.858 -248.274)" fill="#ffb8b8"/>
  <path id="Path_2021" data-name="Path 2021" d="M598.028,443.13h6.192v3.9H594.13A3.9,3.9,0,0,1,598.028,443.13Z" transform="translate(-438.754 -327.241)" fill="#2f2e41"/>
  <path id="Path_2022" data-name="Path 2022" d="M804.658,428.9l.295-14.141c-.023-.2-2.342-21.622-3.206-27.1a8.64,8.64,0,0,1,3.706-8.443c.2-.083.387-.154.57-.221h0a12.167,12.167,0,0,1,12.711,2.583,12.573,12.573,0,0,1,3.547,12.75l-1.6,5.542c8.2,14.828,9.885,21.208,9.9,21.271l0,.019v.02c-.294,5.88-24.743,7.634-25.784,7.706Z" transform="translate(-645.106 -337.024)" fill="#ff9f26"/>
  <path id="Path_2023" data-name="Path 2023" d="M587.4,183.616l-5.541,21.871,9.915,1.166Z" transform="translate(-429.692 -135.609)" fill="#ff9f26"/>
  <path id="Path_2024" data-name="Path 2024" d="M856.919,447.193a2.633,2.633,0,0,1,3.5-2.007l5.939-7.232L867.8,442.6l-5.86,6.155a2.648,2.648,0,0,1-5.021-1.562Z" transform="translate(-685.88 -381.113)" fill="#ffb8b8"/>
  <path id="Path_2025" data-name="Path 2025" d="M848.358,409.56l-5.17-3.345,4.92-5.21-13.341-4.061,3.433-10,4.223.6,10.734,7.951a6.5,6.5,0,0,1,1.4,9l-.023.025Z" transform="translate(-669.563 -343.45)" fill="#ff9f26"/>
  <path id="Path_2026" data-name="Path 2026" d="M815.85,320.776a21.076,21.076,0,0,0,9.118,3l-.961-1.152a7.062,7.062,0,0,0,2.182.433,2.389,2.389,0,0,0,1.948-.912,2.222,2.222,0,0,0,.149-2.053,4.209,4.209,0,0,0-1.324-1.656,7.884,7.884,0,0,0-7.338-1.311,4.712,4.712,0,0,0-2.192,1.406c-.554.683-1.762,1.3-1.479,2.131Z" transform="translate(-655.551 -291.595)" fill="#2f2e41"/>
  <path id="Path_2027" data-name="Path 2027" d="M770.442,677.656H690.754a.312.312,0,1,1,0-.624h79.688a.312.312,0,1,1,0,.624Z" transform="translate(-563.033 -557.656)" fill="#3f3d56"/>
</svg>
