<svg xmlns="http://www.w3.org/2000/svg" xmlns:xlink="http://www.w3.org/1999/xlink" width="60" height="60" viewBox="0 0 60 60">
  <defs>
    <linearGradient id="linear-gradient" x1="0.5" x2="0.5" y2="1" gradientUnits="objectBoundingBox">
      <stop offset="0" stop-color="#fae000"/>
      <stop offset="1" stop-color="#f2557a"/>
    </linearGradient>
  </defs>
  <g id="Group_154" data-name="Group 154" transform="translate(-786 -2057)">
    <circle id="Ellipse_3" data-name="Ellipse 3" cx="30" cy="30" r="30" transform="translate(786 2057)" fill="url(#linear-gradient)"/>
    <path id="fi-sr-time-twenty-four" d="M14.6,21.3c-.3.226-.619.464-.89.7H16a1,1,0,0,1,0,2H12a1,1,0,0,1-1-1c0-1.5,1.275-2.456,2.4-3.3.75-.562,1.6-1.2,1.6-1.7a1,1,0,0,0-2,0,1,1,0,0,1-2,0,3,3,0,1,1,6,0C17,19.5,15.725,20.456,14.6,21.3ZM23,15a1,1,0,0,0-1,1v3H21a1,1,0,0,1-1-1V16a1,1,0,0,0-2,0v2a3,3,0,0,0,3,3h1v2a1,1,0,0,0,2,0V16A1,1,0,0,0,23,15ZM13,12V7a1,1,0,0,0-2,0v4H8a1,1,0,0,0,0,2h4A1,1,0,0,0,13,12ZM23,2a1,1,0,0,0-1,1V5.374A12,12,0,1,0,7.636,23.182,1.015,1.015,0,0,0,8,23.25a1,1,0,0,0,.364-1.932A10,10,0,1,1,20.636,7H18a1,1,0,0,0,0,2h3a3,3,0,0,0,3-3V3A1,1,0,0,0,23,2Z" transform="translate(804.003 2074.999)" fill="#fff"/>
  </g>
</svg>
