<svg xmlns="http://www.w3.org/2000/svg" xmlns:xlink="http://www.w3.org/1999/xlink" width="60" height="60" viewBox="0 0 60 60">
  <defs>
    <linearGradient id="linear-gradient" x1="0.5" x2="0.5" y2="1" gradientUnits="objectBoundingBox">
      <stop offset="0" stop-color="#00aeef"/>
      <stop offset="1" stop-color="#0f5ec9"/>
    </linearGradient>
  </defs>
  <g id="Group_151" data-name="Group 151" transform="translate(-786 -1797)">
    <circle id="Ellipse_1" data-name="Ellipse 1" cx="30" cy="30" r="30" transform="translate(786 1797)" fill="url(#linear-gradient)"/>
    <path id="fi-sr-trophy" d="M14.09,16H15c6.643,0,9-3.5,9-6.5a3.5,3.5,0,0,0-2.84-3.433,7.564,7.564,0,0,0,.409-1,3.887,3.887,0,0,0-.626-3.458A3.979,3.979,0,0,0,17.729,0H6.271A3.979,3.979,0,0,0,3.057,1.612,3.887,3.887,0,0,0,2.431,5.07a7.564,7.564,0,0,0,.409,1A3.5,3.5,0,0,0,0,9.5c0,3,2.357,6.5,9,6.5h.91a5.027,5.027,0,0,1,.09.921V20a1.883,1.883,0,0,1-2,2H6a1,1,0,0,0,0,2H18a1,1,0,0,0,0-2H16.006A1.885,1.885,0,0,1,14,20V16.92a5.025,5.025,0,0,1,.09-.92Zm1.636-2.851a23.486,23.486,0,0,0,4.4-5.225A1,1,0,0,0,20.5,8,1.5,1.5,0,0,1,22,9.5c0,2.176-1.839,4.5-7,4.5h-.056A4.805,4.805,0,0,1,15.726,13.149ZM9,14c-5.161,0-7-2.324-7-4.5A1.5,1.5,0,0,1,3.5,8a1,1,0,0,0,.375-.076,23.486,23.486,0,0,0,4.4,5.225A4.805,4.805,0,0,1,9.056,14Z" transform="translate(804 1815)" fill="#fff"/>
  </g>
</svg>
