<svg xmlns="http://www.w3.org/2000/svg" xmlns:xlink="http://www.w3.org/1999/xlink" width="680" height="500" viewBox="0 0 680 500">
  <defs>
    <linearGradient id="linear-gradient" x1="0.501" y1="1" x2="0.501" gradientUnits="objectBoundingBox">
      <stop offset="0" stop-color="gray" stop-opacity="0.251"/>
      <stop offset="0.54" stop-color="gray" stop-opacity="0.122"/>
      <stop offset="1" stop-color="gray" stop-opacity="0.102"/>
    </linearGradient>
  </defs>
  <g id="Img" transform="translate(0 0.003)">
    <path id="Path_475" data-name="Path 475" d="M470.724,118.282c-40.129-1.4-78.349-14.387-114.844-28.6S283.236,59.719,244.043,52.19c-25.167-4.843-53.981-5.527-74.281,8.008-19.531,13.057-25.843,35.533-29.235,56.405-2.555,15.712-4.055,32.238,2.939,46.942,4.861,10.209,13.48,18.789,19.445,28.6,20.753,34.022,6.083,75.978-16.4,109.2-10.541,15.581-22.787,30.466-30.928,47.042s-11.9,35.6-4.781,52.513c7.056,16.787,23.878,29.372,42.1,38.238,37.01,17.994,80.605,23.148,123.147,26.064,94.141,6.46,188.778,3.662,283.167.864,34.933-1.038,70.015-2.089,104.378-7.5,19.085-3.009,38.784-7.784,52.635-19.274,17.591-14.63,21.949-39.407,10.162-57.748-19.767-30.771-74.405-38.418-88.238-71.439-7.6-18.174.2-38.424,11.26-55.28,23.71-36.167,63.449-67.889,65.538-109.229,1.438-28.389-17.665-56.822-47.2-70.258-30.959-14.083-73.9-12.311-96.726,11C547.492,110.28,506.159,119.513,470.724,118.282Z" transform="translate(-72.674 -49.02)" fill="#ff9f26" opacity="0.1"/>
    <g id="Group_1" data-name="Group 1" transform="translate(256.324 69.722)" opacity="0.9">
      <rect id="Rectangle_47" data-name="Rectangle 47" width="5.509" height="45.4" rx="2.29" transform="translate(183.181 84.668)" fill="#3a3768"/>
      <rect id="Rectangle_48" data-name="Rectangle 48" width="3.09" height="14.947" rx="1.545" transform="translate(0.112 49.392)" fill="#3a3768"/>
      <rect id="Rectangle_49" data-name="Rectangle 49" width="3.482" height="26.014" rx="1.741" transform="translate(0 76.51)" fill="#3a3768"/>
      <rect id="Rectangle_50" data-name="Rectangle 50" width="3.314" height="26.238" rx="1.657" transform="translate(0.056 111.514)" fill="#3a3768"/>
      <rect id="Rectangle_51" data-name="Rectangle 51" width="184.287" height="373.422" rx="22" transform="translate(1.865)" fill="#222f3e"/>
      <rect id="Rectangle_52" data-name="Rectangle 52" width="25.734" height="5.223" rx="2.611" transform="translate(76.227 11.179)" fill="#e6e8ec"/>
      <circle id="Ellipse_22" data-name="Ellipse 22" cx="2.966" cy="2.966" r="2.966" transform="translate(105.853 10.831)" fill="#e6e8ec"/>
    </g>
    <ellipse id="Ellipse_23" data-name="Ellipse 23" cx="124.332" cy="12.671" rx="124.332" ry="12.671" transform="translate(23.67 439.091)" fill="#ff9f26" opacity="0.1"/>
    <ellipse id="Ellipse_24" data-name="Ellipse 24" cx="58.246" cy="5.938" rx="58.246" ry="5.938" transform="translate(365.093 488.122)" fill="#ff9f26" opacity="0.1"/>
    <ellipse id="Ellipse_25" data-name="Ellipse 25" cx="58.246" cy="5.938" rx="58.246" ry="5.938" transform="translate(563.508 458.203)" fill="#ff9f26" opacity="0.1"/>
    <path id="Path_476" data-name="Path 476" d="M633.654,176.84H612.577v2.543a12.05,12.05,0,0,1-12.05,12.05H533.266a12.05,12.05,0,0,1-12.05-12.05V176.84h-19.8a14.63,14.63,0,0,0-14.63,14.636V517.231a14.63,14.63,0,0,0,14.63,14.636H633.654a14.636,14.636,0,0,0,14.636-14.636V191.476a14.636,14.636,0,0,0-14.636-14.636Z" transform="translate(-217.213 -98.484)" fill="#ff9f26"/>
    <path id="Path_477" data-name="Path 477" d="M839.09,134.689s-52.352-3.159-46.178,33.525c0,0-1.243,6.485,4.651,9.426,0,0,.093-2.717,5.366-1.8a23.9,23.9,0,0,0,5.689.274,11.814,11.814,0,0,0,6.958-2.866h0s14.711-6.081,20.437-30.13c0,0,4.234-5.248,4.066-6.6l-8.835,3.774s3.016,6.373.622,11.67c0,0-.286-11.44-1.983-11.192-.348.05-4.595,2.207-4.595,2.207s5.2,11.1,1.243,19.169c0,0,1.486-13.679-2.9-18.367l-6.218,3.631s6.068,11.465,1.959,20.822c0,0,1.051-14.35-3.264-19.94l-5.633,4.4s5.7,11.3,2.226,19.057c0,0-.46-16.7-3.451-17.962,0,0-4.931,4.352-5.683,6.131,0,0,3.9,8.207,1.486,12.535,0,0-1.486-11.129-2.7-11.192,0,0-4.912,7.374-5.422,12.435,0,0,.211-7.517,4.228-13.131,0,0-4.744.814-7.517,3.892,0,0,.765-5.21,8.7-5.67,0,0,4.06-5.6,5.148-5.932,0,0-7.927-.665-12.734,1.467,0,0,4.228-4.918,14.188-2.68l5.558-4.545s-10.433-1.424-14.86.149c0,0,5.1-4.352,16.365-1.181l6.056-3.619s-8.9-1.921-14.2-1.244c0,0,5.6-3.015,15.973.255l4.352-1.946s-6.522-1.281-8.431-1.486-2.008-.727-2.008-.727a22.6,22.6,0,0,1,12.329,1.405S839.245,135.267,839.09,134.689Z" transform="translate(-333.168 -81.399)" fill="#ff9f26"/>
    <path id="Path_478" data-name="Path 478" d="M768.3,108.471s-23.627-1.424-20.866,15.152a4.044,4.044,0,0,0,2.1,4.259s.044-1.243,2.425-.814a10.887,10.887,0,0,0,2.568.124,5.359,5.359,0,0,0,3.146-1.293h0s6.647-2.748,9.233-13.616c0,0,1.915-2.369,1.865-2.978l-3.992,1.7s1.362,2.879.286,5.272c0,0-.124-5.167-.9-5.049-.155,0-2.07,1-2.07,1s2.344,5.011.572,8.661c0,0,.671-6.18-1.306-8.3l-2.81,1.641s2.742,5.179.883,9.407c0,0,.479-6.485-1.474-9.009l-2.549,1.99s2.58,5.1,1.007,8.611c0,0-.205-7.548-1.554-8.12a15.36,15.36,0,0,0-2.568,2.773s1.759,3.731.665,5.664c0,0-.671-5.03-1.244-5.055,0,0-2.22,3.333-2.45,5.6a12.1,12.1,0,0,1,1.909-5.932,6.659,6.659,0,0,0-3.395,1.76s.342-2.356,3.942-2.562c0,0,1.834-2.531,2.325-2.686,0,0-3.581-.3-5.751.665,0,0,1.909-2.22,6.41-1.243l2.487-2.052s-4.713-.622-6.715.068c0,0,2.307-1.965,7.393-.535l2.736-1.635a24.854,24.854,0,0,0-6.41-.553s2.524-1.362,7.212.112l1.959-.877s-2.941-.578-3.805-.671-.908-.33-.908-.33a10.172,10.172,0,0,1,5.527.622S768.368,108.733,768.3,108.471Z" transform="translate(-315.949 -71.497)" fill="#ff9f26"/>
    <ellipse id="Ellipse_26" data-name="Ellipse 26" cx="25.001" cy="4.228" rx="25.001" ry="4.228" transform="translate(0 416.558)" fill="#ff9f26"/>
    <path id="Path_479" data-name="Path 479" d="M94.524,709.451a7.231,7.231,0,0,0,2.388-3.594,3.222,3.222,0,0,0-1.666-3.662c-1.53-.591-3.165.473-4.4,1.542s-2.661,2.294-4.284,2.064a6.51,6.51,0,0,0,2-6.1,2.487,2.487,0,0,0-.56-1.243c-.846-.908-2.388-.516-3.407.2-3.233,2.276-4.135,6.665-4.147,10.62a19.591,19.591,0,0,1-.062-4.352c-.006-1.436-.41-3.109-1.641-3.867a4.974,4.974,0,0,0-2.487-.591c-1.455-.05-3.071.093-4.066,1.156-1.244,1.318-.914,3.538.162,4.974a16.256,16.256,0,0,0,4.2,3.37,9.276,9.276,0,0,1,3.009,2.866,2.743,2.743,0,0,1,.224.51h9.109a25.351,25.351,0,0,0,5.633-3.892Z" transform="translate(-59.19 -295.585)" fill="#ff9f26"/>
    <path id="Path_480" data-name="Path 480" d="M873.336,632.54s5.378,7.038-2.487,17.658-14.344,19.585-11.72,26.207c0,0,11.863-19.722,21.519-20S883.956,644.4,873.336,632.54Z" transform="translate(-358.25 -270.621)" fill="#ff9f26"/>
    <path id="Path_481" data-name="Path 481" d="M873.523,632.54a8.858,8.858,0,0,1,1.1,2.207c9.42,11.067,14.437,21.4,5.378,21.656-8.431.242-18.553,15.326-20.972,19.131a7.136,7.136,0,0,0,.286.87s11.863-19.722,21.519-20S884.143,644.4,873.523,632.54Z" transform="translate(-358.437 -270.621)" opacity="0.1"/>
    <path id="Path_482" data-name="Path 482" d="M897.663,646.035c0,2.487-.28,4.483-.622,4.483s-.622-2.008-.622-4.483.348-1.306.69-1.306S897.663,643.548,897.663,646.035Z" transform="translate(-372.589 -275.075)" fill="#ffd037"/>
    <path id="Path_483" data-name="Path 483" d="M901.357,650.686c-2.176,1.181-4.066,1.9-4.234,1.6s1.467-1.5,3.643-2.692,1.312-.317,1.48,0S903.533,649.5,901.357,650.686Z" transform="translate(-372.86 -276.793)" fill="#ffd037"/>
    <path id="Path_484" data-name="Path 484" d="M829.3,632.54s-5.378,7.038,2.487,17.658,14.344,19.585,11.726,26.207c0,0-11.863-19.722-21.519-20S818.679,644.4,829.3,632.54Z" transform="translate(-342.558 -270.621)" fill="#ff9f26"/>
    <path id="Path_485" data-name="Path 485" d="M829.3,632.54a8.616,8.616,0,0,0-1.1,2.207c-9.419,11.067-14.437,21.4-5.384,21.656,8.437.242,18.553,15.326,20.978,19.131a8.388,8.388,0,0,1-.286.87s-11.863-19.722-21.519-20S818.676,644.4,829.3,632.54Z" transform="translate(-342.555 -270.621)" opacity="0.1"/>
    <path id="Path_486" data-name="Path 486" d="M820.55,646.035c0,2.487.28,4.483.622,4.483s.622-2.008.622-4.483-.348-1.306-.69-1.306S820.55,643.548,820.55,646.035Z" transform="translate(-343.772 -275.075)" fill="#ffd037"/>
    <path id="Path_487" data-name="Path 487" d="M814.2,650.686c2.17,1.181,4.066,1.9,4.228,1.6s-1.461-1.5-3.637-2.692-1.318-.317-1.48,0S812.05,649.5,814.2,650.686Z" transform="translate(-340.869 -276.793)" fill="#ffd037"/>
    <path id="Path_488" data-name="Path 488" d="M823.31,696.665s15.04-.466,19.573-3.693,23.135-7.082,24.248-1.9,22.6,25.747,5.6,25.884-39.456-2.649-43.977-5.4S823.31,696.665,823.31,696.665Z" transform="translate(-344.927 -292.032)" fill="#a8a8a8"/>
    <path id="Path_489" data-name="Path 489" d="M873.069,720.083c-16.98.137-39.456-2.649-43.977-5.4-3.451-2.1-4.819-9.625-5.279-13.1h-.5s.951,12.13,5.478,14.885,27,5.54,43.977,5.4c4.9-.044,6.6-1.784,6.5-4.352C878.584,719.076,876.719,720.052,873.069,720.083Z" transform="translate(-344.927 -296.966)" opacity="0.2"/>
    <rect id="Rectangle_53" data-name="Rectangle 53" width="48.515" height="48.515" transform="translate(362.442 302.586)" fill="#3a3768" opacity="0.3"/>
    <rect id="Rectangle_54" data-name="Rectangle 54" width="48.515" height="48.515" transform="translate(291.135 238.703)" fill="#3a3768" opacity="0.3"/>
    <rect id="Rectangle_55" data-name="Rectangle 55" width="48.515" height="48.515" transform="translate(295.786 365.377)" fill="#3a3768" opacity="0.3"/>
    <rect id="Rectangle_56" data-name="Rectangle 56" width="48.515" height="48.515" transform="translate(284.991 119.875)" fill="#fff"/>
    <rect id="Rectangle_57" data-name="Rectangle 57" width="48.515" height="48.515" transform="matrix(0.742, -0.671, 0.671, 0.742, 365.213, 317.66)" fill="#fff"/>
    <rect id="Rectangle_58" data-name="Rectangle 58" width="48.515" height="48.515" transform="translate(361.642 178.194)" fill="#fff"/>
    <rect id="Rectangle_59" data-name="Rectangle 59" width="48.515" height="48.515" transform="translate(300.48 232.154)" fill="#fff"/>
    <path id="Path_490" data-name="Path 490" d="M1022.857,777.562c2.823.367,5.751.622,8.456-.286.417-.131.9-.417.839-.846a1,1,0,0,0-.193-.41,26.372,26.372,0,0,1-2.568-4.868.4.4,0,0,0-.156-.218.379.379,0,0,0-.274,0c-1.243.323-2.325,1.132-3.569,1.474a5.1,5.1,0,0,1-1.94.149c-.56-.062-1.331-.529-1.834-.473C1021.931,773.931,1022.64,775.679,1022.857,777.562Z" transform="translate(-420.34 -323.189)" fill="#ff9f26"/>
    <path id="Path_491" data-name="Path 491" d="M1107.656,768.122a14.446,14.446,0,0,0,4.893-4.595.753.753,0,0,0,.13-.392.809.809,0,0,0-.155-.385,15.933,15.933,0,0,0-3.973-4.29,11.728,11.728,0,0,0-2.22,2.045c-.466.491-1.76,1.3-1.772,2.033,0,.442.491.92.721,1.244.311.46.622.933.889,1.405A23.342,23.342,0,0,1,1107.656,768.122Z" transform="translate(-451.712 -318.48)" fill="#ff9f26"/>
    <path id="Path_492" data-name="Path 492" d="M1023.876,785.088a1.865,1.865,0,0,1-.336,1.244,1.661,1.661,0,0,1-.715.417c-3.954,1.411-8.505-.354-12.435,1.044-.814.286-1.579.7-2.394.97a12.956,12.956,0,0,1-2.966.528c-1.4.137-2.8.218-4.2.255a10.149,10.149,0,0,1-3.159-.274,3.824,3.824,0,0,1-2.425-1.921,1.865,1.865,0,0,1-.118-1.368,1.547,1.547,0,0,1,.255-.442,3.789,3.789,0,0,1,.933-.752l1.455-.939a9.72,9.72,0,0,1,2.2-1.169c.572-.187,1.188-.267,1.766-.435,2.046-.622,3.6-2.22,5.049-3.774l1.977-2.108a1.937,1.937,0,0,1,.684-.547,1.866,1.866,0,0,1,.846-.087,11.421,11.421,0,0,1,5.391,1.815,7.791,7.791,0,0,0,1.331.783,4.751,4.751,0,0,0,3.731-.466c.51-.267.4-.435.622-.914s.734-.79,1.181-.348a1.3,1.3,0,0,1,.28.535,14.84,14.84,0,0,1,.267,4.4,1.954,1.954,0,0,0,.087.684,4.168,4.168,0,0,0,.385.622.988.988,0,0,1,.081.162A4.314,4.314,0,0,1,1023.876,785.088Z" transform="translate(-410.292 -325.007)" fill="#514e7f"/>
    <path id="Path_493" data-name="Path 493" d="M1023.876,789.523a1.865,1.865,0,0,1-.336,1.244,1.66,1.66,0,0,1-.715.417c-3.954,1.411-8.505-.354-12.435,1.044-.814.286-1.579.7-2.394.97a12.962,12.962,0,0,1-2.966.528c-1.4.137-2.8.218-4.2.255a10.151,10.151,0,0,1-3.159-.273,3.824,3.824,0,0,1-2.425-1.921,1.865,1.865,0,0,1-.118-1.368,1.548,1.548,0,0,1,.255-.442c.236.485.4,1.119.547,1.349a2.76,2.76,0,0,0,1.865,1.337,4.731,4.731,0,0,0,1.685-.218c3.581-.889,7.386-.9,10.818-2.245a25.863,25.863,0,0,1,3.544-1.362,28.149,28.149,0,0,1,3.83-.311c2.021-.162,3.973-.771,5.969-1.088a4.311,4.311,0,0,1,.23,2.083Z" transform="translate(-410.292 -329.442)" fill="#464353"/>
    <path id="Path_494" data-name="Path 494" d="M1110.465,769.427a7.177,7.177,0,0,1-2.182,3.886,24.9,24.9,0,0,0-3.047,3.339c-1.032,1.567-1.486,3.5-2.817,4.825a7.631,7.631,0,0,1-1.691,1.243,11.691,11.691,0,0,1-2.195,1.007,16.8,16.8,0,0,1-6.217.342,5.526,5.526,0,0,1-1.965-.385,5.7,5.7,0,0,1-.833-.5,3.95,3.95,0,0,1-1.244-1.287,1.292,1.292,0,0,1-.118-.926,2.113,2.113,0,0,1,.622-.908,14.056,14.056,0,0,1,1.5-1.349,8.894,8.894,0,0,0,1.952-1.716,5.593,5.593,0,0,0,.752-1.716,15.376,15.376,0,0,0,.547-3.264,10.27,10.27,0,0,1,.23-2.182c.317-1.119,1.15-2.133,1.051-3.3a.844.844,0,0,1,.044-.5.777.777,0,0,1,.392-.242,7.087,7.087,0,0,1,2.039-.466,2.35,2.35,0,0,1,1.865.74c.292.348.479.833.908.989a1.5,1.5,0,0,0,.622,0,5.29,5.29,0,0,0,2.96-.914,3.731,3.731,0,0,0,1.243-2.717c0-.385-.174-.79.417-.871.454-.062.808.41,1.038.721a10.145,10.145,0,0,1,2,3.637,1.008,1.008,0,0,1,.379-.075,1.624,1.624,0,0,1,1.356.7,2.687,2.687,0,0,1,.4,1.89Z" transform="translate(-445.493 -320.028)" fill="#514e7f"/>
    <path id="Path_495" data-name="Path 495" d="M1110.56,772.059a7.177,7.177,0,0,1-2.183,3.886,24.948,24.948,0,0,0-3.047,3.339c-1.032,1.567-1.486,3.5-2.817,4.825a7.627,7.627,0,0,1-1.691,1.243,11.7,11.7,0,0,1-2.195,1.007,16.8,16.8,0,0,1-6.218.342,5.527,5.527,0,0,1-1.965-.385,5.707,5.707,0,0,1-.833-.5,3.953,3.953,0,0,1-1.244-1.287,3.029,3.029,0,0,1,1.281-.3c.926.05,1.6.92,2.487,1.188,1.244.379,2.487-.51,3.786-.814.833-.193,1.716-.137,2.531-.4a6.248,6.248,0,0,0,1.865-1.132,9.469,9.469,0,0,0,2-1.927,12.286,12.286,0,0,0,1.175-2.338,33.386,33.386,0,0,1,2.369-4.533,3.007,3.007,0,0,1,.485-.622c.193-.18.435-.311.622-.473a4.946,4.946,0,0,0,1.5-2.742,4.6,4.6,0,0,1,.336-.914,1.623,1.623,0,0,1,1.355.7A2.688,2.688,0,0,1,1110.56,772.059Z" transform="translate(-445.588 -322.66)" fill="#464353"/>
    <path id="Path_496" data-name="Path 496" d="M979.385,553.577a9.028,9.028,0,0,1,2.537,2.966c.622,1.169,4.035,10.247,3.836,11.546,1.119-1.132,5.558-1.318,6.671-2.443.473-.473,3.028-2.835,3.407-3.382s3.227-1.722,3.538-2.282c1.163-2.083-8.244-9.948-7.044-12.037a.509.509,0,0,0,.1-.323.5.5,0,0,0-.155-.249,14.98,14.98,0,0,0-2.723-1.865,4.352,4.352,0,0,1-2.077-2.487,8.935,8.935,0,0,0-2.406,1.629q-2.58,2.207-5.086,4.526c-.659.622-1.915,1.411-2.22,2.276S978.757,553.068,979.385,553.577Z" transform="translate(-403.734 -236.595)" fill="#a1616a"/>
    <path id="Path_497" data-name="Path 497" d="M997.673,554.61a27.255,27.255,0,0,0-4.029,3.3,8.062,8.062,0,0,0-2.568,4.11c-.118.622-.1,1.281-.2,1.921-.417,2.785-2.835,4.831-3.9,7.461a12.752,12.752,0,0,0-.684,2.487,29.308,29.308,0,0,0-.485,4.887c0,1.592,1.53,2.686,2.1,4.172a25.319,25.319,0,0,1,1.014,4.52,55.073,55.073,0,0,0,2.543,8.394c2.1,5.8,8.91,21.842,11.011,27.649,6.435-1.617,23.57-5.328,29.266-8.7,1.9-1.132-13.181-13.915-11.148-14.8a1.025,1.025,0,0,0,.566-.429.981.981,0,0,0,0-.622c-2.027-8.885-8.387-16.166-11.266-24.87-1-3-2.8-5.565-4.166-8.425-1.243-2.586-1.9-5.44-3.37-7.9a5.287,5.287,0,0,0-1.076-1.349,6.6,6.6,0,0,0-1.194-.715C999.277,555.263,998.494,555.02,997.673,554.61Z" transform="translate(-406.795 -241.07)" fill="#514e7f"/>
    <circle id="Ellipse_27" data-name="Ellipse 27" cx="10.072" cy="10.072" r="10.072" transform="translate(565.921 295.856)" fill="#a1616a"/>
    <path id="Path_498" data-name="Path 498" d="M997.43,549.237a3.376,3.376,0,0,1,3.786-.541,1.865,1.865,0,0,1,1.125,1.815l4.974.075a10.4,10.4,0,0,1,2.369.218,3.445,3.445,0,0,1,1.977,1.243c.062.081.131.174.23.193a.4.4,0,0,0,.23-.081,4.384,4.384,0,0,1,2.487-.448,13.444,13.444,0,0,1,7.312,3.214,2.368,2.368,0,0,1,.87,1.063c.174.566,0,1.293.41,1.679,0,4.694,1.61,9.065,2.686,13.635a6.043,6.043,0,0,0,1.511,2.17,8.7,8.7,0,0,1,1.617,2.412c.908,2.369-.348,5.148.541,7.529a12.134,12.134,0,0,0,1.716,2.7,6.967,6.967,0,0,1,1.461,3.494c.037.572-.037,1.144,0,1.722a10.508,10.508,0,0,0,.411,2.263c.361,1.374.746,2.748,1.144,4.116.622,2.214,1.492,4.607,3.476,5.789-4.794.815-9.842,1.6-14.412-.056a7.462,7.462,0,0,1-1.8-.9c-1.648-1.175-2.444-3.19-3.152-5.086a23.9,23.9,0,0,1-1.766-6.566,7.514,7.514,0,0,0-.3-2.145,5.994,5.994,0,0,0-2.829-2.667,13.612,13.612,0,0,1-3.4-2.649,5.284,5.284,0,0,1-1.38-3.979c.087-.7.361-1.38.392-2.089a1.673,1.673,0,0,0-.97-1.722c-3.488-1.057-5.154-5.185-5.932-8.748a27.912,27.912,0,0,1-.448-5.6l-.043-3.6a4.774,4.774,0,0,1-1.567-3.444,3.872,3.872,0,0,0,0-1.138,3.19,3.19,0,0,0-.8-1.244,10.509,10.509,0,0,1-1.934-2.636Z" transform="translate(-411.19 -238.667)" fill="#464353"/>
    <path id="Path_499" data-name="Path 499" d="M979.744,566.475a26.611,26.611,0,0,1-.112,3.382c-.1.423-.267.827-.392,1.243a7.337,7.337,0,0,0,.466,4.738,26.314,26.314,0,0,0,2.419,4.2,6.394,6.394,0,0,1,.777,1.449,7.5,7.5,0,0,1,.3,1.66,50.576,50.576,0,0,0,1.188,6.677,13.12,13.12,0,0,0,2.35,5.366,1.628,1.628,0,0,0,.97.659,1.751,1.751,0,0,0,.827-.174l2.574-.976a1.8,1.8,0,0,0,.622-.323,1.56,1.56,0,0,0,.361-1.007,14.8,14.8,0,0,0-1.132-6.1c-2.089-5.931-4.862-11.645-6.218-17.782-.379-1.716-.578-4.352-1.828-5.689-.516-.56-.342-.323-.957,0a7.8,7.8,0,0,0-.9.479A2.953,2.953,0,0,0,979.744,566.475Z" transform="translate(-404.235 -244.367)" fill="#464353"/>
    <path id="Path_500" data-name="Path 500" d="M1059.24,627.68" transform="translate(-434.57 -268.699)" fill="#464353"/>
    <path id="Path_501" data-name="Path 501" d="M992.272,575.793q1.026,5.428,2.1,10.862l10-2.624a7,7,0,0,0-.864-2.991c-.914-2.288-.932-4.831-1.672-7.181-.559-1.791-1.529-3.438-2.052-5.241-.3-1.045-.454-2.139-.752-3.19a24.365,24.365,0,0,0-1.175-3.04,19.374,19.374,0,0,0-2.182-4.048,6.376,6.376,0,0,0-3.37,2.182,4.638,4.638,0,0,0-.622,2.151c-.174,2.251.622,4.508.367,6.734A19.89,19.89,0,0,0,992.272,575.793Z" transform="translate(-409.004 -242.417)" fill="#ff9f26"/>
    <path id="Path_502" data-name="Path 502" d="M1008.99,650.893c.56,2.139-.255,4.352-.914,6.479a50.312,50.312,0,0,0-2.039,9.755,8.079,8.079,0,0,1-.5,2.487,23.2,23.2,0,0,1-1.212,1.99,9.968,9.968,0,0,0-.765,5.987c.143,1.343.361,2.68.622,4a10.091,10.091,0,0,1,.261,4.875c.79-.174,1.33.846,1.3,1.66s-.317,1.685.068,2.4c.982.354.995,1.7.964,2.742a23.122,23.122,0,0,0,.678,5.372q2.226,10.688,4.725,21.32c3.6,1.119,7.8,2.282,11.235.734a2.207,2.207,0,0,0,1.424-1.43,2.578,2.578,0,0,0-.136-1.1l-1.629-5.919a10.9,10.9,0,0,1-.584-4.352c.161-1.1.622-2.282.1-3.246a9.356,9.356,0,0,0-.684-.908c-.858-1.244-.41-2.916-.336-4.433a3.47,3.47,0,0,0-.075-1.013,5.329,5.329,0,0,0-.479-1.113,16.991,16.991,0,0,1-1.865-8.456,2.079,2.079,0,0,0-.149-1.107,2.529,2.529,0,0,1-.273-.448,1.2,1.2,0,0,1,.087-.815,7.074,7.074,0,0,1-1.312-1.243,1.865,1.865,0,0,0,.311-2.872.958.958,0,0,0,.46-1.648c-.211-.149-.485-.211-.622-.423-.23-.311-.043-.752.143-1.088l.995-1.8c.74-1.331.908-2.978,1.7-4.278a32.092,32.092,0,0,0,2.624-5.987l2.835-7.9,1.927,1.672a6.036,6.036,0,0,1,1.585,1.809,7.634,7.634,0,0,1,.51,2.164c.709,4.29,3.413,8.008,4.414,12.242a8.251,8.251,0,0,0,.908,2.736,5.9,5.9,0,0,1,.522.783,4.135,4.135,0,0,1,.218,1.3,6.056,6.056,0,0,0,2.555,4.352c.945.622,2.145,1.1,2.643,2.133a4.2,4.2,0,0,0,.435.908c.46.553,1.455.622,1.654,1.312.106.392-.1.852.124,1.194a1.087,1.087,0,0,0,.466.348l2.779,1.393c3.109,1.548,4.676,5.1,6.97,7.7a15.988,15.988,0,0,1,2.083,2.76c.989,1.766,1.448,3.985,3.109,5.123a4.824,4.824,0,0,1,1.206.9c.529.69.336,1.66.379,2.531s.715,1.9,1.542,1.641a6,6,0,0,0,0,3.214,16.2,16.2,0,0,0,9.824-3.979,3.875,3.875,0,0,0,1.6-2.68,1.036,1.036,0,0,0-.118-.535,1.456,1.456,0,0,0-.622-.473c-2.593-1.405-3.376-4.663-4.676-7.312a61.233,61.233,0,0,0-4.278-6.516c-3.109-4.663-5.186-10.3-9.855-13.386-1.026-.678-2.219-1.281-2.729-2.4a19.2,19.2,0,0,1-.547-1.99,1.672,1.672,0,0,0-1.461-1.244,8.876,8.876,0,0,0,.336-3.109,3.862,3.862,0,0,0-.156-1.337,6.31,6.31,0,0,0-.684-1.318,12.776,12.776,0,0,1-1.76-6.839,11.012,11.012,0,0,0-.118-3.675c-.187-.622-.51-1.138-.74-1.716a10.7,10.7,0,0,1-.534-3.2l-.255-4.1a19.618,19.618,0,0,0-.529-4.047c-.864-3.177-1.691-16.489-4.62-17.987s-7.927,8.742-11.191,8.947a14.923,14.923,0,0,0-4.278.821,20.731,20.731,0,0,0-5.8,3.849l-6.043,5.073a22.022,22.022,0,0,1-3.749,2.7Z" transform="translate(-413.461 -269.645)" fill="#464353"/>
    <path id="Path_503" data-name="Path 503" d="M964.156,522.44a7.6,7.6,0,0,1,5.863-2.86,13.68,13.68,0,0,1,6.479,1.629,8.352,8.352,0,0,0,1.865.777c1.069.218,2.251-.075,3.214.435,1.281.678,1.523,2.406,1.411,3.849s-.379,3.022.385,4.259a11.808,11.808,0,0,1,.74,1.107,3.692,3.692,0,0,1-.068,2.369,19.066,19.066,0,0,1-1.244-1.561,1.447,1.447,0,0,0-1.759-.46c-.547.367-.547,1.045-.572,1.648s-.187,1.331-.759,1.53a1.244,1.244,0,0,1-1.244-.5c-.976-1.194-.584-3.109-1.548-4.3-.553-.684-1.467-1.014-1.977-1.729-.4-.56-.5-1.287-.845-1.865s-1.163-1.051-1.71-.622a2.325,2.325,0,0,0-.454.622,2.618,2.618,0,0,1-3.109.933,5.45,5.45,0,0,0-1.349-.578,1.66,1.66,0,0,0-1.536.833,3.308,3.308,0,0,0-.4,1.778,4.134,4.134,0,0,1-.336,2.444,2.524,2.524,0,0,1-.721.622,2.135,2.135,0,0,1-2.363.242,1.778,1.778,0,0,1-.529-1.654,13.6,13.6,0,0,1,.5-1.747c.373-1.318-.112-2.8.3-4.047A12.736,12.736,0,0,1,964.156,522.44Z" transform="translate(-397.62 -227.681)" fill="#464353"/>
    <path id="Path_504" data-name="Path 504" d="M974.4,561.483a1.556,1.556,0,0,0,.093.926,1.5,1.5,0,0,0,.5.485,10.432,10.432,0,0,0,4.75,1.536,1.432,1.432,0,0,1,.622.168,1.175,1.175,0,0,1,.28,1.324,3.525,3.525,0,0,0-.3,1.405c.124.889,1.175,1.293,2.07,1.405a4.8,4.8,0,0,0,3.6-.7,5.553,5.553,0,0,0,1.486-2.232c2.444-5.6,3.3-11.813,5.776-17.409a3.541,3.541,0,0,0,.373-1.163,1.156,1.156,0,0,0-.46-1.076c-.46-.286-1.175-.125-1.486-.566-.155-.23-.137-.535-.274-.771-.286-.51-1.032-.448-1.548-.721-.4-.217-.678-.622-1.119-.74a1.43,1.43,0,0,0-1.169.5,15.026,15.026,0,0,0-3.022,5.092,60.481,60.481,0,0,1-4.352,8.027,4.64,4.64,0,0,0-1.355-2.655c-.759-.156-1.741,1.181-2.151,1.685a10.67,10.67,0,0,0-2.319,5.471Z" transform="translate(-402.467 -236.723)" fill="#ff9f26"/>
    <rect id="Rectangle_60" data-name="Rectangle 60" width="48.515" height="48.515" transform="translate(577.019 332.617)" fill="#fff"/>
    <path id="Path_505" data-name="Path 505" d="M1057.957,626.8a19.619,19.619,0,0,0-2.3,2.412,4.807,4.807,0,0,0-1.057,3.109,1.6,1.6,0,0,0,.3.908.777.777,0,0,0,.864.267,1.244,1.244,0,0,0,.423-.379,19.868,19.868,0,0,1,1.43-1.554c.186-.18.423-.373.671-.3a.708.708,0,0,1,.292.193,1.976,1.976,0,0,1,.622.939,2.226,2.226,0,0,1-.659,1.809,4.689,4.689,0,0,0-1.113,1.648.7.7,0,0,0,0,.528.863.863,0,0,0,.329.286,4.8,4.8,0,0,0,4.023.261c.864-.342,1.61-.939,2.487-1.243a5.983,5.983,0,0,0,1.1-.41,2.263,2.263,0,0,0,.976-1.455,6.212,6.212,0,0,0,.068-1.8,20.514,20.514,0,0,0-1.5-6.777.808.808,0,0,0-.243-.361.851.851,0,0,0-.41-.118c-1.088-.112-2.879-.672-3.929-.267a2.688,2.688,0,0,0-.927.827C1059.163,625.537,1057.957,626.513,1057.957,626.8Z" transform="translate(-432.814 -267.454)" fill="#a1616a"/>
    <path id="Path_506" data-name="Path 506" d="M1050.109,602.515c0-1.045-1.293-3.55.752-3.73,0-1.107-1.573-1.8-1.287-2.972.1-.4.417-.715.466-1.113.131-1.138-1.921-1.753-1.585-2.848.124-.417.578-.671.678-1.094.23-.982-1.53-1.424-1.561-2.431,0-.342.187-.665.174-1,0-.429-.373-.752-.578-1.119-.528-.951-.274-2.425-1.243-2.91.622.05.864-.9.59-1.486s-.808-1.088-.808-1.735a2.759,2.759,0,0,0,0-.715c-.181-.622-1.2-.665-1.368-1.287a6.611,6.611,0,0,1,0-.7c-.062-.485-.56-.783-1.026-.926a4.079,4.079,0,0,1-1.368-.485c-.3-.23-.622-.622-.964-.4-.118.068-.18.205-.274.311-.379.441-1.107.249-1.592-.081a6.583,6.583,0,0,1-2.437-4.39c-.311-1.691-.292-3.438-.665-5.117a11.7,11.7,0,0,0-.454-1.529,7.918,7.918,0,0,1-.721-1.53c-.075-.976,1.952-.311,2.723-.211a12.1,12.1,0,0,1,2.214.417,23.448,23.448,0,0,1,2.257.989c3.109,1.362,6.789,1.53,9.264,3.811.815.752,1.5,1.735,2.549,2.07a12.98,12.98,0,0,1,1.43.373c1.175.553,1.355,2.108,2,3.233a6.911,6.911,0,0,1,.528.933,3.674,3.674,0,0,1,.168,1.194l.087,2.953a109.045,109.045,0,0,1-.236,14.823,12.238,12.238,0,0,0,.056,4.85c.124.423.3.827.41,1.244a8.458,8.458,0,0,1,.162,1.536l.068,1.909a.46.46,0,0,1-.609.566c-2.667-.236-5.353-1.741-7.871-.833" transform="translate(-425.34 -244.092)" fill="#464353"/>
    <path id="Path_507" data-name="Path 507" d="M979.225,613.791a.821.821,0,0,0-.3.249,2.12,2.12,0,0,0,0,2.524.854.854,0,0,1,.149.249.732.732,0,0,1-.075.423,1.4,1.4,0,0,0,.193,1.567c.193.162.454.242.578.454.218.361-.087.821-.037,1.243.062.553.715.827,1.243.9a1.325,1.325,0,0,0,1.213-.323,1.008,1.008,0,0,0,0-1.1,2.949,2.949,0,0,0-.821-.821,1.244,1.244,0,0,0,1.175-1.138,1.767,1.767,0,0,0-.709-1.548c-.112-.093-.249-.187-.28-.336s.118-.354.255-.5c.622-.622,1.1-2.145-.068-2.487a2.88,2.88,0,0,0-1.244.056c-.3.093-.3.274-.528.4S979.486,613.66,979.225,613.791Z" transform="translate(-404.034 -263.177)" fill="#a1616a"/>
    <path id="Path_508" data-name="Path 508" d="M996.435,545.14a2.052,2.052,0,0,0-1.579.8,4.545,4.545,0,0,0-.659,2.114,18.535,18.535,0,0,1-2.487,6.752" transform="translate(-409.027 -237.377)" opacity="0.1"/>
    <path id="Path_509" data-name="Path 509" d="M999.977,547.88a2.413,2.413,0,0,0-2.064,1.243,6.9,6.9,0,0,0-.522,2.108,11.454,11.454,0,0,1-2.071,4.421" transform="translate(-410.392 -238.415)" opacity="0.1"/>
    <path id="Path_510" data-name="Path 510" d="M339.5,607.6c.361,3.93-2.605,7.735-1.741,11.577.187.821.541,1.6.671,2.425.354,2.282-1.007,4.446-2.307,6.354l-11.154,16.377a10.614,10.614,0,0,1-1.6,1.971c-2.139,1.865-5.335,1.7-8.139,2.263a13.958,13.958,0,0,0-5.447,2.412.354.354,0,0,0-.075.491,4.694,4.694,0,0,0,4.054,1.9c.292.385,0,.951-.4,1.244-.622.417-1.424.522-1.542,1.542a1.667,1.667,0,0,0,.205,1.02,3.152,3.152,0,0,0,1.952,1.355c3.861,1.181,8.039-.889,10.924-3.731s4.974-6.385,7.809-9.264c1.573-1.586,3.357-2.953,4.974-4.5a57.227,57.227,0,0,0,8.164-10.57,11.733,11.733,0,0,0,1.766-3.594c.3-1.281.162-2.63.51-3.9.448-1.654,1.666-2.978,2.673-4.352a14.447,14.447,0,0,0,3.04-9.42,9.018,9.018,0,0,0-5.509-7.815,4.93,4.93,0,0,0-3.109-.193,7.5,7.5,0,0,0-3.146,2.487l-2.114,2.45A5.645,5.645,0,0,0,338.714,608a1.959,1.959,0,0,0,.435,2.083" transform="translate(-149.744 -258.683)" fill="#fbbebe"/>
    <path id="Path_511" data-name="Path 511" d="M339.5,607.6c.361,3.93-2.605,7.735-1.741,11.577.187.821.541,1.6.671,2.425.354,2.282-1.007,4.446-2.307,6.354l-11.154,16.377a10.614,10.614,0,0,1-1.6,1.971c-2.139,1.865-5.335,1.7-8.139,2.263a13.958,13.958,0,0,0-5.447,2.412.354.354,0,0,0-.075.491,4.694,4.694,0,0,0,4.054,1.9c.292.385,0,.951-.4,1.244-.622.417-1.424.522-1.542,1.542a1.667,1.667,0,0,0,.205,1.02,3.152,3.152,0,0,0,1.952,1.355c3.861,1.181,8.039-.889,10.924-3.731s4.974-6.385,7.809-9.264c1.573-1.586,3.357-2.953,4.974-4.5a57.227,57.227,0,0,0,8.164-10.57,11.733,11.733,0,0,0,1.766-3.594c.3-1.281.162-2.63.51-3.9.448-1.654,1.666-2.978,2.673-4.352a14.447,14.447,0,0,0,3.04-9.42,9.018,9.018,0,0,0-5.509-7.815,4.93,4.93,0,0,0-3.109-.193,7.5,7.5,0,0,0-3.146,2.487l-2.114,2.45A5.645,5.645,0,0,0,338.714,608a1.959,1.959,0,0,0,.435,2.083" transform="translate(-149.744 -258.683)" opacity="0.05"/>
    <path id="Path_512" data-name="Path 512" d="M217.431,623.163c.622,1.965,1.243,3.93,2,5.844a49.452,49.452,0,0,0,5.167,9.426,67.9,67.9,0,0,0,4.271,5.6c1.9,2.245,4.029,4.5,4.7,7.368a37.317,37.317,0,0,1,.423,5.08,6.2,6.2,0,0,0,2.083,4.5,7.742,7.742,0,0,0,3.432,1.132c.858.137,1.934.18,2.381-.566a2.121,2.121,0,0,0,.236-.982l.211-2.487c.044-.535.23-1.243.765-1.243s.808.69,1.243,1.007a1.349,1.349,0,0,0,1.865-.622,3.109,3.109,0,0,0,.05-2.176,10.334,10.334,0,0,0-5.3-6.572,15.94,15.94,0,0,1-2.586-1.349,8.8,8.8,0,0,1-2.033-2.562c-4.7-7.741-9.426-15.544-12.746-23.944a17.713,17.713,0,0,1-1.312-4.719,30.468,30.468,0,0,1,.205-4.974,28.471,28.471,0,0,0-.821-8.879,6.982,6.982,0,0,0-.852-2.157c-1.362-2.077-4.576-2.381-6.6-.951a6.8,6.8,0,0,0-2.624,4.8c-.149,1.672.821,3.42,1.312,4.974Q215.174,615.932,217.431,623.163Z" transform="translate(-112.212 -257.562)" fill="#a1616a"/>
    <path id="Path_513" data-name="Path 513" d="M217.431,623.163c.622,1.965,1.243,3.93,2,5.844a49.452,49.452,0,0,0,5.167,9.426,67.9,67.9,0,0,0,4.271,5.6c1.9,2.245,4.029,4.5,4.7,7.368a37.317,37.317,0,0,1,.423,5.08,6.2,6.2,0,0,0,2.083,4.5,7.742,7.742,0,0,0,3.432,1.132c.858.137,1.934.18,2.381-.566a2.121,2.121,0,0,0,.236-.982l.211-2.487c.044-.535.23-1.243.765-1.243s.808.69,1.243,1.007a1.349,1.349,0,0,0,1.865-.622,3.109,3.109,0,0,0,.05-2.176,10.334,10.334,0,0,0-5.3-6.572,15.94,15.94,0,0,1-2.586-1.349,8.8,8.8,0,0,1-2.033-2.562c-4.7-7.741-9.426-15.544-12.746-23.944a17.713,17.713,0,0,1-1.312-4.719,30.468,30.468,0,0,1,.205-4.974,28.471,28.471,0,0,0-.821-8.879,6.982,6.982,0,0,0-.852-2.157c-1.362-2.077-4.576-2.381-6.6-.951a6.8,6.8,0,0,0-2.624,4.8c-.149,1.672.821,3.42,1.312,4.974Q215.174,615.932,217.431,623.163Z" transform="translate(-112.212 -257.562)" opacity="0.05"/>
    <path id="Path_514" data-name="Path 514" d="M366.817,754.427c-2.437,1.486-5.471,1.573-8.307,1.243-.454-.056-.995-.093-1.287.261-.423.51.075,1.243.591,1.679a12.361,12.361,0,0,0,5.708,2.344,38.933,38.933,0,0,0,5.6.373,94.616,94.616,0,0,0,15.252-.566,2.022,2.022,0,0,0,.833-.242,1.579,1.579,0,0,0,.622-.958,3.811,3.811,0,0,0-1.33-3.631,11.193,11.193,0,0,0-3.556-1.909L376.51,751.3c-1.038-.4-2.711-1.48-3.836-1.393C370.585,750.044,368.576,753.4,366.817,754.427Z" transform="translate(-167.749 -315.243)" fill="#3f3d56"/>
    <path id="Path_515" data-name="Path 515" d="M385.106,770.289a10.874,10.874,0,0,1-7.43,2.773c-.7,0-1.666.131-1.666.827a1.094,1.094,0,0,0,.2.578,6.84,6.84,0,0,0,3.842,3.009,13.68,13.68,0,0,0,4.638.292l4.539-.236c.858-.044,1.722-.087,2.574-.193s1.778-.28,2.667-.417a35.564,35.564,0,0,1,6.609-.311,1.921,1.921,0,0,0,1.629-.435c.4-.51.168-1.243.037-1.865-.274-1.312,0-2.692-.255-4.016a7.062,7.062,0,0,0-4.632-4.931c-2.039-.777-5.658-1.666-7.592-.373C388.19,766.365,386.94,768.629,385.106,770.289Z" transform="translate(-174.945 -320.703)" fill="#3f3d56"/>
    <path id="Path_516" data-name="Path 516" d="M374.176,664.153c-1.865,2.456-3.731,5.291-3.3,8.325a18.775,18.775,0,0,0,1.834,4.595,32.387,32.387,0,0,1,1.865,6.454c.69,3.214,1.38,6.435,1.809,9.693a60.534,60.534,0,0,1,.4,11.129,3.755,3.755,0,0,1-.777,2.487c-.249.249-.572.454-.678.79a1.337,1.337,0,0,0,.143.933,10.327,10.327,0,0,0,5.534,5.092,21.2,21.2,0,0,0,7.523,1.405,2.114,2.114,0,0,0,1.007-.131,1.939,1.939,0,0,0,.777-.889c1.865-3.544.827-7.822.858-11.813,0-3.339.808-6.647.665-9.985-.118-2.673-.833-5.285-1.094-7.952-.429-4.352.373-8.767,1.175-13.088.622-3.308,1.243-6.622,2.021-9.9a18.876,18.876,0,0,1,2.139-5.745c.871-1.374,2.052-2.524,3.047-3.818a17.328,17.328,0,0,0,3.407-12.665c-.062-.448-6.4,1.6-6.951,1.865a21.552,21.552,0,0,0-6.217,3.986,51.457,51.457,0,0,0-3.9,4.825q-2.723,3.314-5.36,6.665Q377.1,660.255,374.176,664.153Z" transform="translate(-172.976 -273.298)" fill="#464353"/>
    <path id="Path_517" data-name="Path 517" d="M374.176,664.153c-1.865,2.456-3.731,5.291-3.3,8.325a18.775,18.775,0,0,0,1.834,4.595,32.387,32.387,0,0,1,1.865,6.454c.69,3.214,1.38,6.435,1.809,9.693a60.534,60.534,0,0,1,.4,11.129,3.755,3.755,0,0,1-.777,2.487c-.249.249-.572.454-.678.79a1.337,1.337,0,0,0,.143.933,10.327,10.327,0,0,0,5.534,5.092,21.2,21.2,0,0,0,7.523,1.405,2.114,2.114,0,0,0,1.007-.131,1.939,1.939,0,0,0,.777-.889c1.865-3.544.827-7.822.858-11.813,0-3.339.808-6.647.665-9.985-.118-2.673-.833-5.285-1.094-7.952-.429-4.352.373-8.767,1.175-13.088.622-3.308,1.243-6.622,2.021-9.9a18.876,18.876,0,0,1,2.139-5.745c.871-1.374,2.052-2.524,3.047-3.818a17.328,17.328,0,0,0,3.407-12.665c-.062-.448-6.4,1.6-6.951,1.865a21.552,21.552,0,0,0-6.217,3.986,51.457,51.457,0,0,0-3.9,4.825q-2.723,3.314-5.36,6.665Q377.1,660.255,374.176,664.153Z" transform="translate(-172.976 -273.298)" opacity="0.05"/>
    <path id="Path_518" data-name="Path 518" d="M392.337,643.311c.4,1.9,2.245,3.357,2.294,5.3.044,1.554-1.063,2.86-1.865,4.2a28.149,28.149,0,0,0-1.9,4.315,65.8,65.8,0,0,1-5.6,11.111c-1.063,1.691-2.257,3.525-2.008,5.509a8.133,8.133,0,0,0,.964,2.63l3.2,6.348a18.221,18.221,0,0,1,1.629,4.01c.28,1.206.3,2.487.466,3.681.5,3.892,2.325,7.809,1.243,11.583-.093.323-.435.715-.69.491a12.094,12.094,0,0,1,1.822,6.217c-.037,1.175-.4,2.394.037,3.488a3.806,3.806,0,0,1,.485,1.331c0,.317-.149.622-.18.939a2.079,2.079,0,0,0,1.592,1.934c.858.286,1.791.267,2.655.522,1.666.5,2.848,1.927,4.278,2.922a8.985,8.985,0,0,0,4.906,1.6,1.244,1.244,0,0,0,.721-.143,1.181,1.181,0,0,0,.4-.877,4.875,4.875,0,0,0-1.76-4.234,1.959,1.959,0,0,1-.622-.684,1.659,1.659,0,0,1-.062-.765,56.713,56.713,0,0,0-.186-10.477,16.163,16.163,0,0,1-.162-3.333,13.624,13.624,0,0,0,.267-2.779,14.189,14.189,0,0,0-.852-2.655,18.609,18.609,0,0,1-.4-4.974,43.6,43.6,0,0,0-1.405-8.512,6.46,6.46,0,0,0-1.324-3.071c-.665-.7-1.741-1.355-1.486-2.282a2.637,2.637,0,0,1,.622-.908,3.643,3.643,0,0,0,.765-2.779,1.243,1.243,0,0,0,1.43-.671,22.383,22.383,0,0,0,11.241-12.783,4.153,4.153,0,0,1,.5-1.138,5.187,5.187,0,0,1,2.058-1.337c2.325-1.169,3.929-3.364,5.4-5.509a12.813,12.813,0,0,0,2.089-4,13.172,13.172,0,0,0,.286-2.885l.131-4.974a2.855,2.855,0,0,0-.093-.976,2.489,2.489,0,0,0-.541-.8,9.655,9.655,0,0,0-5.31-2.86c-1.362-.243-2.754-.2-4.135-.311-2.674-.224-5.316-1.051-8-.858-4.2.311-7.946,3.227-9.948,6.945C394.563,642.148,393.83,643.267,392.337,643.311Z" transform="translate(-177.697 -271.345)" fill="#464353"/>
    <path id="Path_519" data-name="Path 519" d="M172.917,762.709a6.772,6.772,0,0,0,2.86.342c.068-.79,1.132-.964,1.921-.926a2.207,2.207,0,0,1,1.132.249c.2.124.348.311.541.441a2.326,2.326,0,0,0,1.119.286l4.116.348a12.323,12.323,0,0,0,5.459-.361,1.785,1.785,0,0,0,.877-.585c.466-.665,0-1.623-.622-2.108s-1.474-.709-2.12-1.206c-1.43-1.088-1.623-3.109-2.381-4.75a13.707,13.707,0,0,0-1.965-2.854,10.925,10.925,0,0,0-1.946-1.99c-1.648-1.194-3.55-1.169-5.484-1.337-1.368-.124-2.655-.205-3.637,1.007-1.212,1.5-.727,4.539-.653,6.336a45.348,45.348,0,0,0,.783,7.107Z" transform="translate(-97.237 -314.597)" fill="#514e7f"/>
    <path id="Path_520" data-name="Path 520" d="M172.917,762.709a6.772,6.772,0,0,0,2.86.342c.068-.79,1.132-.964,1.921-.926a2.207,2.207,0,0,1,1.132.249c.2.124.348.311.541.441a2.326,2.326,0,0,0,1.119.286l4.116.348a12.323,12.323,0,0,0,5.459-.361,1.785,1.785,0,0,0,.877-.585c.466-.665,0-1.623-.622-2.108s-1.474-.709-2.12-1.206c-1.43-1.088-1.623-3.109-2.381-4.75a13.707,13.707,0,0,0-1.965-2.854,10.925,10.925,0,0,0-1.946-1.99c-1.648-1.194-3.55-1.169-5.484-1.337-1.368-.124-2.655-.205-3.637,1.007-1.212,1.5-.727,4.539-.653,6.336a45.348,45.348,0,0,0,.783,7.107Z" transform="translate(-97.237 -314.597)" opacity="0.05"/>
    <path id="Path_521" data-name="Path 521" d="M170.3,640.832a2.882,2.882,0,0,0-1.573,3.277,11.765,11.765,0,0,0,1.66,3.575c1.828,3.277,2.624,7.026,4.16,10.445,1.15,2.555,2.7,4.918,3.842,7.461s1.865,5.453,1.15,8.17c-.336,1.324-.982,2.543-1.418,3.836a21.763,21.763,0,0,0-.833,4.352,82.494,82.494,0,0,0-.3,15.022,4.563,4.563,0,0,0,.379,1.778c.255.5.7,1.02.485,1.536-.087.205-.274.354-.367.56-.261.572.267,1.169.746,1.573a1.287,1.287,0,0,1-.808.622,1.909,1.909,0,0,1,.814,2.126c-.429.062-.454.715-.18,1.057s.69.56.883.945a1.324,1.324,0,0,1-.727,1.666,3.409,3.409,0,0,1-1.983.149,21.5,21.5,0,0,1-3.32-.727,2.982,2.982,0,0,1-1.02-.466,3.028,3.028,0,0,1-.914-2.014,36.4,36.4,0,0,1-.23-6.217c.18-10.048,0-20.108-.435-30.149a34.522,34.522,0,0,0-2.96-11.714,60.1,60.1,0,0,0-2.885-5.6c-2.251-4.141-4.253-8.7-3.731-13.4.056-.5.242-1.113.74-1.194a1.077,1.077,0,0,1,.572.093,26.464,26.464,0,0,1,3.016,1.666,11.427,11.427,0,0,0,5.235,1.567Z" transform="translate(-92.956 -272.727)" fill="#464353"/>
    <path id="Path_522" data-name="Path 522" d="M170.3,640.832a2.882,2.882,0,0,0-1.573,3.277,11.765,11.765,0,0,0,1.66,3.575c1.828,3.277,2.624,7.026,4.16,10.445,1.15,2.555,2.7,4.918,3.842,7.461s1.865,5.453,1.15,8.17c-.336,1.324-.982,2.543-1.418,3.836a21.763,21.763,0,0,0-.833,4.352,82.494,82.494,0,0,0-.3,15.022,4.563,4.563,0,0,0,.379,1.778c.255.5.7,1.02.485,1.536-.087.205-.274.354-.367.56-.261.572.267,1.169.746,1.573a1.287,1.287,0,0,1-.808.622,1.909,1.909,0,0,1,.814,2.126c-.429.062-.454.715-.18,1.057s.69.56.883.945a1.324,1.324,0,0,1-.727,1.666,3.409,3.409,0,0,1-1.983.149,21.5,21.5,0,0,1-3.32-.727,2.982,2.982,0,0,1-1.02-.466,3.028,3.028,0,0,1-.914-2.014,36.4,36.4,0,0,1-.23-6.217c.18-10.048,0-20.108-.435-30.149a34.522,34.522,0,0,0-2.96-11.714,60.1,60.1,0,0,0-2.885-5.6c-2.251-4.141-4.253-8.7-3.731-13.4.056-.5.242-1.113.74-1.194a1.077,1.077,0,0,1,.572.093,26.464,26.464,0,0,1,3.016,1.666,11.427,11.427,0,0,0,5.235,1.567Z" transform="translate(-92.956 -272.727)" opacity="0.05"/>
    <path id="Path_523" data-name="Path 523" d="M142.549,622.79a3.315,3.315,0,0,0-4.57.491,24.971,24.971,0,0,0-2.363,2.077,12.64,12.64,0,0,0-2.823,12.5,24.984,24.984,0,0,0,3.457,6.13l2.736,3.93c4.172,5.994,8.35,11.987,12.721,17.838a.672.672,0,0,0,.473.622c.162.043.354.037.454.168a.485.485,0,0,1,.056.267,4.059,4.059,0,0,1-.242,1.244.578.578,0,0,0-.05.429c.137.33.74.143.926.454a.494.494,0,0,1-.2.622.719.719,0,0,0-.342.622c.031.255.448.491.429.8,0,.174-.149.3-.255.441a1.125,1.125,0,0,0,.137,1.436c.286,2.86-1.243,5.565-1.573,8.425-.491,4.5,1.542,8.885,1.791,13.4a3.587,3.587,0,0,0,.28,1.48c.423.777,1.5,1.243,1.467,2.133a8.142,8.142,0,0,1-.3,1.076,8.646,8.646,0,0,0,.162,1.536c0,.516-.435,1.132-.914.933q.541,1.791.958,3.612l9.575.79a8.6,8.6,0,0,0-.087-2.586c-.2-.92-.622-1.784-.833-2.7a3.19,3.19,0,0,1,.379-2.7,1.057,1.057,0,0,1-1.057-.871,4.264,4.264,0,0,1,0-1.486c.255-2.487-.8-4.974-.765-7.461a35.942,35.942,0,0,1,1.076-5.813c.746-4.153-.031-8.661,1.815-12.435,1.119-2.288,2.667-4.825,1.411-7.038-.622-1.094-1.71-1.865-2.419-2.872a11.669,11.669,0,0,1-1.3-3.109c-1.48-4.576-3.861-8.8-5.956-13.131a13.821,13.821,0,0,1-1.281-3.451,17.54,17.54,0,0,1-.155-3.183,48.792,48.792,0,0,0-.354-5.72,4.17,4.17,0,0,0-2.189-3.731C149.681,625.812,145.938,624.575,142.549,622.79Z" transform="translate(-82.19 -266.902)" fill="#464353"/>
    <path id="Path_524" data-name="Path 524" d="M166.7,768.353a6.771,6.771,0,0,0,2.86.342c.075-.79,1.132-.964,1.921-.926a2.207,2.207,0,0,1,1.1.255c.2.124.348.311.547.441a2.288,2.288,0,0,0,1.119.286l4.11.348a12.358,12.358,0,0,0,5.465-.361,1.8,1.8,0,0,0,.87-.584c.466-.665,0-1.623-.622-2.108s-1.474-.709-2.126-1.206c-1.424-1.088-1.623-3.109-2.381-4.75a13.708,13.708,0,0,0-1.965-2.854,10.889,10.889,0,0,0-1.94-1.99c-1.654-1.194-3.55-1.169-5.484-1.337-1.374-.124-2.661-.205-3.637,1.007-1.244,1.5-.734,4.539-.659,6.336a46.2,46.2,0,0,0,.821,7.1Z" transform="translate(-94.868 -316.734)" fill="#514e7f"/>
    <rect id="Rectangle_61" data-name="Rectangle 61" width="48.515" height="48.515" transform="translate(123 379.997)" fill="#ff9f26"/>
    <circle id="Ellipse_28" data-name="Ellipse 28" cx="9.482" cy="9.482" r="9.482" transform="translate(104.778 320.72)" fill="#a1616a"/>
    <path id="Path_525" data-name="Path 525" d="M210.027,584.706c-1.362,1.175-3.308,1.244-5.092,1.443a31.826,31.826,0,0,0-10.955,3.171,3.91,3.91,0,0,0-1.244.87,3.588,3.588,0,0,0-.622,1.355,8.966,8.966,0,0,0-.361,3.3,9.5,9.5,0,0,0,.914,3.109,16.687,16.687,0,0,0,5.882,6.7,4.27,4.27,0,0,0,1.43.684c1.244.261,2.456-.466,3.681-.79a6.032,6.032,0,0,1,3.4.112c1.032.342,2.12.97,3.109.553a3.246,3.246,0,0,0,1.418-1.61,54.643,54.643,0,0,0,2.587-5.664,21.48,21.48,0,0,1,.939-2.2c1.1-2.1,3-3.73,3.948-5.882a1.293,1.293,0,0,0,.087-1.107,1.535,1.535,0,0,0-.7-.535,16.615,16.615,0,0,1-3.786-2.972c-.622-.622-1.772-2.213-2.667-2.356C211.016,582.754,210.711,584.122,210.027,584.706Z" transform="translate(-104.708 -251.724)" fill="#a1616a"/>
    <path id="Path_526" data-name="Path 526" d="M193.472,607.968a5.658,5.658,0,0,1-3.588.044,39.6,39.6,0,0,1-9.015-2.624,4.825,4.825,0,0,1-2.213-1.7,5.429,5.429,0,0,1-.622-2.126l-.522-3.525a21.376,21.376,0,0,1,.162-3.619,1.057,1.057,0,0,0-.205-.79.852.852,0,0,0-.622-.193c-1.424,0-2.282,1.511-3.283,2.524a6.061,6.061,0,0,1-2.014,1.355c-.914.373-2.039.622-2.406,1.548-.155.379-.137.814-.292,1.194-.622,1.517-3.357,1.013-4.048,2.487-.2.423-.187.957-.516,1.293s-.933.323-1.43.41c-1.977.323-2.941,2.611-4.632,3.687-1.424.908-3.258.889-4.788,1.6a18.326,18.326,0,0,1-2.487,1.244,11.759,11.759,0,0,1-2.885.143.777.777,0,0,0-.578.187.8.8,0,0,0-.093.622,17.453,17.453,0,0,0,10.787,13.511,3.81,3.81,0,0,1,.92.441c.864.622,1.013,2.033,1.99,2.487a2.058,2.058,0,0,0,2.077-.448,18.067,18.067,0,0,0,1.5-1.654,5.968,5.968,0,0,1,3.339-1.753c1.175-.187,2.487-.05,3.438-.771a10.576,10.576,0,0,0,1.082-1.156,6.781,6.781,0,0,1,2.487-1.467,24.867,24.867,0,0,1,7.772-1.642c2.487-.143,5.067.087,7.424-.727a4.352,4.352,0,0,0,1.654-.933,4.975,4.975,0,0,0,1.107-1.921A14.667,14.667,0,0,0,193.472,607.968Z" transform="translate(-87.93 -255.754)" fill="#514e7f"/>
    <path id="Path_527" data-name="Path 527" d="M198.634,594.215c.7-.062,1.405,0,2.108,0,.827,0,1.641-.2,2.487-.205a6.131,6.131,0,0,1,5.782,4.4,1.12,1.12,0,0,1,.037.622.441.441,0,0,1-.479.323,10.509,10.509,0,0,0-1.063-2.133,6.037,6.037,0,0,0-3.183-2.213,8.263,8.263,0,0,0-3.917-.143c-.535.1-1.063.243-1.592.392l-2.58.7c-.466.124-.933.255-1.387.423-.348.124-.951.622-1.293.622-.466,0-.087-.4.118-.678a3.32,3.32,0,0,1,1.654-1.2A13.912,13.912,0,0,1,198.634,594.215Z" transform="translate(-105.315 -255.924)" fill="#514e7f"/>
    <path id="Path_528" data-name="Path 528" d="M208.594,624.862c.622,1.965,1.244,3.93,2,5.845a49.456,49.456,0,0,0,5.173,9.426,67.916,67.916,0,0,0,4.271,5.6c1.9,2.245,4.029,4.5,4.7,7.368a37.322,37.322,0,0,1,.423,5.08,6.2,6.2,0,0,0,2.083,4.5,7.741,7.741,0,0,0,3.432,1.132c.858.137,1.934.18,2.381-.566a2.12,2.12,0,0,0,.236-.982l.205-2.487c.05-.535.236-1.243.771-1.243s.808.69,1.244,1.007a1.349,1.349,0,0,0,1.865-.622,3.152,3.152,0,0,0,.05-2.176,10.333,10.333,0,0,0-5.291-6.578,15.938,15.938,0,0,1-2.586-1.349,8.7,8.7,0,0,1-2.033-2.562c-4.707-7.741-9.432-15.544-12.746-23.944a17.714,17.714,0,0,1-1.312-4.719,30.466,30.466,0,0,1,.205-4.974,28.47,28.47,0,0,0-.8-8.891,6.983,6.983,0,0,0-.852-2.158c-1.362-2.077-4.576-2.381-6.6-.951a6.8,6.8,0,0,0-2.624,4.8c-.149,1.673.821,3.42,1.312,4.974Q206.343,617.631,208.594,624.862Z" transform="translate(-108.884 -258.201)" fill="#a1616a"/>
    <path id="Path_529" data-name="Path 529" d="M237.338,565.593c.075-.79-.622-1.5-1.436-2.008a20.061,20.061,0,0,1-2.437-1.492c-.721-.622-1.113-1.436-1.834-2.058a8.082,8.082,0,0,0-2.736-1.362,20.767,20.767,0,0,0-6.541-1.175,11.52,11.52,0,0,0-6.261,1.654,3.731,3.731,0,0,0-1.063.989,4.353,4.353,0,0,0-.516,1.573,31.088,31.088,0,0,1-1.635,4.974,11.539,11.539,0,0,1-3.109,5.024c-1.772,1.48-4.489,2.332-5.658,4.116a1.337,1.337,0,0,0-.255,1.15c.168.448.709.752,1.2,1.038a16.294,16.294,0,0,1,6.64,6.354,7.368,7.368,0,0,1-.584,7.927c-.665.87-1.585,1.9-.933,2.779.989,1.331,4.4.572,5.185,1.977a2.81,2.81,0,0,1,.106,1.455c0,1.474,1.424,2.792,3.152,3.469a17.577,17.577,0,0,0,5.67.932,4.9,4.9,0,0,0,.143-3.668,1.467,1.467,0,0,1-.143-.833,2,2,0,0,1,.622-.8c2.083-1.965,1.641-4.856.392-7.187s-3.19-4.47-3.911-6.926a3.518,3.518,0,0,1,.622-3.606,12.554,12.554,0,0,1,1.784-1.306,6.783,6.783,0,0,0,2.487-3.109c.578-1.617.491-3.563,2.195-4.632s3.911-.721,5.708-1.411A6.117,6.117,0,0,0,237.338,565.593Z" transform="translate(-109.282 -242.124)" fill="#464353"/>
    <circle id="Ellipse_29" data-name="Ellipse 29" cx="10.34" cy="10.34" r="10.34" transform="translate(170.436 316.518)" fill="#fbbebe"/>
    <path id="Path_530" data-name="Path 530" d="M352.2,574a13.4,13.4,0,0,0,8.58,6L360,582.826c-1.343,4.862-2.86,10.01-6.615,13.38a6.255,6.255,0,0,0-1.051-4.837,18.318,18.318,0,0,0-3.507-3.668l-5.95-5.179a1.624,1.624,0,0,1-.448-.5,1.518,1.518,0,0,1,0-1.132c.759-2.363,2.922-3.836,4.676-5.428a16.494,16.494,0,0,0,2.356-2.742C350.684,571.044,351.449,572.741,352.2,574Z" transform="translate(-162.142 -247.605)" fill="#fbbebe"/>
    <path id="Path_531" data-name="Path 531" d="M357.509,590a5.6,5.6,0,0,1-.3,2.282,1.6,1.6,0,0,1-1.865.957c.218-.491-.354-1.051-.889-.989a1.672,1.672,0,0,0-1.181,1,3.731,3.731,0,0,0-.342,2.313c.168.982.734,1.921.584,2.9-.118.815-.721,1.629-.4,2.394a3.843,3.843,0,0,0,.771.92,2.611,2.611,0,0,1-.28,3.581l8.083.155a5.67,5.67,0,0,0,1,3.923A24.7,24.7,0,0,0,381.1,621.471a1.6,1.6,0,0,0-.385,2.45,2.267,2.267,0,0,0,2.587.149,19.627,19.627,0,0,0,2.22-1.66,6.783,6.783,0,0,1,4.551-1.244c1.013.093,1.99.417,3,.473,2.984.162,5.552-1.99,8.406-2.866,2.1-.622,4.464-.622,6.218-1.952a2.465,2.465,0,0,0,1.156-2.4,3.912,3.912,0,0,0-.87-1.405,25.023,25.023,0,0,1-2.332-4.352,25.982,25.982,0,0,0-5.826-7.8,51.416,51.416,0,0,0-5.77-4.383,9.77,9.77,0,0,0-1.567-.939,16.049,16.049,0,0,1-2.139-.871,11.932,11.932,0,0,1-2.22-2.487c-1.6-1.865-4.054-2.717-6.025-4.184-1.318-.982-2.487-2.276-4.06-2.754-.765-.23-1.586-.249-2.35-.479-1.741-.529-3.009-2.077-4.719-2.7a19.086,19.086,0,0,0-4.271-.547,9.949,9.949,0,0,1-4.39-1.66,5.279,5.279,0,0,0-1.418-.833c-2.158-.622-2.332,3.37-2.537,4.763A39.931,39.931,0,0,0,357.509,590Z" transform="translate(-166.178 -250.278)" fill="#3f3d56"/>
    <path id="Path_532" data-name="Path 532" d="M345.539,614.436c.361,3.923-2.605,7.728-1.741,11.577.187.821.535,1.6.665,2.425.361,2.282-1,4.439-2.3,6.348l-11.192,16.377a9.95,9.95,0,0,1-1.592,1.971c-2.139,1.9-5.335,1.7-8.139,2.269a13.932,13.932,0,0,0-5.453,2.412.354.354,0,0,0-.068.485,4.676,4.676,0,0,0,4.054,1.9c.292.386,0,.957-.4,1.244-.622.416-1.424.528-1.542,1.542a1.729,1.729,0,0,0,.2,1.026,3.184,3.184,0,0,0,1.959,1.355c3.861,1.181,8.033-.9,10.924-3.73s4.974-6.385,7.809-9.264c1.573-1.592,3.357-2.953,4.974-4.5a58.775,58.775,0,0,0,8.164-10.57,11.765,11.765,0,0,0,1.766-3.6c.3-1.275.162-2.63.51-3.892.448-1.66,1.66-2.984,2.674-4.352a14.464,14.464,0,0,0,3.04-9.426,9.029,9.029,0,0,0-5.509-7.815,4.931,4.931,0,0,0-3.109-.187,7.409,7.409,0,0,0-3.146,2.487l-2.12,2.45a5.82,5.82,0,0,0-1.243,1.865,1.958,1.958,0,0,0,.435,2.083" transform="translate(-152.027 -261.279)" fill="#fbbebe"/>
    <path id="Path_533" data-name="Path 533" d="M368.409,592.419c-1.467.087-3.109.23-4.122,1.244a5.757,5.757,0,0,0-1.032,1.629,16.093,16.093,0,0,0-2.058,6.472,29.189,29.189,0,0,0,.746,5.409c.23,1.5-.354,3.028-.466,4.545a31.032,31.032,0,0,0,5.869-2.257,19.623,19.623,0,0,1,3.438-1.784c1.747-.584,4.694.417,6.348,1.244.093-1.169-.783-3.2-.69-4.352a4.769,4.769,0,0,1,.261-1.449,8.637,8.637,0,0,1,.877-1.4,5.726,5.726,0,0,0-.516-6.721c-1.474-1.66-3.786-2.282-5.994-2.543a26.225,26.225,0,0,0-4.191-.143" transform="translate(-169.308 -255.292)" fill="#3f3d56"/>
    <path id="Path_534" data-name="Path 534" d="M319.756,554.138l-.236-1.946c1.635.417,3.183-.964,4.228-2.4s2.008-3.109,3.594-3.73c1.934-.727,3.979.435,5.826,1.393a18.237,18.237,0,0,0,6.684,2.213,4.727,4.727,0,0,1,1.107.18c1.2.429,1.772,1.934,1.946,3.3a12.952,12.952,0,0,0,.715,4.041c.454.92,1.243,1.61,1.691,2.487,1.243,2.443.044,5.788,1.38,8.188l-3.314-3.034c-.3-.28-.734-.572-1.063-.336s-.286.622-.4.914a1.735,1.735,0,0,1-2.356.858,6.461,6.461,0,0,1-2.108-1.928,12.883,12.883,0,0,0-5.26-3.985,6.721,6.721,0,0,0-5.565.329c-1.548.877-2.68,2.91-4.576,2.978-2.6.1-3.681-4.738-4.881-6.647a2.356,2.356,0,0,0,.684-2.935C318.034,554.02,319.719,553.839,319.756,554.138Z" transform="translate(-152.594 -237.659)" fill="#464353"/>
    <path id="Path_538" data-name="Path 538" d="M289.109,676H269.164a1.244,1.244,0,0,0-1.243,1.244V697.2a1.243,1.243,0,0,0,1.243,1.243h9.948v-8.885h-2.68v-3.27h2.729v-2.419a4.26,4.26,0,0,1,4.595-4.47c1.243,0,2.574.093,2.879.137v3.022h-2.058c-1.405,0-1.679.665-1.679,1.648v2.083h3.351l-.435,3.27h-2.922v8.879h6.217a1.244,1.244,0,0,0,1.244-1.244V677.244A1.243,1.243,0,0,0,289.109,676Z" transform="translate(107.611 -484.948)" fill="#ff9f26"/>
    <path id="Path_539" data-name="Path 539" d="M572.827,445.865a4.682,4.682,0,0,1,4.669,4.669v9.326a4.682,4.682,0,0,1-4.669,4.669H563.5a4.688,4.688,0,0,1-3.3-1.368,4.633,4.633,0,0,1-1.374-3.3v-9.326a4.682,4.682,0,0,1,4.676-4.669h9.326m0-1.865H563.5a6.56,6.56,0,0,0-6.541,6.541v9.326a6.56,6.56,0,0,0,6.541,6.541h9.326a6.559,6.559,0,0,0,6.541-6.516v-9.326A6.566,6.566,0,0,0,572.827,444Z" transform="translate(-243.679 -198.993)" fill="#ff9f26"/>
    <path id="Path_540" data-name="Path 540" d="M577.645,452.82a1.393,1.393,0,1,1,.991-.408,1.4,1.4,0,0,1-.991.408Zm-6.05.914a3.731,3.731,0,1,1-3.73,3.73,3.731,3.731,0,0,1,3.73-3.73m0-1.865a5.6,5.6,0,1,0,5.6,5.6A5.6,5.6,0,0,0,571.6,451.869Z" transform="translate(-247.102 -201.264)" fill="#ff9f26"/>
    <path id="Path_542" data-name="Path 542" d="M541.985,260a13.057,13.057,0,0,0-5.247,25.063,11.64,11.64,0,0,1,.224-3c.255-1.063,1.685-7.131,1.685-7.131a4.974,4.974,0,0,1-.423-2.064c0-1.94,1.125-3.389,2.524-3.389a1.752,1.752,0,0,1,1.766,1.965c0,1.194-.765,2.984-1.156,4.638a2.021,2.021,0,0,0,2.064,2.518c2.487,0,4.147-3.183,4.147-6.957,0-2.866-1.934-5.005-5.44-5.005a6.218,6.218,0,0,0-6.441,6.261,3.762,3.762,0,0,0,.864,2.568.622.622,0,0,1,.187.727c-.062.242-.205.821-.267,1.051a.454.454,0,0,1-.659.33c-1.828-.746-2.68-2.748-2.68-4.974,0-3.731,3.109-8.17,9.326-8.17,4.974,0,8.282,3.612,8.282,7.492,0,5.129-2.854,8.966-7.063,8.966a3.731,3.731,0,0,1-3.19-1.629s-.765,3.009-.926,3.594a10.784,10.784,0,0,1-1.312,2.8,13.246,13.246,0,0,0,3.73.535,13.094,13.094,0,1,0,0-26.188Z" transform="translate(-232.99 -129.131)" fill="#ff9f26"/>
    <path id="Path_543" data-name="Path 543" d="M716.616,731.207c-.5-2.133-.808-4-.808-4a8.283,8.283,0,0,0-.926-4.06v-.584h0v-4.29a14.178,14.178,0,0,1,1.082-2.245c.771-1.343,0-6.28,0-6.28s-2.86-6.957-2.17-11.372-5.869-19.6-5.869-19.6a19.364,19.364,0,0,1,.622-4.352,3.144,3.144,0,0,0,.081-.908.672.672,0,0,0,0-.112v.037c-.1-2.91-2.4-8.369-2.4-8.369l.311-10.4a30.617,30.617,0,0,0-.926-14.369c-.839-2.873-1.374-5.167-1.716-6.945-.037-.2-.075-.392-.106-.578,4.93-.752,8.7-1.38,8.7-1.38s-2.86-11.969-4.794-14.064-3.476-8.674-3.476-8.674-1.007-8.456.622-10.924,1.865-6.734,1.865-6.734,3.73-2.692,4.172-3.892a19.71,19.71,0,0,0,1.243-5.31c0-1.424-.466-2.692-.311-3.444s-1.082-3.588-.46-4.937a3.613,3.613,0,0,0,.242-1.3.08.08,0,0,0,0-.037h0a18.481,18.481,0,0,0-.329-3.513,9.946,9.946,0,0,0-3.668-1.965l-.081-.317-.211-.839a2.843,2.843,0,0,0-.367-.218v-1.554l.578-2.736c1.144-4.744-5.2-5.453-5.2-5.453a3.345,3.345,0,0,0-1.8-1.579c-1.244-.448-.211,7.15.385,7.635a24.74,24.74,0,0,1,2.487,3.917h0l.112.193a2.529,2.529,0,0,0-.292.3l.242,1.648.037.255a6.773,6.773,0,0,0-1.013,1.722,3.675,3.675,0,0,1,.926,2.7,8.454,8.454,0,0,0,.385,3.289c-.068-.081-.883-.964-1.7-.746s-3.109.9-3.109.9-1.7.3-1.548.671-1.156,2.021-1.156,2.021l-4.57-4.352c-.05-.131-.093-.261-.137-.392a10.452,10.452,0,0,1-.392-1.865,10.166,10.166,0,0,0,1.455-.466,3.153,3.153,0,0,0,1.244-.808,4.938,4.938,0,0,0,.734-1.971,27.358,27.358,0,0,1,1.7-3.78,12.3,12.3,0,0,0,.883-6.746,4.489,4.489,0,0,0-.7-1.99c-.746-1.026-2.1-1.443-3.109-2.263s-1.616-2.064-2.767-2.68a5.453,5.453,0,0,0-3.469-.3,18.542,18.542,0,0,0-6.472,2.35,3.328,3.328,0,0,1-2.17.715,2.929,2.929,0,0,1-1.561-1.144.305.305,0,0,1,0-.068l-.056-.056a8.188,8.188,0,0,0-.709,3.42v.734a1.374,1.374,0,0,1,0,.162h0a1.09,1.09,0,0,1-.037.242,1.759,1.759,0,0,1-.423.622,2.755,2.755,0,0,0-.373.51.553.553,0,0,1,.062-.187,2.7,2.7,0,0,0-.479,1.436,1.43,1.43,0,0,0,.348,1.032,4.971,4.971,0,0,0,.74.622,8.712,8.712,0,0,0-.131,1.517,8.842,8.842,0,0,0,4.3,7.542l.155.392a10.874,10.874,0,0,1,.827,4.974.841.841,0,0,1-.056.367l-.162.187h0s-7.548.075-9.326-1.536-4.483,3.93-4.483,3.93-2.7.528-3.245,0-3.731-.075-3.731-.075a6.839,6.839,0,0,0-4.713-1.716A13.845,13.845,0,0,0,652,574.848h0l-.087-.031h0a3.869,3.869,0,0,0-1.7-.211s-3.731-3.071-4.788-4.713-6.217-7.753-6.261-7.784v-.292l-.062-.889a3.458,3.458,0,0,1-.46.044,1.08,1.08,0,0,0-.106-.311,16.792,16.792,0,0,0-1.094-2.487s0-1.119.33-1.4-.137-4.4-.137-4.4-3.345-7.815-6.336-1.983c0,0-5.664,3.774-.914,8.176,0,0,1.865.914,2.164,1.641.18.473.821,1.8,1.244,2.674l.193.392-.056.044.075.734v.286c-.9.5-1.5,1.007-1.355,1.393a8.181,8.181,0,0,1,.541,2.021s6.572,8.226,7.424,11.745c0,0,17.62,10.47,23.415,11.223l-1,5.235a41.433,41.433,0,0,0-.23,4.265c.075,1.119-.7,6.217-.7,6.217s-1.007,7.461-1.865,8.524-.7,5.54-.7,5.54a37.372,37.372,0,0,1-1.156,6.354,16.147,16.147,0,0,0-.23,6.36s-2.941,6.734,4.1,2.17c0,0,3.451-.211,7.461-.348v2.046c-.05,3.855-.075,9.171.1,13.194.311,7.107,2.487,21.14,2.487,21.14v7.063a9.893,9.893,0,0,0-.2,2.021,13.1,13.1,0,0,0,1.9,7.076l.541,4.713a19.527,19.527,0,0,1,1.293,4.974,2.462,2.462,0,0,1-.056.448,3.341,3.341,0,0,0-.062.721c-.068,2.139,1.243,7.262,1.243,7.262s.081,5.161.852,5.459c.659.255-.883,2.978-1.343,3.731a1.234,1.234,0,0,1-.031-.149c-.056.1-.093.155-.093.155a3.628,3.628,0,0,0-.242,1.306,1.865,1.865,0,0,0,.858,1.815c1.467.9,2.257,1.648,1.013,1.946a12.317,12.317,0,0,0-1.362.286c0-.056-.05-.118-.068-.174a.833.833,0,0,0-.485.864,3.824,3.824,0,0,0,.466,1.747,18.66,18.66,0,0,0,2.089,3.818l.622-.068a2.931,2.931,0,0,1-.348.622,2.4,2.4,0,0,1-.87.771,2.788,2.788,0,0,1-1.057.367,2.947,2.947,0,0,0-2.189,1.063c-.771.995-1.243,2.356.267,3.55l5.527,1.9s9.507,1.243,9-.9-.808-4-.808-4a8.439,8.439,0,0,0-.777-3.786,3.73,3.73,0,0,0-.336-.56l.336-.037s.7-4.713,1.623-5.6c.218-.205.267-.367.211-.491.1-.255-.143-.4-.454-.491l-.068.187a4.666,4.666,0,0,0-.92-.1s-.311-2.487.69-3.37a.951.951,0,0,0,.2-.734,4.22,4.22,0,0,0-.106-1.007l-.037.062a35.906,35.906,0,0,0-2.22-5.8,7.171,7.171,0,0,1,.541-3.146c.615-.9-.075-12.193-.075-12.193s.23-5.459-.466-8,.852-5.54.852-5.54v-.2s-.037-.336-.093-.864v.056c-.155-1.449-.448-4.066-.665-5.272-.311-1.722.075-9.948.075-9.948l1.393-3.513,2.487,6.056,2.624,8.083a6.869,6.869,0,0,1,1.337,3.432v.255a4.02,4.02,0,0,0,0,.541,4.824,4.824,0,0,0,.8,2.879s.7,3.818,1.778,4.787a4.31,4.31,0,0,1,1.082,2.841s1.312,5.54,1.934,6.51c.522.821.547,3.071.541,3.731h0v.205s.18,1.977.174,3.643v.578a5.79,5.79,0,0,1-.162,1.343v-.2a13.841,13.841,0,0,0-.4,3.451c-.037,1.99.267,4.352,1.474,5.726,2.089,2.394,3.4,2.1,3.4,2.1s-1.007,2.991-2.245,3.594a.754.754,0,0,0-.131.081.346.346,0,0,0-.031-.174,1.461,1.461,0,0,0-.361,1.119,8.009,8.009,0,0,0,1.53,4.433,2.449,2.449,0,0,0,1.045.622l-.193.118a4.386,4.386,0,0,1-.429.205,2.024,2.024,0,0,1-.622.162,2.947,2.947,0,0,0-2.189,1.063c-.771.995-1.244,2.356.267,3.55l5.527,1.9S717.1,733.37,716.616,731.207Z" transform="translate(-270.955 -238.963)" fill="url(#linear-gradient)"/>
    <path id="Path_544" data-name="Path 544" d="M707.988,841.82l-5.353-1.9c-1.474-1.194-1-2.555-.255-3.55a2.816,2.816,0,0,1,2.114-1.063,2.617,2.617,0,0,0,1.026-.367,2.424,2.424,0,0,0,.846-.771,3.937,3.937,0,0,0,.622-2.071s5.876-1.716,7.461,0a4.39,4.39,0,0,1,.715,1.045,8.7,8.7,0,0,1,.746,3.786s.3,1.865.783,4S707.988,841.82,707.988,841.82Z" transform="translate(-298.641 -346.044)" fill="#2d293d"/>
    <path id="Path_545" data-name="Path 545" d="M750.1,837.618l-5.347-1.9c-1.48-1.194-1.007-2.556-.261-3.544a2.811,2.811,0,0,1,2.12-1.069,1.93,1.93,0,0,0,.622-.162,3.158,3.158,0,0,0,.41-.205,3.384,3.384,0,0,0,1.461-2.841s5.869-1.722,7.461,0a4.165,4.165,0,0,1,.559.765,8.543,8.543,0,0,1,.9,4.066s.3,1.865.783,4S750.1,837.618,750.1,837.618Z" transform="translate(-314.637 -344.454)" fill="#2d293d"/>
    <path id="Path_546" data-name="Path 546" d="M717.309,832.1a4.39,4.39,0,0,1,.715,1.045h0l-8.8,1.02a3.936,3.936,0,0,0,.622-2.07S715.7,830.379,717.309,832.1Z" transform="translate(-301.498 -346.044)" opacity="0.1"/>
    <path id="Path_547" data-name="Path 547" d="M759.221,828.611v1.648c-1.368,2.257-7.99,1.766-9.911.622a3.135,3.135,0,0,0,.41-.205,3.384,3.384,0,0,0,1.461-2.841s5.869-1.722,7.461,0A4.164,4.164,0,0,1,759.221,828.611Z" transform="translate(-316.727 -344.432)" opacity="0.1"/>
    <path id="Path_548" data-name="Path 548" d="M739.732,764.938a14.693,14.693,0,0,0-1.051,2.244V773.1c-1.492,2.487-9.276,1.648-10.321.3s-2.17-4.862-.976-5.459,2.17-3.594,2.17-3.594-1.243.3-3.289-2.1-1.418-7.7-1.045-8.978,0-5.534,0-5.534.075-2.991-.522-3.967-1.865-6.51-1.865-6.51a4.419,4.419,0,0,0-1.044-2.841c-1.045-.976-1.722-4.788-1.722-4.788a4.905,4.905,0,0,1-.746-3.214,6.544,6.544,0,0,0-1.275-3.892L715.5,714.44l-2.394-6.062-1.343,3.513s-.379,8.232-.075,9.948.746,6.28.746,6.28-1.5,3-.821,5.54.448,8,.448,8,.672,11.3.075,12.2a7.216,7.216,0,0,0-.522,3.109s3.065,6.584,2.089,7.461-.672,3.37-.672,3.37,2.1,0,1.2.9-1.573,5.6-1.573,5.6l-9.059,1.144a19.151,19.151,0,0,1-2.027-3.818c-1.194-2.767.224-2.487,1.43-2.767s.441-1.045-.982-1.946-.622-2.916-.622-2.916,2.17-3.668,1.424-3.967-.827-5.459-.827-5.459-1.492-6.137-1.119-7.778-1.2-5.6-1.2-5.6l-.522-4.713a12.957,12.957,0,0,1-1.617-8.916v-7.281s-2.1-14.064-2.4-21.14c-.186-4.551-.137-10.763-.075-14.642.037-2.17.075-3.612.075-3.612l32.331-3.364a26.789,26.789,0,0,0,.591,4.8c.33,1.772.846,4.072,1.654,6.945a31.586,31.586,0,0,1,.9,14.362l-.3,10.4s2.841,6.958,2.245,9.326a19.746,19.746,0,0,0-.622,4.352s6.36,15.189,5.689,19.6,2.1,11.341,2.1,11.341S740.479,763.62,739.732,764.938Z" transform="translate(-296.158 -287.865)" fill="#464353"/>
    <path id="Path_549" data-name="Path 549" d="M737.22,754.642l9.811-1.312S741.485,759.013,737.22,754.642Z" transform="translate(-312.135 -316.54)" opacity="0.05"/>
    <path id="Path_550" data-name="Path 550" d="M749.661,737.87s.342,3.476-1.791,4.788C747.87,742.657,751.681,742.061,749.661,737.87Z" transform="translate(-316.168 -310.692)" opacity="0.1"/>
    <path id="Path_551" data-name="Path 551" d="M742.722,720.06s-8.22,6.771-11.192,6.218S742.722,720.06,742.722,720.06Z" transform="translate(-309.821 -303.956)" opacity="0.1"/>
    <path id="Path_552" data-name="Path 552" d="M713.686,760.55s-6.218,1.424-6.429,3.93S713.686,760.55,713.686,760.55Z" transform="translate(-300.747 -319.271)" opacity="0.1"/>
    <path id="amazon-icon" d="M.054,20.925q.135-.216.431-.027a28.728,28.728,0,0,0,14.669,3.91,29.02,29.02,0,0,0,10.435-1.968q.135-.054.391-.162t.364-.162a.48.48,0,0,1,.634.162q.229.324-.148.593-.485.351-1.24.809a20.21,20.21,0,0,1-5.177,2.13,21.807,21.807,0,0,1-5.582.755A21.6,21.6,0,0,1,6.876,25.5,21.9,21.9,0,0,1,.162,21.356.368.368,0,0,1,0,21.086.29.29,0,0,1,.054,20.925ZM8.17,13.24a5.442,5.442,0,0,1,.917-3.182,5.658,5.658,0,0,1,2.508-2,13.567,13.567,0,0,1,3.586-.89q.728-.081,2.373-.216V6.5a4.8,4.8,0,0,0-.378-2.319,2.021,2.021,0,0,0-1.78-.809h-.216a2.951,2.951,0,0,0-1.537.566,2.21,2.21,0,0,0-.836,1.348.685.685,0,0,1-.539.62l-3.1-.378Q8.71,5.42,8.71,5.042a.792.792,0,0,1,.027-.189,5.168,5.168,0,0,1,2.252-3.559A8.451,8.451,0,0,1,15.181,0h.674a6.815,6.815,0,0,1,4.8,1.591,5.138,5.138,0,0,1,.5.58,5.224,5.224,0,0,1,.364.553,2.829,2.829,0,0,1,.243.7q.108.458.162.634A3.851,3.851,0,0,1,22,4.813q.027.58.027.688v6.525a3.867,3.867,0,0,0,.2,1.281,3.336,3.336,0,0,0,.391.836q.189.256.62.822a.807.807,0,0,1,.162.431.466.466,0,0,1-.216.378q-2.238,1.941-2.427,2.1a.751.751,0,0,1-.782.054q-.378-.324-.661-.62t-.4-.431a6.022,6.022,0,0,1-.391-.526q-.27-.391-.378-.526a6.621,6.621,0,0,1-2.966,2.049,8.14,8.14,0,0,1-2.265.27,4.725,4.725,0,0,1-3.411-1.281A4.79,4.79,0,0,1,8.17,13.24Zm4.638-.539a2.555,2.555,0,0,0,.526,1.685,1.744,1.744,0,0,0,1.416.634,1.378,1.378,0,0,0,.229-.027,1.377,1.377,0,0,1,.2-.027,2.74,2.74,0,0,0,1.753-1.456,4.22,4.22,0,0,0,.445-1.119,5.124,5.124,0,0,0,.162-.984q.013-.377.013-1.24V9.492a9.824,9.824,0,0,0-2.373.216A2.891,2.891,0,0,0,12.808,12.7Zm11.325,8.683a.845.845,0,0,1,.162-.216,4.232,4.232,0,0,1,1.294-.62,8.791,8.791,0,0,1,2-.3,1.61,1.61,0,0,1,.512.027q1.213.108,1.456.4a.883.883,0,0,1,.108.485v.189a6.147,6.147,0,0,1-.512,2.225,5.178,5.178,0,0,1-1.429,2.063.407.407,0,0,1-.243.108.239.239,0,0,1-.108-.027q-.162-.081-.081-.3a10.29,10.29,0,0,0,1-3.263.691.691,0,0,0-.108-.431q-.27-.324-1.51-.324-.458,0-1.079.054-.674.081-1.24.162a.312.312,0,0,1-.216-.054.088.088,0,0,1-.027-.108A.207.207,0,0,1,24.133,21.383Z" transform="translate(398.558 300.437) rotate(45)" fill="#ff9f26"/>
    <path id="Path_553" data-name="Path 553" d="M715.694,810.72s-8.823,1.648-6.317,2.773A42.782,42.782,0,0,0,716,815.508S718.841,815.657,715.694,810.72Z" transform="translate(-301.387 -338.248)" opacity="0.05"/>
    <g id="Group_2" data-name="Group 2" transform="translate(398.818 392.739)" opacity="0.05">
      <path id="Path_554" data-name="Path 554" d="M706.092,817.221a1.747,1.747,0,0,1-.808-1.281l-.087.162s-.827,2.014.622,2.916c.162.1.317.205.46.3.261-.05.547-.087.815-.156C708.275,818.893,707.516,818.141,706.092,817.221Z" transform="translate(-698.741 -732.961)"/>
      <path id="Path_555" data-name="Path 555" d="M724.814,816.142c.242-.224.23-.8.087-1.542a4.172,4.172,0,0,0-.5,2.17A1.661,1.661,0,0,1,724.814,816.142Z" transform="translate(-706.091 -732.454)"/>
      <path id="Path_556" data-name="Path 556" d="M722.5,757.22a10.292,10.292,0,0,0-.622,2.748,10.857,10.857,0,0,1,.684-1.865A5.569,5.569,0,0,0,722.5,757.22Z" transform="translate(-705.14 -710.75)"/>
      <path id="Path_557" data-name="Path 557" d="M755.292,750.4a3.556,3.556,0,0,0,.081-.821c-.112.56-.186,1.082-.242,1.536C755.18,750.879,755.229,750.643,755.292,750.4Z" transform="translate(-717.717 -707.86)"/>
      <path id="Path_558" data-name="Path 558" d="M722.415,798.99a4.707,4.707,0,0,0,.224-1.66,5.478,5.478,0,0,0-.429,2.1A2.017,2.017,0,0,1,722.415,798.99Z" transform="translate(-705.265 -725.922)"/>
      <path id="Path_559" data-name="Path 559" d="M717.7,822.68a29.929,29.929,0,0,0-1.026,4.595l-9.047,1.051a18.741,18.741,0,0,1-2.027-3.818,6.662,6.662,0,0,1-.255-.659c-.541.249-.758.808-.044,2.487a18.52,18.52,0,0,0,2.027,3.811l9.04-1.051s.678-4.713,1.573-5.6C718.385,823.022,718.106,822.8,717.7,822.68Z" transform="translate(-698.698 -735.51)"/>
      <path id="Path_560" data-name="Path 560" d="M702.009,756.214s.075,5.167.821,5.465h0c.379-.852.622-1.66.292-1.8-.746-.3-.821-5.459-.821-5.459s-1.5-6.137-1.119-7.784-1.2-5.6-1.2-5.6l-.522-4.713a12.983,12.983,0,0,1-1.648-8.9v-7.268s-2.1-14.064-2.394-21.171c-.193-4.551-.137-10.763-.075-14.642V682.48h-.255s-.037,1.436-.075,3.612c-.062,3.874-.118,10.091.075,14.642.3,7.107,2.394,21.171,2.394,21.171v7.256a12.94,12.94,0,0,0,1.685,8.978l.522,4.713s1.573,3.961,1.194,5.6S702.009,756.214,702.009,756.214Z" transform="translate(-694.956 -682.48)"/>
      <path id="Path_561" data-name="Path 561" d="M748.044,826.346a8.7,8.7,0,0,1-1.43-3.556c-.927.833.137,4.072,1.132,5.353s8.829,2.17,10.327-.3v-1.424C756.045,828.423,749.038,827.621,748.044,826.346Z" transform="translate(-714.361 -735.552)"/>
      <path id="Path_562" data-name="Path 562" d="M766.784,814.868a14.949,14.949,0,0,0-1.045,2.245v1.051c.168-.385.41-.9.746-1.5a4.532,4.532,0,0,0,.33-1.865Z" transform="translate(-721.73 -732.53)"/>
      <path id="Path_563" data-name="Path 563" d="M747.265,810.085a14.4,14.4,0,0,0,.74-1.778s-1.243.3-3.3-2.1c-1.467-1.741-1.548-5.03-1.343-7.181-.373,1.275-.976,6.584,1.045,8.978A5.273,5.273,0,0,0,747.265,810.085Z" transform="translate(-713.122 -726.565)"/>
      <path id="Path_564" data-name="Path 564" d="M735.562,765.117a41.079,41.079,0,0,1,.149,4.433c.05-.292.106-.529.149-.7.379-1.243,0-5.534,0-5.534s.075-3-.522-3.967-1.865-6.51-1.865-6.51A4.419,4.419,0,0,0,732.429,750c-1.045-.976-1.722-4.787-1.722-4.787a4.906,4.906,0,0,1-.752-3.214,6.557,6.557,0,0,0-1.244-3.892l-2.543-8.083L723.743,724l-1.349,3.513s0,.441-.044,1.138l1.094-2.854,2.394,6.056,2.543,8.083a6.4,6.4,0,0,1,1.244,3.886A4.918,4.918,0,0,0,730.4,747s.671,3.811,1.716,4.787a4.44,4.44,0,0,1,1.051,2.841s1.244,5.534,1.865,6.51S735.562,765.117,735.562,765.117Z" transform="translate(-705.318 -698.185)"/>
    </g>
    <path id="Path_565" data-name="Path 565" d="M749.221,564.5l-.56,2.736.031,1.244v.9l-3.109.323-.348-.622h0a26.453,26.453,0,0,0-2.425-3.917c-.578-.485-1.6-8.083-.373-7.629a3.258,3.258,0,0,1,1.741,1.573S750.328,559.748,749.221,564.5Z" transform="translate(-313.893 -242.077)" fill="#ffcdd3"/>
    <path id="Path_566" data-name="Path 566" d="M750.787,575.789l-3.109.323-.348-.622h0a2.748,2.748,0,0,1,3.444-.566Z" transform="translate(-315.965 -248.532)" opacity="0.1"/>
    <path id="Path_567" data-name="Path 567" d="M751.453,577.433l-4.11.958-.087-.622-.236-1.648a2.829,2.829,0,0,1,3.985-.547l.205.839Z" transform="translate(-315.849 -248.701)" fill="#dce6f2"/>
    <path id="Path_568" data-name="Path 568" d="M640.847,561.248l-4.39,2.363-.4-.833c-.423-.877-1.045-2.195-1.244-2.667-.261-.727-2.1-1.648-2.1-1.648-4.6-4.4.877-8.17.877-8.17,2.9-5.838,6.137,1.977,6.137,1.977s.448,4.122.131,4.4-.317,1.405-.317,1.405a17.091,17.091,0,0,1,1.063,2.487C640.779,560.993,640.847,561.248,640.847,561.248Z" transform="translate(-271.743 -238.52)" fill="#ffcdd3"/>
    <path id="Path_569" data-name="Path 569" d="M644,568.808l-4.39,2.363-.4-.833c.622-.516,2.817-2.3,3.538-2.22a5.149,5.149,0,0,0,1.044,0C643.929,568.554,644,568.808,644,568.808Z" transform="translate(-274.899 -246.09)" opacity="0.1"/>
    <path id="Path_570" data-name="Path 570" d="M644.525,570.321l-4.937,2.431-.1-1.063-.068-.727s2.86-2.456,3.731-2.363a4.581,4.581,0,0,0,1.293,0l.056.889Z" transform="translate(-274.98 -246.274)" fill="#dce6f2"/>
    <path id="Path_571" data-name="Path 571" d="M723.494,587.778s-21.531,2.431-17.508,1.125c2.8-.914,3.917-2.692,4.153-4.669a11.372,11.372,0,0,0-.8-4.974,21.614,21.614,0,0,0-1.927-3.892s16.458-9.053,13.169-.821a12.909,12.909,0,0,0-.933,3.9,10.988,10.988,0,0,0,.417,3.942A11.758,11.758,0,0,0,723.494,587.778Z" transform="translate(-300.093 -247.242)" fill="#ffcdd3"/>
    <path id="Path_572" data-name="Path 572" d="M721.749,574.541a12.908,12.908,0,0,0-.933,3.9c-1.555,1.3-3.252,1.243-5.434,1.243-1.679,0-3.538.41-4.875-.4a21.628,21.628,0,0,0-1.927-3.892S725.038,566.309,721.749,574.541Z" transform="translate(-301.262 -247.228)" opacity="0.1"/>
    <circle id="Ellipse_30" data-name="Ellipse 30" cx="8.903" cy="8.903" r="8.903" transform="translate(404.924 315.201)" fill="#ffcdd3"/>
    <path id="Path_573" data-name="Path 573" d="M723.494,594.084s-21.531,2.431-17.508,1.125c2.8-.914,3.917-2.692,4.153-4.669a11.685,11.685,0,0,1,4.607-2.443,6.423,6.423,0,0,1,3.9-.062,5.2,5.2,0,0,1,1.418.622A11.757,11.757,0,0,0,723.494,594.084Z" transform="translate(-300.093 -253.556)" opacity="0.1"/>
    <path id="Path_574" data-name="Path 574" d="M751.6,578.211l-4.11.958-.087-.622a3.631,3.631,0,0,1,3.954-1.355Z" transform="translate(-315.993 -249.48)" opacity="0.1"/>
    <path id="Path_575" data-name="Path 575" d="M644.566,570.863l-4.937,2.431-.1-1.063a36.336,36.336,0,0,1,4.974-2.2Z" transform="translate(-275.021 -246.818)" opacity="0.1"/>
    <path id="Path_576" data-name="Path 576" d="M728.084,682.27c-8.338,1.312-20.207,3.028-22.091,2.456-1.561-.479-6.547-.429-10.893-.28.037-2.17.075-3.612.075-3.612l32.331-3.364a26.781,26.781,0,0,0,.578,4.8Z" transform="translate(-296.173 -287.613)" opacity="0.1"/>
    <path id="Path_577" data-name="Path 577" d="M714.585,639.807s-27.457,4.713-30.4,3.811-18.074.081-18.074.081c-6.808,4.557-3.961-2.17-3.961-2.17a16.223,16.223,0,0,1,.224-6.361,38.954,38.954,0,0,0,1.119-6.36s-.149-4.489.671-5.534,1.8-8.53,1.8-8.53.752-5.086.678-6.218.224-4.259.224-4.259l.97-5.241c-5.6-.746-22.669-11.223-22.669-11.223-.821-3.513-7.181-11.745-7.181-11.745a8.665,8.665,0,0,0-.522-2.021c-.448-1.194,6.286-3.587,6.286-3.587s5.011,6.137,6.056,7.778a34.233,34.233,0,0,0,4.638,4.713,3.625,3.625,0,0,1,1.648.218h.087a13.271,13.271,0,0,1,3.345,1.921,6.485,6.485,0,0,1,4.564,1.722s3.071-.448,3.594.075,3.109,0,3.109,0,2.624-5.534,4.352-3.93,9.022,1.536,9.022,1.536c.976-1.293,3.339-2.22,4.825-2.7a6.423,6.423,0,0,1,3.9-.062,4.826,4.826,0,0,1,1.542.746l4.427,4.352s1.243-1.648,1.125-2.021,1.5-.672,1.5-.672,2.17-.672,2.991-.9,1.579.672,1.641.746a8.759,8.759,0,0,1-.373-3.289,3.73,3.73,0,0,0-.9-2.692c2.642-6.392,8.555-.983,8.555-.983s.672,3.513.075,4.862.622,4.191.448,4.937.3,2.021.3,3.438a20.454,20.454,0,0,1-1.194,5.316c-.454,1.194-4.041,3.886-4.041,3.886s-.224,4.265-1.8,6.734-.622,10.924-.622,10.924,1.492,6.584,3.364,8.7S714.585,639.807,714.585,639.807Z" transform="translate(-274.337 -247.099)" fill="#3f3d56"/>
    <path id="Path_578" data-name="Path 578" d="M694.873,600.079s-.821-2.487-1.573-2.7a17.69,17.69,0,0,1-2.17-.97l.485-.92s2.81.771,3.258,1.592S694.873,600.079,694.873,600.079Z" transform="translate(-294.619 -256.485)" opacity="0.1"/>
    <path id="Path_579" data-name="Path 579" d="M668.862,592.892c-.149.752-6.8,1.424-6.8,1.424l3.364-3.376h0l.087.031h0A13.271,13.271,0,0,1,668.862,592.892Z" transform="translate(-283.581 -254.756)" opacity="0.1"/>
    <circle id="Ellipse_31" data-name="Ellipse 31" cx="0.597" cy="0.597" r="0.597" transform="translate(365.438 327.298)" fill="#575988"/>
    <circle id="Ellipse_32" data-name="Ellipse 32" cx="0.597" cy="0.597" r="0.597" transform="translate(366.201 328.495)" fill="#575988"/>
    <circle id="Ellipse_33" data-name="Ellipse 33" cx="0.597" cy="0.597" r="0.597" transform="translate(366.951 329.593)" fill="#575988"/>
    <circle id="Ellipse_34" data-name="Ellipse 34" cx="0.597" cy="0.597" r="0.597" transform="translate(367.733 330.79)" fill="#575988"/>
    <circle id="Ellipse_35" data-name="Ellipse 35" cx="0.485" cy="0.485" r="0.485" transform="translate(438.185 330.834)" fill="#575988"/>
    <circle id="Ellipse_36" data-name="Ellipse 36" cx="0.485" cy="0.485" r="0.485" transform="translate(438.259 331.938)" fill="#575988"/>
    <circle id="Ellipse_37" data-name="Ellipse 37" cx="0.485" cy="0.485" r="0.485" transform="translate(438.321 333.036)" fill="#575988"/>
    <path id="Path_580" data-name="Path 580" d="M697.21,635.47c-.068-.087,16.787,21.208,29.888,8.9C727.1,644.373,706.406,647.177,697.21,635.47Z" transform="translate(-296.969 -271.677)" opacity="0.1"/>
    <path id="Path_581" data-name="Path 581" d="M681.63,653.28s10.091.274,11.148,3.177v3.022a1.933,1.933,0,0,1-1.865,0c-1.02-.547-7.119-3.65-9.27-2.158Z" transform="translate(-291.021 -278.428)" opacity="0.1"/>
    <path id="Path_582" data-name="Path 582" d="M681.93,653.28s9.65.261,10.663,3.028v2.885a1.865,1.865,0,0,1-1.8,0c-.976-.528-6.839-3.482-8.866-2.058Z" transform="translate(-291.135 -278.427)" fill="#3f3d56"/>
    <path id="Path_583" data-name="Path 583" d="M690.49,618a32.506,32.506,0,0,0,3.911,6.709,26.2,26.2,0,0,0,6.13,5.919S690.658,619.411,690.49,618Z" transform="translate(-294.385 -265.044)" opacity="0.1"/>
    <path id="Path_584" data-name="Path 584" d="M685.18,599.18s1.685,7.268,6.019,9.737Z" transform="translate(-292.362 -257.894)" opacity="0.1"/>
    <path id="Path_585" data-name="Path 585" d="M680.908,600.359c-.043-.137-1.5,5.745,5.6,9C686.5,609.361,683.507,608.342,680.908,600.359Z" transform="translate(-290.682 -258.34)" opacity="0.1"/>
    <path id="Path_586" data-name="Path 586" d="M751.9,592.517a52.084,52.084,0,0,1,4.477,3.364S754.031,592.368,751.9,592.517Z" transform="translate(-317.701 -255.353)" opacity="0.1"/>
    <path id="Path_587" data-name="Path 587" d="M710.677,572.214a1.9,1.9,0,0,0,.69,1.206,1.945,1.945,0,0,0,.839.186c2.717.168,5.54.286,8.083-.758a3.01,3.01,0,0,0,1.244-.814,4.843,4.843,0,0,0,.659-1.959,30.509,30.509,0,0,1,1.648-3.78,12.7,12.7,0,0,0,.877-6.79,4.545,4.545,0,0,0-.678-1.99c-.721-1.026-2.033-1.442-2.984-2.263s-1.567-2.07-2.674-2.686a5.2,5.2,0,0,0-3.357-.3,17.737,17.737,0,0,0-6.267,2.357,3.1,3.1,0,0,1-2.1.715,2.878,2.878,0,0,1-1.542-1.181,8.277,8.277,0,0,0-.665,3.873,1.147,1.147,0,0,1-.417,1.206c-.672.777-1.088,2.008-.429,2.792.292.342.734.529,1.013.877.5.622.33,1.523.317,2.325a1.243,1.243,0,0,0,.2.79,1.157,1.157,0,0,0,1.1.261,3.007,3.007,0,0,1,1.169-.112,1.971,1.971,0,0,1,1.02.783A14.214,14.214,0,0,1,710.677,572.214Z" transform="translate(-299.26 -240.044)" fill="#2d293d"/>
    <g id="Group_3" data-name="Group 3" transform="translate(403.959 319.499)" opacity="0.1">
      <path id="Path_588" data-name="Path 588" d="M721.719,575.871a2.941,2.941,0,0,1-1.244.808c-2.487,1.051-5.335.926-8.046.759a1.828,1.828,0,0,1-.839-.187,1.865,1.865,0,0,1-.7-1.2,13.875,13.875,0,0,0-2.269-5.266,1.939,1.939,0,0,0-1.02-.783,3.01,3.01,0,0,0-1.169.112,1.156,1.156,0,0,1-1.1-.261,1.206,1.206,0,0,1-.193-.79c0-.8.18-1.7-.323-2.325-.28-.348-.721-.535-1.013-.877a1.753,1.753,0,0,1-.168-1.791,2.047,2.047,0,0,0-.131,2.388c.292.342.734.529,1.014.877.5.622.329,1.523.317,2.325a1.243,1.243,0,0,0,.2.79,1.15,1.15,0,0,0,1.1.261,3.007,3.007,0,0,1,1.169-.112,1.971,1.971,0,0,1,1.02.784,14.118,14.118,0,0,1,2.269,5.266,1.9,1.9,0,0,0,.69,1.206,1.947,1.947,0,0,0,.839.187c2.717.168,5.54.286,8.083-.759a3.051,3.051,0,0,0,1.243-.814,2.368,2.368,0,0,0,.386-.721A.449.449,0,0,1,721.719,575.871Z" transform="translate(-703.176 -564.07)"/>
    </g>
    <path id="Path_589" data-name="Path 589" d="M712.62,593s11.123,1.474,12.124-.2" transform="translate(-302.794 -255.458)" opacity="0.1"/>
    <path id="Path_590" data-name="Path 590" d="M747.4,585.72s6.174,0,7.536,2.325" transform="translate(-315.998 -252.773)" opacity="0.1"/>
    <path id="amazon-icon-2" data-name="amazon-icon" d="M.054,20.925q.135-.216.431-.027a28.728,28.728,0,0,0,14.669,3.91,29.02,29.02,0,0,0,10.435-1.968q.135-.054.391-.162t.364-.162a.48.48,0,0,1,.634.162q.229.324-.148.593-.485.351-1.24.809a20.21,20.21,0,0,1-5.177,2.13,21.807,21.807,0,0,1-5.582.755A21.6,21.6,0,0,1,6.876,25.5,21.9,21.9,0,0,1,.162,21.356.368.368,0,0,1,0,21.086.29.29,0,0,1,.054,20.925ZM8.17,13.24a5.442,5.442,0,0,1,.917-3.182,5.658,5.658,0,0,1,2.508-2,13.567,13.567,0,0,1,3.586-.89q.728-.081,2.373-.216V6.5a4.8,4.8,0,0,0-.378-2.319,2.021,2.021,0,0,0-1.78-.809h-.216a2.951,2.951,0,0,0-1.537.566,2.21,2.21,0,0,0-.836,1.348.685.685,0,0,1-.539.62l-3.1-.378Q8.71,5.42,8.71,5.042a.792.792,0,0,1,.027-.189,5.168,5.168,0,0,1,2.252-3.559A8.451,8.451,0,0,1,15.181,0h.674a6.815,6.815,0,0,1,4.8,1.591,5.138,5.138,0,0,1,.5.58,5.224,5.224,0,0,1,.364.553,2.829,2.829,0,0,1,.243.7q.108.458.162.634A3.851,3.851,0,0,1,22,4.813q.027.58.027.688v6.525a3.867,3.867,0,0,0,.2,1.281,3.336,3.336,0,0,0,.391.836q.189.256.62.822a.807.807,0,0,1,.162.431.466.466,0,0,1-.216.378q-2.238,1.941-2.427,2.1a.751.751,0,0,1-.782.054q-.378-.324-.661-.62t-.4-.431a6.022,6.022,0,0,1-.391-.526q-.27-.391-.378-.526a6.621,6.621,0,0,1-2.966,2.049,8.14,8.14,0,0,1-2.265.27,4.725,4.725,0,0,1-3.411-1.281A4.79,4.79,0,0,1,8.17,13.24Zm4.638-.539a2.555,2.555,0,0,0,.526,1.685,1.744,1.744,0,0,0,1.416.634,1.378,1.378,0,0,0,.229-.027,1.377,1.377,0,0,1,.2-.027,2.74,2.74,0,0,0,1.753-1.456,4.22,4.22,0,0,0,.445-1.119,5.124,5.124,0,0,0,.162-.984q.013-.377.013-1.24V9.492a9.824,9.824,0,0,0-2.373.216A2.891,2.891,0,0,0,12.808,12.7Zm11.325,8.683a.845.845,0,0,1,.162-.216,4.232,4.232,0,0,1,1.294-.62,8.791,8.791,0,0,1,2-.3,1.61,1.61,0,0,1,.512.027q1.213.108,1.456.4a.883.883,0,0,1,.108.485v.189a6.147,6.147,0,0,1-.512,2.225,5.178,5.178,0,0,1-1.429,2.063.407.407,0,0,1-.243.108.239.239,0,0,1-.108-.027q-.162-.081-.081-.3a10.29,10.29,0,0,0,1-3.263.691.691,0,0,0-.108-.431q-.27-.324-1.51-.324-.458,0-1.079.054-.674.081-1.24.162a.312.312,0,0,1-.216-.054.088.088,0,0,1-.027-.108A.207.207,0,0,1,24.133,21.383Z" transform="translate(587.135 344.229)" fill="#ff9f26"/>
    <path id="amazon-icon-3" data-name="amazon-icon" d="M.054,20.925q.135-.216.431-.027a28.728,28.728,0,0,0,14.669,3.91,29.02,29.02,0,0,0,10.435-1.968q.135-.054.391-.162t.364-.162a.48.48,0,0,1,.634.162q.229.324-.148.593-.485.351-1.24.809a20.21,20.21,0,0,1-5.177,2.13,21.807,21.807,0,0,1-5.582.755A21.6,21.6,0,0,1,6.876,25.5,21.9,21.9,0,0,1,.162,21.356.368.368,0,0,1,0,21.086.29.29,0,0,1,.054,20.925ZM8.17,13.24a5.442,5.442,0,0,1,.917-3.182,5.658,5.658,0,0,1,2.508-2,13.567,13.567,0,0,1,3.586-.89q.728-.081,2.373-.216V6.5a4.8,4.8,0,0,0-.378-2.319,2.021,2.021,0,0,0-1.78-.809h-.216a2.951,2.951,0,0,0-1.537.566,2.21,2.21,0,0,0-.836,1.348.685.685,0,0,1-.539.62l-3.1-.378Q8.71,5.42,8.71,5.042a.792.792,0,0,1,.027-.189,5.168,5.168,0,0,1,2.252-3.559A8.451,8.451,0,0,1,15.181,0h.674a6.815,6.815,0,0,1,4.8,1.591,5.138,5.138,0,0,1,.5.58,5.224,5.224,0,0,1,.364.553,2.829,2.829,0,0,1,.243.7q.108.458.162.634A3.851,3.851,0,0,1,22,4.813q.027.58.027.688v6.525a3.867,3.867,0,0,0,.2,1.281,3.336,3.336,0,0,0,.391.836q.189.256.62.822a.807.807,0,0,1,.162.431.466.466,0,0,1-.216.378q-2.238,1.941-2.427,2.1a.751.751,0,0,1-.782.054q-.378-.324-.661-.62t-.4-.431a6.022,6.022,0,0,1-.391-.526q-.27-.391-.378-.526a6.621,6.621,0,0,1-2.966,2.049,8.14,8.14,0,0,1-2.265.27,4.725,4.725,0,0,1-3.411-1.281A4.79,4.79,0,0,1,8.17,13.24Zm4.638-.539a2.555,2.555,0,0,0,.526,1.685,1.744,1.744,0,0,0,1.416.634,1.378,1.378,0,0,0,.229-.027,1.377,1.377,0,0,1,.2-.027,2.74,2.74,0,0,0,1.753-1.456,4.22,4.22,0,0,0,.445-1.119,5.124,5.124,0,0,0,.162-.984q.013-.377.013-1.24V9.492a9.824,9.824,0,0,0-2.373.216A2.891,2.891,0,0,0,12.808,12.7Zm11.325,8.683a.845.845,0,0,1,.162-.216,4.232,4.232,0,0,1,1.294-.62,8.791,8.791,0,0,1,2-.3,1.61,1.61,0,0,1,.512.027q1.213.108,1.456.4a.883.883,0,0,1,.108.485v.189a6.147,6.147,0,0,1-.512,2.225,5.178,5.178,0,0,1-1.429,2.063.407.407,0,0,1-.243.108.239.239,0,0,1-.108-.027q-.162-.081-.081-.3a10.29,10.29,0,0,0,1-3.263.691.691,0,0,0-.108-.431q-.27-.324-1.51-.324-.458,0-1.079.054-.674.081-1.24.162a.312.312,0,0,1-.216-.054.088.088,0,0,1-.027-.108A.207.207,0,0,1,24.133,21.383Z" transform="translate(133 389.997)" fill="#fff"/>
  </g>
</svg>
