<svg xmlns="http://www.w3.org/2000/svg" width="55.639" height="49.999" viewBox="0 0 55.639 49.999">
  <g id="Group_158" data-name="Group 158" transform="translate(-4685 192)">
    <path id="Path_1892" data-name="Path 1892" d="M362.5,513h-47.19l4.108,7.383,3.864,6.946h8.449l-1.573-2.828-2.292-4.118h30.525l-2.294,4.123-1.563,2.822h8.452l3.856-6.946L370.952,513Z" transform="translate(4369.687 -705.002)" fill="#222f3e"/>
    <path id="Path_1893" data-name="Path 1893" d="M373.317,573.017,366.151,586,360.2,575.3l-1.3-2.338,4.533.031v1.247l3.314-1.913,3.313-1.913-2.694-1.556-.619-.358-1.077-.621-2.237-1.291v1.291H347.615l.007.008.017.029.227.408.128.231,1.453,2.611,2.3,4.133.054.1,10.125,18.2,1.507,2.709,2.718,4.883,2.716-4.883,1.507-2.709,11.391-20.578Z" transform="translate(4346.667 -743.189)" fill="#ff9f26"/>
  </g>
</svg>
